G04 #@! TF.FileFunction,Copper,L3,Inr,Signal*
%FSLAX46Y46*%
G04 Gerber Fmt 4.6, Leading zero omitted, Abs format (unit mm)*
G04 Created by KiCad (PCBNEW 4.0.7-e2-6376~58~ubuntu17.04.1) date Thu May 31 18:31:02 2018*
%MOMM*%
%LPD*%
G01*
G04 APERTURE LIST*
%ADD10C,0.100000*%
%ADD11C,0.600000*%
%ADD12C,2.400000*%
%ADD13R,1.700000X1.700000*%
%ADD14O,1.700000X1.700000*%
%ADD15R,1.000000X1.000000*%
%ADD16O,1.000000X1.000000*%
%ADD17C,0.600000*%
%ADD18C,1.000000*%
%ADD19C,0.250000*%
%ADD20C,0.254000*%
G04 APERTURE END LIST*
D10*
D11*
X182904000Y-82166000D03*
X182142000Y-82166000D03*
X177062000Y-90929000D03*
X172363000Y-90802000D03*
X177379500Y-107185000D03*
X177951000Y-107439000D03*
X178586000Y-107439000D03*
X179221000Y-107439000D03*
X177189000Y-104772000D03*
X177824000Y-104772000D03*
X178459000Y-104772000D03*
X179094000Y-104772000D03*
X179729000Y-104772000D03*
X180364000Y-104581500D03*
X183539000Y-107121500D03*
X183539000Y-106486500D03*
X183539000Y-105216500D03*
X183539000Y-104581500D03*
X183539000Y-105851500D03*
X172236000Y-105216500D03*
X171601000Y-105216500D03*
X171601000Y-107693000D03*
X169696000Y-108201000D03*
X160171000Y-106359500D03*
X160615500Y-106804000D03*
X161060000Y-107248500D03*
X161568000Y-107756500D03*
X168362500Y-104962500D03*
X166711500Y-105724500D03*
X167283000Y-105407000D03*
X166076500Y-105724500D03*
X182904000Y-97596500D03*
X182269000Y-97596500D03*
X181634000Y-97596500D03*
X180999000Y-97596500D03*
X177506500Y-91373500D03*
X183158000Y-91564000D03*
X183539000Y-82166000D03*
X183539000Y-82801000D03*
X181507000Y-82166000D03*
X159726500Y-90230500D03*
X159726500Y-90865500D03*
X159726500Y-91564000D03*
X171728000Y-90802000D03*
X182523000Y-91691000D03*
X160361500Y-91564000D03*
X160996500Y-91564000D03*
X161631500Y-91564000D03*
X162266500Y-91564000D03*
X162901500Y-91564000D03*
X168997500Y-88833500D03*
X168362500Y-88833500D03*
X167727500Y-88833500D03*
X160298000Y-87119000D03*
X162203000Y-87119000D03*
X162838000Y-87119000D03*
X163473000Y-87119000D03*
X164108000Y-87119000D03*
X164743000Y-87119000D03*
X165378000Y-87119000D03*
X166013000Y-87119000D03*
X160552000Y-103375000D03*
X162457000Y-103375000D03*
X163092000Y-103375000D03*
X163727000Y-103375000D03*
X164362000Y-103375000D03*
X164997000Y-103375000D03*
X165632000Y-103375000D03*
X166267000Y-103375000D03*
X166267000Y-104264000D03*
X165441500Y-89595500D03*
X166076500Y-89595500D03*
X166711500Y-89595500D03*
X167092500Y-88960500D03*
X163536500Y-91564000D03*
X164171500Y-91564000D03*
X160298000Y-88008000D03*
X111500000Y-114000000D03*
X112500000Y-114000000D03*
X113500000Y-114000000D03*
X114500000Y-114000000D03*
X115500000Y-114000000D03*
X116500000Y-114000000D03*
X110500000Y-113000000D03*
X109500000Y-113000000D03*
X109500000Y-114000000D03*
X109500000Y-115000000D03*
X109500000Y-116000000D03*
X109500000Y-117000000D03*
X109500000Y-118000000D03*
X109500000Y-119000000D03*
X109500000Y-120000000D03*
X109500000Y-121000000D03*
X109500000Y-122000000D03*
X109500000Y-123000000D03*
X110500000Y-123000000D03*
X111500000Y-123000000D03*
X112500000Y-123000000D03*
X113500000Y-123000000D03*
X114500000Y-123000000D03*
X115500000Y-123000000D03*
X116500000Y-123000000D03*
X116500000Y-122000000D03*
X115500000Y-122000000D03*
X114500000Y-122000000D03*
X113500000Y-122000000D03*
X112500000Y-122000000D03*
X111500000Y-122000000D03*
X116500000Y-113000000D03*
X115500000Y-113000000D03*
X114500000Y-113000000D03*
X113500000Y-113000000D03*
X112500000Y-113000000D03*
X111500000Y-113000000D03*
X110500000Y-114000000D03*
X110500000Y-115000000D03*
X110500000Y-116000000D03*
X110500000Y-117000000D03*
X110500000Y-118000000D03*
X110500000Y-119000000D03*
X110500000Y-120000000D03*
X110500000Y-121000000D03*
X110500000Y-122000000D03*
X165632000Y-104264000D03*
X161822000Y-103375000D03*
X161187000Y-103375000D03*
X160552000Y-104264000D03*
X164997000Y-104264000D03*
X164362000Y-104264000D03*
X163727000Y-104264000D03*
X163092000Y-104264000D03*
X162457000Y-104264000D03*
X161822000Y-104264000D03*
X161187000Y-104264000D03*
X183745000Y-68807000D03*
X176760000Y-68807000D03*
X176125000Y-68807000D03*
X175490000Y-68807000D03*
X180570000Y-68807000D03*
X182475000Y-68807000D03*
X183110000Y-68807000D03*
X181840000Y-68807000D03*
X181205000Y-68807000D03*
X179935000Y-68807000D03*
X179300000Y-68807000D03*
X178665000Y-68807000D03*
X178030000Y-68807000D03*
X177395000Y-68807000D03*
X183745000Y-70204000D03*
X176760000Y-70204000D03*
X176125000Y-70204000D03*
X175490000Y-70204000D03*
X180570000Y-70204000D03*
X182475000Y-70204000D03*
X183110000Y-70204000D03*
X181840000Y-70204000D03*
X181205000Y-70204000D03*
X179935000Y-70204000D03*
X179300000Y-70204000D03*
X178665000Y-70204000D03*
X178030000Y-70204000D03*
X177395000Y-70204000D03*
X166013000Y-88008000D03*
X161568000Y-87119000D03*
X160933000Y-87119000D03*
X165378000Y-88008000D03*
X164743000Y-88008000D03*
X164108000Y-88008000D03*
X163473000Y-88008000D03*
X162838000Y-88008000D03*
X162203000Y-88008000D03*
X161568000Y-88008000D03*
X160933000Y-88008000D03*
X178713000Y-91691000D03*
X177760500Y-88833500D03*
X178395500Y-88833500D03*
X181507000Y-83436000D03*
X181507000Y-84071000D03*
X181507000Y-84706000D03*
X181507000Y-85341000D03*
X183539000Y-83436000D03*
X183539000Y-84071000D03*
X183539000Y-84706000D03*
X183539000Y-85341000D03*
X179348000Y-91691000D03*
X179983000Y-91691000D03*
X180618000Y-91691000D03*
X181253000Y-91691000D03*
X181888000Y-91691000D03*
X183539000Y-91056000D03*
X183539000Y-90421000D03*
X183539000Y-89786000D03*
X183539000Y-89151000D03*
X183539000Y-88516000D03*
X183539000Y-87881000D03*
X183539000Y-87246000D03*
X183539000Y-86611000D03*
X183539000Y-85976000D03*
X181507000Y-85976000D03*
X180872000Y-86611000D03*
X179030500Y-88833500D03*
X177125500Y-88833500D03*
X171537500Y-88960500D03*
X170902500Y-89024000D03*
X172172500Y-88960500D03*
X164806500Y-89595500D03*
X164171500Y-89595500D03*
X163536500Y-89595500D03*
X162901500Y-89595500D03*
X162266500Y-89595500D03*
X161631500Y-89595500D03*
X160996500Y-89595500D03*
X160361500Y-89595500D03*
X159726500Y-89595500D03*
X164806500Y-91564000D03*
X165441500Y-91564000D03*
X166076500Y-91564000D03*
X166711500Y-91564000D03*
X167346500Y-91564000D03*
X167981500Y-91564000D03*
X168616500Y-91564000D03*
X169251500Y-91564000D03*
X171156500Y-91183000D03*
X183539000Y-97596500D03*
X183539000Y-98231500D03*
X183539000Y-98866500D03*
X183539000Y-99501500D03*
X183539000Y-100136500D03*
X183539000Y-100771500D03*
X183539000Y-101406500D03*
X183539000Y-102041500D03*
X183539000Y-102676500D03*
X183539000Y-103311500D03*
X183539000Y-103946500D03*
X182396000Y-107439000D03*
X181761000Y-107439000D03*
X181126000Y-107439000D03*
X180491000Y-107439000D03*
X179856000Y-107439000D03*
X159726500Y-105724500D03*
X160361500Y-105724500D03*
X160996500Y-105724500D03*
X161631500Y-105724500D03*
X162266500Y-105724500D03*
X162901500Y-105724500D03*
X163536500Y-105724500D03*
X164171500Y-105724500D03*
X164806500Y-105724500D03*
X165441500Y-105724500D03*
X170966000Y-105216500D03*
X168997500Y-104962500D03*
X167727500Y-104962500D03*
X172617000Y-107058000D03*
X171982000Y-107058000D03*
X169061000Y-108201000D03*
X168426000Y-108201000D03*
X167791000Y-108201000D03*
X167156000Y-108201000D03*
X166521000Y-108201000D03*
X165886000Y-108201000D03*
X165251000Y-108201000D03*
X164616000Y-108201000D03*
X163981000Y-108201000D03*
X163346000Y-108201000D03*
X162711000Y-108201000D03*
X162076000Y-108201000D03*
X180364000Y-97596500D03*
X180364000Y-98231500D03*
X180364000Y-98866500D03*
X180364000Y-99501500D03*
X180364000Y-100136500D03*
X180364000Y-100771500D03*
X180364000Y-101406500D03*
X180364000Y-102041500D03*
X180364000Y-102676500D03*
X180364000Y-103311500D03*
X180364000Y-103946500D03*
X170839000Y-94231000D03*
X178078000Y-91691000D03*
X181507000Y-82801000D03*
X179665500Y-88833500D03*
X180237000Y-88516000D03*
X180237000Y-87881000D03*
X180237000Y-87246000D03*
X180237000Y-86611000D03*
X181507000Y-86611000D03*
D12*
X173887000Y-105915000D03*
X175411000Y-105915000D03*
X175157000Y-89659000D03*
X173633000Y-89659000D03*
X122833000Y-96771000D03*
X121055000Y-96771000D03*
X119277000Y-96771000D03*
X119277000Y-94993000D03*
X119277000Y-93215000D03*
X121055000Y-93215000D03*
X122833000Y-93215000D03*
X122833000Y-94993000D03*
D13*
X110387000Y-72768000D03*
D14*
X110387000Y-70228000D03*
X112927000Y-72768000D03*
X112927000Y-70228000D03*
X115467000Y-72768000D03*
X115467000Y-70228000D03*
X118007000Y-72768000D03*
X118007000Y-70228000D03*
X120547000Y-72768000D03*
X120547000Y-70228000D03*
X123087000Y-72768000D03*
X123087000Y-70228000D03*
X125627000Y-72768000D03*
X125627000Y-70228000D03*
X128167000Y-72768000D03*
X128167000Y-70228000D03*
X130707000Y-72768000D03*
X130707000Y-70228000D03*
X133247000Y-72768000D03*
X133247000Y-70228000D03*
X135787000Y-72768000D03*
X135787000Y-70228000D03*
X138327000Y-72768000D03*
X138327000Y-70228000D03*
X140867000Y-72768000D03*
X140867000Y-70228000D03*
X143407000Y-72768000D03*
X143407000Y-70228000D03*
X145947000Y-72768000D03*
X145947000Y-70228000D03*
X148487000Y-72768000D03*
X148487000Y-70228000D03*
X151027000Y-72768000D03*
X151027000Y-70228000D03*
X153567000Y-72768000D03*
X153567000Y-70228000D03*
X156107000Y-72768000D03*
X156107000Y-70228000D03*
X158647000Y-72768000D03*
X158647000Y-70228000D03*
D12*
X121093100Y-94967600D03*
D15*
X141629000Y-90294000D03*
D16*
X141629000Y-91564000D03*
X141629000Y-92834000D03*
X141629000Y-94104000D03*
X141629000Y-95374000D03*
D13*
X157377000Y-89405000D03*
D14*
X154837000Y-89405000D03*
X157377000Y-86865000D03*
X154837000Y-86865000D03*
X157377000Y-84325000D03*
X154837000Y-84325000D03*
D11*
X108225449Y-83311551D03*
X133628000Y-106550000D03*
X110387000Y-107947000D03*
X134263000Y-81785000D03*
X137038999Y-90179899D03*
X179729000Y-83309000D03*
X134898000Y-97660000D03*
X113435000Y-110868000D03*
X131977000Y-109979000D03*
X130580000Y-79880000D03*
X115467000Y-78737000D03*
X107974000Y-88516000D03*
X108101000Y-82293000D03*
X108228000Y-106423000D03*
X128802000Y-108074000D03*
X123849000Y-108074000D03*
X116356000Y-108201000D03*
X112800000Y-108201000D03*
X107847000Y-102359000D03*
X107974000Y-101216000D03*
X115721000Y-81658000D03*
X117245000Y-81658000D03*
X121944000Y-81912000D03*
X127405000Y-82293000D03*
X134390000Y-101724000D03*
X102729026Y-84952173D03*
X111656999Y-87753999D03*
X106450000Y-85976000D03*
X130453000Y-100708000D03*
X136818990Y-109852000D03*
X111784000Y-97279000D03*
X111911000Y-96390000D03*
X146201000Y-99692000D03*
X130453000Y-95628000D03*
X119020099Y-85601727D03*
X120674000Y-85722000D03*
X120420000Y-104264000D03*
X136015197Y-87961367D03*
X132358000Y-84960000D03*
X137311000Y-98676000D03*
X141883000Y-98930000D03*
X125246000Y-104264000D03*
X129818000Y-88262000D03*
X180745000Y-121790000D03*
X153313000Y-123187000D03*
X147471000Y-123187000D03*
X139978000Y-123187000D03*
X171109000Y-94866000D03*
X185571000Y-121409000D03*
X185571000Y-110995000D03*
X185571000Y-113916000D03*
X185571000Y-116329000D03*
X185571000Y-118615000D03*
X112546000Y-93850000D03*
X127913000Y-80515000D03*
X136930000Y-123187000D03*
X153186000Y-114297000D03*
X147344000Y-114424000D03*
X150265000Y-123187000D03*
X127160990Y-108074000D03*
X134263000Y-123187000D03*
X140613000Y-107947000D03*
X145947000Y-107439000D03*
X128802000Y-111884000D03*
X123595000Y-112138000D03*
X130453000Y-97279000D03*
X130449929Y-96518151D03*
X124865000Y-121028000D03*
X130453000Y-93215000D03*
X130453000Y-91818000D03*
X108736000Y-110868000D03*
X135152000Y-80007000D03*
X110768000Y-78991000D03*
X181507000Y-114805000D03*
X149684009Y-105280000D03*
X146963000Y-87627000D03*
X156615000Y-96136000D03*
X147344000Y-90802000D03*
X111022000Y-82293000D03*
X117753000Y-77975000D03*
X105561000Y-96263000D03*
X104164000Y-100962000D03*
X106704000Y-110360000D03*
X120420000Y-110741000D03*
X127786000Y-110614000D03*
X136676000Y-91183000D03*
X122960000Y-78483000D03*
X111784000Y-100708000D03*
X122833000Y-85595000D03*
X122706000Y-108074000D03*
X115213000Y-109598000D03*
X106450000Y-104772000D03*
X135787000Y-104137000D03*
X113308000Y-80388000D03*
X103656000Y-86992000D03*
X137691998Y-111122000D03*
X139597000Y-98422000D03*
X139343000Y-95501000D03*
X131977000Y-115079002D03*
X133755000Y-85884002D03*
X138581000Y-83690000D03*
X106715510Y-87344700D03*
X105434000Y-77340000D03*
X105434000Y-78102000D03*
X105434000Y-76578000D03*
X140363412Y-104143823D03*
X140232000Y-110487000D03*
X137873886Y-100762886D03*
X136422000Y-93469000D03*
X146963000Y-89151000D03*
X154964000Y-76451000D03*
X129818000Y-115313000D03*
X123849000Y-76578000D03*
X139216000Y-77594000D03*
X122452000Y-116202000D03*
X127377991Y-78864000D03*
X174014000Y-113662000D03*
X141883000Y-100708000D03*
X152678000Y-104391000D03*
X155599000Y-93469000D03*
X144804000Y-91310000D03*
X178586000Y-98803000D03*
X120928000Y-77848000D03*
X105561000Y-93215000D03*
X104164000Y-97787000D03*
X115848000Y-110868000D03*
X123087000Y-110614000D03*
X122325000Y-80769000D03*
X121182000Y-108074000D03*
X113816000Y-109598000D03*
X114832000Y-80388000D03*
X170204000Y-103883000D03*
X172617000Y-109979000D03*
X169823000Y-87627000D03*
X172363000Y-93596000D03*
X182904000Y-118742000D03*
X182142000Y-113662000D03*
X176173000Y-119758000D03*
X175919000Y-114805000D03*
X103596638Y-76451000D03*
X111657000Y-88770000D03*
X103656000Y-80642000D03*
X109244008Y-89151000D03*
X103533519Y-77312883D03*
X103656000Y-82801000D03*
X103910000Y-84705990D03*
X108736000Y-89786006D03*
X103402000Y-78102000D03*
X148486082Y-90928082D03*
X148891442Y-94762173D03*
X146582000Y-75943000D03*
X149431989Y-92427487D03*
X149249000Y-90548000D03*
X147598000Y-76070000D03*
X149692524Y-94885988D03*
X150011000Y-90294000D03*
X148439956Y-76028057D03*
X151916000Y-90675000D03*
X152424000Y-92707000D03*
X148983963Y-75441477D03*
X128651745Y-81330041D03*
X127786000Y-83182000D03*
X128295559Y-85538041D03*
X129310000Y-80769000D03*
X129901757Y-81404000D03*
X129179423Y-85641104D03*
X129564000Y-90547999D03*
X135327670Y-85215187D03*
X136060051Y-85581051D03*
X130329246Y-90176990D03*
X134008998Y-91056000D03*
X137565000Y-88897000D03*
X138581000Y-97533000D03*
X137465827Y-94485251D03*
X130186097Y-89389889D03*
X139541486Y-84960000D03*
X152932000Y-90802000D03*
X152297000Y-96771000D03*
X146455000Y-94993000D03*
X145058000Y-94612000D03*
X128651401Y-109735254D03*
X126165603Y-103450995D03*
X129382925Y-109411385D03*
X127271686Y-103754801D03*
X129948400Y-109977298D03*
X128114253Y-103713483D03*
X152043000Y-109935736D03*
X153440000Y-108963000D03*
X138581000Y-103629002D03*
X136796727Y-105155835D03*
X150062005Y-96166603D03*
X145487818Y-102167847D03*
X136803000Y-106042004D03*
X139597008Y-102994000D03*
X130582552Y-107309450D03*
X129310000Y-103756000D03*
X149376000Y-95628000D03*
X144997058Y-101536058D03*
X141248000Y-97025000D03*
X130326000Y-98676000D03*
X147277855Y-97931340D03*
X133882000Y-97025000D03*
X147128668Y-97145362D03*
X142175798Y-97288990D03*
D17*
X179221000Y-83817000D02*
X166140000Y-83817000D01*
X166140000Y-83817000D02*
X162838000Y-87119000D01*
X179729000Y-83309000D02*
X179221000Y-83817000D01*
D18*
X106715510Y-87344700D02*
X104008700Y-87344700D01*
X103955999Y-87291999D02*
X103656000Y-86992000D01*
X104008700Y-87344700D02*
X103955999Y-87291999D01*
X131977000Y-115079002D02*
X133775002Y-113281000D01*
X133775002Y-113281000D02*
X135532998Y-113281000D01*
X135532998Y-113281000D02*
X137691998Y-111122000D01*
X139597000Y-96179264D02*
X139597000Y-98422000D01*
X139343000Y-95925264D02*
X139597000Y-96179264D01*
X139343000Y-95501000D02*
X139343000Y-95925264D01*
X133866001Y-84479999D02*
X133866001Y-85348737D01*
X138281001Y-83390001D02*
X134955999Y-83390001D01*
X134955999Y-83390001D02*
X133866001Y-84479999D01*
X133866001Y-85348737D02*
X133755000Y-85459738D01*
X133755000Y-85459738D02*
X133755000Y-85884002D01*
X138581000Y-83690000D02*
X138281001Y-83390001D01*
D19*
X170204000Y-103883000D02*
X170204000Y-107566000D01*
X170204000Y-107566000D02*
X172617000Y-109979000D01*
X169823000Y-87627000D02*
X169823000Y-91056000D01*
X169823000Y-91056000D02*
X172363000Y-93596000D01*
D17*
X182904000Y-118317736D02*
X182904000Y-118742000D01*
X182904000Y-114424000D02*
X182904000Y-118317736D01*
X182142000Y-113662000D02*
X182904000Y-114424000D01*
D19*
X175919000Y-114805000D02*
X175919000Y-119504000D01*
X175919000Y-119504000D02*
X176173000Y-119758000D01*
X103955999Y-80941999D02*
X103656000Y-80642000D01*
X109519015Y-86375193D02*
X107076800Y-83932978D01*
X109519015Y-86632015D02*
X109519015Y-86375193D01*
X111657000Y-88770000D02*
X109519015Y-86632015D01*
X107076800Y-83932978D02*
X106946978Y-83932978D01*
X106946978Y-83932978D02*
X103955999Y-80941999D01*
X103656000Y-79409412D02*
X103656000Y-80642000D01*
X103656000Y-79409412D02*
X104487010Y-78578402D01*
X104487010Y-78578402D02*
X104487010Y-77341372D01*
X104487010Y-77341372D02*
X103596638Y-76451000D01*
X109244008Y-88726736D02*
X109069004Y-88551732D01*
X109069004Y-86561593D02*
X106890400Y-84382989D01*
X109244008Y-89151000D02*
X109244008Y-88726736D01*
X109069004Y-88551732D02*
X109069004Y-86561593D01*
X106890400Y-84382989D02*
X105237989Y-84382989D01*
X105237989Y-84382989D02*
X103955999Y-83100999D01*
X103955999Y-83100999D02*
X103656000Y-82801000D01*
X103402000Y-82547000D02*
X103656000Y-82801000D01*
X103402000Y-82547000D02*
X102963010Y-82108010D01*
X103533519Y-77344519D02*
X103533519Y-77312883D01*
X102963010Y-82108010D02*
X102963010Y-79465992D01*
X102963010Y-79465992D02*
X104037000Y-78392002D01*
X104037000Y-78392002D02*
X104037000Y-77848000D01*
X104037000Y-77848000D02*
X103533519Y-77344519D01*
X104209999Y-85005989D02*
X103910000Y-84705990D01*
X104210019Y-85006009D02*
X104209999Y-85005989D01*
X108618993Y-86747993D02*
X106877009Y-85006009D01*
X108618993Y-89668999D02*
X108618993Y-86747993D01*
X108736000Y-89786006D02*
X108618993Y-89668999D01*
X103610001Y-84405991D02*
X103910000Y-84705990D01*
X102513000Y-83308990D02*
X103610001Y-84405991D01*
X103402000Y-78102000D02*
X102513000Y-78991000D01*
X102513000Y-78991000D02*
X102513000Y-83308990D01*
X106877009Y-85006009D02*
X104210019Y-85006009D01*
X148486082Y-91352346D02*
X148486082Y-90928082D01*
X148486082Y-94356813D02*
X148486082Y-91352346D01*
X148891442Y-94762173D02*
X148486082Y-94356813D01*
X145947000Y-75308000D02*
X146582000Y-75943000D01*
X115467000Y-75308000D02*
X145947000Y-75308000D01*
X112927000Y-72768000D02*
X115467000Y-75308000D01*
X149249000Y-92244498D02*
X149431989Y-92427487D01*
X149249000Y-90548000D02*
X149249000Y-92244498D01*
X147298001Y-75770001D02*
X147598000Y-76070000D01*
X146385989Y-74857989D02*
X147298001Y-75770001D01*
X117556989Y-74857989D02*
X146385989Y-74857989D01*
X115467000Y-72768000D02*
X117556989Y-74857989D01*
X150011000Y-90294000D02*
X150310999Y-90593999D01*
X150310999Y-94267513D02*
X149992523Y-94585989D01*
X150310999Y-90593999D02*
X150310999Y-94267513D01*
X149992523Y-94585989D02*
X149692524Y-94885988D01*
X148139957Y-75728058D02*
X148439956Y-76028057D01*
X119646978Y-74407978D02*
X146819877Y-74407978D01*
X118007000Y-72768000D02*
X119646978Y-74407978D01*
X146819877Y-74407978D02*
X148139957Y-75728058D01*
X151916000Y-91774736D02*
X151916000Y-90675000D01*
X152424000Y-92707000D02*
X152424000Y-92282736D01*
X152424000Y-92282736D02*
X151916000Y-91774736D01*
X124276967Y-73957967D02*
X147500453Y-73957967D01*
X148683964Y-75141478D02*
X148983963Y-75441477D01*
X147500453Y-73957967D02*
X148683964Y-75141478D01*
X123087000Y-72768000D02*
X124276967Y-73957967D01*
X128651745Y-82316255D02*
X128651745Y-81754305D01*
X127786000Y-83182000D02*
X128651745Y-82316255D01*
X128651745Y-81754305D02*
X128651745Y-81330041D01*
X129192998Y-81713792D02*
X129192998Y-84640602D01*
X129192998Y-84640602D02*
X128595558Y-85238042D01*
X129310000Y-81193264D02*
X129276747Y-81226517D01*
X129276747Y-81630043D02*
X129192998Y-81713792D01*
X129310000Y-80769000D02*
X129310000Y-81193264D01*
X128595558Y-85238042D02*
X128295559Y-85538041D01*
X129276747Y-81226517D02*
X129276747Y-81630043D01*
X129901757Y-84918770D02*
X129901757Y-81828264D01*
X129179423Y-85641104D02*
X129901757Y-84918770D01*
X129901757Y-81828264D02*
X129901757Y-81404000D01*
X135627669Y-84915188D02*
X136323150Y-84915188D01*
X129818001Y-90802000D02*
X129564000Y-90547999D01*
X135327670Y-85215187D02*
X135627669Y-84915188D01*
X136323150Y-84915188D02*
X136685998Y-85278036D01*
X136685998Y-85278036D02*
X136685998Y-85839002D01*
X136685998Y-85839002D02*
X131723000Y-90802000D01*
X131723000Y-90802000D02*
X129818001Y-90802000D01*
X131464112Y-90176990D02*
X135760052Y-85881050D01*
X130329246Y-90176990D02*
X131464112Y-90176990D01*
X135760052Y-85881050D02*
X136060051Y-85581051D01*
X137565000Y-88897000D02*
X137438000Y-88897000D01*
X137438000Y-88897000D02*
X135279000Y-91056000D01*
X135279000Y-91056000D02*
X134008998Y-91056000D01*
X138281001Y-97233001D02*
X138581000Y-97533000D01*
X137465827Y-96417827D02*
X138281001Y-97233001D01*
X137465827Y-94485251D02*
X137465827Y-96417827D01*
X130610361Y-89389889D02*
X130186097Y-89389889D01*
X134691012Y-86114731D02*
X131415854Y-89389889D01*
X134691012Y-84962763D02*
X134691012Y-86114731D01*
X138684260Y-84960000D02*
X138130261Y-84406001D01*
X135247774Y-84406001D02*
X134691012Y-84962763D01*
X131415854Y-89389889D02*
X130610361Y-89389889D01*
X138130261Y-84406001D02*
X135247774Y-84406001D01*
X139541486Y-84960000D02*
X138684260Y-84960000D01*
X152932000Y-92289998D02*
X152932000Y-90802000D01*
X152596999Y-94058001D02*
X153049001Y-93605999D01*
X153049001Y-93605999D02*
X153049001Y-92406999D01*
X153049001Y-92406999D02*
X152932000Y-92289998D01*
X152297000Y-96771000D02*
X152596999Y-96471001D01*
X152596999Y-96471001D02*
X152596999Y-94058001D01*
X145439000Y-94993000D02*
X146455000Y-94993000D01*
X145058000Y-94612000D02*
X145439000Y-94993000D01*
X127786000Y-108869853D02*
X128351402Y-109435255D01*
X128351402Y-109435255D02*
X128651401Y-109735254D01*
X127786000Y-105153000D02*
X127786000Y-108869853D01*
X126465602Y-103832602D02*
X127786000Y-105153000D01*
X126165603Y-103450995D02*
X126465602Y-103750994D01*
X126465602Y-103750994D02*
X126465602Y-103832602D01*
X128294000Y-106640998D02*
X129682924Y-108029922D01*
X129682924Y-109111386D02*
X129382925Y-109411385D01*
X129564000Y-109344000D02*
X129450310Y-109344000D01*
X129450310Y-109344000D02*
X129382925Y-109411385D01*
X129682924Y-108029922D02*
X129682924Y-109111386D01*
X128294000Y-104777115D02*
X128294000Y-106640998D01*
X127271686Y-103754801D02*
X128294000Y-104777115D01*
X128114253Y-103713483D02*
X128802000Y-104401230D01*
X130248399Y-107958987D02*
X130248399Y-109677299D01*
X128802000Y-106512588D02*
X130248399Y-107958987D01*
X128802000Y-104401230D02*
X128802000Y-106512588D01*
X130248399Y-109677299D02*
X129948400Y-109977298D01*
X153440000Y-108963000D02*
X153015736Y-108963000D01*
X153015736Y-108963000D02*
X152043000Y-109935736D01*
X138323560Y-103629002D02*
X138581000Y-103629002D01*
X136796727Y-105155835D02*
X138323560Y-103629002D01*
X138454000Y-103502000D02*
X138454000Y-103502002D01*
X138454000Y-103502002D02*
X138581000Y-103629002D01*
X150062005Y-96590867D02*
X150062005Y-96166603D01*
X145912082Y-102167847D02*
X150062005Y-98017924D01*
X145487818Y-102167847D02*
X145912082Y-102167847D01*
X150062005Y-98017924D02*
X150062005Y-96590867D01*
X137227264Y-106042004D02*
X136803000Y-106042004D01*
X139597008Y-103672260D02*
X137227264Y-106042004D01*
X139597008Y-102994000D02*
X139597008Y-103672260D01*
X130582552Y-105028552D02*
X130582552Y-106885186D01*
X129310000Y-103756000D02*
X130582552Y-105028552D01*
X130582552Y-106885186D02*
X130582552Y-107309450D01*
X149376000Y-96052264D02*
X149376000Y-95628000D01*
X144997058Y-101536058D02*
X145789944Y-101536058D01*
X145789944Y-101536058D02*
X149376000Y-97950002D01*
X149376000Y-97950002D02*
X149376000Y-96052264D01*
X141248000Y-97449264D02*
X141248000Y-97025000D01*
X141730076Y-97931340D02*
X141248000Y-97449264D01*
X147277855Y-97931340D02*
X141730076Y-97931340D01*
X130625999Y-98376001D02*
X130326000Y-98676000D01*
X131977000Y-97025000D02*
X130625999Y-98376001D01*
X133882000Y-97025000D02*
X131977000Y-97025000D01*
X142175798Y-97288990D02*
X142332169Y-97445361D01*
X142332169Y-97445361D02*
X146828669Y-97445361D01*
X146828669Y-97445361D02*
X147128668Y-97145362D01*
D20*
G36*
X166873000Y-82882000D02*
X166140000Y-82882000D01*
X165782191Y-82953173D01*
X165478855Y-83155855D01*
X162432724Y-86201986D01*
X162389799Y-86184162D01*
X162017833Y-86183838D01*
X161885600Y-86238476D01*
X161754799Y-86184162D01*
X161382833Y-86183838D01*
X161250600Y-86238476D01*
X161119799Y-86184162D01*
X160747833Y-86183838D01*
X160615600Y-86238476D01*
X160484799Y-86184162D01*
X160112833Y-86183838D01*
X159769057Y-86325883D01*
X159505808Y-86588673D01*
X159363162Y-86932201D01*
X159362838Y-87304167D01*
X159470080Y-87563714D01*
X159363162Y-87821201D01*
X159362838Y-88193167D01*
X159504883Y-88536943D01*
X159628138Y-88660414D01*
X159541333Y-88660338D01*
X159197557Y-88802383D01*
X158934308Y-89065173D01*
X158845935Y-89277998D01*
X158703252Y-89277998D01*
X158862000Y-89119250D01*
X158862000Y-88428690D01*
X158765327Y-88195301D01*
X158586698Y-88016673D01*
X158412223Y-87944403D01*
X158456147Y-87915054D01*
X158778054Y-87433285D01*
X158891093Y-86865000D01*
X158778054Y-86296715D01*
X158456147Y-85814946D01*
X158126974Y-85595000D01*
X158456147Y-85375054D01*
X158778054Y-84893285D01*
X158891093Y-84325000D01*
X158778054Y-83756715D01*
X158456147Y-83274946D01*
X157974378Y-82953039D01*
X157406093Y-82840000D01*
X157347907Y-82840000D01*
X156779622Y-82953039D01*
X156297853Y-83274946D01*
X156107000Y-83560578D01*
X155916147Y-83274946D01*
X155434378Y-82953039D01*
X154866093Y-82840000D01*
X154807907Y-82840000D01*
X154239622Y-82953039D01*
X153757853Y-83274946D01*
X153435946Y-83756715D01*
X153322907Y-84325000D01*
X153435946Y-84893285D01*
X153757853Y-85375054D01*
X154087026Y-85595000D01*
X153757853Y-85814946D01*
X153435946Y-86296715D01*
X153322907Y-86865000D01*
X153435946Y-87433285D01*
X153757853Y-87915054D01*
X154098553Y-88142702D01*
X153955642Y-88209817D01*
X153565355Y-88638076D01*
X153395524Y-89048110D01*
X153516845Y-89278000D01*
X154710000Y-89278000D01*
X154710000Y-89258000D01*
X154964000Y-89258000D01*
X154964000Y-89278000D01*
X157250000Y-89278000D01*
X157250000Y-89258000D01*
X157504000Y-89258000D01*
X157504000Y-89278000D01*
X157524000Y-89278000D01*
X157524000Y-89532000D01*
X157504000Y-89532000D01*
X157504000Y-90731250D01*
X157662750Y-90890000D01*
X158353309Y-90890000D01*
X158586698Y-90793327D01*
X158765327Y-90614699D01*
X158819519Y-90483869D01*
X158845976Y-90547900D01*
X158791662Y-90678701D01*
X158791338Y-91050667D01*
X158859127Y-91214729D01*
X158791662Y-91377201D01*
X158791338Y-91749167D01*
X158933383Y-92092943D01*
X159196173Y-92356192D01*
X159539701Y-92498838D01*
X159911667Y-92499162D01*
X160043900Y-92444524D01*
X160174701Y-92498838D01*
X160546667Y-92499162D01*
X160678900Y-92444524D01*
X160809701Y-92498838D01*
X161181667Y-92499162D01*
X161313900Y-92444524D01*
X161444701Y-92498838D01*
X161816667Y-92499162D01*
X161948900Y-92444524D01*
X162079701Y-92498838D01*
X162451667Y-92499162D01*
X162583900Y-92444524D01*
X162714701Y-92498838D01*
X163086667Y-92499162D01*
X163218900Y-92444524D01*
X163349701Y-92498838D01*
X163721667Y-92499162D01*
X163853900Y-92444524D01*
X163984701Y-92498838D01*
X164356667Y-92499162D01*
X164488900Y-92444524D01*
X164619701Y-92498838D01*
X164991667Y-92499162D01*
X165123900Y-92444524D01*
X165254701Y-92498838D01*
X165626667Y-92499162D01*
X165758900Y-92444524D01*
X165889701Y-92498838D01*
X166261667Y-92499162D01*
X166393900Y-92444524D01*
X166524701Y-92498838D01*
X166873000Y-92499141D01*
X166873000Y-104564737D01*
X166754057Y-104613883D01*
X166578250Y-104789383D01*
X166526333Y-104789338D01*
X166394100Y-104843976D01*
X166263299Y-104789662D01*
X165891333Y-104789338D01*
X165759100Y-104843976D01*
X165628299Y-104789662D01*
X165256333Y-104789338D01*
X165124100Y-104843976D01*
X164993299Y-104789662D01*
X164621333Y-104789338D01*
X164489100Y-104843976D01*
X164358299Y-104789662D01*
X163986333Y-104789338D01*
X163854100Y-104843976D01*
X163723299Y-104789662D01*
X163351333Y-104789338D01*
X163219100Y-104843976D01*
X163088299Y-104789662D01*
X162716333Y-104789338D01*
X162584100Y-104843976D01*
X162453299Y-104789662D01*
X162081333Y-104789338D01*
X161949100Y-104843976D01*
X161818299Y-104789662D01*
X161446333Y-104789338D01*
X161314100Y-104843976D01*
X161183299Y-104789662D01*
X160811333Y-104789338D01*
X160679100Y-104843976D01*
X160548299Y-104789662D01*
X160176333Y-104789338D01*
X160044100Y-104843976D01*
X159913299Y-104789662D01*
X159541333Y-104789338D01*
X159197557Y-104931383D01*
X158934308Y-105194173D01*
X158791662Y-105537701D01*
X158791338Y-105909667D01*
X158933383Y-106253443D01*
X159196173Y-106516692D01*
X159235848Y-106533167D01*
X159235838Y-106544667D01*
X159377883Y-106888443D01*
X159640673Y-107151692D01*
X159769615Y-107205234D01*
X159822383Y-107332943D01*
X160085173Y-107596192D01*
X160214115Y-107649734D01*
X160266883Y-107777443D01*
X160529673Y-108040692D01*
X160703594Y-108112911D01*
X160774883Y-108285443D01*
X161037673Y-108548692D01*
X161243266Y-108634062D01*
X161282883Y-108729943D01*
X161545673Y-108993192D01*
X161889201Y-109135838D01*
X162261167Y-109136162D01*
X162393400Y-109081524D01*
X162524201Y-109135838D01*
X162896167Y-109136162D01*
X163028400Y-109081524D01*
X163159201Y-109135838D01*
X163531167Y-109136162D01*
X163663400Y-109081524D01*
X163794201Y-109135838D01*
X164166167Y-109136162D01*
X164298400Y-109081524D01*
X164429201Y-109135838D01*
X164801167Y-109136162D01*
X164933400Y-109081524D01*
X165064201Y-109135838D01*
X165436167Y-109136162D01*
X165568400Y-109081524D01*
X165699201Y-109135838D01*
X166071167Y-109136162D01*
X166203400Y-109081524D01*
X166334201Y-109135838D01*
X166706167Y-109136162D01*
X166838400Y-109081524D01*
X166873000Y-109095891D01*
X166873000Y-110000000D01*
X166883006Y-110049410D01*
X166911447Y-110091035D01*
X166953841Y-110118315D01*
X167000000Y-110127000D01*
X171681871Y-110127000D01*
X171681838Y-110164167D01*
X171823883Y-110507943D01*
X172086673Y-110771192D01*
X172430201Y-110913838D01*
X172802167Y-110914162D01*
X173145943Y-110772117D01*
X173409192Y-110509327D01*
X173551838Y-110165799D01*
X173551872Y-110127000D01*
X185223288Y-110127000D01*
X185042057Y-110201883D01*
X184778808Y-110464673D01*
X184636162Y-110808201D01*
X184635838Y-111180167D01*
X184777883Y-111523943D01*
X185040673Y-111787192D01*
X185384201Y-111929838D01*
X185756167Y-111930162D01*
X186099943Y-111788117D01*
X186290000Y-111598391D01*
X186290000Y-113312811D01*
X186101327Y-113123808D01*
X185757799Y-112981162D01*
X185385833Y-112980838D01*
X185042057Y-113122883D01*
X184778808Y-113385673D01*
X184636162Y-113729201D01*
X184635838Y-114101167D01*
X184777883Y-114444943D01*
X185040673Y-114708192D01*
X185384201Y-114850838D01*
X185756167Y-114851162D01*
X186099943Y-114709117D01*
X186290000Y-114519391D01*
X186290000Y-115725811D01*
X186101327Y-115536808D01*
X185757799Y-115394162D01*
X185385833Y-115393838D01*
X185042057Y-115535883D01*
X184778808Y-115798673D01*
X184636162Y-116142201D01*
X184635838Y-116514167D01*
X184777883Y-116857943D01*
X185040673Y-117121192D01*
X185384201Y-117263838D01*
X185756167Y-117264162D01*
X186099943Y-117122117D01*
X186290000Y-116932391D01*
X186290000Y-118011811D01*
X186101327Y-117822808D01*
X185757799Y-117680162D01*
X185385833Y-117679838D01*
X185042057Y-117821883D01*
X184778808Y-118084673D01*
X184636162Y-118428201D01*
X184635838Y-118800167D01*
X184777883Y-119143943D01*
X185040673Y-119407192D01*
X185384201Y-119549838D01*
X185756167Y-119550162D01*
X186099943Y-119408117D01*
X186290000Y-119218391D01*
X186290000Y-120805811D01*
X186101327Y-120616808D01*
X185757799Y-120474162D01*
X185385833Y-120473838D01*
X185042057Y-120615883D01*
X184778808Y-120878673D01*
X184636162Y-121222201D01*
X184635838Y-121594167D01*
X184777883Y-121937943D01*
X185040673Y-122201192D01*
X185384201Y-122343838D01*
X185756167Y-122344162D01*
X185798333Y-122326740D01*
X185609439Y-122609439D01*
X184871023Y-123102833D01*
X183930069Y-123290000D01*
X154247911Y-123290000D01*
X154248162Y-123001833D01*
X154106117Y-122658057D01*
X153843327Y-122394808D01*
X153499799Y-122252162D01*
X153127833Y-122251838D01*
X152784057Y-122393883D01*
X152520808Y-122656673D01*
X152378162Y-123000201D01*
X152377910Y-123290000D01*
X151199911Y-123290000D01*
X151200162Y-123001833D01*
X151058117Y-122658057D01*
X150795327Y-122394808D01*
X150451799Y-122252162D01*
X150079833Y-122251838D01*
X149736057Y-122393883D01*
X149472808Y-122656673D01*
X149330162Y-123000201D01*
X149329910Y-123290000D01*
X148405911Y-123290000D01*
X148406162Y-123001833D01*
X148264117Y-122658057D01*
X148001327Y-122394808D01*
X147657799Y-122252162D01*
X147285833Y-122251838D01*
X146942057Y-122393883D01*
X146678808Y-122656673D01*
X146536162Y-123000201D01*
X146535910Y-123290000D01*
X140912911Y-123290000D01*
X140913162Y-123001833D01*
X140771117Y-122658057D01*
X140508327Y-122394808D01*
X140164799Y-122252162D01*
X139792833Y-122251838D01*
X139449057Y-122393883D01*
X139185808Y-122656673D01*
X139043162Y-123000201D01*
X139042910Y-123290000D01*
X137864911Y-123290000D01*
X137865162Y-123001833D01*
X137723117Y-122658057D01*
X137460327Y-122394808D01*
X137116799Y-122252162D01*
X136744833Y-122251838D01*
X136401057Y-122393883D01*
X136137808Y-122656673D01*
X135995162Y-123000201D01*
X135994910Y-123290000D01*
X135197911Y-123290000D01*
X135198162Y-123001833D01*
X135056117Y-122658057D01*
X134793327Y-122394808D01*
X134449799Y-122252162D01*
X134077833Y-122251838D01*
X133734057Y-122393883D01*
X133470808Y-122656673D01*
X133328162Y-123000201D01*
X133327910Y-123290000D01*
X117391985Y-123290000D01*
X117434838Y-123186799D01*
X117435162Y-122814833D01*
X117304931Y-122499649D01*
X117434838Y-122186799D01*
X117435162Y-121814833D01*
X117293117Y-121471057D01*
X117035677Y-121213167D01*
X123929838Y-121213167D01*
X124071883Y-121556943D01*
X124334673Y-121820192D01*
X124678201Y-121962838D01*
X125050167Y-121963162D01*
X125393943Y-121821117D01*
X125657192Y-121558327D01*
X125799838Y-121214799D01*
X125800162Y-120842833D01*
X125658117Y-120499057D01*
X125576204Y-120417000D01*
X161771000Y-120417000D01*
X161939226Y-121262730D01*
X162418294Y-121979706D01*
X163135270Y-122458774D01*
X163981000Y-122627000D01*
X164826730Y-122458774D01*
X165543706Y-121979706D01*
X165546738Y-121975167D01*
X179809838Y-121975167D01*
X179951883Y-122318943D01*
X180214673Y-122582192D01*
X180558201Y-122724838D01*
X180930167Y-122725162D01*
X181273943Y-122583117D01*
X181537192Y-122320327D01*
X181679838Y-121976799D01*
X181680162Y-121604833D01*
X181538117Y-121261057D01*
X181275327Y-120997808D01*
X180931799Y-120855162D01*
X180559833Y-120854838D01*
X180216057Y-120996883D01*
X179952808Y-121259673D01*
X179810162Y-121603201D01*
X179809838Y-121975167D01*
X165546738Y-121975167D01*
X166022774Y-121262730D01*
X166191000Y-120417000D01*
X166022774Y-119571270D01*
X165543706Y-118854294D01*
X164826730Y-118375226D01*
X163981000Y-118207000D01*
X163135270Y-118375226D01*
X162418294Y-118854294D01*
X161939226Y-119571270D01*
X161771000Y-120417000D01*
X125576204Y-120417000D01*
X125395327Y-120235808D01*
X125051799Y-120093162D01*
X124679833Y-120092838D01*
X124336057Y-120234883D01*
X124072808Y-120497673D01*
X123930162Y-120841201D01*
X123929838Y-121213167D01*
X117035677Y-121213167D01*
X117030327Y-121207808D01*
X116686799Y-121065162D01*
X116314833Y-121064838D01*
X115999649Y-121195069D01*
X115686799Y-121065162D01*
X115314833Y-121064838D01*
X114999649Y-121195069D01*
X114686799Y-121065162D01*
X114314833Y-121064838D01*
X113999649Y-121195069D01*
X113686799Y-121065162D01*
X113314833Y-121064838D01*
X112999649Y-121195069D01*
X112686799Y-121065162D01*
X112314833Y-121064838D01*
X111999649Y-121195069D01*
X111686799Y-121065162D01*
X111434944Y-121064943D01*
X111435162Y-120814833D01*
X111304931Y-120499649D01*
X111434838Y-120186799D01*
X111435162Y-119814833D01*
X111304931Y-119499649D01*
X111434838Y-119186799D01*
X111435162Y-118814833D01*
X111304931Y-118499649D01*
X111434838Y-118186799D01*
X111435162Y-117814833D01*
X111304931Y-117499649D01*
X111434838Y-117186799D01*
X111435162Y-116814833D01*
X111304931Y-116499649D01*
X111434838Y-116186799D01*
X111435162Y-115814833D01*
X111304931Y-115499649D01*
X111434838Y-115186799D01*
X111434931Y-115079002D01*
X130842000Y-115079002D01*
X130928397Y-115513347D01*
X131174434Y-115881568D01*
X131542655Y-116127605D01*
X131977000Y-116214002D01*
X132411345Y-116127605D01*
X132779566Y-115881568D01*
X134051967Y-114609167D01*
X146408838Y-114609167D01*
X146550883Y-114952943D01*
X146813673Y-115216192D01*
X147157201Y-115358838D01*
X147529167Y-115359162D01*
X147872943Y-115217117D01*
X148136192Y-114954327D01*
X148278838Y-114610799D01*
X148278950Y-114482167D01*
X152250838Y-114482167D01*
X152392883Y-114825943D01*
X152655673Y-115089192D01*
X152999201Y-115231838D01*
X153371167Y-115232162D01*
X153714943Y-115090117D01*
X153815067Y-114990167D01*
X174983838Y-114990167D01*
X175125883Y-115333943D01*
X175159000Y-115367118D01*
X175159000Y-119504000D01*
X175216852Y-119794839D01*
X175237940Y-119826399D01*
X175237838Y-119943167D01*
X175379883Y-120286943D01*
X175642673Y-120550192D01*
X175986201Y-120692838D01*
X176358167Y-120693162D01*
X176701943Y-120551117D01*
X176965192Y-120288327D01*
X177107838Y-119944799D01*
X177108162Y-119572833D01*
X176966117Y-119229057D01*
X176703327Y-118965808D01*
X176679000Y-118955706D01*
X176679000Y-115367463D01*
X176711192Y-115335327D01*
X176853838Y-114991799D01*
X176853839Y-114990167D01*
X180571838Y-114990167D01*
X180713883Y-115333943D01*
X180976673Y-115597192D01*
X181320201Y-115739838D01*
X181692167Y-115740162D01*
X181969000Y-115625777D01*
X181969000Y-118741184D01*
X181968838Y-118927167D01*
X182110883Y-119270943D01*
X182373673Y-119534192D01*
X182717201Y-119676838D01*
X183089167Y-119677162D01*
X183432943Y-119535117D01*
X183696192Y-119272327D01*
X183838838Y-118928799D01*
X183839162Y-118556833D01*
X183839000Y-118556441D01*
X183839000Y-114424000D01*
X183767827Y-114066191D01*
X183565145Y-113762855D01*
X182803436Y-113001146D01*
X182672327Y-112869808D01*
X182328799Y-112727162D01*
X181956833Y-112726838D01*
X181613057Y-112868883D01*
X181349808Y-113131673D01*
X181207162Y-113475201D01*
X181206838Y-113847167D01*
X181231609Y-113907118D01*
X180978057Y-114011883D01*
X180714808Y-114274673D01*
X180572162Y-114618201D01*
X180571838Y-114990167D01*
X176853839Y-114990167D01*
X176854162Y-114619833D01*
X176712117Y-114276057D01*
X176449327Y-114012808D01*
X176105799Y-113870162D01*
X175733833Y-113869838D01*
X175390057Y-114011883D01*
X175126808Y-114274673D01*
X174984162Y-114618201D01*
X174983838Y-114990167D01*
X153815067Y-114990167D01*
X153978192Y-114827327D01*
X154120838Y-114483799D01*
X154121162Y-114111833D01*
X153979117Y-113768057D01*
X153716327Y-113504808D01*
X153372799Y-113362162D01*
X153000833Y-113361838D01*
X152657057Y-113503883D01*
X152393808Y-113766673D01*
X152251162Y-114110201D01*
X152250838Y-114482167D01*
X148278950Y-114482167D01*
X148279162Y-114238833D01*
X148137117Y-113895057D01*
X147874327Y-113631808D01*
X147530799Y-113489162D01*
X147158833Y-113488838D01*
X146815057Y-113630883D01*
X146551808Y-113893673D01*
X146409162Y-114237201D01*
X146408838Y-114609167D01*
X134051967Y-114609167D01*
X134245134Y-114416000D01*
X135532998Y-114416000D01*
X135967344Y-114329603D01*
X136335564Y-114083566D01*
X138494564Y-111924566D01*
X138740601Y-111556345D01*
X138826998Y-111122000D01*
X138740601Y-110687655D01*
X138494564Y-110319434D01*
X138197441Y-110120903D01*
X151107838Y-110120903D01*
X151249883Y-110464679D01*
X151512673Y-110727928D01*
X151856201Y-110870574D01*
X152228167Y-110870898D01*
X152571943Y-110728853D01*
X152835192Y-110466063D01*
X152977838Y-110122535D01*
X152977879Y-110075659D01*
X153184307Y-109869231D01*
X153253201Y-109897838D01*
X153625167Y-109898162D01*
X153968943Y-109756117D01*
X154232192Y-109493327D01*
X154374838Y-109149799D01*
X154375162Y-108777833D01*
X154233117Y-108434057D01*
X153970327Y-108170808D01*
X153626799Y-108028162D01*
X153254833Y-108027838D01*
X152911057Y-108169883D01*
X152843578Y-108237245D01*
X152780328Y-108249826D01*
X152724896Y-108260852D01*
X152478335Y-108425599D01*
X151903320Y-109000614D01*
X151857833Y-109000574D01*
X151514057Y-109142619D01*
X151250808Y-109405409D01*
X151108162Y-109748937D01*
X151107838Y-110120903D01*
X138197441Y-110120903D01*
X138126343Y-110073397D01*
X137753862Y-109999306D01*
X137754152Y-109666833D01*
X137612107Y-109323057D01*
X137349317Y-109059808D01*
X137005789Y-108917162D01*
X136633823Y-108916838D01*
X136290047Y-109058883D01*
X136026798Y-109321673D01*
X135884152Y-109665201D01*
X135883828Y-110037167D01*
X136025873Y-110380943D01*
X136288663Y-110644192D01*
X136483691Y-110725175D01*
X135062866Y-112146000D01*
X133775002Y-112146000D01*
X133340656Y-112232397D01*
X133202367Y-112324799D01*
X132972436Y-112478434D01*
X131174434Y-114276436D01*
X130928397Y-114644657D01*
X130842000Y-115079002D01*
X111434931Y-115079002D01*
X111435057Y-114934944D01*
X111685167Y-114935162D01*
X112000351Y-114804931D01*
X112313201Y-114934838D01*
X112685167Y-114935162D01*
X113000351Y-114804931D01*
X113313201Y-114934838D01*
X113685167Y-114935162D01*
X114000351Y-114804931D01*
X114313201Y-114934838D01*
X114685167Y-114935162D01*
X115000351Y-114804931D01*
X115313201Y-114934838D01*
X115685167Y-114935162D01*
X116000351Y-114804931D01*
X116313201Y-114934838D01*
X116685167Y-114935162D01*
X117028943Y-114793117D01*
X117292192Y-114530327D01*
X117434838Y-114186799D01*
X117435162Y-113814833D01*
X117304931Y-113499649D01*
X117434838Y-113186799D01*
X117435162Y-112814833D01*
X117293117Y-112471057D01*
X117145485Y-112323167D01*
X122659838Y-112323167D01*
X122801883Y-112666943D01*
X123064673Y-112930192D01*
X123408201Y-113072838D01*
X123780167Y-113073162D01*
X124123943Y-112931117D01*
X124387192Y-112668327D01*
X124529838Y-112324799D01*
X124530162Y-111952833D01*
X124388117Y-111609057D01*
X124125327Y-111345808D01*
X123781799Y-111203162D01*
X123409833Y-111202838D01*
X123066057Y-111344883D01*
X122802808Y-111607673D01*
X122660162Y-111951201D01*
X122659838Y-112323167D01*
X117145485Y-112323167D01*
X117030327Y-112207808D01*
X116686799Y-112065162D01*
X116314833Y-112064838D01*
X115999649Y-112195069D01*
X115686799Y-112065162D01*
X115314833Y-112064838D01*
X114999649Y-112195069D01*
X114686799Y-112065162D01*
X114314833Y-112064838D01*
X113999649Y-112195069D01*
X113686799Y-112065162D01*
X113314833Y-112064838D01*
X112999649Y-112195069D01*
X112686799Y-112065162D01*
X112314833Y-112064838D01*
X111999649Y-112195069D01*
X111686799Y-112065162D01*
X111314833Y-112064838D01*
X110999649Y-112195069D01*
X110686799Y-112065162D01*
X110314833Y-112064838D01*
X109999649Y-112195069D01*
X109686799Y-112065162D01*
X109314833Y-112064838D01*
X108971057Y-112206883D01*
X108707808Y-112469673D01*
X108565162Y-112813201D01*
X108564838Y-113185167D01*
X108695069Y-113500351D01*
X108565162Y-113813201D01*
X108564838Y-114185167D01*
X108695069Y-114500351D01*
X108565162Y-114813201D01*
X108564838Y-115185167D01*
X108695069Y-115500351D01*
X108565162Y-115813201D01*
X108564838Y-116185167D01*
X108695069Y-116500351D01*
X108565162Y-116813201D01*
X108564838Y-117185167D01*
X108695069Y-117500351D01*
X108565162Y-117813201D01*
X108564838Y-118185167D01*
X108695069Y-118500351D01*
X108565162Y-118813201D01*
X108564838Y-119185167D01*
X108695069Y-119500351D01*
X108565162Y-119813201D01*
X108564838Y-120185167D01*
X108695069Y-120500351D01*
X108565162Y-120813201D01*
X108564838Y-121185167D01*
X108695069Y-121500351D01*
X108565162Y-121813201D01*
X108564838Y-122185167D01*
X108695069Y-122500351D01*
X108565162Y-122813201D01*
X108564838Y-123185167D01*
X108608154Y-123290000D01*
X105069931Y-123290000D01*
X104128977Y-123102833D01*
X103390561Y-122609439D01*
X102897167Y-121871023D01*
X102710000Y-120930069D01*
X102710000Y-120500000D01*
X103290000Y-120500000D01*
X103458226Y-121345730D01*
X103937294Y-122062706D01*
X104654270Y-122541774D01*
X105500000Y-122710000D01*
X106345730Y-122541774D01*
X107062706Y-122062706D01*
X107541774Y-121345730D01*
X107710000Y-120500000D01*
X107541774Y-119654270D01*
X107062706Y-118937294D01*
X106345730Y-118458226D01*
X105500000Y-118290000D01*
X104654270Y-118458226D01*
X103937294Y-118937294D01*
X103458226Y-119654270D01*
X103290000Y-120500000D01*
X102710000Y-120500000D01*
X102710000Y-110545167D01*
X105768838Y-110545167D01*
X105910883Y-110888943D01*
X106173673Y-111152192D01*
X106517201Y-111294838D01*
X106889167Y-111295162D01*
X107232943Y-111153117D01*
X107333067Y-111053167D01*
X107800838Y-111053167D01*
X107942883Y-111396943D01*
X108205673Y-111660192D01*
X108549201Y-111802838D01*
X108921167Y-111803162D01*
X109264943Y-111661117D01*
X109528192Y-111398327D01*
X109670838Y-111054799D01*
X109670839Y-111053167D01*
X112499838Y-111053167D01*
X112641883Y-111396943D01*
X112904673Y-111660192D01*
X113248201Y-111802838D01*
X113620167Y-111803162D01*
X113963943Y-111661117D01*
X114227192Y-111398327D01*
X114369838Y-111054799D01*
X114369950Y-110926167D01*
X119484838Y-110926167D01*
X119626883Y-111269943D01*
X119889673Y-111533192D01*
X120233201Y-111675838D01*
X120605167Y-111676162D01*
X120948943Y-111534117D01*
X121212192Y-111271327D01*
X121354838Y-110927799D01*
X121355162Y-110555833D01*
X121213117Y-110212057D01*
X120950327Y-109948808D01*
X120606799Y-109806162D01*
X120234833Y-109805838D01*
X119891057Y-109947883D01*
X119627808Y-110210673D01*
X119485162Y-110554201D01*
X119484838Y-110926167D01*
X114369950Y-110926167D01*
X114370162Y-110682833D01*
X114228117Y-110339057D01*
X113965327Y-110075808D01*
X113621799Y-109933162D01*
X113249833Y-109932838D01*
X112906057Y-110074883D01*
X112642808Y-110337673D01*
X112500162Y-110681201D01*
X112499838Y-111053167D01*
X109670839Y-111053167D01*
X109671162Y-110682833D01*
X109529117Y-110339057D01*
X109266327Y-110075808D01*
X108922799Y-109933162D01*
X108550833Y-109932838D01*
X108207057Y-110074883D01*
X107943808Y-110337673D01*
X107801162Y-110681201D01*
X107800838Y-111053167D01*
X107333067Y-111053167D01*
X107496192Y-110890327D01*
X107638838Y-110546799D01*
X107639162Y-110174833D01*
X107497117Y-109831057D01*
X107449311Y-109783167D01*
X114277838Y-109783167D01*
X114419883Y-110126943D01*
X114682673Y-110390192D01*
X115026201Y-110532838D01*
X115398167Y-110533162D01*
X115741943Y-110391117D01*
X116005192Y-110128327D01*
X116147838Y-109784799D01*
X116148162Y-109412833D01*
X116006117Y-109069057D01*
X116004518Y-109067455D01*
X116169201Y-109135838D01*
X116541167Y-109136162D01*
X116884943Y-108994117D01*
X117148192Y-108731327D01*
X117290838Y-108387799D01*
X117290950Y-108259167D01*
X121770838Y-108259167D01*
X121912883Y-108602943D01*
X122175673Y-108866192D01*
X122519201Y-109008838D01*
X122891167Y-109009162D01*
X123234943Y-108867117D01*
X123277344Y-108824790D01*
X123318673Y-108866192D01*
X123662201Y-109008838D01*
X124034167Y-109009162D01*
X124377943Y-108867117D01*
X124641192Y-108604327D01*
X124783838Y-108260799D01*
X124784162Y-107888833D01*
X124642117Y-107545057D01*
X124379327Y-107281808D01*
X124035799Y-107139162D01*
X123663833Y-107138838D01*
X123320057Y-107280883D01*
X123277656Y-107323210D01*
X123236327Y-107281808D01*
X122892799Y-107139162D01*
X122520833Y-107138838D01*
X122177057Y-107280883D01*
X121913808Y-107543673D01*
X121771162Y-107887201D01*
X121770838Y-108259167D01*
X117290950Y-108259167D01*
X117291162Y-108015833D01*
X117149117Y-107672057D01*
X116886327Y-107408808D01*
X116542799Y-107266162D01*
X116170833Y-107265838D01*
X115827057Y-107407883D01*
X115563808Y-107670673D01*
X115421162Y-108014201D01*
X115420838Y-108386167D01*
X115562883Y-108729943D01*
X115564482Y-108731545D01*
X115399799Y-108663162D01*
X115027833Y-108662838D01*
X114684057Y-108804883D01*
X114420808Y-109067673D01*
X114278162Y-109411201D01*
X114277838Y-109783167D01*
X107449311Y-109783167D01*
X107234327Y-109567808D01*
X106890799Y-109425162D01*
X106518833Y-109424838D01*
X106175057Y-109566883D01*
X105911808Y-109829673D01*
X105769162Y-110173201D01*
X105768838Y-110545167D01*
X102710000Y-110545167D01*
X102710000Y-108132167D01*
X109451838Y-108132167D01*
X109593883Y-108475943D01*
X109856673Y-108739192D01*
X110200201Y-108881838D01*
X110572167Y-108882162D01*
X110915943Y-108740117D01*
X111179192Y-108477327D01*
X111217045Y-108386167D01*
X111864838Y-108386167D01*
X112006883Y-108729943D01*
X112269673Y-108993192D01*
X112613201Y-109135838D01*
X112985167Y-109136162D01*
X113328943Y-108994117D01*
X113592192Y-108731327D01*
X113734838Y-108387799D01*
X113735162Y-108015833D01*
X113593117Y-107672057D01*
X113330327Y-107408808D01*
X112986799Y-107266162D01*
X112614833Y-107265838D01*
X112271057Y-107407883D01*
X112007808Y-107670673D01*
X111865162Y-108014201D01*
X111864838Y-108386167D01*
X111217045Y-108386167D01*
X111321838Y-108133799D01*
X111322162Y-107761833D01*
X111180117Y-107418057D01*
X110917327Y-107154808D01*
X110573799Y-107012162D01*
X110201833Y-107011838D01*
X109858057Y-107153883D01*
X109594808Y-107416673D01*
X109452162Y-107760201D01*
X109451838Y-108132167D01*
X102710000Y-108132167D01*
X102710000Y-106608167D01*
X107292838Y-106608167D01*
X107434883Y-106951943D01*
X107697673Y-107215192D01*
X108041201Y-107357838D01*
X108413167Y-107358162D01*
X108756943Y-107216117D01*
X109020192Y-106953327D01*
X109162838Y-106609799D01*
X109163162Y-106237833D01*
X109021117Y-105894057D01*
X108758327Y-105630808D01*
X108414799Y-105488162D01*
X108042833Y-105487838D01*
X107699057Y-105629883D01*
X107435808Y-105892673D01*
X107293162Y-106236201D01*
X107292838Y-106608167D01*
X102710000Y-106608167D01*
X102710000Y-104957167D01*
X105514838Y-104957167D01*
X105656883Y-105300943D01*
X105919673Y-105564192D01*
X106263201Y-105706838D01*
X106635167Y-105707162D01*
X106978943Y-105565117D01*
X107242192Y-105302327D01*
X107384838Y-104958799D01*
X107385162Y-104586833D01*
X107328280Y-104449167D01*
X119484838Y-104449167D01*
X119626883Y-104792943D01*
X119889673Y-105056192D01*
X120233201Y-105198838D01*
X120605167Y-105199162D01*
X120948943Y-105057117D01*
X121212192Y-104794327D01*
X121354838Y-104450799D01*
X121354839Y-104449167D01*
X124310838Y-104449167D01*
X124452883Y-104792943D01*
X124715673Y-105056192D01*
X125059201Y-105198838D01*
X125431167Y-105199162D01*
X125774943Y-105057117D01*
X126038192Y-104794327D01*
X126130419Y-104572221D01*
X127026000Y-105467802D01*
X127026000Y-107138882D01*
X126975823Y-107138838D01*
X126632047Y-107280883D01*
X126368798Y-107543673D01*
X126226152Y-107887201D01*
X126225828Y-108259167D01*
X126367873Y-108602943D01*
X126630663Y-108866192D01*
X126974191Y-109008838D01*
X127053660Y-109008907D01*
X127083852Y-109160692D01*
X127248599Y-109407254D01*
X127543764Y-109702419D01*
X127257057Y-109820883D01*
X126993808Y-110083673D01*
X126851162Y-110427201D01*
X126850838Y-110799167D01*
X126992883Y-111142943D01*
X127255673Y-111406192D01*
X127599201Y-111548838D01*
X127928649Y-111549125D01*
X127867162Y-111697201D01*
X127866838Y-112069167D01*
X128008883Y-112412943D01*
X128271673Y-112676192D01*
X128615201Y-112818838D01*
X128987167Y-112819162D01*
X129330943Y-112677117D01*
X129594192Y-112414327D01*
X129736838Y-112070799D01*
X129737162Y-111698833D01*
X129595117Y-111355057D01*
X129332327Y-111091808D01*
X128988799Y-110949162D01*
X128659351Y-110948875D01*
X128720838Y-110800799D01*
X128720952Y-110670315D01*
X128836568Y-110670416D01*
X129178242Y-110529240D01*
X129418073Y-110769490D01*
X129761601Y-110912136D01*
X130133567Y-110912460D01*
X130477343Y-110770415D01*
X130740592Y-110507625D01*
X130883208Y-110164167D01*
X131041838Y-110164167D01*
X131183883Y-110507943D01*
X131446673Y-110771192D01*
X131790201Y-110913838D01*
X132162167Y-110914162D01*
X132505943Y-110772117D01*
X132769192Y-110509327D01*
X132911838Y-110165799D01*
X132912162Y-109793833D01*
X132770117Y-109450057D01*
X132507327Y-109186808D01*
X132163799Y-109044162D01*
X131791833Y-109043838D01*
X131448057Y-109185883D01*
X131184808Y-109448673D01*
X131042162Y-109792201D01*
X131041838Y-110164167D01*
X130883208Y-110164167D01*
X130883238Y-110164097D01*
X130883321Y-110068749D01*
X130950547Y-109968138D01*
X131008399Y-109677299D01*
X131008399Y-108145165D01*
X131039856Y-108132167D01*
X139677838Y-108132167D01*
X139819883Y-108475943D01*
X140082673Y-108739192D01*
X140426201Y-108881838D01*
X140798167Y-108882162D01*
X141141943Y-108740117D01*
X141405192Y-108477327D01*
X141547838Y-108133799D01*
X141548162Y-107761833D01*
X141491280Y-107624167D01*
X145011838Y-107624167D01*
X145153883Y-107967943D01*
X145416673Y-108231192D01*
X145760201Y-108373838D01*
X146132167Y-108374162D01*
X146475943Y-108232117D01*
X146739192Y-107969327D01*
X146881838Y-107625799D01*
X146882162Y-107253833D01*
X146740117Y-106910057D01*
X146477327Y-106646808D01*
X146133799Y-106504162D01*
X145761833Y-106503838D01*
X145418057Y-106645883D01*
X145154808Y-106908673D01*
X145012162Y-107252201D01*
X145011838Y-107624167D01*
X141491280Y-107624167D01*
X141406117Y-107418057D01*
X141143327Y-107154808D01*
X140799799Y-107012162D01*
X140427833Y-107011838D01*
X140084057Y-107153883D01*
X139820808Y-107416673D01*
X139678162Y-107760201D01*
X139677838Y-108132167D01*
X131039856Y-108132167D01*
X131111495Y-108102567D01*
X131374744Y-107839777D01*
X131517390Y-107496249D01*
X131517714Y-107124283D01*
X131375669Y-106780507D01*
X131342552Y-106747332D01*
X131342552Y-106735167D01*
X132692838Y-106735167D01*
X132834883Y-107078943D01*
X133097673Y-107342192D01*
X133441201Y-107484838D01*
X133813167Y-107485162D01*
X134156943Y-107343117D01*
X134420192Y-107080327D01*
X134562838Y-106736799D01*
X134563162Y-106364833D01*
X134421117Y-106021057D01*
X134158327Y-105757808D01*
X133814799Y-105615162D01*
X133442833Y-105614838D01*
X133099057Y-105756883D01*
X132835808Y-106019673D01*
X132693162Y-106363201D01*
X132692838Y-106735167D01*
X131342552Y-106735167D01*
X131342552Y-105028552D01*
X131322788Y-104929192D01*
X131284700Y-104737712D01*
X131119953Y-104491151D01*
X130950969Y-104322167D01*
X134851838Y-104322167D01*
X134993883Y-104665943D01*
X135256673Y-104929192D01*
X135600201Y-105071838D01*
X135861799Y-105072066D01*
X135861565Y-105341002D01*
X135971350Y-105606702D01*
X135868162Y-105855205D01*
X135867838Y-106227171D01*
X136009883Y-106570947D01*
X136272673Y-106834196D01*
X136616201Y-106976842D01*
X136988167Y-106977166D01*
X137331943Y-106835121D01*
X137399422Y-106767759D01*
X137518103Y-106744152D01*
X137764665Y-106579405D01*
X138878903Y-105465167D01*
X148748847Y-105465167D01*
X148890892Y-105808943D01*
X149153682Y-106072192D01*
X149497210Y-106214838D01*
X149869176Y-106215162D01*
X150212952Y-106073117D01*
X150476201Y-105810327D01*
X150618847Y-105466799D01*
X150619171Y-105094833D01*
X150477126Y-104751057D01*
X150214336Y-104487808D01*
X149870808Y-104345162D01*
X149498842Y-104344838D01*
X149155066Y-104486883D01*
X148891817Y-104749673D01*
X148749171Y-105093201D01*
X148748847Y-105465167D01*
X138878903Y-105465167D01*
X140134409Y-104209661D01*
X140299156Y-103963099D01*
X140357008Y-103672260D01*
X140357008Y-103556463D01*
X140389200Y-103524327D01*
X140531846Y-103180799D01*
X140532170Y-102808833D01*
X140390125Y-102465057D01*
X140127335Y-102201808D01*
X139783807Y-102059162D01*
X139411841Y-102058838D01*
X139068065Y-102200883D01*
X138804816Y-102463673D01*
X138709129Y-102694113D01*
X138395833Y-102693840D01*
X138052057Y-102835885D01*
X137936315Y-102951425D01*
X137916599Y-102964599D01*
X137903540Y-102984143D01*
X137815602Y-103071928D01*
X137786159Y-103091601D01*
X136721984Y-104155776D01*
X136722162Y-103951833D01*
X136580117Y-103608057D01*
X136317327Y-103344808D01*
X135973799Y-103202162D01*
X135601833Y-103201838D01*
X135258057Y-103343883D01*
X134994808Y-103606673D01*
X134852162Y-103950201D01*
X134851838Y-104322167D01*
X130950969Y-104322167D01*
X130245122Y-103616320D01*
X130245162Y-103570833D01*
X130103117Y-103227057D01*
X129840327Y-102963808D01*
X129496799Y-102821162D01*
X129124833Y-102820838D01*
X128781057Y-102962883D01*
X128733495Y-103010362D01*
X128644580Y-102921291D01*
X128301052Y-102778645D01*
X127929086Y-102778321D01*
X127642938Y-102896555D01*
X127458485Y-102819963D01*
X127086519Y-102819639D01*
X126923660Y-102886931D01*
X126695930Y-102658803D01*
X126352402Y-102516157D01*
X125980436Y-102515833D01*
X125636660Y-102657878D01*
X125373411Y-102920668D01*
X125230765Y-103264196D01*
X125230709Y-103328986D01*
X125060833Y-103328838D01*
X124717057Y-103470883D01*
X124453808Y-103733673D01*
X124311162Y-104077201D01*
X124310838Y-104449167D01*
X121354839Y-104449167D01*
X121355162Y-104078833D01*
X121213117Y-103735057D01*
X120950327Y-103471808D01*
X120606799Y-103329162D01*
X120234833Y-103328838D01*
X119891057Y-103470883D01*
X119627808Y-103733673D01*
X119485162Y-104077201D01*
X119484838Y-104449167D01*
X107328280Y-104449167D01*
X107243117Y-104243057D01*
X106980327Y-103979808D01*
X106636799Y-103837162D01*
X106264833Y-103836838D01*
X105921057Y-103978883D01*
X105657808Y-104241673D01*
X105515162Y-104585201D01*
X105514838Y-104957167D01*
X102710000Y-104957167D01*
X102710000Y-102544167D01*
X106911838Y-102544167D01*
X107053883Y-102887943D01*
X107316673Y-103151192D01*
X107660201Y-103293838D01*
X108032167Y-103294162D01*
X108375943Y-103152117D01*
X108639192Y-102889327D01*
X108781838Y-102545799D01*
X108782162Y-102173833D01*
X108672805Y-101909167D01*
X133454838Y-101909167D01*
X133596883Y-102252943D01*
X133859673Y-102516192D01*
X134203201Y-102658838D01*
X134575167Y-102659162D01*
X134918943Y-102517117D01*
X135182192Y-102254327D01*
X135324838Y-101910799D01*
X135325162Y-101538833D01*
X135183117Y-101195057D01*
X134920327Y-100931808D01*
X134576799Y-100789162D01*
X134204833Y-100788838D01*
X133861057Y-100930883D01*
X133597808Y-101193673D01*
X133455162Y-101537201D01*
X133454838Y-101909167D01*
X108672805Y-101909167D01*
X108652440Y-101859881D01*
X108766192Y-101746327D01*
X108908838Y-101402799D01*
X108909162Y-101030833D01*
X108852280Y-100893167D01*
X110848838Y-100893167D01*
X110990883Y-101236943D01*
X111253673Y-101500192D01*
X111597201Y-101642838D01*
X111969167Y-101643162D01*
X112312943Y-101501117D01*
X112576192Y-101238327D01*
X112718838Y-100894799D01*
X112718839Y-100893167D01*
X129517838Y-100893167D01*
X129659883Y-101236943D01*
X129922673Y-101500192D01*
X130266201Y-101642838D01*
X130638167Y-101643162D01*
X130981943Y-101501117D01*
X131245192Y-101238327D01*
X131387838Y-100894799D01*
X131388162Y-100522833D01*
X131246117Y-100179057D01*
X130983327Y-99915808D01*
X130639799Y-99773162D01*
X130267833Y-99772838D01*
X129924057Y-99914883D01*
X129660808Y-100177673D01*
X129518162Y-100521201D01*
X129517838Y-100893167D01*
X112718839Y-100893167D01*
X112719162Y-100522833D01*
X112577117Y-100179057D01*
X112314327Y-99915808D01*
X111970799Y-99773162D01*
X111598833Y-99772838D01*
X111255057Y-99914883D01*
X110991808Y-100177673D01*
X110849162Y-100521201D01*
X110848838Y-100893167D01*
X108852280Y-100893167D01*
X108767117Y-100687057D01*
X108504327Y-100423808D01*
X108160799Y-100281162D01*
X107788833Y-100280838D01*
X107445057Y-100422883D01*
X107181808Y-100685673D01*
X107039162Y-101029201D01*
X107038838Y-101401167D01*
X107168560Y-101715119D01*
X107054808Y-101828673D01*
X106912162Y-102172201D01*
X106911838Y-102544167D01*
X102710000Y-102544167D01*
X102710000Y-101147167D01*
X103228838Y-101147167D01*
X103370883Y-101490943D01*
X103633673Y-101754192D01*
X103977201Y-101896838D01*
X104349167Y-101897162D01*
X104692943Y-101755117D01*
X104956192Y-101492327D01*
X105098838Y-101148799D01*
X105099162Y-100776833D01*
X104957117Y-100433057D01*
X104694327Y-100169808D01*
X104350799Y-100027162D01*
X103978833Y-100026838D01*
X103635057Y-100168883D01*
X103371808Y-100431673D01*
X103229162Y-100775201D01*
X103228838Y-101147167D01*
X102710000Y-101147167D01*
X102710000Y-98861167D01*
X129390838Y-98861167D01*
X129532883Y-99204943D01*
X129795673Y-99468192D01*
X130139201Y-99610838D01*
X130511167Y-99611162D01*
X130854943Y-99469117D01*
X131118192Y-99206327D01*
X131260838Y-98862799D01*
X131260839Y-98861167D01*
X136375838Y-98861167D01*
X136517883Y-99204943D01*
X136780673Y-99468192D01*
X137124201Y-99610838D01*
X137496167Y-99611162D01*
X137839943Y-99469117D01*
X138103192Y-99206327D01*
X138245838Y-98862799D01*
X138246162Y-98490833D01*
X138204033Y-98388873D01*
X138394201Y-98467838D01*
X138471131Y-98467905D01*
X138548397Y-98856346D01*
X138794434Y-99224566D01*
X139162654Y-99470603D01*
X139597000Y-99557000D01*
X140031346Y-99470603D01*
X140399566Y-99224566D01*
X140645603Y-98856346D01*
X140732000Y-98422000D01*
X140732000Y-98008066D01*
X141107222Y-98383288D01*
X141090808Y-98399673D01*
X140948162Y-98743201D01*
X140947838Y-99115167D01*
X141089883Y-99458943D01*
X141352673Y-99722192D01*
X141696201Y-99864838D01*
X142068167Y-99865162D01*
X142411943Y-99723117D01*
X142675192Y-99460327D01*
X142817838Y-99116799D01*
X142818162Y-98744833D01*
X142796059Y-98691340D01*
X146715392Y-98691340D01*
X146747528Y-98723532D01*
X147091056Y-98866178D01*
X147384766Y-98866434D01*
X147021608Y-99229592D01*
X146994117Y-99163057D01*
X146731327Y-98899808D01*
X146387799Y-98757162D01*
X146015833Y-98756838D01*
X145672057Y-98898883D01*
X145408808Y-99161673D01*
X145266162Y-99505201D01*
X145265838Y-99877167D01*
X145407883Y-100220943D01*
X145670673Y-100484192D01*
X145738743Y-100512457D01*
X145513217Y-100737983D01*
X145183857Y-100601220D01*
X144811891Y-100600896D01*
X144468115Y-100742941D01*
X144204866Y-101005731D01*
X144062220Y-101349259D01*
X144061896Y-101721225D01*
X144203941Y-102065001D01*
X144466731Y-102328250D01*
X144558100Y-102366190D01*
X144694701Y-102696790D01*
X144957491Y-102960039D01*
X145301019Y-103102685D01*
X145672985Y-103103009D01*
X146016761Y-102960964D01*
X146084240Y-102893602D01*
X146202921Y-102869995D01*
X146449483Y-102705248D01*
X150599406Y-98555325D01*
X150764153Y-98308764D01*
X150822005Y-98017924D01*
X150822005Y-96729066D01*
X150854197Y-96696930D01*
X150996843Y-96353402D01*
X150997167Y-95981436D01*
X150855122Y-95637660D01*
X150592332Y-95374411D01*
X150515384Y-95342459D01*
X150627362Y-95072787D01*
X150627403Y-95025911D01*
X150848400Y-94804914D01*
X151013147Y-94558352D01*
X151070999Y-94267513D01*
X151070999Y-91078374D01*
X151122883Y-91203943D01*
X151156000Y-91237118D01*
X151156000Y-91774736D01*
X151213852Y-92065575D01*
X151378599Y-92312137D01*
X151517769Y-92451307D01*
X151489162Y-92520201D01*
X151488838Y-92892167D01*
X151630883Y-93235943D01*
X151893673Y-93499192D01*
X152034758Y-93557776D01*
X151894851Y-93767162D01*
X151836999Y-94058001D01*
X151836999Y-95949397D01*
X151768057Y-95977883D01*
X151504808Y-96240673D01*
X151362162Y-96584201D01*
X151361838Y-96956167D01*
X151503883Y-97299943D01*
X151766673Y-97563192D01*
X152110201Y-97705838D01*
X152482167Y-97706162D01*
X152825943Y-97564117D01*
X153089192Y-97301327D01*
X153231838Y-96957799D01*
X153231921Y-96862451D01*
X153299147Y-96761840D01*
X153356999Y-96471001D01*
X153356999Y-96321167D01*
X155679838Y-96321167D01*
X155821883Y-96664943D01*
X156084673Y-96928192D01*
X156428201Y-97070838D01*
X156800167Y-97071162D01*
X157143943Y-96929117D01*
X157407192Y-96666327D01*
X157549838Y-96322799D01*
X157550162Y-95950833D01*
X157408117Y-95607057D01*
X157145327Y-95343808D01*
X156801799Y-95201162D01*
X156429833Y-95200838D01*
X156086057Y-95342883D01*
X155822808Y-95605673D01*
X155680162Y-95949201D01*
X155679838Y-96321167D01*
X153356999Y-96321167D01*
X153356999Y-94372803D01*
X153586402Y-94143400D01*
X153751149Y-93896839D01*
X153809001Y-93605999D01*
X153809001Y-92406999D01*
X153751149Y-92116160D01*
X153751149Y-92116159D01*
X153692000Y-92027636D01*
X153692000Y-91364463D01*
X153724192Y-91332327D01*
X153866838Y-90988799D01*
X153867162Y-90616833D01*
X153781185Y-90408753D01*
X153955642Y-90600183D01*
X154480108Y-90846486D01*
X154710000Y-90725819D01*
X154710000Y-89532000D01*
X154964000Y-89532000D01*
X154964000Y-90725819D01*
X155193892Y-90846486D01*
X155718358Y-90600183D01*
X155900070Y-90400792D01*
X155988673Y-90614699D01*
X156167302Y-90793327D01*
X156400691Y-90890000D01*
X157091250Y-90890000D01*
X157250000Y-90731250D01*
X157250000Y-89532000D01*
X154964000Y-89532000D01*
X154710000Y-89532000D01*
X153516845Y-89532000D01*
X153395524Y-89761890D01*
X153523654Y-90071242D01*
X153462327Y-90009808D01*
X153118799Y-89867162D01*
X152746833Y-89866838D01*
X152522794Y-89959409D01*
X152446327Y-89882808D01*
X152102799Y-89740162D01*
X151730833Y-89739838D01*
X151387057Y-89881883D01*
X151123808Y-90144673D01*
X151027674Y-90376189D01*
X151013147Y-90303160D01*
X150946080Y-90202787D01*
X150946162Y-90108833D01*
X150804117Y-89765057D01*
X150541327Y-89501808D01*
X150197799Y-89359162D01*
X149825833Y-89358838D01*
X149482057Y-89500883D01*
X149369640Y-89613104D01*
X149063833Y-89612838D01*
X148720057Y-89754883D01*
X148481447Y-89993077D01*
X148300915Y-89992920D01*
X147986964Y-90122642D01*
X147874327Y-90009808D01*
X147530799Y-89867162D01*
X147158833Y-89866838D01*
X146815057Y-90008883D01*
X146551808Y-90271673D01*
X146409162Y-90615201D01*
X146408838Y-90987167D01*
X146550883Y-91330943D01*
X146813673Y-91594192D01*
X147157201Y-91736838D01*
X147529167Y-91737162D01*
X147726082Y-91655799D01*
X147726082Y-94356813D01*
X147783934Y-94647652D01*
X147948681Y-94894214D01*
X147956320Y-94901853D01*
X147956280Y-94947340D01*
X148098325Y-95291116D01*
X148361115Y-95554365D01*
X148441035Y-95587551D01*
X148440838Y-95813167D01*
X148582883Y-96156943D01*
X148616000Y-96190118D01*
X148616000Y-97635200D01*
X148212762Y-98038438D01*
X148213017Y-97746173D01*
X148070972Y-97402397D01*
X148045102Y-97376482D01*
X148063506Y-97332161D01*
X148063830Y-96960195D01*
X147921785Y-96616419D01*
X147658995Y-96353170D01*
X147315467Y-96210524D01*
X146943501Y-96210200D01*
X146599725Y-96352245D01*
X146336476Y-96615035D01*
X146307274Y-96685361D01*
X142894359Y-96685361D01*
X142706125Y-96496798D01*
X142362597Y-96354152D01*
X142188253Y-96354000D01*
X142453802Y-96176566D01*
X142699839Y-95808346D01*
X142786236Y-95374000D01*
X142699839Y-94939654D01*
X142604633Y-94797167D01*
X144122838Y-94797167D01*
X144264883Y-95140943D01*
X144527673Y-95404192D01*
X144871201Y-95546838D01*
X144926270Y-95546886D01*
X145148160Y-95695148D01*
X145439000Y-95753000D01*
X145892537Y-95753000D01*
X145924673Y-95785192D01*
X146268201Y-95927838D01*
X146640167Y-95928162D01*
X146983943Y-95786117D01*
X147247192Y-95523327D01*
X147389838Y-95179799D01*
X147390162Y-94807833D01*
X147248117Y-94464057D01*
X146985327Y-94200808D01*
X146641799Y-94058162D01*
X146269833Y-94057838D01*
X145926057Y-94199883D01*
X145907176Y-94218731D01*
X145851117Y-94083057D01*
X145588327Y-93819808D01*
X145244799Y-93677162D01*
X144872833Y-93676838D01*
X144529057Y-93818883D01*
X144265808Y-94081673D01*
X144123162Y-94425201D01*
X144122838Y-94797167D01*
X142604633Y-94797167D01*
X142565766Y-94739000D01*
X142699839Y-94538346D01*
X142786236Y-94104000D01*
X142699839Y-93669654D01*
X142565766Y-93469000D01*
X142699839Y-93268346D01*
X142786236Y-92834000D01*
X142699839Y-92399654D01*
X142565766Y-92199000D01*
X142699839Y-91998346D01*
X142786236Y-91564000D01*
X142699839Y-91129654D01*
X142684195Y-91106241D01*
X142725431Y-91045890D01*
X142776440Y-90794000D01*
X142776440Y-89794000D01*
X142732162Y-89558683D01*
X142593090Y-89342559D01*
X142380890Y-89197569D01*
X142129000Y-89146560D01*
X141129000Y-89146560D01*
X140893683Y-89190838D01*
X140677559Y-89329910D01*
X140532569Y-89542110D01*
X140481560Y-89794000D01*
X140481560Y-90794000D01*
X140525838Y-91029317D01*
X140574586Y-91105073D01*
X140558161Y-91129654D01*
X140471764Y-91564000D01*
X140558161Y-91998346D01*
X140692234Y-92199000D01*
X140558161Y-92399654D01*
X140471764Y-92834000D01*
X140558161Y-93268346D01*
X140692234Y-93469000D01*
X140558161Y-93669654D01*
X140471764Y-94104000D01*
X140558161Y-94538346D01*
X140692234Y-94739000D01*
X140558161Y-94939654D01*
X140471764Y-95374000D01*
X140503131Y-95531695D01*
X140476041Y-95491151D01*
X140391603Y-95066654D01*
X140145566Y-94698434D01*
X139777346Y-94452397D01*
X139343000Y-94366000D01*
X138908654Y-94452397D01*
X138540434Y-94698434D01*
X138294397Y-95066654D01*
X138225827Y-95411378D01*
X138225827Y-95047714D01*
X138258019Y-95015578D01*
X138400665Y-94672050D01*
X138400989Y-94300084D01*
X138258944Y-93956308D01*
X137996154Y-93693059D01*
X137652626Y-93550413D01*
X137280660Y-93550089D01*
X136936884Y-93692134D01*
X136673635Y-93954924D01*
X136530989Y-94298452D01*
X136530665Y-94670418D01*
X136672710Y-95014194D01*
X136705827Y-95047369D01*
X136705827Y-96417827D01*
X136763679Y-96708666D01*
X136928426Y-96955228D01*
X137645878Y-97672680D01*
X137645838Y-97718167D01*
X137687967Y-97820127D01*
X137497799Y-97741162D01*
X137125833Y-97740838D01*
X136782057Y-97882883D01*
X136518808Y-98145673D01*
X136376162Y-98489201D01*
X136375838Y-98861167D01*
X131260839Y-98861167D01*
X131260879Y-98815923D01*
X132291802Y-97785000D01*
X133319537Y-97785000D01*
X133351673Y-97817192D01*
X133695201Y-97959838D01*
X134010332Y-97960112D01*
X134104883Y-98188943D01*
X134367673Y-98452192D01*
X134711201Y-98594838D01*
X135083167Y-98595162D01*
X135426943Y-98453117D01*
X135690192Y-98190327D01*
X135832838Y-97846799D01*
X135833162Y-97474833D01*
X135691117Y-97131057D01*
X135428327Y-96867808D01*
X135084799Y-96725162D01*
X134769668Y-96724888D01*
X134675117Y-96496057D01*
X134412327Y-96232808D01*
X134068799Y-96090162D01*
X133696833Y-96089838D01*
X133353057Y-96231883D01*
X133319882Y-96265000D01*
X131977000Y-96265000D01*
X131686161Y-96322852D01*
X131439599Y-96487599D01*
X131384909Y-96542289D01*
X131385091Y-96332984D01*
X131279142Y-96076567D01*
X131387838Y-95814799D01*
X131388162Y-95442833D01*
X131246117Y-95099057D01*
X130983327Y-94835808D01*
X130639799Y-94693162D01*
X130267833Y-94692838D01*
X129924057Y-94834883D01*
X129660808Y-95097673D01*
X129518162Y-95441201D01*
X129517838Y-95813167D01*
X129623787Y-96069584D01*
X129515091Y-96331352D01*
X129514767Y-96703318D01*
X129597000Y-96902338D01*
X129518162Y-97092201D01*
X129517838Y-97464167D01*
X129659883Y-97807943D01*
X129765820Y-97914065D01*
X129533808Y-98145673D01*
X129391162Y-98489201D01*
X129390838Y-98861167D01*
X102710000Y-98861167D01*
X102710000Y-97464167D01*
X110848838Y-97464167D01*
X110990883Y-97807943D01*
X111253673Y-98071192D01*
X111597201Y-98213838D01*
X111969167Y-98214162D01*
X112312943Y-98072117D01*
X112576192Y-97809327D01*
X112718838Y-97465799D01*
X112719162Y-97093833D01*
X112663743Y-96959708D01*
X112703192Y-96920327D01*
X112845838Y-96576799D01*
X112846162Y-96204833D01*
X112704117Y-95861057D01*
X112441327Y-95597808D01*
X112097799Y-95455162D01*
X111725833Y-95454838D01*
X111382057Y-95596883D01*
X111118808Y-95859673D01*
X110976162Y-96203201D01*
X110975838Y-96575167D01*
X111031257Y-96709292D01*
X110991808Y-96748673D01*
X110849162Y-97092201D01*
X110848838Y-97464167D01*
X102710000Y-97464167D01*
X102710000Y-96448167D01*
X104625838Y-96448167D01*
X104767883Y-96791943D01*
X105030673Y-97055192D01*
X105374201Y-97197838D01*
X105746167Y-97198162D01*
X106089943Y-97056117D01*
X106353192Y-96793327D01*
X106495838Y-96449799D01*
X106496162Y-96077833D01*
X106354117Y-95734057D01*
X106091327Y-95470808D01*
X105747799Y-95328162D01*
X105375833Y-95327838D01*
X105032057Y-95469883D01*
X104768808Y-95732673D01*
X104626162Y-96076201D01*
X104625838Y-96448167D01*
X102710000Y-96448167D01*
X102710000Y-94035167D01*
X111610838Y-94035167D01*
X111752883Y-94378943D01*
X112015673Y-94642192D01*
X112359201Y-94784838D01*
X112731167Y-94785162D01*
X113074943Y-94643117D01*
X113338192Y-94380327D01*
X113480838Y-94036799D01*
X113481162Y-93664833D01*
X113445450Y-93578403D01*
X117441682Y-93578403D01*
X117659045Y-94104462D01*
X117442319Y-94626395D01*
X117441682Y-95356403D01*
X117659045Y-95882462D01*
X117442319Y-96404395D01*
X117441682Y-97134403D01*
X117720455Y-97809086D01*
X118236199Y-98325730D01*
X118910395Y-98605681D01*
X119640403Y-98606318D01*
X120166462Y-98388955D01*
X120688395Y-98605681D01*
X121418403Y-98606318D01*
X121944462Y-98388955D01*
X122466395Y-98605681D01*
X123196403Y-98606318D01*
X123871086Y-98327545D01*
X124387730Y-97811801D01*
X124667681Y-97137605D01*
X124668318Y-96407597D01*
X124450955Y-95881538D01*
X124667681Y-95359605D01*
X124668318Y-94629597D01*
X124450955Y-94103538D01*
X124667681Y-93581605D01*
X124668318Y-92851597D01*
X124389545Y-92176914D01*
X123873801Y-91660270D01*
X123199605Y-91380319D01*
X122469597Y-91379682D01*
X121943538Y-91597045D01*
X121421605Y-91380319D01*
X120691597Y-91379682D01*
X120165538Y-91597045D01*
X119643605Y-91380319D01*
X118913597Y-91379682D01*
X118238914Y-91658455D01*
X117722270Y-92174199D01*
X117442319Y-92848395D01*
X117441682Y-93578403D01*
X113445450Y-93578403D01*
X113339117Y-93321057D01*
X113076327Y-93057808D01*
X112732799Y-92915162D01*
X112360833Y-92914838D01*
X112017057Y-93056883D01*
X111753808Y-93319673D01*
X111611162Y-93663201D01*
X111610838Y-94035167D01*
X102710000Y-94035167D01*
X102710000Y-90733166D01*
X128628838Y-90733166D01*
X128770883Y-91076942D01*
X129033673Y-91340191D01*
X129377201Y-91482837D01*
X129495422Y-91482940D01*
X129527162Y-91504148D01*
X129567581Y-91512188D01*
X129518162Y-91631201D01*
X129517838Y-92003167D01*
X129659883Y-92346943D01*
X129829209Y-92516565D01*
X129660808Y-92684673D01*
X129518162Y-93028201D01*
X129517838Y-93400167D01*
X129659883Y-93743943D01*
X129922673Y-94007192D01*
X130266201Y-94149838D01*
X130638167Y-94150162D01*
X130981943Y-94008117D01*
X131245192Y-93745327D01*
X131387838Y-93401799D01*
X131388162Y-93029833D01*
X131246117Y-92686057D01*
X131076791Y-92516435D01*
X131245192Y-92348327D01*
X131387838Y-92004799D01*
X131388162Y-91632833D01*
X131358894Y-91562000D01*
X131723000Y-91562000D01*
X132013839Y-91504148D01*
X132260401Y-91339401D01*
X135189161Y-88410641D01*
X135222080Y-88490310D01*
X135484870Y-88753559D01*
X135828398Y-88896205D01*
X136200364Y-88896529D01*
X136478657Y-88781541D01*
X134964198Y-90296000D01*
X134571461Y-90296000D01*
X134539325Y-90263808D01*
X134195797Y-90121162D01*
X133823831Y-90120838D01*
X133480055Y-90262883D01*
X133216806Y-90525673D01*
X133074160Y-90869201D01*
X133073836Y-91241167D01*
X133215881Y-91584943D01*
X133478671Y-91848192D01*
X133822199Y-91990838D01*
X134194165Y-91991162D01*
X134537941Y-91849117D01*
X134571116Y-91816000D01*
X135279000Y-91816000D01*
X135569839Y-91758148D01*
X135816401Y-91593401D01*
X135828785Y-91581017D01*
X135882883Y-91711943D01*
X136145673Y-91975192D01*
X136489201Y-92117838D01*
X136861167Y-92118162D01*
X137204943Y-91976117D01*
X137468192Y-91713327D01*
X137610838Y-91369799D01*
X137611162Y-90997833D01*
X137591281Y-90949718D01*
X137831191Y-90710226D01*
X137973837Y-90366698D01*
X137974161Y-89994732D01*
X137884119Y-89776814D01*
X138093943Y-89690117D01*
X138357192Y-89427327D01*
X138499838Y-89083799D01*
X138500162Y-88711833D01*
X138358117Y-88368057D01*
X138095327Y-88104808D01*
X137751799Y-87962162D01*
X137379833Y-87961838D01*
X137036057Y-88103883D01*
X136920539Y-88219199D01*
X136950035Y-88148166D01*
X136950327Y-87812167D01*
X146027838Y-87812167D01*
X146169883Y-88155943D01*
X146432673Y-88419192D01*
X146776201Y-88561838D01*
X147148167Y-88562162D01*
X147491943Y-88420117D01*
X147755192Y-88157327D01*
X147897838Y-87813799D01*
X147898162Y-87441833D01*
X147756117Y-87098057D01*
X147493327Y-86834808D01*
X147149799Y-86692162D01*
X146777833Y-86691838D01*
X146434057Y-86833883D01*
X146170808Y-87096673D01*
X146028162Y-87440201D01*
X146027838Y-87812167D01*
X136950327Y-87812167D01*
X136950359Y-87776200D01*
X136808314Y-87432424D01*
X136545524Y-87169175D01*
X136464338Y-87135464D01*
X137223399Y-86376403D01*
X137388146Y-86129841D01*
X137445998Y-85839002D01*
X137445998Y-85278036D01*
X137423713Y-85166001D01*
X137815459Y-85166001D01*
X138146859Y-85497401D01*
X138393421Y-85662148D01*
X138684260Y-85720000D01*
X138979023Y-85720000D01*
X139011159Y-85752192D01*
X139354687Y-85894838D01*
X139726653Y-85895162D01*
X140070429Y-85753117D01*
X140333678Y-85490327D01*
X140476324Y-85146799D01*
X140476648Y-84774833D01*
X140334603Y-84431057D01*
X140071813Y-84167808D01*
X139728285Y-84025162D01*
X139649346Y-84025093D01*
X139716000Y-83690000D01*
X139629604Y-83255655D01*
X139383566Y-82887434D01*
X139083567Y-82587435D01*
X138954450Y-82501162D01*
X138715347Y-82341398D01*
X138281001Y-82255001D01*
X135080242Y-82255001D01*
X135197838Y-81971799D01*
X135198162Y-81599833D01*
X135056117Y-81256057D01*
X134793327Y-80992808D01*
X134449799Y-80850162D01*
X134077833Y-80849838D01*
X133734057Y-80991883D01*
X133470808Y-81254673D01*
X133328162Y-81598201D01*
X133327838Y-81970167D01*
X133469883Y-82313943D01*
X133732673Y-82577192D01*
X134037217Y-82703651D01*
X133063435Y-83677433D01*
X132817398Y-84045653D01*
X132800365Y-84131283D01*
X132544799Y-84025162D01*
X132172833Y-84024838D01*
X131829057Y-84166883D01*
X131565808Y-84429673D01*
X131423162Y-84773201D01*
X131422838Y-85145167D01*
X131564883Y-85488943D01*
X131827673Y-85752192D01*
X132171201Y-85894838D01*
X132543167Y-85895162D01*
X132620000Y-85863415D01*
X132620000Y-85884002D01*
X132706397Y-86318348D01*
X132952434Y-86686568D01*
X133007547Y-86723394D01*
X131101052Y-88629889D01*
X130748560Y-88629889D01*
X130716424Y-88597697D01*
X130694747Y-88588696D01*
X130752838Y-88448799D01*
X130753162Y-88076833D01*
X130611117Y-87733057D01*
X130348327Y-87469808D01*
X130004799Y-87327162D01*
X129632833Y-87326838D01*
X129289057Y-87468883D01*
X129025808Y-87731673D01*
X128883162Y-88075201D01*
X128882838Y-88447167D01*
X129024883Y-88790943D01*
X129287673Y-89054192D01*
X129309350Y-89063193D01*
X129251259Y-89203090D01*
X129250935Y-89575056D01*
X129282921Y-89652467D01*
X129035057Y-89754882D01*
X128771808Y-90017672D01*
X128629162Y-90361200D01*
X128628838Y-90733166D01*
X102710000Y-90733166D01*
X102710000Y-87579901D01*
X102853434Y-87794566D01*
X103153433Y-88094565D01*
X103206133Y-88147266D01*
X103523912Y-88359599D01*
X103574354Y-88393303D01*
X104008700Y-88479700D01*
X106715510Y-88479700D01*
X107039087Y-88415336D01*
X107038838Y-88701167D01*
X107180883Y-89044943D01*
X107443673Y-89308192D01*
X107787201Y-89450838D01*
X107858993Y-89450901D01*
X107858993Y-89459935D01*
X107801162Y-89599207D01*
X107800838Y-89971173D01*
X107942883Y-90314949D01*
X108205673Y-90578198D01*
X108549201Y-90720844D01*
X108921167Y-90721168D01*
X109264943Y-90579123D01*
X109528192Y-90316333D01*
X109664069Y-89989106D01*
X109772951Y-89944117D01*
X110036200Y-89681327D01*
X110178846Y-89337799D01*
X110179170Y-88965833D01*
X110037125Y-88622057D01*
X109969763Y-88554578D01*
X109946156Y-88435897D01*
X109829004Y-88260566D01*
X109829004Y-88016806D01*
X110721878Y-88909680D01*
X110721838Y-88955167D01*
X110863883Y-89298943D01*
X111126673Y-89562192D01*
X111470201Y-89704838D01*
X111842167Y-89705162D01*
X112185943Y-89563117D01*
X112449192Y-89300327D01*
X112591838Y-88956799D01*
X112592162Y-88584833D01*
X112458616Y-88261627D01*
X112591837Y-87940798D01*
X112592161Y-87568832D01*
X112450116Y-87225056D01*
X112187326Y-86961807D01*
X111843798Y-86819161D01*
X111471832Y-86818837D01*
X111128056Y-86960882D01*
X111025280Y-87063478D01*
X110264618Y-86302816D01*
X110221163Y-86084354D01*
X110056416Y-85837792D01*
X110005518Y-85786894D01*
X118084937Y-85786894D01*
X118226982Y-86130670D01*
X118489772Y-86393919D01*
X118833300Y-86536565D01*
X119205266Y-86536889D01*
X119549042Y-86394844D01*
X119812291Y-86132054D01*
X119822049Y-86108554D01*
X119880883Y-86250943D01*
X120143673Y-86514192D01*
X120487201Y-86656838D01*
X120859167Y-86657162D01*
X121202943Y-86515117D01*
X121466192Y-86252327D01*
X121608838Y-85908799D01*
X121608950Y-85780167D01*
X121897838Y-85780167D01*
X122039883Y-86123943D01*
X122302673Y-86387192D01*
X122646201Y-86529838D01*
X123018167Y-86530162D01*
X123361943Y-86388117D01*
X123625192Y-86125327D01*
X123767838Y-85781799D01*
X123768162Y-85409833D01*
X123626117Y-85066057D01*
X123363327Y-84802808D01*
X123019799Y-84660162D01*
X122647833Y-84659838D01*
X122304057Y-84801883D01*
X122040808Y-85064673D01*
X121898162Y-85408201D01*
X121897838Y-85780167D01*
X121608950Y-85780167D01*
X121609162Y-85536833D01*
X121467117Y-85193057D01*
X121204327Y-84929808D01*
X120860799Y-84787162D01*
X120488833Y-84786838D01*
X120145057Y-84928883D01*
X119881808Y-85191673D01*
X119872050Y-85215173D01*
X119813216Y-85072784D01*
X119550426Y-84809535D01*
X119206898Y-84666889D01*
X118834932Y-84666565D01*
X118491156Y-84808610D01*
X118227907Y-85071400D01*
X118085261Y-85414928D01*
X118084937Y-85786894D01*
X110005518Y-85786894D01*
X108449338Y-84230714D01*
X108754392Y-84104668D01*
X109017641Y-83841878D01*
X109160287Y-83498350D01*
X109160611Y-83126384D01*
X109018566Y-82782608D01*
X108941964Y-82705872D01*
X109035838Y-82479799D01*
X109035839Y-82478167D01*
X110086838Y-82478167D01*
X110228883Y-82821943D01*
X110491673Y-83085192D01*
X110835201Y-83227838D01*
X111207167Y-83228162D01*
X111550943Y-83086117D01*
X111814192Y-82823327D01*
X111956838Y-82479799D01*
X111957162Y-82107833D01*
X111847805Y-81843167D01*
X114785838Y-81843167D01*
X114927883Y-82186943D01*
X115190673Y-82450192D01*
X115534201Y-82592838D01*
X115906167Y-82593162D01*
X116249943Y-82451117D01*
X116483176Y-82218291D01*
X116714673Y-82450192D01*
X117058201Y-82592838D01*
X117430167Y-82593162D01*
X117773943Y-82451117D01*
X118037192Y-82188327D01*
X118075045Y-82097167D01*
X121008838Y-82097167D01*
X121150883Y-82440943D01*
X121413673Y-82704192D01*
X121757201Y-82846838D01*
X122129167Y-82847162D01*
X122472943Y-82705117D01*
X122700289Y-82478167D01*
X126469838Y-82478167D01*
X126611883Y-82821943D01*
X126851104Y-83061582D01*
X126850838Y-83367167D01*
X126992883Y-83710943D01*
X127255673Y-83974192D01*
X127599201Y-84116838D01*
X127971167Y-84117162D01*
X128314943Y-83975117D01*
X128432998Y-83857268D01*
X128432998Y-84325800D01*
X128155879Y-84602919D01*
X128110392Y-84602879D01*
X127766616Y-84744924D01*
X127503367Y-85007714D01*
X127360721Y-85351242D01*
X127360397Y-85723208D01*
X127502442Y-86066984D01*
X127765232Y-86330233D01*
X128108760Y-86472879D01*
X128480726Y-86473203D01*
X128628133Y-86412296D01*
X128649096Y-86433296D01*
X128992624Y-86575942D01*
X129364590Y-86576266D01*
X129708366Y-86434221D01*
X129971615Y-86171431D01*
X130114261Y-85827903D01*
X130114302Y-85781027D01*
X130439158Y-85456171D01*
X130603905Y-85209609D01*
X130661757Y-84918770D01*
X130661757Y-81966463D01*
X130693949Y-81934327D01*
X130836595Y-81590799D01*
X130836919Y-81218833D01*
X130694874Y-80875057D01*
X130634970Y-80815049D01*
X130765167Y-80815162D01*
X131108943Y-80673117D01*
X131372192Y-80410327D01*
X131462780Y-80192167D01*
X134216838Y-80192167D01*
X134358883Y-80535943D01*
X134621673Y-80799192D01*
X134965201Y-80941838D01*
X135337167Y-80942162D01*
X135680943Y-80800117D01*
X135944192Y-80537327D01*
X136086838Y-80193799D01*
X136087162Y-79821833D01*
X135945117Y-79478057D01*
X135682327Y-79214808D01*
X135338799Y-79072162D01*
X134966833Y-79071838D01*
X134623057Y-79213883D01*
X134359808Y-79476673D01*
X134217162Y-79820201D01*
X134216838Y-80192167D01*
X131462780Y-80192167D01*
X131514838Y-80066799D01*
X131515162Y-79694833D01*
X131373117Y-79351057D01*
X131110327Y-79087808D01*
X130766799Y-78945162D01*
X130394833Y-78944838D01*
X130051057Y-79086883D01*
X129787808Y-79349673D01*
X129645162Y-79693201D01*
X129644986Y-79895695D01*
X129496799Y-79834162D01*
X129124833Y-79833838D01*
X128781057Y-79975883D01*
X128725025Y-80031817D01*
X128706117Y-79986057D01*
X128443327Y-79722808D01*
X128099799Y-79580162D01*
X127727833Y-79579838D01*
X127384057Y-79721883D01*
X127120808Y-79984673D01*
X126978162Y-80328201D01*
X126977838Y-80700167D01*
X127119883Y-81043943D01*
X127382673Y-81307192D01*
X127505240Y-81358087D01*
X127219833Y-81357838D01*
X126876057Y-81499883D01*
X126612808Y-81762673D01*
X126470162Y-82106201D01*
X126469838Y-82478167D01*
X122700289Y-82478167D01*
X122736192Y-82442327D01*
X122878838Y-82098799D01*
X122879162Y-81726833D01*
X122737117Y-81383057D01*
X122474327Y-81119808D01*
X122130799Y-80977162D01*
X121758833Y-80976838D01*
X121415057Y-81118883D01*
X121151808Y-81381673D01*
X121009162Y-81725201D01*
X121008838Y-82097167D01*
X118075045Y-82097167D01*
X118179838Y-81844799D01*
X118180162Y-81472833D01*
X118038117Y-81129057D01*
X117775327Y-80865808D01*
X117431799Y-80723162D01*
X117059833Y-80722838D01*
X116716057Y-80864883D01*
X116482824Y-81097709D01*
X116251327Y-80865808D01*
X115907799Y-80723162D01*
X115535833Y-80722838D01*
X115192057Y-80864883D01*
X114928808Y-81127673D01*
X114786162Y-81471201D01*
X114785838Y-81843167D01*
X111847805Y-81843167D01*
X111815117Y-81764057D01*
X111552327Y-81500808D01*
X111208799Y-81358162D01*
X110836833Y-81357838D01*
X110493057Y-81499883D01*
X110229808Y-81762673D01*
X110087162Y-82106201D01*
X110086838Y-82478167D01*
X109035839Y-82478167D01*
X109036162Y-82107833D01*
X108894117Y-81764057D01*
X108631327Y-81500808D01*
X108287799Y-81358162D01*
X107915833Y-81357838D01*
X107572057Y-81499883D01*
X107308808Y-81762673D01*
X107166162Y-82106201D01*
X107165838Y-82478167D01*
X107307883Y-82821943D01*
X107384485Y-82898679D01*
X107290611Y-83124752D01*
X107290544Y-83201742D01*
X104661969Y-80573167D01*
X112372838Y-80573167D01*
X112514883Y-80916943D01*
X112777673Y-81180192D01*
X113121201Y-81322838D01*
X113493167Y-81323162D01*
X113836943Y-81181117D01*
X114100192Y-80918327D01*
X114242838Y-80574799D01*
X114243162Y-80202833D01*
X114101117Y-79859057D01*
X113838327Y-79595808D01*
X113494799Y-79453162D01*
X113122833Y-79452838D01*
X112779057Y-79594883D01*
X112515808Y-79857673D01*
X112373162Y-80201201D01*
X112372838Y-80573167D01*
X104661969Y-80573167D01*
X104591122Y-80502320D01*
X104591162Y-80456833D01*
X104449117Y-80113057D01*
X104416000Y-80079882D01*
X104416000Y-79724214D01*
X104964047Y-79176167D01*
X109832838Y-79176167D01*
X109974883Y-79519943D01*
X110237673Y-79783192D01*
X110581201Y-79925838D01*
X110953167Y-79926162D01*
X111296943Y-79784117D01*
X111560192Y-79521327D01*
X111702838Y-79177799D01*
X111703060Y-78922167D01*
X114531838Y-78922167D01*
X114673883Y-79265943D01*
X114936673Y-79529192D01*
X115280201Y-79671838D01*
X115652167Y-79672162D01*
X115995943Y-79530117D01*
X116259192Y-79267327D01*
X116401838Y-78923799D01*
X116402162Y-78551833D01*
X116260117Y-78208057D01*
X116212311Y-78160167D01*
X116817838Y-78160167D01*
X116959883Y-78503943D01*
X117222673Y-78767192D01*
X117566201Y-78909838D01*
X117938167Y-78910162D01*
X118281943Y-78768117D01*
X118382067Y-78668167D01*
X122024838Y-78668167D01*
X122166883Y-79011943D01*
X122429673Y-79275192D01*
X122773201Y-79417838D01*
X123145167Y-79418162D01*
X123488943Y-79276117D01*
X123752192Y-79013327D01*
X123894838Y-78669799D01*
X123895162Y-78297833D01*
X123753117Y-77954057D01*
X123490327Y-77690808D01*
X123146799Y-77548162D01*
X122774833Y-77547838D01*
X122431057Y-77689883D01*
X122167808Y-77952673D01*
X122025162Y-78296201D01*
X122024838Y-78668167D01*
X118382067Y-78668167D01*
X118545192Y-78505327D01*
X118687838Y-78161799D01*
X118688162Y-77789833D01*
X118546117Y-77446057D01*
X118283327Y-77182808D01*
X117939799Y-77040162D01*
X117567833Y-77039838D01*
X117224057Y-77181883D01*
X116960808Y-77444673D01*
X116818162Y-77788201D01*
X116817838Y-78160167D01*
X116212311Y-78160167D01*
X115997327Y-77944808D01*
X115653799Y-77802162D01*
X115281833Y-77801838D01*
X114938057Y-77943883D01*
X114674808Y-78206673D01*
X114532162Y-78550201D01*
X114531838Y-78922167D01*
X111703060Y-78922167D01*
X111703162Y-78805833D01*
X111561117Y-78462057D01*
X111298327Y-78198808D01*
X110954799Y-78056162D01*
X110582833Y-78055838D01*
X110239057Y-78197883D01*
X109975808Y-78460673D01*
X109833162Y-78804201D01*
X109832838Y-79176167D01*
X104964047Y-79176167D01*
X105024411Y-79115803D01*
X105189158Y-78869241D01*
X105247010Y-78578402D01*
X105247010Y-77341372D01*
X105189158Y-77050533D01*
X105024411Y-76803971D01*
X104531760Y-76311320D01*
X104531800Y-76265833D01*
X104389755Y-75922057D01*
X104126965Y-75658808D01*
X103783437Y-75516162D01*
X103411471Y-75515838D01*
X103067695Y-75657883D01*
X102804446Y-75920673D01*
X102710000Y-76148123D01*
X102710000Y-71500000D01*
X103290000Y-71500000D01*
X103458226Y-72345730D01*
X103937294Y-73062706D01*
X104654270Y-73541774D01*
X105500000Y-73710000D01*
X106345730Y-73541774D01*
X107062706Y-73062706D01*
X107541774Y-72345730D01*
X107626854Y-71918000D01*
X108889560Y-71918000D01*
X108889560Y-73618000D01*
X108933838Y-73853317D01*
X109072910Y-74069441D01*
X109285110Y-74214431D01*
X109537000Y-74265440D01*
X111237000Y-74265440D01*
X111472317Y-74221162D01*
X111688441Y-74082090D01*
X111833431Y-73869890D01*
X111847086Y-73802459D01*
X111876946Y-73847147D01*
X112358715Y-74169054D01*
X112927000Y-74282093D01*
X113293408Y-74209210D01*
X114929599Y-75845401D01*
X115176160Y-76010148D01*
X115220145Y-76018897D01*
X115467000Y-76068000D01*
X145632198Y-76068000D01*
X145646878Y-76082680D01*
X145646838Y-76128167D01*
X145788883Y-76471943D01*
X146051673Y-76735192D01*
X146395201Y-76877838D01*
X146767167Y-76878162D01*
X146991206Y-76785591D01*
X147067673Y-76862192D01*
X147411201Y-77004838D01*
X147783167Y-77005162D01*
X148069764Y-76886743D01*
X148253157Y-76962895D01*
X148625123Y-76963219D01*
X148968899Y-76821174D01*
X149232148Y-76558384D01*
X149336297Y-76307567D01*
X149512906Y-76234594D01*
X149776155Y-75971804D01*
X149918801Y-75628276D01*
X149919125Y-75256310D01*
X149777080Y-74912534D01*
X149514290Y-74649285D01*
X149170762Y-74506639D01*
X149123886Y-74506598D01*
X148830963Y-74213675D01*
X149055285Y-74169054D01*
X149537054Y-73847147D01*
X149757000Y-73517974D01*
X149976946Y-73847147D01*
X150458715Y-74169054D01*
X151027000Y-74282093D01*
X151595285Y-74169054D01*
X152077054Y-73847147D01*
X152297000Y-73517974D01*
X152516946Y-73847147D01*
X152998715Y-74169054D01*
X153567000Y-74282093D01*
X154135285Y-74169054D01*
X154617054Y-73847147D01*
X154837000Y-73517974D01*
X155056946Y-73847147D01*
X155538715Y-74169054D01*
X156107000Y-74282093D01*
X156675285Y-74169054D01*
X157157054Y-73847147D01*
X157377000Y-73517974D01*
X157596946Y-73847147D01*
X158078715Y-74169054D01*
X158647000Y-74282093D01*
X159215285Y-74169054D01*
X159697054Y-73847147D01*
X160018961Y-73365378D01*
X160132000Y-72797093D01*
X160132000Y-72738907D01*
X160018961Y-72170622D01*
X159697054Y-71688853D01*
X159414416Y-71500000D01*
X161290000Y-71500000D01*
X161458226Y-72345730D01*
X161937294Y-73062706D01*
X162654270Y-73541774D01*
X163500000Y-73710000D01*
X164345730Y-73541774D01*
X165062706Y-73062706D01*
X165541774Y-72345730D01*
X165710000Y-71500000D01*
X165541774Y-70654270D01*
X165062706Y-69937294D01*
X164345730Y-69458226D01*
X163500000Y-69290000D01*
X162654270Y-69458226D01*
X161937294Y-69937294D01*
X161458226Y-70654270D01*
X161290000Y-71500000D01*
X159414416Y-71500000D01*
X159411422Y-71498000D01*
X159697054Y-71307147D01*
X160018961Y-70825378D01*
X160132000Y-70257093D01*
X160132000Y-70198907D01*
X160018961Y-69630622D01*
X159697054Y-69148853D01*
X159215285Y-68826946D01*
X158647000Y-68713907D01*
X158078715Y-68826946D01*
X157596946Y-69148853D01*
X157377000Y-69478026D01*
X157157054Y-69148853D01*
X156675285Y-68826946D01*
X156107000Y-68713907D01*
X155538715Y-68826946D01*
X155056946Y-69148853D01*
X154837000Y-69478026D01*
X154617054Y-69148853D01*
X154135285Y-68826946D01*
X153567000Y-68713907D01*
X152998715Y-68826946D01*
X152516946Y-69148853D01*
X152297000Y-69478026D01*
X152077054Y-69148853D01*
X151595285Y-68826946D01*
X151027000Y-68713907D01*
X150458715Y-68826946D01*
X149976946Y-69148853D01*
X149757000Y-69478026D01*
X149537054Y-69148853D01*
X149055285Y-68826946D01*
X148487000Y-68713907D01*
X147918715Y-68826946D01*
X147436946Y-69148853D01*
X147217000Y-69478026D01*
X146997054Y-69148853D01*
X146515285Y-68826946D01*
X145947000Y-68713907D01*
X145378715Y-68826946D01*
X144896946Y-69148853D01*
X144677000Y-69478026D01*
X144457054Y-69148853D01*
X143975285Y-68826946D01*
X143407000Y-68713907D01*
X142838715Y-68826946D01*
X142356946Y-69148853D01*
X142137000Y-69478026D01*
X141917054Y-69148853D01*
X141435285Y-68826946D01*
X140867000Y-68713907D01*
X140298715Y-68826946D01*
X139816946Y-69148853D01*
X139597000Y-69478026D01*
X139377054Y-69148853D01*
X138895285Y-68826946D01*
X138327000Y-68713907D01*
X137758715Y-68826946D01*
X137276946Y-69148853D01*
X137057000Y-69478026D01*
X136837054Y-69148853D01*
X136355285Y-68826946D01*
X135787000Y-68713907D01*
X135218715Y-68826946D01*
X134736946Y-69148853D01*
X134517000Y-69478026D01*
X134297054Y-69148853D01*
X133815285Y-68826946D01*
X133247000Y-68713907D01*
X132678715Y-68826946D01*
X132196946Y-69148853D01*
X131977000Y-69478026D01*
X131757054Y-69148853D01*
X131275285Y-68826946D01*
X130707000Y-68713907D01*
X130138715Y-68826946D01*
X129656946Y-69148853D01*
X129437000Y-69478026D01*
X129217054Y-69148853D01*
X128735285Y-68826946D01*
X128167000Y-68713907D01*
X127598715Y-68826946D01*
X127116946Y-69148853D01*
X126897000Y-69478026D01*
X126677054Y-69148853D01*
X126195285Y-68826946D01*
X125627000Y-68713907D01*
X125058715Y-68826946D01*
X124576946Y-69148853D01*
X124357000Y-69478026D01*
X124137054Y-69148853D01*
X123655285Y-68826946D01*
X123087000Y-68713907D01*
X122518715Y-68826946D01*
X122036946Y-69148853D01*
X121817000Y-69478026D01*
X121597054Y-69148853D01*
X121115285Y-68826946D01*
X120547000Y-68713907D01*
X119978715Y-68826946D01*
X119496946Y-69148853D01*
X119277000Y-69478026D01*
X119057054Y-69148853D01*
X118575285Y-68826946D01*
X118007000Y-68713907D01*
X117438715Y-68826946D01*
X116956946Y-69148853D01*
X116737000Y-69478026D01*
X116517054Y-69148853D01*
X116035285Y-68826946D01*
X115467000Y-68713907D01*
X114898715Y-68826946D01*
X114416946Y-69148853D01*
X114197000Y-69478026D01*
X113977054Y-69148853D01*
X113495285Y-68826946D01*
X112927000Y-68713907D01*
X112358715Y-68826946D01*
X111876946Y-69148853D01*
X111657000Y-69478026D01*
X111437054Y-69148853D01*
X110955285Y-68826946D01*
X110387000Y-68713907D01*
X109818715Y-68826946D01*
X109336946Y-69148853D01*
X109015039Y-69630622D01*
X108902000Y-70198907D01*
X108902000Y-70257093D01*
X109015039Y-70825378D01*
X109336946Y-71307147D01*
X109338179Y-71307971D01*
X109301683Y-71314838D01*
X109085559Y-71453910D01*
X108940569Y-71666110D01*
X108889560Y-71918000D01*
X107626854Y-71918000D01*
X107710000Y-71500000D01*
X107541774Y-70654270D01*
X107062706Y-69937294D01*
X106345730Y-69458226D01*
X105500000Y-69290000D01*
X104654270Y-69458226D01*
X103937294Y-69937294D01*
X103458226Y-70654270D01*
X103290000Y-71500000D01*
X102710000Y-71500000D01*
X102710000Y-71069931D01*
X102897167Y-70128977D01*
X103390561Y-69390561D01*
X104128977Y-68897167D01*
X105069931Y-68710000D01*
X166873000Y-68710000D01*
X166873000Y-82882000D01*
X166873000Y-82882000D01*
G37*
X166873000Y-82882000D02*
X166140000Y-82882000D01*
X165782191Y-82953173D01*
X165478855Y-83155855D01*
X162432724Y-86201986D01*
X162389799Y-86184162D01*
X162017833Y-86183838D01*
X161885600Y-86238476D01*
X161754799Y-86184162D01*
X161382833Y-86183838D01*
X161250600Y-86238476D01*
X161119799Y-86184162D01*
X160747833Y-86183838D01*
X160615600Y-86238476D01*
X160484799Y-86184162D01*
X160112833Y-86183838D01*
X159769057Y-86325883D01*
X159505808Y-86588673D01*
X159363162Y-86932201D01*
X159362838Y-87304167D01*
X159470080Y-87563714D01*
X159363162Y-87821201D01*
X159362838Y-88193167D01*
X159504883Y-88536943D01*
X159628138Y-88660414D01*
X159541333Y-88660338D01*
X159197557Y-88802383D01*
X158934308Y-89065173D01*
X158845935Y-89277998D01*
X158703252Y-89277998D01*
X158862000Y-89119250D01*
X158862000Y-88428690D01*
X158765327Y-88195301D01*
X158586698Y-88016673D01*
X158412223Y-87944403D01*
X158456147Y-87915054D01*
X158778054Y-87433285D01*
X158891093Y-86865000D01*
X158778054Y-86296715D01*
X158456147Y-85814946D01*
X158126974Y-85595000D01*
X158456147Y-85375054D01*
X158778054Y-84893285D01*
X158891093Y-84325000D01*
X158778054Y-83756715D01*
X158456147Y-83274946D01*
X157974378Y-82953039D01*
X157406093Y-82840000D01*
X157347907Y-82840000D01*
X156779622Y-82953039D01*
X156297853Y-83274946D01*
X156107000Y-83560578D01*
X155916147Y-83274946D01*
X155434378Y-82953039D01*
X154866093Y-82840000D01*
X154807907Y-82840000D01*
X154239622Y-82953039D01*
X153757853Y-83274946D01*
X153435946Y-83756715D01*
X153322907Y-84325000D01*
X153435946Y-84893285D01*
X153757853Y-85375054D01*
X154087026Y-85595000D01*
X153757853Y-85814946D01*
X153435946Y-86296715D01*
X153322907Y-86865000D01*
X153435946Y-87433285D01*
X153757853Y-87915054D01*
X154098553Y-88142702D01*
X153955642Y-88209817D01*
X153565355Y-88638076D01*
X153395524Y-89048110D01*
X153516845Y-89278000D01*
X154710000Y-89278000D01*
X154710000Y-89258000D01*
X154964000Y-89258000D01*
X154964000Y-89278000D01*
X157250000Y-89278000D01*
X157250000Y-89258000D01*
X157504000Y-89258000D01*
X157504000Y-89278000D01*
X157524000Y-89278000D01*
X157524000Y-89532000D01*
X157504000Y-89532000D01*
X157504000Y-90731250D01*
X157662750Y-90890000D01*
X158353309Y-90890000D01*
X158586698Y-90793327D01*
X158765327Y-90614699D01*
X158819519Y-90483869D01*
X158845976Y-90547900D01*
X158791662Y-90678701D01*
X158791338Y-91050667D01*
X158859127Y-91214729D01*
X158791662Y-91377201D01*
X158791338Y-91749167D01*
X158933383Y-92092943D01*
X159196173Y-92356192D01*
X159539701Y-92498838D01*
X159911667Y-92499162D01*
X160043900Y-92444524D01*
X160174701Y-92498838D01*
X160546667Y-92499162D01*
X160678900Y-92444524D01*
X160809701Y-92498838D01*
X161181667Y-92499162D01*
X161313900Y-92444524D01*
X161444701Y-92498838D01*
X161816667Y-92499162D01*
X161948900Y-92444524D01*
X162079701Y-92498838D01*
X162451667Y-92499162D01*
X162583900Y-92444524D01*
X162714701Y-92498838D01*
X163086667Y-92499162D01*
X163218900Y-92444524D01*
X163349701Y-92498838D01*
X163721667Y-92499162D01*
X163853900Y-92444524D01*
X163984701Y-92498838D01*
X164356667Y-92499162D01*
X164488900Y-92444524D01*
X164619701Y-92498838D01*
X164991667Y-92499162D01*
X165123900Y-92444524D01*
X165254701Y-92498838D01*
X165626667Y-92499162D01*
X165758900Y-92444524D01*
X165889701Y-92498838D01*
X166261667Y-92499162D01*
X166393900Y-92444524D01*
X166524701Y-92498838D01*
X166873000Y-92499141D01*
X166873000Y-104564737D01*
X166754057Y-104613883D01*
X166578250Y-104789383D01*
X166526333Y-104789338D01*
X166394100Y-104843976D01*
X166263299Y-104789662D01*
X165891333Y-104789338D01*
X165759100Y-104843976D01*
X165628299Y-104789662D01*
X165256333Y-104789338D01*
X165124100Y-104843976D01*
X164993299Y-104789662D01*
X164621333Y-104789338D01*
X164489100Y-104843976D01*
X164358299Y-104789662D01*
X163986333Y-104789338D01*
X163854100Y-104843976D01*
X163723299Y-104789662D01*
X163351333Y-104789338D01*
X163219100Y-104843976D01*
X163088299Y-104789662D01*
X162716333Y-104789338D01*
X162584100Y-104843976D01*
X162453299Y-104789662D01*
X162081333Y-104789338D01*
X161949100Y-104843976D01*
X161818299Y-104789662D01*
X161446333Y-104789338D01*
X161314100Y-104843976D01*
X161183299Y-104789662D01*
X160811333Y-104789338D01*
X160679100Y-104843976D01*
X160548299Y-104789662D01*
X160176333Y-104789338D01*
X160044100Y-104843976D01*
X159913299Y-104789662D01*
X159541333Y-104789338D01*
X159197557Y-104931383D01*
X158934308Y-105194173D01*
X158791662Y-105537701D01*
X158791338Y-105909667D01*
X158933383Y-106253443D01*
X159196173Y-106516692D01*
X159235848Y-106533167D01*
X159235838Y-106544667D01*
X159377883Y-106888443D01*
X159640673Y-107151692D01*
X159769615Y-107205234D01*
X159822383Y-107332943D01*
X160085173Y-107596192D01*
X160214115Y-107649734D01*
X160266883Y-107777443D01*
X160529673Y-108040692D01*
X160703594Y-108112911D01*
X160774883Y-108285443D01*
X161037673Y-108548692D01*
X161243266Y-108634062D01*
X161282883Y-108729943D01*
X161545673Y-108993192D01*
X161889201Y-109135838D01*
X162261167Y-109136162D01*
X162393400Y-109081524D01*
X162524201Y-109135838D01*
X162896167Y-109136162D01*
X163028400Y-109081524D01*
X163159201Y-109135838D01*
X163531167Y-109136162D01*
X163663400Y-109081524D01*
X163794201Y-109135838D01*
X164166167Y-109136162D01*
X164298400Y-109081524D01*
X164429201Y-109135838D01*
X164801167Y-109136162D01*
X164933400Y-109081524D01*
X165064201Y-109135838D01*
X165436167Y-109136162D01*
X165568400Y-109081524D01*
X165699201Y-109135838D01*
X166071167Y-109136162D01*
X166203400Y-109081524D01*
X166334201Y-109135838D01*
X166706167Y-109136162D01*
X166838400Y-109081524D01*
X166873000Y-109095891D01*
X166873000Y-110000000D01*
X166883006Y-110049410D01*
X166911447Y-110091035D01*
X166953841Y-110118315D01*
X167000000Y-110127000D01*
X171681871Y-110127000D01*
X171681838Y-110164167D01*
X171823883Y-110507943D01*
X172086673Y-110771192D01*
X172430201Y-110913838D01*
X172802167Y-110914162D01*
X173145943Y-110772117D01*
X173409192Y-110509327D01*
X173551838Y-110165799D01*
X173551872Y-110127000D01*
X185223288Y-110127000D01*
X185042057Y-110201883D01*
X184778808Y-110464673D01*
X184636162Y-110808201D01*
X184635838Y-111180167D01*
X184777883Y-111523943D01*
X185040673Y-111787192D01*
X185384201Y-111929838D01*
X185756167Y-111930162D01*
X186099943Y-111788117D01*
X186290000Y-111598391D01*
X186290000Y-113312811D01*
X186101327Y-113123808D01*
X185757799Y-112981162D01*
X185385833Y-112980838D01*
X185042057Y-113122883D01*
X184778808Y-113385673D01*
X184636162Y-113729201D01*
X184635838Y-114101167D01*
X184777883Y-114444943D01*
X185040673Y-114708192D01*
X185384201Y-114850838D01*
X185756167Y-114851162D01*
X186099943Y-114709117D01*
X186290000Y-114519391D01*
X186290000Y-115725811D01*
X186101327Y-115536808D01*
X185757799Y-115394162D01*
X185385833Y-115393838D01*
X185042057Y-115535883D01*
X184778808Y-115798673D01*
X184636162Y-116142201D01*
X184635838Y-116514167D01*
X184777883Y-116857943D01*
X185040673Y-117121192D01*
X185384201Y-117263838D01*
X185756167Y-117264162D01*
X186099943Y-117122117D01*
X186290000Y-116932391D01*
X186290000Y-118011811D01*
X186101327Y-117822808D01*
X185757799Y-117680162D01*
X185385833Y-117679838D01*
X185042057Y-117821883D01*
X184778808Y-118084673D01*
X184636162Y-118428201D01*
X184635838Y-118800167D01*
X184777883Y-119143943D01*
X185040673Y-119407192D01*
X185384201Y-119549838D01*
X185756167Y-119550162D01*
X186099943Y-119408117D01*
X186290000Y-119218391D01*
X186290000Y-120805811D01*
X186101327Y-120616808D01*
X185757799Y-120474162D01*
X185385833Y-120473838D01*
X185042057Y-120615883D01*
X184778808Y-120878673D01*
X184636162Y-121222201D01*
X184635838Y-121594167D01*
X184777883Y-121937943D01*
X185040673Y-122201192D01*
X185384201Y-122343838D01*
X185756167Y-122344162D01*
X185798333Y-122326740D01*
X185609439Y-122609439D01*
X184871023Y-123102833D01*
X183930069Y-123290000D01*
X154247911Y-123290000D01*
X154248162Y-123001833D01*
X154106117Y-122658057D01*
X153843327Y-122394808D01*
X153499799Y-122252162D01*
X153127833Y-122251838D01*
X152784057Y-122393883D01*
X152520808Y-122656673D01*
X152378162Y-123000201D01*
X152377910Y-123290000D01*
X151199911Y-123290000D01*
X151200162Y-123001833D01*
X151058117Y-122658057D01*
X150795327Y-122394808D01*
X150451799Y-122252162D01*
X150079833Y-122251838D01*
X149736057Y-122393883D01*
X149472808Y-122656673D01*
X149330162Y-123000201D01*
X149329910Y-123290000D01*
X148405911Y-123290000D01*
X148406162Y-123001833D01*
X148264117Y-122658057D01*
X148001327Y-122394808D01*
X147657799Y-122252162D01*
X147285833Y-122251838D01*
X146942057Y-122393883D01*
X146678808Y-122656673D01*
X146536162Y-123000201D01*
X146535910Y-123290000D01*
X140912911Y-123290000D01*
X140913162Y-123001833D01*
X140771117Y-122658057D01*
X140508327Y-122394808D01*
X140164799Y-122252162D01*
X139792833Y-122251838D01*
X139449057Y-122393883D01*
X139185808Y-122656673D01*
X139043162Y-123000201D01*
X139042910Y-123290000D01*
X137864911Y-123290000D01*
X137865162Y-123001833D01*
X137723117Y-122658057D01*
X137460327Y-122394808D01*
X137116799Y-122252162D01*
X136744833Y-122251838D01*
X136401057Y-122393883D01*
X136137808Y-122656673D01*
X135995162Y-123000201D01*
X135994910Y-123290000D01*
X135197911Y-123290000D01*
X135198162Y-123001833D01*
X135056117Y-122658057D01*
X134793327Y-122394808D01*
X134449799Y-122252162D01*
X134077833Y-122251838D01*
X133734057Y-122393883D01*
X133470808Y-122656673D01*
X133328162Y-123000201D01*
X133327910Y-123290000D01*
X117391985Y-123290000D01*
X117434838Y-123186799D01*
X117435162Y-122814833D01*
X117304931Y-122499649D01*
X117434838Y-122186799D01*
X117435162Y-121814833D01*
X117293117Y-121471057D01*
X117035677Y-121213167D01*
X123929838Y-121213167D01*
X124071883Y-121556943D01*
X124334673Y-121820192D01*
X124678201Y-121962838D01*
X125050167Y-121963162D01*
X125393943Y-121821117D01*
X125657192Y-121558327D01*
X125799838Y-121214799D01*
X125800162Y-120842833D01*
X125658117Y-120499057D01*
X125576204Y-120417000D01*
X161771000Y-120417000D01*
X161939226Y-121262730D01*
X162418294Y-121979706D01*
X163135270Y-122458774D01*
X163981000Y-122627000D01*
X164826730Y-122458774D01*
X165543706Y-121979706D01*
X165546738Y-121975167D01*
X179809838Y-121975167D01*
X179951883Y-122318943D01*
X180214673Y-122582192D01*
X180558201Y-122724838D01*
X180930167Y-122725162D01*
X181273943Y-122583117D01*
X181537192Y-122320327D01*
X181679838Y-121976799D01*
X181680162Y-121604833D01*
X181538117Y-121261057D01*
X181275327Y-120997808D01*
X180931799Y-120855162D01*
X180559833Y-120854838D01*
X180216057Y-120996883D01*
X179952808Y-121259673D01*
X179810162Y-121603201D01*
X179809838Y-121975167D01*
X165546738Y-121975167D01*
X166022774Y-121262730D01*
X166191000Y-120417000D01*
X166022774Y-119571270D01*
X165543706Y-118854294D01*
X164826730Y-118375226D01*
X163981000Y-118207000D01*
X163135270Y-118375226D01*
X162418294Y-118854294D01*
X161939226Y-119571270D01*
X161771000Y-120417000D01*
X125576204Y-120417000D01*
X125395327Y-120235808D01*
X125051799Y-120093162D01*
X124679833Y-120092838D01*
X124336057Y-120234883D01*
X124072808Y-120497673D01*
X123930162Y-120841201D01*
X123929838Y-121213167D01*
X117035677Y-121213167D01*
X117030327Y-121207808D01*
X116686799Y-121065162D01*
X116314833Y-121064838D01*
X115999649Y-121195069D01*
X115686799Y-121065162D01*
X115314833Y-121064838D01*
X114999649Y-121195069D01*
X114686799Y-121065162D01*
X114314833Y-121064838D01*
X113999649Y-121195069D01*
X113686799Y-121065162D01*
X113314833Y-121064838D01*
X112999649Y-121195069D01*
X112686799Y-121065162D01*
X112314833Y-121064838D01*
X111999649Y-121195069D01*
X111686799Y-121065162D01*
X111434944Y-121064943D01*
X111435162Y-120814833D01*
X111304931Y-120499649D01*
X111434838Y-120186799D01*
X111435162Y-119814833D01*
X111304931Y-119499649D01*
X111434838Y-119186799D01*
X111435162Y-118814833D01*
X111304931Y-118499649D01*
X111434838Y-118186799D01*
X111435162Y-117814833D01*
X111304931Y-117499649D01*
X111434838Y-117186799D01*
X111435162Y-116814833D01*
X111304931Y-116499649D01*
X111434838Y-116186799D01*
X111435162Y-115814833D01*
X111304931Y-115499649D01*
X111434838Y-115186799D01*
X111434931Y-115079002D01*
X130842000Y-115079002D01*
X130928397Y-115513347D01*
X131174434Y-115881568D01*
X131542655Y-116127605D01*
X131977000Y-116214002D01*
X132411345Y-116127605D01*
X132779566Y-115881568D01*
X134051967Y-114609167D01*
X146408838Y-114609167D01*
X146550883Y-114952943D01*
X146813673Y-115216192D01*
X147157201Y-115358838D01*
X147529167Y-115359162D01*
X147872943Y-115217117D01*
X148136192Y-114954327D01*
X148278838Y-114610799D01*
X148278950Y-114482167D01*
X152250838Y-114482167D01*
X152392883Y-114825943D01*
X152655673Y-115089192D01*
X152999201Y-115231838D01*
X153371167Y-115232162D01*
X153714943Y-115090117D01*
X153815067Y-114990167D01*
X174983838Y-114990167D01*
X175125883Y-115333943D01*
X175159000Y-115367118D01*
X175159000Y-119504000D01*
X175216852Y-119794839D01*
X175237940Y-119826399D01*
X175237838Y-119943167D01*
X175379883Y-120286943D01*
X175642673Y-120550192D01*
X175986201Y-120692838D01*
X176358167Y-120693162D01*
X176701943Y-120551117D01*
X176965192Y-120288327D01*
X177107838Y-119944799D01*
X177108162Y-119572833D01*
X176966117Y-119229057D01*
X176703327Y-118965808D01*
X176679000Y-118955706D01*
X176679000Y-115367463D01*
X176711192Y-115335327D01*
X176853838Y-114991799D01*
X176853839Y-114990167D01*
X180571838Y-114990167D01*
X180713883Y-115333943D01*
X180976673Y-115597192D01*
X181320201Y-115739838D01*
X181692167Y-115740162D01*
X181969000Y-115625777D01*
X181969000Y-118741184D01*
X181968838Y-118927167D01*
X182110883Y-119270943D01*
X182373673Y-119534192D01*
X182717201Y-119676838D01*
X183089167Y-119677162D01*
X183432943Y-119535117D01*
X183696192Y-119272327D01*
X183838838Y-118928799D01*
X183839162Y-118556833D01*
X183839000Y-118556441D01*
X183839000Y-114424000D01*
X183767827Y-114066191D01*
X183565145Y-113762855D01*
X182803436Y-113001146D01*
X182672327Y-112869808D01*
X182328799Y-112727162D01*
X181956833Y-112726838D01*
X181613057Y-112868883D01*
X181349808Y-113131673D01*
X181207162Y-113475201D01*
X181206838Y-113847167D01*
X181231609Y-113907118D01*
X180978057Y-114011883D01*
X180714808Y-114274673D01*
X180572162Y-114618201D01*
X180571838Y-114990167D01*
X176853839Y-114990167D01*
X176854162Y-114619833D01*
X176712117Y-114276057D01*
X176449327Y-114012808D01*
X176105799Y-113870162D01*
X175733833Y-113869838D01*
X175390057Y-114011883D01*
X175126808Y-114274673D01*
X174984162Y-114618201D01*
X174983838Y-114990167D01*
X153815067Y-114990167D01*
X153978192Y-114827327D01*
X154120838Y-114483799D01*
X154121162Y-114111833D01*
X153979117Y-113768057D01*
X153716327Y-113504808D01*
X153372799Y-113362162D01*
X153000833Y-113361838D01*
X152657057Y-113503883D01*
X152393808Y-113766673D01*
X152251162Y-114110201D01*
X152250838Y-114482167D01*
X148278950Y-114482167D01*
X148279162Y-114238833D01*
X148137117Y-113895057D01*
X147874327Y-113631808D01*
X147530799Y-113489162D01*
X147158833Y-113488838D01*
X146815057Y-113630883D01*
X146551808Y-113893673D01*
X146409162Y-114237201D01*
X146408838Y-114609167D01*
X134051967Y-114609167D01*
X134245134Y-114416000D01*
X135532998Y-114416000D01*
X135967344Y-114329603D01*
X136335564Y-114083566D01*
X138494564Y-111924566D01*
X138740601Y-111556345D01*
X138826998Y-111122000D01*
X138740601Y-110687655D01*
X138494564Y-110319434D01*
X138197441Y-110120903D01*
X151107838Y-110120903D01*
X151249883Y-110464679D01*
X151512673Y-110727928D01*
X151856201Y-110870574D01*
X152228167Y-110870898D01*
X152571943Y-110728853D01*
X152835192Y-110466063D01*
X152977838Y-110122535D01*
X152977879Y-110075659D01*
X153184307Y-109869231D01*
X153253201Y-109897838D01*
X153625167Y-109898162D01*
X153968943Y-109756117D01*
X154232192Y-109493327D01*
X154374838Y-109149799D01*
X154375162Y-108777833D01*
X154233117Y-108434057D01*
X153970327Y-108170808D01*
X153626799Y-108028162D01*
X153254833Y-108027838D01*
X152911057Y-108169883D01*
X152843578Y-108237245D01*
X152780328Y-108249826D01*
X152724896Y-108260852D01*
X152478335Y-108425599D01*
X151903320Y-109000614D01*
X151857833Y-109000574D01*
X151514057Y-109142619D01*
X151250808Y-109405409D01*
X151108162Y-109748937D01*
X151107838Y-110120903D01*
X138197441Y-110120903D01*
X138126343Y-110073397D01*
X137753862Y-109999306D01*
X137754152Y-109666833D01*
X137612107Y-109323057D01*
X137349317Y-109059808D01*
X137005789Y-108917162D01*
X136633823Y-108916838D01*
X136290047Y-109058883D01*
X136026798Y-109321673D01*
X135884152Y-109665201D01*
X135883828Y-110037167D01*
X136025873Y-110380943D01*
X136288663Y-110644192D01*
X136483691Y-110725175D01*
X135062866Y-112146000D01*
X133775002Y-112146000D01*
X133340656Y-112232397D01*
X133202367Y-112324799D01*
X132972436Y-112478434D01*
X131174434Y-114276436D01*
X130928397Y-114644657D01*
X130842000Y-115079002D01*
X111434931Y-115079002D01*
X111435057Y-114934944D01*
X111685167Y-114935162D01*
X112000351Y-114804931D01*
X112313201Y-114934838D01*
X112685167Y-114935162D01*
X113000351Y-114804931D01*
X113313201Y-114934838D01*
X113685167Y-114935162D01*
X114000351Y-114804931D01*
X114313201Y-114934838D01*
X114685167Y-114935162D01*
X115000351Y-114804931D01*
X115313201Y-114934838D01*
X115685167Y-114935162D01*
X116000351Y-114804931D01*
X116313201Y-114934838D01*
X116685167Y-114935162D01*
X117028943Y-114793117D01*
X117292192Y-114530327D01*
X117434838Y-114186799D01*
X117435162Y-113814833D01*
X117304931Y-113499649D01*
X117434838Y-113186799D01*
X117435162Y-112814833D01*
X117293117Y-112471057D01*
X117145485Y-112323167D01*
X122659838Y-112323167D01*
X122801883Y-112666943D01*
X123064673Y-112930192D01*
X123408201Y-113072838D01*
X123780167Y-113073162D01*
X124123943Y-112931117D01*
X124387192Y-112668327D01*
X124529838Y-112324799D01*
X124530162Y-111952833D01*
X124388117Y-111609057D01*
X124125327Y-111345808D01*
X123781799Y-111203162D01*
X123409833Y-111202838D01*
X123066057Y-111344883D01*
X122802808Y-111607673D01*
X122660162Y-111951201D01*
X122659838Y-112323167D01*
X117145485Y-112323167D01*
X117030327Y-112207808D01*
X116686799Y-112065162D01*
X116314833Y-112064838D01*
X115999649Y-112195069D01*
X115686799Y-112065162D01*
X115314833Y-112064838D01*
X114999649Y-112195069D01*
X114686799Y-112065162D01*
X114314833Y-112064838D01*
X113999649Y-112195069D01*
X113686799Y-112065162D01*
X113314833Y-112064838D01*
X112999649Y-112195069D01*
X112686799Y-112065162D01*
X112314833Y-112064838D01*
X111999649Y-112195069D01*
X111686799Y-112065162D01*
X111314833Y-112064838D01*
X110999649Y-112195069D01*
X110686799Y-112065162D01*
X110314833Y-112064838D01*
X109999649Y-112195069D01*
X109686799Y-112065162D01*
X109314833Y-112064838D01*
X108971057Y-112206883D01*
X108707808Y-112469673D01*
X108565162Y-112813201D01*
X108564838Y-113185167D01*
X108695069Y-113500351D01*
X108565162Y-113813201D01*
X108564838Y-114185167D01*
X108695069Y-114500351D01*
X108565162Y-114813201D01*
X108564838Y-115185167D01*
X108695069Y-115500351D01*
X108565162Y-115813201D01*
X108564838Y-116185167D01*
X108695069Y-116500351D01*
X108565162Y-116813201D01*
X108564838Y-117185167D01*
X108695069Y-117500351D01*
X108565162Y-117813201D01*
X108564838Y-118185167D01*
X108695069Y-118500351D01*
X108565162Y-118813201D01*
X108564838Y-119185167D01*
X108695069Y-119500351D01*
X108565162Y-119813201D01*
X108564838Y-120185167D01*
X108695069Y-120500351D01*
X108565162Y-120813201D01*
X108564838Y-121185167D01*
X108695069Y-121500351D01*
X108565162Y-121813201D01*
X108564838Y-122185167D01*
X108695069Y-122500351D01*
X108565162Y-122813201D01*
X108564838Y-123185167D01*
X108608154Y-123290000D01*
X105069931Y-123290000D01*
X104128977Y-123102833D01*
X103390561Y-122609439D01*
X102897167Y-121871023D01*
X102710000Y-120930069D01*
X102710000Y-120500000D01*
X103290000Y-120500000D01*
X103458226Y-121345730D01*
X103937294Y-122062706D01*
X104654270Y-122541774D01*
X105500000Y-122710000D01*
X106345730Y-122541774D01*
X107062706Y-122062706D01*
X107541774Y-121345730D01*
X107710000Y-120500000D01*
X107541774Y-119654270D01*
X107062706Y-118937294D01*
X106345730Y-118458226D01*
X105500000Y-118290000D01*
X104654270Y-118458226D01*
X103937294Y-118937294D01*
X103458226Y-119654270D01*
X103290000Y-120500000D01*
X102710000Y-120500000D01*
X102710000Y-110545167D01*
X105768838Y-110545167D01*
X105910883Y-110888943D01*
X106173673Y-111152192D01*
X106517201Y-111294838D01*
X106889167Y-111295162D01*
X107232943Y-111153117D01*
X107333067Y-111053167D01*
X107800838Y-111053167D01*
X107942883Y-111396943D01*
X108205673Y-111660192D01*
X108549201Y-111802838D01*
X108921167Y-111803162D01*
X109264943Y-111661117D01*
X109528192Y-111398327D01*
X109670838Y-111054799D01*
X109670839Y-111053167D01*
X112499838Y-111053167D01*
X112641883Y-111396943D01*
X112904673Y-111660192D01*
X113248201Y-111802838D01*
X113620167Y-111803162D01*
X113963943Y-111661117D01*
X114227192Y-111398327D01*
X114369838Y-111054799D01*
X114369950Y-110926167D01*
X119484838Y-110926167D01*
X119626883Y-111269943D01*
X119889673Y-111533192D01*
X120233201Y-111675838D01*
X120605167Y-111676162D01*
X120948943Y-111534117D01*
X121212192Y-111271327D01*
X121354838Y-110927799D01*
X121355162Y-110555833D01*
X121213117Y-110212057D01*
X120950327Y-109948808D01*
X120606799Y-109806162D01*
X120234833Y-109805838D01*
X119891057Y-109947883D01*
X119627808Y-110210673D01*
X119485162Y-110554201D01*
X119484838Y-110926167D01*
X114369950Y-110926167D01*
X114370162Y-110682833D01*
X114228117Y-110339057D01*
X113965327Y-110075808D01*
X113621799Y-109933162D01*
X113249833Y-109932838D01*
X112906057Y-110074883D01*
X112642808Y-110337673D01*
X112500162Y-110681201D01*
X112499838Y-111053167D01*
X109670839Y-111053167D01*
X109671162Y-110682833D01*
X109529117Y-110339057D01*
X109266327Y-110075808D01*
X108922799Y-109933162D01*
X108550833Y-109932838D01*
X108207057Y-110074883D01*
X107943808Y-110337673D01*
X107801162Y-110681201D01*
X107800838Y-111053167D01*
X107333067Y-111053167D01*
X107496192Y-110890327D01*
X107638838Y-110546799D01*
X107639162Y-110174833D01*
X107497117Y-109831057D01*
X107449311Y-109783167D01*
X114277838Y-109783167D01*
X114419883Y-110126943D01*
X114682673Y-110390192D01*
X115026201Y-110532838D01*
X115398167Y-110533162D01*
X115741943Y-110391117D01*
X116005192Y-110128327D01*
X116147838Y-109784799D01*
X116148162Y-109412833D01*
X116006117Y-109069057D01*
X116004518Y-109067455D01*
X116169201Y-109135838D01*
X116541167Y-109136162D01*
X116884943Y-108994117D01*
X117148192Y-108731327D01*
X117290838Y-108387799D01*
X117290950Y-108259167D01*
X121770838Y-108259167D01*
X121912883Y-108602943D01*
X122175673Y-108866192D01*
X122519201Y-109008838D01*
X122891167Y-109009162D01*
X123234943Y-108867117D01*
X123277344Y-108824790D01*
X123318673Y-108866192D01*
X123662201Y-109008838D01*
X124034167Y-109009162D01*
X124377943Y-108867117D01*
X124641192Y-108604327D01*
X124783838Y-108260799D01*
X124784162Y-107888833D01*
X124642117Y-107545057D01*
X124379327Y-107281808D01*
X124035799Y-107139162D01*
X123663833Y-107138838D01*
X123320057Y-107280883D01*
X123277656Y-107323210D01*
X123236327Y-107281808D01*
X122892799Y-107139162D01*
X122520833Y-107138838D01*
X122177057Y-107280883D01*
X121913808Y-107543673D01*
X121771162Y-107887201D01*
X121770838Y-108259167D01*
X117290950Y-108259167D01*
X117291162Y-108015833D01*
X117149117Y-107672057D01*
X116886327Y-107408808D01*
X116542799Y-107266162D01*
X116170833Y-107265838D01*
X115827057Y-107407883D01*
X115563808Y-107670673D01*
X115421162Y-108014201D01*
X115420838Y-108386167D01*
X115562883Y-108729943D01*
X115564482Y-108731545D01*
X115399799Y-108663162D01*
X115027833Y-108662838D01*
X114684057Y-108804883D01*
X114420808Y-109067673D01*
X114278162Y-109411201D01*
X114277838Y-109783167D01*
X107449311Y-109783167D01*
X107234327Y-109567808D01*
X106890799Y-109425162D01*
X106518833Y-109424838D01*
X106175057Y-109566883D01*
X105911808Y-109829673D01*
X105769162Y-110173201D01*
X105768838Y-110545167D01*
X102710000Y-110545167D01*
X102710000Y-108132167D01*
X109451838Y-108132167D01*
X109593883Y-108475943D01*
X109856673Y-108739192D01*
X110200201Y-108881838D01*
X110572167Y-108882162D01*
X110915943Y-108740117D01*
X111179192Y-108477327D01*
X111217045Y-108386167D01*
X111864838Y-108386167D01*
X112006883Y-108729943D01*
X112269673Y-108993192D01*
X112613201Y-109135838D01*
X112985167Y-109136162D01*
X113328943Y-108994117D01*
X113592192Y-108731327D01*
X113734838Y-108387799D01*
X113735162Y-108015833D01*
X113593117Y-107672057D01*
X113330327Y-107408808D01*
X112986799Y-107266162D01*
X112614833Y-107265838D01*
X112271057Y-107407883D01*
X112007808Y-107670673D01*
X111865162Y-108014201D01*
X111864838Y-108386167D01*
X111217045Y-108386167D01*
X111321838Y-108133799D01*
X111322162Y-107761833D01*
X111180117Y-107418057D01*
X110917327Y-107154808D01*
X110573799Y-107012162D01*
X110201833Y-107011838D01*
X109858057Y-107153883D01*
X109594808Y-107416673D01*
X109452162Y-107760201D01*
X109451838Y-108132167D01*
X102710000Y-108132167D01*
X102710000Y-106608167D01*
X107292838Y-106608167D01*
X107434883Y-106951943D01*
X107697673Y-107215192D01*
X108041201Y-107357838D01*
X108413167Y-107358162D01*
X108756943Y-107216117D01*
X109020192Y-106953327D01*
X109162838Y-106609799D01*
X109163162Y-106237833D01*
X109021117Y-105894057D01*
X108758327Y-105630808D01*
X108414799Y-105488162D01*
X108042833Y-105487838D01*
X107699057Y-105629883D01*
X107435808Y-105892673D01*
X107293162Y-106236201D01*
X107292838Y-106608167D01*
X102710000Y-106608167D01*
X102710000Y-104957167D01*
X105514838Y-104957167D01*
X105656883Y-105300943D01*
X105919673Y-105564192D01*
X106263201Y-105706838D01*
X106635167Y-105707162D01*
X106978943Y-105565117D01*
X107242192Y-105302327D01*
X107384838Y-104958799D01*
X107385162Y-104586833D01*
X107328280Y-104449167D01*
X119484838Y-104449167D01*
X119626883Y-104792943D01*
X119889673Y-105056192D01*
X120233201Y-105198838D01*
X120605167Y-105199162D01*
X120948943Y-105057117D01*
X121212192Y-104794327D01*
X121354838Y-104450799D01*
X121354839Y-104449167D01*
X124310838Y-104449167D01*
X124452883Y-104792943D01*
X124715673Y-105056192D01*
X125059201Y-105198838D01*
X125431167Y-105199162D01*
X125774943Y-105057117D01*
X126038192Y-104794327D01*
X126130419Y-104572221D01*
X127026000Y-105467802D01*
X127026000Y-107138882D01*
X126975823Y-107138838D01*
X126632047Y-107280883D01*
X126368798Y-107543673D01*
X126226152Y-107887201D01*
X126225828Y-108259167D01*
X126367873Y-108602943D01*
X126630663Y-108866192D01*
X126974191Y-109008838D01*
X127053660Y-109008907D01*
X127083852Y-109160692D01*
X127248599Y-109407254D01*
X127543764Y-109702419D01*
X127257057Y-109820883D01*
X126993808Y-110083673D01*
X126851162Y-110427201D01*
X126850838Y-110799167D01*
X126992883Y-111142943D01*
X127255673Y-111406192D01*
X127599201Y-111548838D01*
X127928649Y-111549125D01*
X127867162Y-111697201D01*
X127866838Y-112069167D01*
X128008883Y-112412943D01*
X128271673Y-112676192D01*
X128615201Y-112818838D01*
X128987167Y-112819162D01*
X129330943Y-112677117D01*
X129594192Y-112414327D01*
X129736838Y-112070799D01*
X129737162Y-111698833D01*
X129595117Y-111355057D01*
X129332327Y-111091808D01*
X128988799Y-110949162D01*
X128659351Y-110948875D01*
X128720838Y-110800799D01*
X128720952Y-110670315D01*
X128836568Y-110670416D01*
X129178242Y-110529240D01*
X129418073Y-110769490D01*
X129761601Y-110912136D01*
X130133567Y-110912460D01*
X130477343Y-110770415D01*
X130740592Y-110507625D01*
X130883208Y-110164167D01*
X131041838Y-110164167D01*
X131183883Y-110507943D01*
X131446673Y-110771192D01*
X131790201Y-110913838D01*
X132162167Y-110914162D01*
X132505943Y-110772117D01*
X132769192Y-110509327D01*
X132911838Y-110165799D01*
X132912162Y-109793833D01*
X132770117Y-109450057D01*
X132507327Y-109186808D01*
X132163799Y-109044162D01*
X131791833Y-109043838D01*
X131448057Y-109185883D01*
X131184808Y-109448673D01*
X131042162Y-109792201D01*
X131041838Y-110164167D01*
X130883208Y-110164167D01*
X130883238Y-110164097D01*
X130883321Y-110068749D01*
X130950547Y-109968138D01*
X131008399Y-109677299D01*
X131008399Y-108145165D01*
X131039856Y-108132167D01*
X139677838Y-108132167D01*
X139819883Y-108475943D01*
X140082673Y-108739192D01*
X140426201Y-108881838D01*
X140798167Y-108882162D01*
X141141943Y-108740117D01*
X141405192Y-108477327D01*
X141547838Y-108133799D01*
X141548162Y-107761833D01*
X141491280Y-107624167D01*
X145011838Y-107624167D01*
X145153883Y-107967943D01*
X145416673Y-108231192D01*
X145760201Y-108373838D01*
X146132167Y-108374162D01*
X146475943Y-108232117D01*
X146739192Y-107969327D01*
X146881838Y-107625799D01*
X146882162Y-107253833D01*
X146740117Y-106910057D01*
X146477327Y-106646808D01*
X146133799Y-106504162D01*
X145761833Y-106503838D01*
X145418057Y-106645883D01*
X145154808Y-106908673D01*
X145012162Y-107252201D01*
X145011838Y-107624167D01*
X141491280Y-107624167D01*
X141406117Y-107418057D01*
X141143327Y-107154808D01*
X140799799Y-107012162D01*
X140427833Y-107011838D01*
X140084057Y-107153883D01*
X139820808Y-107416673D01*
X139678162Y-107760201D01*
X139677838Y-108132167D01*
X131039856Y-108132167D01*
X131111495Y-108102567D01*
X131374744Y-107839777D01*
X131517390Y-107496249D01*
X131517714Y-107124283D01*
X131375669Y-106780507D01*
X131342552Y-106747332D01*
X131342552Y-106735167D01*
X132692838Y-106735167D01*
X132834883Y-107078943D01*
X133097673Y-107342192D01*
X133441201Y-107484838D01*
X133813167Y-107485162D01*
X134156943Y-107343117D01*
X134420192Y-107080327D01*
X134562838Y-106736799D01*
X134563162Y-106364833D01*
X134421117Y-106021057D01*
X134158327Y-105757808D01*
X133814799Y-105615162D01*
X133442833Y-105614838D01*
X133099057Y-105756883D01*
X132835808Y-106019673D01*
X132693162Y-106363201D01*
X132692838Y-106735167D01*
X131342552Y-106735167D01*
X131342552Y-105028552D01*
X131322788Y-104929192D01*
X131284700Y-104737712D01*
X131119953Y-104491151D01*
X130950969Y-104322167D01*
X134851838Y-104322167D01*
X134993883Y-104665943D01*
X135256673Y-104929192D01*
X135600201Y-105071838D01*
X135861799Y-105072066D01*
X135861565Y-105341002D01*
X135971350Y-105606702D01*
X135868162Y-105855205D01*
X135867838Y-106227171D01*
X136009883Y-106570947D01*
X136272673Y-106834196D01*
X136616201Y-106976842D01*
X136988167Y-106977166D01*
X137331943Y-106835121D01*
X137399422Y-106767759D01*
X137518103Y-106744152D01*
X137764665Y-106579405D01*
X138878903Y-105465167D01*
X148748847Y-105465167D01*
X148890892Y-105808943D01*
X149153682Y-106072192D01*
X149497210Y-106214838D01*
X149869176Y-106215162D01*
X150212952Y-106073117D01*
X150476201Y-105810327D01*
X150618847Y-105466799D01*
X150619171Y-105094833D01*
X150477126Y-104751057D01*
X150214336Y-104487808D01*
X149870808Y-104345162D01*
X149498842Y-104344838D01*
X149155066Y-104486883D01*
X148891817Y-104749673D01*
X148749171Y-105093201D01*
X148748847Y-105465167D01*
X138878903Y-105465167D01*
X140134409Y-104209661D01*
X140299156Y-103963099D01*
X140357008Y-103672260D01*
X140357008Y-103556463D01*
X140389200Y-103524327D01*
X140531846Y-103180799D01*
X140532170Y-102808833D01*
X140390125Y-102465057D01*
X140127335Y-102201808D01*
X139783807Y-102059162D01*
X139411841Y-102058838D01*
X139068065Y-102200883D01*
X138804816Y-102463673D01*
X138709129Y-102694113D01*
X138395833Y-102693840D01*
X138052057Y-102835885D01*
X137936315Y-102951425D01*
X137916599Y-102964599D01*
X137903540Y-102984143D01*
X137815602Y-103071928D01*
X137786159Y-103091601D01*
X136721984Y-104155776D01*
X136722162Y-103951833D01*
X136580117Y-103608057D01*
X136317327Y-103344808D01*
X135973799Y-103202162D01*
X135601833Y-103201838D01*
X135258057Y-103343883D01*
X134994808Y-103606673D01*
X134852162Y-103950201D01*
X134851838Y-104322167D01*
X130950969Y-104322167D01*
X130245122Y-103616320D01*
X130245162Y-103570833D01*
X130103117Y-103227057D01*
X129840327Y-102963808D01*
X129496799Y-102821162D01*
X129124833Y-102820838D01*
X128781057Y-102962883D01*
X128733495Y-103010362D01*
X128644580Y-102921291D01*
X128301052Y-102778645D01*
X127929086Y-102778321D01*
X127642938Y-102896555D01*
X127458485Y-102819963D01*
X127086519Y-102819639D01*
X126923660Y-102886931D01*
X126695930Y-102658803D01*
X126352402Y-102516157D01*
X125980436Y-102515833D01*
X125636660Y-102657878D01*
X125373411Y-102920668D01*
X125230765Y-103264196D01*
X125230709Y-103328986D01*
X125060833Y-103328838D01*
X124717057Y-103470883D01*
X124453808Y-103733673D01*
X124311162Y-104077201D01*
X124310838Y-104449167D01*
X121354839Y-104449167D01*
X121355162Y-104078833D01*
X121213117Y-103735057D01*
X120950327Y-103471808D01*
X120606799Y-103329162D01*
X120234833Y-103328838D01*
X119891057Y-103470883D01*
X119627808Y-103733673D01*
X119485162Y-104077201D01*
X119484838Y-104449167D01*
X107328280Y-104449167D01*
X107243117Y-104243057D01*
X106980327Y-103979808D01*
X106636799Y-103837162D01*
X106264833Y-103836838D01*
X105921057Y-103978883D01*
X105657808Y-104241673D01*
X105515162Y-104585201D01*
X105514838Y-104957167D01*
X102710000Y-104957167D01*
X102710000Y-102544167D01*
X106911838Y-102544167D01*
X107053883Y-102887943D01*
X107316673Y-103151192D01*
X107660201Y-103293838D01*
X108032167Y-103294162D01*
X108375943Y-103152117D01*
X108639192Y-102889327D01*
X108781838Y-102545799D01*
X108782162Y-102173833D01*
X108672805Y-101909167D01*
X133454838Y-101909167D01*
X133596883Y-102252943D01*
X133859673Y-102516192D01*
X134203201Y-102658838D01*
X134575167Y-102659162D01*
X134918943Y-102517117D01*
X135182192Y-102254327D01*
X135324838Y-101910799D01*
X135325162Y-101538833D01*
X135183117Y-101195057D01*
X134920327Y-100931808D01*
X134576799Y-100789162D01*
X134204833Y-100788838D01*
X133861057Y-100930883D01*
X133597808Y-101193673D01*
X133455162Y-101537201D01*
X133454838Y-101909167D01*
X108672805Y-101909167D01*
X108652440Y-101859881D01*
X108766192Y-101746327D01*
X108908838Y-101402799D01*
X108909162Y-101030833D01*
X108852280Y-100893167D01*
X110848838Y-100893167D01*
X110990883Y-101236943D01*
X111253673Y-101500192D01*
X111597201Y-101642838D01*
X111969167Y-101643162D01*
X112312943Y-101501117D01*
X112576192Y-101238327D01*
X112718838Y-100894799D01*
X112718839Y-100893167D01*
X129517838Y-100893167D01*
X129659883Y-101236943D01*
X129922673Y-101500192D01*
X130266201Y-101642838D01*
X130638167Y-101643162D01*
X130981943Y-101501117D01*
X131245192Y-101238327D01*
X131387838Y-100894799D01*
X131388162Y-100522833D01*
X131246117Y-100179057D01*
X130983327Y-99915808D01*
X130639799Y-99773162D01*
X130267833Y-99772838D01*
X129924057Y-99914883D01*
X129660808Y-100177673D01*
X129518162Y-100521201D01*
X129517838Y-100893167D01*
X112718839Y-100893167D01*
X112719162Y-100522833D01*
X112577117Y-100179057D01*
X112314327Y-99915808D01*
X111970799Y-99773162D01*
X111598833Y-99772838D01*
X111255057Y-99914883D01*
X110991808Y-100177673D01*
X110849162Y-100521201D01*
X110848838Y-100893167D01*
X108852280Y-100893167D01*
X108767117Y-100687057D01*
X108504327Y-100423808D01*
X108160799Y-100281162D01*
X107788833Y-100280838D01*
X107445057Y-100422883D01*
X107181808Y-100685673D01*
X107039162Y-101029201D01*
X107038838Y-101401167D01*
X107168560Y-101715119D01*
X107054808Y-101828673D01*
X106912162Y-102172201D01*
X106911838Y-102544167D01*
X102710000Y-102544167D01*
X102710000Y-101147167D01*
X103228838Y-101147167D01*
X103370883Y-101490943D01*
X103633673Y-101754192D01*
X103977201Y-101896838D01*
X104349167Y-101897162D01*
X104692943Y-101755117D01*
X104956192Y-101492327D01*
X105098838Y-101148799D01*
X105099162Y-100776833D01*
X104957117Y-100433057D01*
X104694327Y-100169808D01*
X104350799Y-100027162D01*
X103978833Y-100026838D01*
X103635057Y-100168883D01*
X103371808Y-100431673D01*
X103229162Y-100775201D01*
X103228838Y-101147167D01*
X102710000Y-101147167D01*
X102710000Y-98861167D01*
X129390838Y-98861167D01*
X129532883Y-99204943D01*
X129795673Y-99468192D01*
X130139201Y-99610838D01*
X130511167Y-99611162D01*
X130854943Y-99469117D01*
X131118192Y-99206327D01*
X131260838Y-98862799D01*
X131260839Y-98861167D01*
X136375838Y-98861167D01*
X136517883Y-99204943D01*
X136780673Y-99468192D01*
X137124201Y-99610838D01*
X137496167Y-99611162D01*
X137839943Y-99469117D01*
X138103192Y-99206327D01*
X138245838Y-98862799D01*
X138246162Y-98490833D01*
X138204033Y-98388873D01*
X138394201Y-98467838D01*
X138471131Y-98467905D01*
X138548397Y-98856346D01*
X138794434Y-99224566D01*
X139162654Y-99470603D01*
X139597000Y-99557000D01*
X140031346Y-99470603D01*
X140399566Y-99224566D01*
X140645603Y-98856346D01*
X140732000Y-98422000D01*
X140732000Y-98008066D01*
X141107222Y-98383288D01*
X141090808Y-98399673D01*
X140948162Y-98743201D01*
X140947838Y-99115167D01*
X141089883Y-99458943D01*
X141352673Y-99722192D01*
X141696201Y-99864838D01*
X142068167Y-99865162D01*
X142411943Y-99723117D01*
X142675192Y-99460327D01*
X142817838Y-99116799D01*
X142818162Y-98744833D01*
X142796059Y-98691340D01*
X146715392Y-98691340D01*
X146747528Y-98723532D01*
X147091056Y-98866178D01*
X147384766Y-98866434D01*
X147021608Y-99229592D01*
X146994117Y-99163057D01*
X146731327Y-98899808D01*
X146387799Y-98757162D01*
X146015833Y-98756838D01*
X145672057Y-98898883D01*
X145408808Y-99161673D01*
X145266162Y-99505201D01*
X145265838Y-99877167D01*
X145407883Y-100220943D01*
X145670673Y-100484192D01*
X145738743Y-100512457D01*
X145513217Y-100737983D01*
X145183857Y-100601220D01*
X144811891Y-100600896D01*
X144468115Y-100742941D01*
X144204866Y-101005731D01*
X144062220Y-101349259D01*
X144061896Y-101721225D01*
X144203941Y-102065001D01*
X144466731Y-102328250D01*
X144558100Y-102366190D01*
X144694701Y-102696790D01*
X144957491Y-102960039D01*
X145301019Y-103102685D01*
X145672985Y-103103009D01*
X146016761Y-102960964D01*
X146084240Y-102893602D01*
X146202921Y-102869995D01*
X146449483Y-102705248D01*
X150599406Y-98555325D01*
X150764153Y-98308764D01*
X150822005Y-98017924D01*
X150822005Y-96729066D01*
X150854197Y-96696930D01*
X150996843Y-96353402D01*
X150997167Y-95981436D01*
X150855122Y-95637660D01*
X150592332Y-95374411D01*
X150515384Y-95342459D01*
X150627362Y-95072787D01*
X150627403Y-95025911D01*
X150848400Y-94804914D01*
X151013147Y-94558352D01*
X151070999Y-94267513D01*
X151070999Y-91078374D01*
X151122883Y-91203943D01*
X151156000Y-91237118D01*
X151156000Y-91774736D01*
X151213852Y-92065575D01*
X151378599Y-92312137D01*
X151517769Y-92451307D01*
X151489162Y-92520201D01*
X151488838Y-92892167D01*
X151630883Y-93235943D01*
X151893673Y-93499192D01*
X152034758Y-93557776D01*
X151894851Y-93767162D01*
X151836999Y-94058001D01*
X151836999Y-95949397D01*
X151768057Y-95977883D01*
X151504808Y-96240673D01*
X151362162Y-96584201D01*
X151361838Y-96956167D01*
X151503883Y-97299943D01*
X151766673Y-97563192D01*
X152110201Y-97705838D01*
X152482167Y-97706162D01*
X152825943Y-97564117D01*
X153089192Y-97301327D01*
X153231838Y-96957799D01*
X153231921Y-96862451D01*
X153299147Y-96761840D01*
X153356999Y-96471001D01*
X153356999Y-96321167D01*
X155679838Y-96321167D01*
X155821883Y-96664943D01*
X156084673Y-96928192D01*
X156428201Y-97070838D01*
X156800167Y-97071162D01*
X157143943Y-96929117D01*
X157407192Y-96666327D01*
X157549838Y-96322799D01*
X157550162Y-95950833D01*
X157408117Y-95607057D01*
X157145327Y-95343808D01*
X156801799Y-95201162D01*
X156429833Y-95200838D01*
X156086057Y-95342883D01*
X155822808Y-95605673D01*
X155680162Y-95949201D01*
X155679838Y-96321167D01*
X153356999Y-96321167D01*
X153356999Y-94372803D01*
X153586402Y-94143400D01*
X153751149Y-93896839D01*
X153809001Y-93605999D01*
X153809001Y-92406999D01*
X153751149Y-92116160D01*
X153751149Y-92116159D01*
X153692000Y-92027636D01*
X153692000Y-91364463D01*
X153724192Y-91332327D01*
X153866838Y-90988799D01*
X153867162Y-90616833D01*
X153781185Y-90408753D01*
X153955642Y-90600183D01*
X154480108Y-90846486D01*
X154710000Y-90725819D01*
X154710000Y-89532000D01*
X154964000Y-89532000D01*
X154964000Y-90725819D01*
X155193892Y-90846486D01*
X155718358Y-90600183D01*
X155900070Y-90400792D01*
X155988673Y-90614699D01*
X156167302Y-90793327D01*
X156400691Y-90890000D01*
X157091250Y-90890000D01*
X157250000Y-90731250D01*
X157250000Y-89532000D01*
X154964000Y-89532000D01*
X154710000Y-89532000D01*
X153516845Y-89532000D01*
X153395524Y-89761890D01*
X153523654Y-90071242D01*
X153462327Y-90009808D01*
X153118799Y-89867162D01*
X152746833Y-89866838D01*
X152522794Y-89959409D01*
X152446327Y-89882808D01*
X152102799Y-89740162D01*
X151730833Y-89739838D01*
X151387057Y-89881883D01*
X151123808Y-90144673D01*
X151027674Y-90376189D01*
X151013147Y-90303160D01*
X150946080Y-90202787D01*
X150946162Y-90108833D01*
X150804117Y-89765057D01*
X150541327Y-89501808D01*
X150197799Y-89359162D01*
X149825833Y-89358838D01*
X149482057Y-89500883D01*
X149369640Y-89613104D01*
X149063833Y-89612838D01*
X148720057Y-89754883D01*
X148481447Y-89993077D01*
X148300915Y-89992920D01*
X147986964Y-90122642D01*
X147874327Y-90009808D01*
X147530799Y-89867162D01*
X147158833Y-89866838D01*
X146815057Y-90008883D01*
X146551808Y-90271673D01*
X146409162Y-90615201D01*
X146408838Y-90987167D01*
X146550883Y-91330943D01*
X146813673Y-91594192D01*
X147157201Y-91736838D01*
X147529167Y-91737162D01*
X147726082Y-91655799D01*
X147726082Y-94356813D01*
X147783934Y-94647652D01*
X147948681Y-94894214D01*
X147956320Y-94901853D01*
X147956280Y-94947340D01*
X148098325Y-95291116D01*
X148361115Y-95554365D01*
X148441035Y-95587551D01*
X148440838Y-95813167D01*
X148582883Y-96156943D01*
X148616000Y-96190118D01*
X148616000Y-97635200D01*
X148212762Y-98038438D01*
X148213017Y-97746173D01*
X148070972Y-97402397D01*
X148045102Y-97376482D01*
X148063506Y-97332161D01*
X148063830Y-96960195D01*
X147921785Y-96616419D01*
X147658995Y-96353170D01*
X147315467Y-96210524D01*
X146943501Y-96210200D01*
X146599725Y-96352245D01*
X146336476Y-96615035D01*
X146307274Y-96685361D01*
X142894359Y-96685361D01*
X142706125Y-96496798D01*
X142362597Y-96354152D01*
X142188253Y-96354000D01*
X142453802Y-96176566D01*
X142699839Y-95808346D01*
X142786236Y-95374000D01*
X142699839Y-94939654D01*
X142604633Y-94797167D01*
X144122838Y-94797167D01*
X144264883Y-95140943D01*
X144527673Y-95404192D01*
X144871201Y-95546838D01*
X144926270Y-95546886D01*
X145148160Y-95695148D01*
X145439000Y-95753000D01*
X145892537Y-95753000D01*
X145924673Y-95785192D01*
X146268201Y-95927838D01*
X146640167Y-95928162D01*
X146983943Y-95786117D01*
X147247192Y-95523327D01*
X147389838Y-95179799D01*
X147390162Y-94807833D01*
X147248117Y-94464057D01*
X146985327Y-94200808D01*
X146641799Y-94058162D01*
X146269833Y-94057838D01*
X145926057Y-94199883D01*
X145907176Y-94218731D01*
X145851117Y-94083057D01*
X145588327Y-93819808D01*
X145244799Y-93677162D01*
X144872833Y-93676838D01*
X144529057Y-93818883D01*
X144265808Y-94081673D01*
X144123162Y-94425201D01*
X144122838Y-94797167D01*
X142604633Y-94797167D01*
X142565766Y-94739000D01*
X142699839Y-94538346D01*
X142786236Y-94104000D01*
X142699839Y-93669654D01*
X142565766Y-93469000D01*
X142699839Y-93268346D01*
X142786236Y-92834000D01*
X142699839Y-92399654D01*
X142565766Y-92199000D01*
X142699839Y-91998346D01*
X142786236Y-91564000D01*
X142699839Y-91129654D01*
X142684195Y-91106241D01*
X142725431Y-91045890D01*
X142776440Y-90794000D01*
X142776440Y-89794000D01*
X142732162Y-89558683D01*
X142593090Y-89342559D01*
X142380890Y-89197569D01*
X142129000Y-89146560D01*
X141129000Y-89146560D01*
X140893683Y-89190838D01*
X140677559Y-89329910D01*
X140532569Y-89542110D01*
X140481560Y-89794000D01*
X140481560Y-90794000D01*
X140525838Y-91029317D01*
X140574586Y-91105073D01*
X140558161Y-91129654D01*
X140471764Y-91564000D01*
X140558161Y-91998346D01*
X140692234Y-92199000D01*
X140558161Y-92399654D01*
X140471764Y-92834000D01*
X140558161Y-93268346D01*
X140692234Y-93469000D01*
X140558161Y-93669654D01*
X140471764Y-94104000D01*
X140558161Y-94538346D01*
X140692234Y-94739000D01*
X140558161Y-94939654D01*
X140471764Y-95374000D01*
X140503131Y-95531695D01*
X140476041Y-95491151D01*
X140391603Y-95066654D01*
X140145566Y-94698434D01*
X139777346Y-94452397D01*
X139343000Y-94366000D01*
X138908654Y-94452397D01*
X138540434Y-94698434D01*
X138294397Y-95066654D01*
X138225827Y-95411378D01*
X138225827Y-95047714D01*
X138258019Y-95015578D01*
X138400665Y-94672050D01*
X138400989Y-94300084D01*
X138258944Y-93956308D01*
X137996154Y-93693059D01*
X137652626Y-93550413D01*
X137280660Y-93550089D01*
X136936884Y-93692134D01*
X136673635Y-93954924D01*
X136530989Y-94298452D01*
X136530665Y-94670418D01*
X136672710Y-95014194D01*
X136705827Y-95047369D01*
X136705827Y-96417827D01*
X136763679Y-96708666D01*
X136928426Y-96955228D01*
X137645878Y-97672680D01*
X137645838Y-97718167D01*
X137687967Y-97820127D01*
X137497799Y-97741162D01*
X137125833Y-97740838D01*
X136782057Y-97882883D01*
X136518808Y-98145673D01*
X136376162Y-98489201D01*
X136375838Y-98861167D01*
X131260839Y-98861167D01*
X131260879Y-98815923D01*
X132291802Y-97785000D01*
X133319537Y-97785000D01*
X133351673Y-97817192D01*
X133695201Y-97959838D01*
X134010332Y-97960112D01*
X134104883Y-98188943D01*
X134367673Y-98452192D01*
X134711201Y-98594838D01*
X135083167Y-98595162D01*
X135426943Y-98453117D01*
X135690192Y-98190327D01*
X135832838Y-97846799D01*
X135833162Y-97474833D01*
X135691117Y-97131057D01*
X135428327Y-96867808D01*
X135084799Y-96725162D01*
X134769668Y-96724888D01*
X134675117Y-96496057D01*
X134412327Y-96232808D01*
X134068799Y-96090162D01*
X133696833Y-96089838D01*
X133353057Y-96231883D01*
X133319882Y-96265000D01*
X131977000Y-96265000D01*
X131686161Y-96322852D01*
X131439599Y-96487599D01*
X131384909Y-96542289D01*
X131385091Y-96332984D01*
X131279142Y-96076567D01*
X131387838Y-95814799D01*
X131388162Y-95442833D01*
X131246117Y-95099057D01*
X130983327Y-94835808D01*
X130639799Y-94693162D01*
X130267833Y-94692838D01*
X129924057Y-94834883D01*
X129660808Y-95097673D01*
X129518162Y-95441201D01*
X129517838Y-95813167D01*
X129623787Y-96069584D01*
X129515091Y-96331352D01*
X129514767Y-96703318D01*
X129597000Y-96902338D01*
X129518162Y-97092201D01*
X129517838Y-97464167D01*
X129659883Y-97807943D01*
X129765820Y-97914065D01*
X129533808Y-98145673D01*
X129391162Y-98489201D01*
X129390838Y-98861167D01*
X102710000Y-98861167D01*
X102710000Y-97464167D01*
X110848838Y-97464167D01*
X110990883Y-97807943D01*
X111253673Y-98071192D01*
X111597201Y-98213838D01*
X111969167Y-98214162D01*
X112312943Y-98072117D01*
X112576192Y-97809327D01*
X112718838Y-97465799D01*
X112719162Y-97093833D01*
X112663743Y-96959708D01*
X112703192Y-96920327D01*
X112845838Y-96576799D01*
X112846162Y-96204833D01*
X112704117Y-95861057D01*
X112441327Y-95597808D01*
X112097799Y-95455162D01*
X111725833Y-95454838D01*
X111382057Y-95596883D01*
X111118808Y-95859673D01*
X110976162Y-96203201D01*
X110975838Y-96575167D01*
X111031257Y-96709292D01*
X110991808Y-96748673D01*
X110849162Y-97092201D01*
X110848838Y-97464167D01*
X102710000Y-97464167D01*
X102710000Y-96448167D01*
X104625838Y-96448167D01*
X104767883Y-96791943D01*
X105030673Y-97055192D01*
X105374201Y-97197838D01*
X105746167Y-97198162D01*
X106089943Y-97056117D01*
X106353192Y-96793327D01*
X106495838Y-96449799D01*
X106496162Y-96077833D01*
X106354117Y-95734057D01*
X106091327Y-95470808D01*
X105747799Y-95328162D01*
X105375833Y-95327838D01*
X105032057Y-95469883D01*
X104768808Y-95732673D01*
X104626162Y-96076201D01*
X104625838Y-96448167D01*
X102710000Y-96448167D01*
X102710000Y-94035167D01*
X111610838Y-94035167D01*
X111752883Y-94378943D01*
X112015673Y-94642192D01*
X112359201Y-94784838D01*
X112731167Y-94785162D01*
X113074943Y-94643117D01*
X113338192Y-94380327D01*
X113480838Y-94036799D01*
X113481162Y-93664833D01*
X113445450Y-93578403D01*
X117441682Y-93578403D01*
X117659045Y-94104462D01*
X117442319Y-94626395D01*
X117441682Y-95356403D01*
X117659045Y-95882462D01*
X117442319Y-96404395D01*
X117441682Y-97134403D01*
X117720455Y-97809086D01*
X118236199Y-98325730D01*
X118910395Y-98605681D01*
X119640403Y-98606318D01*
X120166462Y-98388955D01*
X120688395Y-98605681D01*
X121418403Y-98606318D01*
X121944462Y-98388955D01*
X122466395Y-98605681D01*
X123196403Y-98606318D01*
X123871086Y-98327545D01*
X124387730Y-97811801D01*
X124667681Y-97137605D01*
X124668318Y-96407597D01*
X124450955Y-95881538D01*
X124667681Y-95359605D01*
X124668318Y-94629597D01*
X124450955Y-94103538D01*
X124667681Y-93581605D01*
X124668318Y-92851597D01*
X124389545Y-92176914D01*
X123873801Y-91660270D01*
X123199605Y-91380319D01*
X122469597Y-91379682D01*
X121943538Y-91597045D01*
X121421605Y-91380319D01*
X120691597Y-91379682D01*
X120165538Y-91597045D01*
X119643605Y-91380319D01*
X118913597Y-91379682D01*
X118238914Y-91658455D01*
X117722270Y-92174199D01*
X117442319Y-92848395D01*
X117441682Y-93578403D01*
X113445450Y-93578403D01*
X113339117Y-93321057D01*
X113076327Y-93057808D01*
X112732799Y-92915162D01*
X112360833Y-92914838D01*
X112017057Y-93056883D01*
X111753808Y-93319673D01*
X111611162Y-93663201D01*
X111610838Y-94035167D01*
X102710000Y-94035167D01*
X102710000Y-90733166D01*
X128628838Y-90733166D01*
X128770883Y-91076942D01*
X129033673Y-91340191D01*
X129377201Y-91482837D01*
X129495422Y-91482940D01*
X129527162Y-91504148D01*
X129567581Y-91512188D01*
X129518162Y-91631201D01*
X129517838Y-92003167D01*
X129659883Y-92346943D01*
X129829209Y-92516565D01*
X129660808Y-92684673D01*
X129518162Y-93028201D01*
X129517838Y-93400167D01*
X129659883Y-93743943D01*
X129922673Y-94007192D01*
X130266201Y-94149838D01*
X130638167Y-94150162D01*
X130981943Y-94008117D01*
X131245192Y-93745327D01*
X131387838Y-93401799D01*
X131388162Y-93029833D01*
X131246117Y-92686057D01*
X131076791Y-92516435D01*
X131245192Y-92348327D01*
X131387838Y-92004799D01*
X131388162Y-91632833D01*
X131358894Y-91562000D01*
X131723000Y-91562000D01*
X132013839Y-91504148D01*
X132260401Y-91339401D01*
X135189161Y-88410641D01*
X135222080Y-88490310D01*
X135484870Y-88753559D01*
X135828398Y-88896205D01*
X136200364Y-88896529D01*
X136478657Y-88781541D01*
X134964198Y-90296000D01*
X134571461Y-90296000D01*
X134539325Y-90263808D01*
X134195797Y-90121162D01*
X133823831Y-90120838D01*
X133480055Y-90262883D01*
X133216806Y-90525673D01*
X133074160Y-90869201D01*
X133073836Y-91241167D01*
X133215881Y-91584943D01*
X133478671Y-91848192D01*
X133822199Y-91990838D01*
X134194165Y-91991162D01*
X134537941Y-91849117D01*
X134571116Y-91816000D01*
X135279000Y-91816000D01*
X135569839Y-91758148D01*
X135816401Y-91593401D01*
X135828785Y-91581017D01*
X135882883Y-91711943D01*
X136145673Y-91975192D01*
X136489201Y-92117838D01*
X136861167Y-92118162D01*
X137204943Y-91976117D01*
X137468192Y-91713327D01*
X137610838Y-91369799D01*
X137611162Y-90997833D01*
X137591281Y-90949718D01*
X137831191Y-90710226D01*
X137973837Y-90366698D01*
X137974161Y-89994732D01*
X137884119Y-89776814D01*
X138093943Y-89690117D01*
X138357192Y-89427327D01*
X138499838Y-89083799D01*
X138500162Y-88711833D01*
X138358117Y-88368057D01*
X138095327Y-88104808D01*
X137751799Y-87962162D01*
X137379833Y-87961838D01*
X137036057Y-88103883D01*
X136920539Y-88219199D01*
X136950035Y-88148166D01*
X136950327Y-87812167D01*
X146027838Y-87812167D01*
X146169883Y-88155943D01*
X146432673Y-88419192D01*
X146776201Y-88561838D01*
X147148167Y-88562162D01*
X147491943Y-88420117D01*
X147755192Y-88157327D01*
X147897838Y-87813799D01*
X147898162Y-87441833D01*
X147756117Y-87098057D01*
X147493327Y-86834808D01*
X147149799Y-86692162D01*
X146777833Y-86691838D01*
X146434057Y-86833883D01*
X146170808Y-87096673D01*
X146028162Y-87440201D01*
X146027838Y-87812167D01*
X136950327Y-87812167D01*
X136950359Y-87776200D01*
X136808314Y-87432424D01*
X136545524Y-87169175D01*
X136464338Y-87135464D01*
X137223399Y-86376403D01*
X137388146Y-86129841D01*
X137445998Y-85839002D01*
X137445998Y-85278036D01*
X137423713Y-85166001D01*
X137815459Y-85166001D01*
X138146859Y-85497401D01*
X138393421Y-85662148D01*
X138684260Y-85720000D01*
X138979023Y-85720000D01*
X139011159Y-85752192D01*
X139354687Y-85894838D01*
X139726653Y-85895162D01*
X140070429Y-85753117D01*
X140333678Y-85490327D01*
X140476324Y-85146799D01*
X140476648Y-84774833D01*
X140334603Y-84431057D01*
X140071813Y-84167808D01*
X139728285Y-84025162D01*
X139649346Y-84025093D01*
X139716000Y-83690000D01*
X139629604Y-83255655D01*
X139383566Y-82887434D01*
X139083567Y-82587435D01*
X138954450Y-82501162D01*
X138715347Y-82341398D01*
X138281001Y-82255001D01*
X135080242Y-82255001D01*
X135197838Y-81971799D01*
X135198162Y-81599833D01*
X135056117Y-81256057D01*
X134793327Y-80992808D01*
X134449799Y-80850162D01*
X134077833Y-80849838D01*
X133734057Y-80991883D01*
X133470808Y-81254673D01*
X133328162Y-81598201D01*
X133327838Y-81970167D01*
X133469883Y-82313943D01*
X133732673Y-82577192D01*
X134037217Y-82703651D01*
X133063435Y-83677433D01*
X132817398Y-84045653D01*
X132800365Y-84131283D01*
X132544799Y-84025162D01*
X132172833Y-84024838D01*
X131829057Y-84166883D01*
X131565808Y-84429673D01*
X131423162Y-84773201D01*
X131422838Y-85145167D01*
X131564883Y-85488943D01*
X131827673Y-85752192D01*
X132171201Y-85894838D01*
X132543167Y-85895162D01*
X132620000Y-85863415D01*
X132620000Y-85884002D01*
X132706397Y-86318348D01*
X132952434Y-86686568D01*
X133007547Y-86723394D01*
X131101052Y-88629889D01*
X130748560Y-88629889D01*
X130716424Y-88597697D01*
X130694747Y-88588696D01*
X130752838Y-88448799D01*
X130753162Y-88076833D01*
X130611117Y-87733057D01*
X130348327Y-87469808D01*
X130004799Y-87327162D01*
X129632833Y-87326838D01*
X129289057Y-87468883D01*
X129025808Y-87731673D01*
X128883162Y-88075201D01*
X128882838Y-88447167D01*
X129024883Y-88790943D01*
X129287673Y-89054192D01*
X129309350Y-89063193D01*
X129251259Y-89203090D01*
X129250935Y-89575056D01*
X129282921Y-89652467D01*
X129035057Y-89754882D01*
X128771808Y-90017672D01*
X128629162Y-90361200D01*
X128628838Y-90733166D01*
X102710000Y-90733166D01*
X102710000Y-87579901D01*
X102853434Y-87794566D01*
X103153433Y-88094565D01*
X103206133Y-88147266D01*
X103523912Y-88359599D01*
X103574354Y-88393303D01*
X104008700Y-88479700D01*
X106715510Y-88479700D01*
X107039087Y-88415336D01*
X107038838Y-88701167D01*
X107180883Y-89044943D01*
X107443673Y-89308192D01*
X107787201Y-89450838D01*
X107858993Y-89450901D01*
X107858993Y-89459935D01*
X107801162Y-89599207D01*
X107800838Y-89971173D01*
X107942883Y-90314949D01*
X108205673Y-90578198D01*
X108549201Y-90720844D01*
X108921167Y-90721168D01*
X109264943Y-90579123D01*
X109528192Y-90316333D01*
X109664069Y-89989106D01*
X109772951Y-89944117D01*
X110036200Y-89681327D01*
X110178846Y-89337799D01*
X110179170Y-88965833D01*
X110037125Y-88622057D01*
X109969763Y-88554578D01*
X109946156Y-88435897D01*
X109829004Y-88260566D01*
X109829004Y-88016806D01*
X110721878Y-88909680D01*
X110721838Y-88955167D01*
X110863883Y-89298943D01*
X111126673Y-89562192D01*
X111470201Y-89704838D01*
X111842167Y-89705162D01*
X112185943Y-89563117D01*
X112449192Y-89300327D01*
X112591838Y-88956799D01*
X112592162Y-88584833D01*
X112458616Y-88261627D01*
X112591837Y-87940798D01*
X112592161Y-87568832D01*
X112450116Y-87225056D01*
X112187326Y-86961807D01*
X111843798Y-86819161D01*
X111471832Y-86818837D01*
X111128056Y-86960882D01*
X111025280Y-87063478D01*
X110264618Y-86302816D01*
X110221163Y-86084354D01*
X110056416Y-85837792D01*
X110005518Y-85786894D01*
X118084937Y-85786894D01*
X118226982Y-86130670D01*
X118489772Y-86393919D01*
X118833300Y-86536565D01*
X119205266Y-86536889D01*
X119549042Y-86394844D01*
X119812291Y-86132054D01*
X119822049Y-86108554D01*
X119880883Y-86250943D01*
X120143673Y-86514192D01*
X120487201Y-86656838D01*
X120859167Y-86657162D01*
X121202943Y-86515117D01*
X121466192Y-86252327D01*
X121608838Y-85908799D01*
X121608950Y-85780167D01*
X121897838Y-85780167D01*
X122039883Y-86123943D01*
X122302673Y-86387192D01*
X122646201Y-86529838D01*
X123018167Y-86530162D01*
X123361943Y-86388117D01*
X123625192Y-86125327D01*
X123767838Y-85781799D01*
X123768162Y-85409833D01*
X123626117Y-85066057D01*
X123363327Y-84802808D01*
X123019799Y-84660162D01*
X122647833Y-84659838D01*
X122304057Y-84801883D01*
X122040808Y-85064673D01*
X121898162Y-85408201D01*
X121897838Y-85780167D01*
X121608950Y-85780167D01*
X121609162Y-85536833D01*
X121467117Y-85193057D01*
X121204327Y-84929808D01*
X120860799Y-84787162D01*
X120488833Y-84786838D01*
X120145057Y-84928883D01*
X119881808Y-85191673D01*
X119872050Y-85215173D01*
X119813216Y-85072784D01*
X119550426Y-84809535D01*
X119206898Y-84666889D01*
X118834932Y-84666565D01*
X118491156Y-84808610D01*
X118227907Y-85071400D01*
X118085261Y-85414928D01*
X118084937Y-85786894D01*
X110005518Y-85786894D01*
X108449338Y-84230714D01*
X108754392Y-84104668D01*
X109017641Y-83841878D01*
X109160287Y-83498350D01*
X109160611Y-83126384D01*
X109018566Y-82782608D01*
X108941964Y-82705872D01*
X109035838Y-82479799D01*
X109035839Y-82478167D01*
X110086838Y-82478167D01*
X110228883Y-82821943D01*
X110491673Y-83085192D01*
X110835201Y-83227838D01*
X111207167Y-83228162D01*
X111550943Y-83086117D01*
X111814192Y-82823327D01*
X111956838Y-82479799D01*
X111957162Y-82107833D01*
X111847805Y-81843167D01*
X114785838Y-81843167D01*
X114927883Y-82186943D01*
X115190673Y-82450192D01*
X115534201Y-82592838D01*
X115906167Y-82593162D01*
X116249943Y-82451117D01*
X116483176Y-82218291D01*
X116714673Y-82450192D01*
X117058201Y-82592838D01*
X117430167Y-82593162D01*
X117773943Y-82451117D01*
X118037192Y-82188327D01*
X118075045Y-82097167D01*
X121008838Y-82097167D01*
X121150883Y-82440943D01*
X121413673Y-82704192D01*
X121757201Y-82846838D01*
X122129167Y-82847162D01*
X122472943Y-82705117D01*
X122700289Y-82478167D01*
X126469838Y-82478167D01*
X126611883Y-82821943D01*
X126851104Y-83061582D01*
X126850838Y-83367167D01*
X126992883Y-83710943D01*
X127255673Y-83974192D01*
X127599201Y-84116838D01*
X127971167Y-84117162D01*
X128314943Y-83975117D01*
X128432998Y-83857268D01*
X128432998Y-84325800D01*
X128155879Y-84602919D01*
X128110392Y-84602879D01*
X127766616Y-84744924D01*
X127503367Y-85007714D01*
X127360721Y-85351242D01*
X127360397Y-85723208D01*
X127502442Y-86066984D01*
X127765232Y-86330233D01*
X128108760Y-86472879D01*
X128480726Y-86473203D01*
X128628133Y-86412296D01*
X128649096Y-86433296D01*
X128992624Y-86575942D01*
X129364590Y-86576266D01*
X129708366Y-86434221D01*
X129971615Y-86171431D01*
X130114261Y-85827903D01*
X130114302Y-85781027D01*
X130439158Y-85456171D01*
X130603905Y-85209609D01*
X130661757Y-84918770D01*
X130661757Y-81966463D01*
X130693949Y-81934327D01*
X130836595Y-81590799D01*
X130836919Y-81218833D01*
X130694874Y-80875057D01*
X130634970Y-80815049D01*
X130765167Y-80815162D01*
X131108943Y-80673117D01*
X131372192Y-80410327D01*
X131462780Y-80192167D01*
X134216838Y-80192167D01*
X134358883Y-80535943D01*
X134621673Y-80799192D01*
X134965201Y-80941838D01*
X135337167Y-80942162D01*
X135680943Y-80800117D01*
X135944192Y-80537327D01*
X136086838Y-80193799D01*
X136087162Y-79821833D01*
X135945117Y-79478057D01*
X135682327Y-79214808D01*
X135338799Y-79072162D01*
X134966833Y-79071838D01*
X134623057Y-79213883D01*
X134359808Y-79476673D01*
X134217162Y-79820201D01*
X134216838Y-80192167D01*
X131462780Y-80192167D01*
X131514838Y-80066799D01*
X131515162Y-79694833D01*
X131373117Y-79351057D01*
X131110327Y-79087808D01*
X130766799Y-78945162D01*
X130394833Y-78944838D01*
X130051057Y-79086883D01*
X129787808Y-79349673D01*
X129645162Y-79693201D01*
X129644986Y-79895695D01*
X129496799Y-79834162D01*
X129124833Y-79833838D01*
X128781057Y-79975883D01*
X128725025Y-80031817D01*
X128706117Y-79986057D01*
X128443327Y-79722808D01*
X128099799Y-79580162D01*
X127727833Y-79579838D01*
X127384057Y-79721883D01*
X127120808Y-79984673D01*
X126978162Y-80328201D01*
X126977838Y-80700167D01*
X127119883Y-81043943D01*
X127382673Y-81307192D01*
X127505240Y-81358087D01*
X127219833Y-81357838D01*
X126876057Y-81499883D01*
X126612808Y-81762673D01*
X126470162Y-82106201D01*
X126469838Y-82478167D01*
X122700289Y-82478167D01*
X122736192Y-82442327D01*
X122878838Y-82098799D01*
X122879162Y-81726833D01*
X122737117Y-81383057D01*
X122474327Y-81119808D01*
X122130799Y-80977162D01*
X121758833Y-80976838D01*
X121415057Y-81118883D01*
X121151808Y-81381673D01*
X121009162Y-81725201D01*
X121008838Y-82097167D01*
X118075045Y-82097167D01*
X118179838Y-81844799D01*
X118180162Y-81472833D01*
X118038117Y-81129057D01*
X117775327Y-80865808D01*
X117431799Y-80723162D01*
X117059833Y-80722838D01*
X116716057Y-80864883D01*
X116482824Y-81097709D01*
X116251327Y-80865808D01*
X115907799Y-80723162D01*
X115535833Y-80722838D01*
X115192057Y-80864883D01*
X114928808Y-81127673D01*
X114786162Y-81471201D01*
X114785838Y-81843167D01*
X111847805Y-81843167D01*
X111815117Y-81764057D01*
X111552327Y-81500808D01*
X111208799Y-81358162D01*
X110836833Y-81357838D01*
X110493057Y-81499883D01*
X110229808Y-81762673D01*
X110087162Y-82106201D01*
X110086838Y-82478167D01*
X109035839Y-82478167D01*
X109036162Y-82107833D01*
X108894117Y-81764057D01*
X108631327Y-81500808D01*
X108287799Y-81358162D01*
X107915833Y-81357838D01*
X107572057Y-81499883D01*
X107308808Y-81762673D01*
X107166162Y-82106201D01*
X107165838Y-82478167D01*
X107307883Y-82821943D01*
X107384485Y-82898679D01*
X107290611Y-83124752D01*
X107290544Y-83201742D01*
X104661969Y-80573167D01*
X112372838Y-80573167D01*
X112514883Y-80916943D01*
X112777673Y-81180192D01*
X113121201Y-81322838D01*
X113493167Y-81323162D01*
X113836943Y-81181117D01*
X114100192Y-80918327D01*
X114242838Y-80574799D01*
X114243162Y-80202833D01*
X114101117Y-79859057D01*
X113838327Y-79595808D01*
X113494799Y-79453162D01*
X113122833Y-79452838D01*
X112779057Y-79594883D01*
X112515808Y-79857673D01*
X112373162Y-80201201D01*
X112372838Y-80573167D01*
X104661969Y-80573167D01*
X104591122Y-80502320D01*
X104591162Y-80456833D01*
X104449117Y-80113057D01*
X104416000Y-80079882D01*
X104416000Y-79724214D01*
X104964047Y-79176167D01*
X109832838Y-79176167D01*
X109974883Y-79519943D01*
X110237673Y-79783192D01*
X110581201Y-79925838D01*
X110953167Y-79926162D01*
X111296943Y-79784117D01*
X111560192Y-79521327D01*
X111702838Y-79177799D01*
X111703060Y-78922167D01*
X114531838Y-78922167D01*
X114673883Y-79265943D01*
X114936673Y-79529192D01*
X115280201Y-79671838D01*
X115652167Y-79672162D01*
X115995943Y-79530117D01*
X116259192Y-79267327D01*
X116401838Y-78923799D01*
X116402162Y-78551833D01*
X116260117Y-78208057D01*
X116212311Y-78160167D01*
X116817838Y-78160167D01*
X116959883Y-78503943D01*
X117222673Y-78767192D01*
X117566201Y-78909838D01*
X117938167Y-78910162D01*
X118281943Y-78768117D01*
X118382067Y-78668167D01*
X122024838Y-78668167D01*
X122166883Y-79011943D01*
X122429673Y-79275192D01*
X122773201Y-79417838D01*
X123145167Y-79418162D01*
X123488943Y-79276117D01*
X123752192Y-79013327D01*
X123894838Y-78669799D01*
X123895162Y-78297833D01*
X123753117Y-77954057D01*
X123490327Y-77690808D01*
X123146799Y-77548162D01*
X122774833Y-77547838D01*
X122431057Y-77689883D01*
X122167808Y-77952673D01*
X122025162Y-78296201D01*
X122024838Y-78668167D01*
X118382067Y-78668167D01*
X118545192Y-78505327D01*
X118687838Y-78161799D01*
X118688162Y-77789833D01*
X118546117Y-77446057D01*
X118283327Y-77182808D01*
X117939799Y-77040162D01*
X117567833Y-77039838D01*
X117224057Y-77181883D01*
X116960808Y-77444673D01*
X116818162Y-77788201D01*
X116817838Y-78160167D01*
X116212311Y-78160167D01*
X115997327Y-77944808D01*
X115653799Y-77802162D01*
X115281833Y-77801838D01*
X114938057Y-77943883D01*
X114674808Y-78206673D01*
X114532162Y-78550201D01*
X114531838Y-78922167D01*
X111703060Y-78922167D01*
X111703162Y-78805833D01*
X111561117Y-78462057D01*
X111298327Y-78198808D01*
X110954799Y-78056162D01*
X110582833Y-78055838D01*
X110239057Y-78197883D01*
X109975808Y-78460673D01*
X109833162Y-78804201D01*
X109832838Y-79176167D01*
X104964047Y-79176167D01*
X105024411Y-79115803D01*
X105189158Y-78869241D01*
X105247010Y-78578402D01*
X105247010Y-77341372D01*
X105189158Y-77050533D01*
X105024411Y-76803971D01*
X104531760Y-76311320D01*
X104531800Y-76265833D01*
X104389755Y-75922057D01*
X104126965Y-75658808D01*
X103783437Y-75516162D01*
X103411471Y-75515838D01*
X103067695Y-75657883D01*
X102804446Y-75920673D01*
X102710000Y-76148123D01*
X102710000Y-71500000D01*
X103290000Y-71500000D01*
X103458226Y-72345730D01*
X103937294Y-73062706D01*
X104654270Y-73541774D01*
X105500000Y-73710000D01*
X106345730Y-73541774D01*
X107062706Y-73062706D01*
X107541774Y-72345730D01*
X107626854Y-71918000D01*
X108889560Y-71918000D01*
X108889560Y-73618000D01*
X108933838Y-73853317D01*
X109072910Y-74069441D01*
X109285110Y-74214431D01*
X109537000Y-74265440D01*
X111237000Y-74265440D01*
X111472317Y-74221162D01*
X111688441Y-74082090D01*
X111833431Y-73869890D01*
X111847086Y-73802459D01*
X111876946Y-73847147D01*
X112358715Y-74169054D01*
X112927000Y-74282093D01*
X113293408Y-74209210D01*
X114929599Y-75845401D01*
X115176160Y-76010148D01*
X115220145Y-76018897D01*
X115467000Y-76068000D01*
X145632198Y-76068000D01*
X145646878Y-76082680D01*
X145646838Y-76128167D01*
X145788883Y-76471943D01*
X146051673Y-76735192D01*
X146395201Y-76877838D01*
X146767167Y-76878162D01*
X146991206Y-76785591D01*
X147067673Y-76862192D01*
X147411201Y-77004838D01*
X147783167Y-77005162D01*
X148069764Y-76886743D01*
X148253157Y-76962895D01*
X148625123Y-76963219D01*
X148968899Y-76821174D01*
X149232148Y-76558384D01*
X149336297Y-76307567D01*
X149512906Y-76234594D01*
X149776155Y-75971804D01*
X149918801Y-75628276D01*
X149919125Y-75256310D01*
X149777080Y-74912534D01*
X149514290Y-74649285D01*
X149170762Y-74506639D01*
X149123886Y-74506598D01*
X148830963Y-74213675D01*
X149055285Y-74169054D01*
X149537054Y-73847147D01*
X149757000Y-73517974D01*
X149976946Y-73847147D01*
X150458715Y-74169054D01*
X151027000Y-74282093D01*
X151595285Y-74169054D01*
X152077054Y-73847147D01*
X152297000Y-73517974D01*
X152516946Y-73847147D01*
X152998715Y-74169054D01*
X153567000Y-74282093D01*
X154135285Y-74169054D01*
X154617054Y-73847147D01*
X154837000Y-73517974D01*
X155056946Y-73847147D01*
X155538715Y-74169054D01*
X156107000Y-74282093D01*
X156675285Y-74169054D01*
X157157054Y-73847147D01*
X157377000Y-73517974D01*
X157596946Y-73847147D01*
X158078715Y-74169054D01*
X158647000Y-74282093D01*
X159215285Y-74169054D01*
X159697054Y-73847147D01*
X160018961Y-73365378D01*
X160132000Y-72797093D01*
X160132000Y-72738907D01*
X160018961Y-72170622D01*
X159697054Y-71688853D01*
X159414416Y-71500000D01*
X161290000Y-71500000D01*
X161458226Y-72345730D01*
X161937294Y-73062706D01*
X162654270Y-73541774D01*
X163500000Y-73710000D01*
X164345730Y-73541774D01*
X165062706Y-73062706D01*
X165541774Y-72345730D01*
X165710000Y-71500000D01*
X165541774Y-70654270D01*
X165062706Y-69937294D01*
X164345730Y-69458226D01*
X163500000Y-69290000D01*
X162654270Y-69458226D01*
X161937294Y-69937294D01*
X161458226Y-70654270D01*
X161290000Y-71500000D01*
X159414416Y-71500000D01*
X159411422Y-71498000D01*
X159697054Y-71307147D01*
X160018961Y-70825378D01*
X160132000Y-70257093D01*
X160132000Y-70198907D01*
X160018961Y-69630622D01*
X159697054Y-69148853D01*
X159215285Y-68826946D01*
X158647000Y-68713907D01*
X158078715Y-68826946D01*
X157596946Y-69148853D01*
X157377000Y-69478026D01*
X157157054Y-69148853D01*
X156675285Y-68826946D01*
X156107000Y-68713907D01*
X155538715Y-68826946D01*
X155056946Y-69148853D01*
X154837000Y-69478026D01*
X154617054Y-69148853D01*
X154135285Y-68826946D01*
X153567000Y-68713907D01*
X152998715Y-68826946D01*
X152516946Y-69148853D01*
X152297000Y-69478026D01*
X152077054Y-69148853D01*
X151595285Y-68826946D01*
X151027000Y-68713907D01*
X150458715Y-68826946D01*
X149976946Y-69148853D01*
X149757000Y-69478026D01*
X149537054Y-69148853D01*
X149055285Y-68826946D01*
X148487000Y-68713907D01*
X147918715Y-68826946D01*
X147436946Y-69148853D01*
X147217000Y-69478026D01*
X146997054Y-69148853D01*
X146515285Y-68826946D01*
X145947000Y-68713907D01*
X145378715Y-68826946D01*
X144896946Y-69148853D01*
X144677000Y-69478026D01*
X144457054Y-69148853D01*
X143975285Y-68826946D01*
X143407000Y-68713907D01*
X142838715Y-68826946D01*
X142356946Y-69148853D01*
X142137000Y-69478026D01*
X141917054Y-69148853D01*
X141435285Y-68826946D01*
X140867000Y-68713907D01*
X140298715Y-68826946D01*
X139816946Y-69148853D01*
X139597000Y-69478026D01*
X139377054Y-69148853D01*
X138895285Y-68826946D01*
X138327000Y-68713907D01*
X137758715Y-68826946D01*
X137276946Y-69148853D01*
X137057000Y-69478026D01*
X136837054Y-69148853D01*
X136355285Y-68826946D01*
X135787000Y-68713907D01*
X135218715Y-68826946D01*
X134736946Y-69148853D01*
X134517000Y-69478026D01*
X134297054Y-69148853D01*
X133815285Y-68826946D01*
X133247000Y-68713907D01*
X132678715Y-68826946D01*
X132196946Y-69148853D01*
X131977000Y-69478026D01*
X131757054Y-69148853D01*
X131275285Y-68826946D01*
X130707000Y-68713907D01*
X130138715Y-68826946D01*
X129656946Y-69148853D01*
X129437000Y-69478026D01*
X129217054Y-69148853D01*
X128735285Y-68826946D01*
X128167000Y-68713907D01*
X127598715Y-68826946D01*
X127116946Y-69148853D01*
X126897000Y-69478026D01*
X126677054Y-69148853D01*
X126195285Y-68826946D01*
X125627000Y-68713907D01*
X125058715Y-68826946D01*
X124576946Y-69148853D01*
X124357000Y-69478026D01*
X124137054Y-69148853D01*
X123655285Y-68826946D01*
X123087000Y-68713907D01*
X122518715Y-68826946D01*
X122036946Y-69148853D01*
X121817000Y-69478026D01*
X121597054Y-69148853D01*
X121115285Y-68826946D01*
X120547000Y-68713907D01*
X119978715Y-68826946D01*
X119496946Y-69148853D01*
X119277000Y-69478026D01*
X119057054Y-69148853D01*
X118575285Y-68826946D01*
X118007000Y-68713907D01*
X117438715Y-68826946D01*
X116956946Y-69148853D01*
X116737000Y-69478026D01*
X116517054Y-69148853D01*
X116035285Y-68826946D01*
X115467000Y-68713907D01*
X114898715Y-68826946D01*
X114416946Y-69148853D01*
X114197000Y-69478026D01*
X113977054Y-69148853D01*
X113495285Y-68826946D01*
X112927000Y-68713907D01*
X112358715Y-68826946D01*
X111876946Y-69148853D01*
X111657000Y-69478026D01*
X111437054Y-69148853D01*
X110955285Y-68826946D01*
X110387000Y-68713907D01*
X109818715Y-68826946D01*
X109336946Y-69148853D01*
X109015039Y-69630622D01*
X108902000Y-70198907D01*
X108902000Y-70257093D01*
X109015039Y-70825378D01*
X109336946Y-71307147D01*
X109338179Y-71307971D01*
X109301683Y-71314838D01*
X109085559Y-71453910D01*
X108940569Y-71666110D01*
X108889560Y-71918000D01*
X107626854Y-71918000D01*
X107710000Y-71500000D01*
X107541774Y-70654270D01*
X107062706Y-69937294D01*
X106345730Y-69458226D01*
X105500000Y-69290000D01*
X104654270Y-69458226D01*
X103937294Y-69937294D01*
X103458226Y-70654270D01*
X103290000Y-71500000D01*
X102710000Y-71500000D01*
X102710000Y-71069931D01*
X102897167Y-70128977D01*
X103390561Y-69390561D01*
X104128977Y-68897167D01*
X105069931Y-68710000D01*
X166873000Y-68710000D01*
X166873000Y-82882000D01*
M02*
