G04 #@! TF.FileFunction,Soldermask,Top*
%FSLAX46Y46*%
G04 Gerber Fmt 4.6, Leading zero omitted, Abs format (unit mm)*
G04 Created by KiCad (PCBNEW 4.0.7-e2-6376~58~ubuntu17.04.1) date Thu May 31 18:31:02 2018*
%MOMM*%
%LPD*%
G01*
G04 APERTURE LIST*
%ADD10C,0.100000*%
%ADD11R,3.100000X2.400000*%
%ADD12C,2.100000*%
%ADD13C,2.300000*%
%ADD14R,1.850000X0.650000*%
%ADD15R,0.650000X1.850000*%
%ADD16R,6.400000X6.400000*%
%ADD17R,2.200000X2.900000*%
%ADD18R,1.100000X1.700000*%
%ADD19R,2.100000X2.100000*%
%ADD20O,2.100000X2.100000*%
%ADD21R,2.000000X1.400000*%
%ADD22R,1.400000X1.650000*%
%ADD23R,1.650000X1.400000*%
%ADD24R,1.200000X1.150000*%
%ADD25R,2.900000X1.400000*%
%ADD26R,2.813000X5.734000*%
%ADD27R,2.100000X1.300000*%
%ADD28R,1.000000X1.950000*%
%ADD29R,3.600000X2.800000*%
%ADD30R,1.300000X2.100000*%
%ADD31R,2.400000X4.200000*%
%ADD32R,2.400000X1.900000*%
%ADD33R,1.150000X1.200000*%
%ADD34R,1.400000X1.100000*%
%ADD35R,1.400000X2.000000*%
%ADD36R,1.100000X1.400000*%
%ADD37R,1.400000X1.400000*%
%ADD38O,1.400000X1.400000*%
%ADD39R,1.300000X1.200000*%
%ADD40R,1.800000X2.500000*%
%ADD41R,0.650000X1.700000*%
%ADD42R,1.700000X0.650000*%
%ADD43R,2.300000X2.700000*%
%ADD44R,2.300000X2.200000*%
%ADD45R,1.800000X0.800000*%
%ADD46R,1.900000X1.900000*%
%ADD47R,2.150000X1.300000*%
%ADD48R,1.400000X2.900000*%
%ADD49R,1.200000X0.900000*%
%ADD50R,1.200000X0.800000*%
G04 APERTURE END LIST*
D10*
D11*
X182650000Y-80515000D03*
X182650000Y-69515000D03*
X176550000Y-69515000D03*
X176550000Y-80515000D03*
D12*
X182650000Y-75015000D03*
D13*
X178150000Y-75015000D03*
D14*
X110543100Y-86217600D03*
X110543100Y-86717600D03*
X110543100Y-87217600D03*
X110543100Y-87717600D03*
X110543100Y-88217600D03*
X110543100Y-88717600D03*
X110543100Y-89217600D03*
X110543100Y-89717600D03*
X110543100Y-90217600D03*
X110543100Y-90717600D03*
X110543100Y-91217600D03*
X110543100Y-91717600D03*
X110543100Y-92217600D03*
X110543100Y-92717600D03*
X110543100Y-93217600D03*
X110543100Y-93717600D03*
X110543100Y-94217600D03*
X110543100Y-94717600D03*
X110543100Y-95217600D03*
X110543100Y-95717600D03*
X110543100Y-96217600D03*
X110543100Y-96717600D03*
X110543100Y-97217600D03*
X110543100Y-97717600D03*
X110543100Y-98217600D03*
X110543100Y-98717600D03*
X110543100Y-99217600D03*
X110543100Y-99717600D03*
X110543100Y-100217600D03*
X110543100Y-100717600D03*
X110543100Y-101217600D03*
X110543100Y-101717600D03*
X110543100Y-102217600D03*
X110543100Y-102717600D03*
X110543100Y-103217600D03*
X110543100Y-103717600D03*
D15*
X112343100Y-105517600D03*
X112843100Y-105517600D03*
X113343100Y-105517600D03*
X113843100Y-105517600D03*
X114343100Y-105517600D03*
X114843100Y-105517600D03*
X115343100Y-105517600D03*
X115843100Y-105517600D03*
X116343100Y-105517600D03*
X116843100Y-105517600D03*
X117343100Y-105517600D03*
X117843100Y-105517600D03*
X118343100Y-105517600D03*
X118843100Y-105517600D03*
X119343100Y-105517600D03*
X119843100Y-105517600D03*
X120343100Y-105517600D03*
X120843100Y-105517600D03*
X121343100Y-105517600D03*
X121843100Y-105517600D03*
X122343100Y-105517600D03*
X122843100Y-105517600D03*
X123343100Y-105517600D03*
X123843100Y-105517600D03*
X124343100Y-105517600D03*
X124843100Y-105517600D03*
X125343100Y-105517600D03*
X125843100Y-105517600D03*
X126343100Y-105517600D03*
X126843100Y-105517600D03*
X127343100Y-105517600D03*
X127843100Y-105517600D03*
X128343100Y-105517600D03*
X128843100Y-105517600D03*
X129343100Y-105517600D03*
X129843100Y-105517600D03*
D14*
X131643100Y-103717600D03*
X131643100Y-103217600D03*
X131643100Y-102717600D03*
X131643100Y-102217600D03*
X131643100Y-101717600D03*
X131643100Y-101217600D03*
X131643100Y-100717600D03*
X131643100Y-100217600D03*
X131643100Y-99717600D03*
X131643100Y-99217600D03*
X131643100Y-98717600D03*
X131643100Y-98217600D03*
X131643100Y-97717600D03*
X131643100Y-97217600D03*
X131643100Y-96717600D03*
X131643100Y-96217600D03*
X131643100Y-95717600D03*
X131643100Y-95217600D03*
X131643100Y-94717600D03*
X131643100Y-94217600D03*
X131643100Y-93717600D03*
X131643100Y-93217600D03*
X131643100Y-92717600D03*
X131643100Y-92217600D03*
X131643100Y-91717600D03*
X131643100Y-91217600D03*
X131643100Y-90717600D03*
X131643100Y-90217600D03*
X131643100Y-89717600D03*
X131643100Y-89217600D03*
X131643100Y-88717600D03*
X131643100Y-88217600D03*
X131643100Y-87717600D03*
X131643100Y-87217600D03*
X131643100Y-86717600D03*
X131643100Y-86217600D03*
D15*
X129843100Y-84417600D03*
X129343100Y-84417600D03*
X128843100Y-84417600D03*
X128343100Y-84417600D03*
X127843100Y-84417600D03*
X127343100Y-84417600D03*
X126843100Y-84417600D03*
X126343100Y-84417600D03*
X125843100Y-84417600D03*
X125343100Y-84417600D03*
X124843100Y-84417600D03*
X124343100Y-84417600D03*
X123843100Y-84417600D03*
X123343100Y-84417600D03*
X122843100Y-84417600D03*
X122343100Y-84417600D03*
X121843100Y-84417600D03*
X121343100Y-84417600D03*
X120843100Y-84417600D03*
X120343100Y-84417600D03*
X119843100Y-84417600D03*
X119343100Y-84417600D03*
X118843100Y-84417600D03*
X118343100Y-84417600D03*
X117843100Y-84417600D03*
X117343100Y-84417600D03*
X116843100Y-84417600D03*
X116343100Y-84417600D03*
X115843100Y-84417600D03*
X115343100Y-84417600D03*
X114843100Y-84417600D03*
X114343100Y-84417600D03*
X113843100Y-84417600D03*
X113343100Y-84417600D03*
X112843100Y-84417600D03*
X112343100Y-84417600D03*
D16*
X121093100Y-94967600D03*
D17*
X168172000Y-86484000D03*
X168172000Y-90484000D03*
D18*
X121187000Y-76451000D03*
X123087000Y-76451000D03*
X136681000Y-77467000D03*
X138581000Y-77467000D03*
D19*
X110387000Y-72768000D03*
D20*
X110387000Y-70228000D03*
X112927000Y-72768000D03*
X112927000Y-70228000D03*
X115467000Y-72768000D03*
X115467000Y-70228000D03*
X118007000Y-72768000D03*
X118007000Y-70228000D03*
X120547000Y-72768000D03*
X120547000Y-70228000D03*
X123087000Y-72768000D03*
X123087000Y-70228000D03*
X125627000Y-72768000D03*
X125627000Y-70228000D03*
X128167000Y-72768000D03*
X128167000Y-70228000D03*
X130707000Y-72768000D03*
X130707000Y-70228000D03*
X133247000Y-72768000D03*
X133247000Y-70228000D03*
X135787000Y-72768000D03*
X135787000Y-70228000D03*
X138327000Y-72768000D03*
X138327000Y-70228000D03*
X140867000Y-72768000D03*
X140867000Y-70228000D03*
X143407000Y-72768000D03*
X143407000Y-70228000D03*
X145947000Y-72768000D03*
X145947000Y-70228000D03*
X148487000Y-72768000D03*
X148487000Y-70228000D03*
X151027000Y-72768000D03*
X151027000Y-70228000D03*
X153567000Y-72768000D03*
X153567000Y-70228000D03*
X156107000Y-72768000D03*
X156107000Y-70228000D03*
X158647000Y-72768000D03*
X158647000Y-70228000D03*
D21*
X183158000Y-109804000D03*
X183158000Y-106804000D03*
X180872000Y-109804000D03*
X180872000Y-106804000D03*
D22*
X173633000Y-111376000D03*
X171633000Y-111376000D03*
D23*
X178586000Y-108677000D03*
X178586000Y-106677000D03*
X171093000Y-101883000D03*
X171093000Y-103883000D03*
X176173000Y-99565000D03*
X176173000Y-97565000D03*
D24*
X174038000Y-101216000D03*
X175538000Y-101216000D03*
D25*
X161695000Y-103780000D03*
X161695000Y-106780000D03*
X165124000Y-103804000D03*
X165124000Y-106804000D03*
D17*
X168426000Y-102359000D03*
X168426000Y-106359000D03*
D26*
X168680000Y-96517000D03*
X161454000Y-96517000D03*
D27*
X174014000Y-96792000D03*
X174014000Y-99692000D03*
X178586000Y-97935000D03*
X178586000Y-100835000D03*
X178586000Y-102232000D03*
X178586000Y-105132000D03*
D28*
X172744000Y-108615000D03*
X174014000Y-108615000D03*
X175284000Y-108615000D03*
X176554000Y-108615000D03*
X176554000Y-103215000D03*
X175284000Y-103215000D03*
X174014000Y-103215000D03*
X172744000Y-103215000D03*
D29*
X174649000Y-105915000D03*
D21*
X182777000Y-94056000D03*
X182777000Y-91056000D03*
X180491000Y-94056000D03*
X180491000Y-91056000D03*
D22*
X174109000Y-94866000D03*
X172109000Y-94866000D03*
D23*
X178205000Y-93088000D03*
X178205000Y-91088000D03*
X170839000Y-85722000D03*
X170839000Y-87722000D03*
X177316000Y-84833000D03*
X177316000Y-82833000D03*
D24*
X173633000Y-85087000D03*
X175133000Y-85087000D03*
D25*
X161441000Y-87548000D03*
X161441000Y-90548000D03*
X164743000Y-87548000D03*
X164743000Y-90548000D03*
D26*
X168680000Y-80642000D03*
X161454000Y-80642000D03*
D30*
X175517000Y-83055000D03*
X172617000Y-83055000D03*
D27*
X179729000Y-82187000D03*
X179729000Y-85087000D03*
X178205000Y-86632000D03*
X178205000Y-89532000D03*
D28*
X172490000Y-92359000D03*
X173760000Y-92359000D03*
X175030000Y-92359000D03*
X176300000Y-92359000D03*
X176300000Y-86959000D03*
X175030000Y-86959000D03*
X173760000Y-86959000D03*
X172490000Y-86959000D03*
D29*
X174395000Y-89659000D03*
D21*
X123468000Y-117853000D03*
X123468000Y-120853000D03*
D31*
X112444000Y-117853000D03*
D32*
X118744000Y-117853000D03*
X118744000Y-115553000D03*
X118744000Y-120153000D03*
D24*
X113332000Y-81023000D03*
X114832000Y-81023000D03*
X126365000Y-108709000D03*
X124865000Y-108709000D03*
D33*
X133628000Y-87905000D03*
X133628000Y-89405000D03*
X108736000Y-86762000D03*
X108736000Y-88262000D03*
D24*
X118537952Y-81023000D03*
X120037952Y-81023000D03*
X122706000Y-107312000D03*
X121206000Y-107312000D03*
D33*
X133501000Y-99668000D03*
X133501000Y-98168000D03*
D24*
X114070000Y-82420000D03*
X115570000Y-82420000D03*
X124460000Y-81023000D03*
X122960000Y-81023000D03*
X118896000Y-108836000D03*
X117396000Y-108836000D03*
D33*
X133501000Y-103478000D03*
X133501000Y-101978000D03*
D24*
X118872000Y-82420000D03*
X117372000Y-82420000D03*
X127278000Y-81023000D03*
X125778000Y-81023000D03*
X115316000Y-108836000D03*
X113816000Y-108836000D03*
X125603000Y-107312000D03*
X124103000Y-107312000D03*
X124103000Y-82420000D03*
X122603000Y-82420000D03*
D33*
X133501000Y-91969000D03*
X133501000Y-93469000D03*
X107339000Y-100200000D03*
X107339000Y-98700000D03*
D24*
X118134000Y-107439000D03*
X116634000Y-107439000D03*
X125119000Y-82420000D03*
X126619000Y-82420000D03*
D33*
X134898000Y-98700000D03*
X134898000Y-100200000D03*
X108736000Y-95604000D03*
X108736000Y-94104000D03*
D24*
X114578000Y-107439000D03*
X113078000Y-107439000D03*
X128814000Y-82420000D03*
X130314000Y-82420000D03*
D33*
X108609000Y-104010000D03*
X108609000Y-102510000D03*
D24*
X109649000Y-105915000D03*
X111149000Y-105915000D03*
D34*
X167791000Y-69339000D03*
X167791000Y-70355000D03*
D33*
X108736000Y-99335000D03*
X108736000Y-100835000D03*
X107339000Y-86000000D03*
X107339000Y-87500000D03*
D24*
X127302000Y-107312000D03*
X128802000Y-107312000D03*
D33*
X133628000Y-84984000D03*
X133628000Y-86484000D03*
D24*
X133477000Y-104899000D03*
X131977000Y-104899000D03*
D33*
X134898000Y-104494000D03*
X134898000Y-102994000D03*
D24*
X108736000Y-85087000D03*
X110236000Y-85087000D03*
D33*
X107212000Y-104748000D03*
X107212000Y-103248000D03*
D21*
X136803000Y-100938000D03*
X136803000Y-97938000D03*
X105307000Y-97938000D03*
X105307000Y-100938000D03*
D35*
X116634000Y-110741000D03*
X119634000Y-110741000D03*
D21*
X135406000Y-94207000D03*
X135406000Y-91207000D03*
D35*
X126693000Y-78991000D03*
X123693000Y-78991000D03*
X123947000Y-110614000D03*
X126947000Y-110614000D03*
D21*
X106831000Y-93313000D03*
X106831000Y-96313000D03*
D35*
X120851000Y-79118000D03*
X117851000Y-79118000D03*
D21*
X106958000Y-106574000D03*
X106958000Y-109574000D03*
X135533000Y-89582000D03*
X135533000Y-86582000D03*
D35*
X107945000Y-81023000D03*
X110945000Y-81023000D03*
X131390000Y-79753000D03*
X134390000Y-79753000D03*
X114705000Y-78864000D03*
X111705000Y-78864000D03*
X132914000Y-109979000D03*
X135914000Y-109979000D03*
X112625000Y-110868000D03*
X109625000Y-110868000D03*
D22*
X144169000Y-87627000D03*
X146169000Y-87627000D03*
X151884000Y-104391000D03*
X149884000Y-104391000D03*
D23*
X142810858Y-100777660D03*
X142810858Y-98777660D03*
D22*
X145344000Y-91760660D03*
X147344000Y-91760660D03*
D23*
X155510858Y-94459660D03*
X155510858Y-96459660D03*
D36*
X182904000Y-121663000D03*
X181888000Y-121663000D03*
D37*
X141629000Y-90294000D03*
D38*
X141629000Y-91564000D03*
X141629000Y-92834000D03*
X141629000Y-94104000D03*
X141629000Y-95374000D03*
D39*
X176681000Y-114678000D03*
X176681000Y-112778000D03*
X174681000Y-113728000D03*
D18*
X180105000Y-113662000D03*
X178205000Y-113662000D03*
X178210000Y-117726000D03*
X180110000Y-117726000D03*
X178210000Y-115694000D03*
X180110000Y-115694000D03*
X180105000Y-119758000D03*
X178205000Y-119758000D03*
X178210000Y-121790000D03*
X180110000Y-121790000D03*
X174908000Y-119758000D03*
X176808000Y-119758000D03*
X146069000Y-89659000D03*
X144169000Y-89659000D03*
D40*
X153145000Y-112922000D03*
X157595000Y-112922000D03*
X157595000Y-122022000D03*
X153145000Y-122022000D03*
D41*
X146410858Y-102460660D03*
X146910858Y-102460660D03*
X147410858Y-102460660D03*
X147910858Y-102460660D03*
X148410858Y-102460660D03*
X148910858Y-102460660D03*
X149410858Y-102460660D03*
X149910858Y-102460660D03*
X150410858Y-102460660D03*
X150910858Y-102460660D03*
X151410858Y-102460660D03*
X151910858Y-102460660D03*
D42*
X153510858Y-100860660D03*
X153510858Y-100360660D03*
X153510858Y-99860660D03*
X153510858Y-99360660D03*
X153510858Y-98860660D03*
X153510858Y-98360660D03*
X153510858Y-97860660D03*
X153510858Y-97360660D03*
X153510858Y-96860660D03*
X153510858Y-96360660D03*
X153510858Y-95860660D03*
X153510858Y-95360660D03*
D41*
X151910858Y-93760660D03*
X151410858Y-93760660D03*
X150910858Y-93760660D03*
X150410858Y-93760660D03*
X149910858Y-93760660D03*
X149410858Y-93760660D03*
X148910858Y-93760660D03*
X148410858Y-93760660D03*
X147910858Y-93760660D03*
X147410858Y-93760660D03*
X146910858Y-93760660D03*
X146410858Y-93760660D03*
D42*
X144810858Y-95360660D03*
X144810858Y-95860660D03*
X144810858Y-96360660D03*
X144810858Y-96860660D03*
X144810858Y-97360660D03*
X144810858Y-97860660D03*
X144810858Y-98360660D03*
X144810858Y-98860660D03*
X144810858Y-99360660D03*
X144810858Y-99860660D03*
X144810858Y-100360660D03*
X144810858Y-100860660D03*
D43*
X185571000Y-120086000D03*
X185571000Y-112586000D03*
D44*
X185571000Y-117486000D03*
X185571000Y-115186000D03*
D45*
X182721000Y-116336000D03*
X182721000Y-115686000D03*
X182721000Y-116986000D03*
X182721000Y-117636000D03*
X182721000Y-115036000D03*
D21*
X121309000Y-119464000D03*
X121309000Y-116464000D03*
D18*
X152302000Y-76451000D03*
X154202000Y-76451000D03*
D46*
X134000000Y-118850000D03*
X134000000Y-122150000D03*
X136952000Y-118850000D03*
X136952000Y-122150000D03*
X139952000Y-118850000D03*
X139952000Y-122150000D03*
X150335000Y-118850000D03*
X150335000Y-122150000D03*
D27*
X134000000Y-114000000D03*
X134000000Y-116900000D03*
X136952000Y-114050000D03*
X136952000Y-116950000D03*
X139952000Y-114050000D03*
X139952000Y-116950000D03*
X150335000Y-114050000D03*
X150335000Y-116950000D03*
D23*
X129818000Y-114551000D03*
X129818000Y-112551000D03*
X121944000Y-112281000D03*
X121944000Y-114281000D03*
X147852000Y-104931000D03*
X147852000Y-106931000D03*
D47*
X127511000Y-113027000D03*
X124611000Y-113027000D03*
X124611000Y-114577000D03*
X127511000Y-114577000D03*
X142666000Y-106550000D03*
X145566000Y-106550000D03*
X145566000Y-105000000D03*
X142666000Y-105000000D03*
D23*
X140232000Y-105058000D03*
X140232000Y-107058000D03*
D18*
X139475000Y-110233000D03*
X141375000Y-110233000D03*
D40*
X147385000Y-122022000D03*
X142935000Y-122022000D03*
X142935000Y-112922000D03*
X147385000Y-112922000D03*
D48*
X185444000Y-87754000D03*
X182444000Y-87754000D03*
X185444000Y-84198000D03*
X182444000Y-84198000D03*
X185420000Y-99565000D03*
X182420000Y-99565000D03*
X185444000Y-102994000D03*
X182444000Y-102994000D03*
D18*
X111591000Y-107693000D03*
X109691000Y-107693000D03*
X131723000Y-82039000D03*
X133623000Y-82039000D03*
X110514000Y-83436000D03*
X108614000Y-83436000D03*
X132363000Y-106550000D03*
X134263000Y-106550000D03*
D36*
X102640000Y-81404000D03*
X103656000Y-81404000D03*
X102640000Y-83563000D03*
X103656000Y-83563000D03*
X102640000Y-85722000D03*
X103656000Y-85722000D03*
D19*
X157377000Y-89405000D03*
D20*
X154837000Y-89405000D03*
X157377000Y-86865000D03*
X154837000Y-86865000D03*
X157377000Y-84325000D03*
X154837000Y-84325000D03*
D49*
X102872000Y-76464000D03*
D50*
X102872000Y-78064000D03*
X102872000Y-77264000D03*
D49*
X102872000Y-78864000D03*
D50*
X104672000Y-77264000D03*
D49*
X104672000Y-76464000D03*
D50*
X104672000Y-78064000D03*
D49*
X104672000Y-78864000D03*
M02*
