G04 #@! TF.FileFunction,Legend,Top*
%FSLAX46Y46*%
G04 Gerber Fmt 4.6, Leading zero omitted, Abs format (unit mm)*
G04 Created by KiCad (PCBNEW 4.0.7-e2-6376~58~ubuntu17.04.1) date Thu May 31 18:31:02 2018*
%MOMM*%
%LPD*%
G01*
G04 APERTURE LIST*
%ADD10C,0.100000*%
%ADD11C,0.300000*%
%ADD12C,0.150000*%
%ADD13C,0.120000*%
G04 APERTURE END LIST*
D10*
D11*
X138094144Y-80045571D02*
X138094144Y-78545571D01*
X139094144Y-78545571D02*
X139379858Y-78545571D01*
X139522716Y-78617000D01*
X139665573Y-78759857D01*
X139737001Y-79045571D01*
X139737001Y-79545571D01*
X139665573Y-79831286D01*
X139522716Y-79974143D01*
X139379858Y-80045571D01*
X139094144Y-80045571D01*
X138951287Y-79974143D01*
X138808430Y-79831286D01*
X138737001Y-79545571D01*
X138737001Y-79045571D01*
X138808430Y-78759857D01*
X138951287Y-78617000D01*
X139094144Y-78545571D01*
X140165573Y-78545571D02*
X141022716Y-78545571D01*
X140594145Y-80045571D02*
X140594145Y-78545571D01*
X141451287Y-79617000D02*
X142165573Y-79617000D01*
X141308430Y-80045571D02*
X141808430Y-78545571D01*
X142308430Y-80045571D01*
X143951287Y-80045571D02*
X143951287Y-78545571D01*
X144522715Y-78545571D01*
X144665573Y-78617000D01*
X144737001Y-78688429D01*
X144808430Y-78831286D01*
X144808430Y-79045571D01*
X144737001Y-79188429D01*
X144665573Y-79259857D01*
X144522715Y-79331286D01*
X143951287Y-79331286D01*
X145451287Y-80045571D02*
X145451287Y-79045571D01*
X145451287Y-78545571D02*
X145379858Y-78617000D01*
X145451287Y-78688429D01*
X145522715Y-78617000D01*
X145451287Y-78545571D01*
X145451287Y-78688429D01*
X146165573Y-79474143D02*
X147308430Y-79474143D01*
X148022716Y-80045571D02*
X148022716Y-78545571D01*
X148379859Y-78545571D01*
X148594144Y-78617000D01*
X148737002Y-78759857D01*
X148808430Y-78902714D01*
X148879859Y-79188429D01*
X148879859Y-79402714D01*
X148808430Y-79688429D01*
X148737002Y-79831286D01*
X148594144Y-79974143D01*
X148379859Y-80045571D01*
X148022716Y-80045571D01*
X149522716Y-80045571D02*
X149522716Y-79045571D01*
X149522716Y-78545571D02*
X149451287Y-78617000D01*
X149522716Y-78688429D01*
X149594144Y-78617000D01*
X149522716Y-78545571D01*
X149522716Y-78688429D01*
X150094145Y-79045571D02*
X150451288Y-80045571D01*
X150808430Y-79045571D01*
X151951287Y-79974143D02*
X151808430Y-80045571D01*
X151522716Y-80045571D01*
X151379859Y-79974143D01*
X151308430Y-79831286D01*
X151308430Y-79259857D01*
X151379859Y-79117000D01*
X151522716Y-79045571D01*
X151808430Y-79045571D01*
X151951287Y-79117000D01*
X152022716Y-79259857D01*
X152022716Y-79402714D01*
X151308430Y-79545571D01*
X152665573Y-80045571D02*
X152665573Y-79045571D01*
X152665573Y-79331286D02*
X152737001Y-79188429D01*
X152808430Y-79117000D01*
X152951287Y-79045571D01*
X153094144Y-79045571D01*
X154522715Y-78545571D02*
X155022715Y-80045571D01*
X155522715Y-78545571D01*
X156808429Y-80045571D02*
X155951286Y-80045571D01*
X156379858Y-80045571D02*
X156379858Y-78545571D01*
X156237001Y-78759857D01*
X156094143Y-78902714D01*
X155951286Y-78974143D01*
X157451286Y-79902714D02*
X157522714Y-79974143D01*
X157451286Y-80045571D01*
X157379857Y-79974143D01*
X157451286Y-79902714D01*
X157451286Y-80045571D01*
X158451286Y-78545571D02*
X158594143Y-78545571D01*
X158737000Y-78617000D01*
X158808429Y-78688429D01*
X158879858Y-78831286D01*
X158951286Y-79117000D01*
X158951286Y-79474143D01*
X158879858Y-79759857D01*
X158808429Y-79902714D01*
X158737000Y-79974143D01*
X158594143Y-80045571D01*
X158451286Y-80045571D01*
X158308429Y-79974143D01*
X158237000Y-79902714D01*
X158165572Y-79759857D01*
X158094143Y-79474143D01*
X158094143Y-79117000D01*
X158165572Y-78831286D01*
X158237000Y-78688429D01*
X158308429Y-78617000D01*
X158451286Y-78545571D01*
X139237001Y-82595571D02*
X139237001Y-81595571D01*
X139237001Y-81738429D02*
X139308429Y-81667000D01*
X139451287Y-81595571D01*
X139665572Y-81595571D01*
X139808429Y-81667000D01*
X139879858Y-81809857D01*
X139879858Y-82595571D01*
X139879858Y-81809857D02*
X139951287Y-81667000D01*
X140094144Y-81595571D01*
X140308429Y-81595571D01*
X140451287Y-81667000D01*
X140522715Y-81809857D01*
X140522715Y-82595571D01*
X141237001Y-82595571D02*
X141237001Y-81595571D01*
X141237001Y-81095571D02*
X141165572Y-81167000D01*
X141237001Y-81238429D01*
X141308429Y-81167000D01*
X141237001Y-81095571D01*
X141237001Y-81238429D01*
X142594144Y-82524143D02*
X142451287Y-82595571D01*
X142165573Y-82595571D01*
X142022715Y-82524143D01*
X141951287Y-82452714D01*
X141879858Y-82309857D01*
X141879858Y-81881286D01*
X141951287Y-81738429D01*
X142022715Y-81667000D01*
X142165573Y-81595571D01*
X142451287Y-81595571D01*
X142594144Y-81667000D01*
X143237001Y-82595571D02*
X143237001Y-81595571D01*
X143237001Y-81881286D02*
X143308429Y-81738429D01*
X143379858Y-81667000D01*
X143522715Y-81595571D01*
X143665572Y-81595571D01*
X144379858Y-82595571D02*
X144237000Y-82524143D01*
X144165572Y-82452714D01*
X144094143Y-82309857D01*
X144094143Y-81881286D01*
X144165572Y-81738429D01*
X144237000Y-81667000D01*
X144379858Y-81595571D01*
X144594143Y-81595571D01*
X144737000Y-81667000D01*
X144808429Y-81738429D01*
X144879858Y-81881286D01*
X144879858Y-82309857D01*
X144808429Y-82452714D01*
X144737000Y-82524143D01*
X144594143Y-82595571D01*
X144379858Y-82595571D01*
X146094143Y-82524143D02*
X145951286Y-82595571D01*
X145665572Y-82595571D01*
X145522715Y-82524143D01*
X145451286Y-82381286D01*
X145451286Y-81809857D01*
X145522715Y-81667000D01*
X145665572Y-81595571D01*
X145951286Y-81595571D01*
X146094143Y-81667000D01*
X146165572Y-81809857D01*
X146165572Y-81952714D01*
X145451286Y-82095571D01*
X146808429Y-81595571D02*
X146808429Y-82595571D01*
X146808429Y-81738429D02*
X146879857Y-81667000D01*
X147022715Y-81595571D01*
X147237000Y-81595571D01*
X147379857Y-81667000D01*
X147451286Y-81809857D01*
X147451286Y-82595571D01*
X148808429Y-81595571D02*
X148808429Y-82809857D01*
X148737000Y-82952714D01*
X148665572Y-83024143D01*
X148522715Y-83095571D01*
X148308429Y-83095571D01*
X148165572Y-83024143D01*
X148808429Y-82524143D02*
X148665572Y-82595571D01*
X148379858Y-82595571D01*
X148237000Y-82524143D01*
X148165572Y-82452714D01*
X148094143Y-82309857D01*
X148094143Y-81881286D01*
X148165572Y-81738429D01*
X148237000Y-81667000D01*
X148379858Y-81595571D01*
X148665572Y-81595571D01*
X148808429Y-81667000D01*
X149522715Y-82595571D02*
X149522715Y-81595571D01*
X149522715Y-81095571D02*
X149451286Y-81167000D01*
X149522715Y-81238429D01*
X149594143Y-81167000D01*
X149522715Y-81095571D01*
X149522715Y-81238429D01*
X150237001Y-81595571D02*
X150237001Y-82595571D01*
X150237001Y-81738429D02*
X150308429Y-81667000D01*
X150451287Y-81595571D01*
X150665572Y-81595571D01*
X150808429Y-81667000D01*
X150879858Y-81809857D01*
X150879858Y-82595571D01*
X152165572Y-82524143D02*
X152022715Y-82595571D01*
X151737001Y-82595571D01*
X151594144Y-82524143D01*
X151522715Y-82381286D01*
X151522715Y-81809857D01*
X151594144Y-81667000D01*
X151737001Y-81595571D01*
X152022715Y-81595571D01*
X152165572Y-81667000D01*
X152237001Y-81809857D01*
X152237001Y-81952714D01*
X151522715Y-82095571D01*
X153451286Y-82524143D02*
X153308429Y-82595571D01*
X153022715Y-82595571D01*
X152879858Y-82524143D01*
X152808429Y-82381286D01*
X152808429Y-81809857D01*
X152879858Y-81667000D01*
X153022715Y-81595571D01*
X153308429Y-81595571D01*
X153451286Y-81667000D01*
X153522715Y-81809857D01*
X153522715Y-81952714D01*
X152808429Y-82095571D01*
X154165572Y-82595571D02*
X154165572Y-81595571D01*
X154165572Y-81881286D02*
X154237000Y-81738429D01*
X154308429Y-81667000D01*
X154451286Y-81595571D01*
X154594143Y-81595571D01*
X155094143Y-82452714D02*
X155165571Y-82524143D01*
X155094143Y-82595571D01*
X155022714Y-82524143D01*
X155094143Y-82452714D01*
X155094143Y-82595571D01*
X156379857Y-82524143D02*
X156237000Y-82595571D01*
X155951286Y-82595571D01*
X155808429Y-82524143D01*
X155737000Y-82381286D01*
X155737000Y-81809857D01*
X155808429Y-81667000D01*
X155951286Y-81595571D01*
X156237000Y-81595571D01*
X156379857Y-81667000D01*
X156451286Y-81809857D01*
X156451286Y-81952714D01*
X155737000Y-82095571D01*
X157737000Y-81595571D02*
X157737000Y-82595571D01*
X157094143Y-81595571D02*
X157094143Y-82381286D01*
X157165571Y-82524143D01*
X157308429Y-82595571D01*
X157522714Y-82595571D01*
X157665571Y-82524143D01*
X157737000Y-82452714D01*
D12*
X172850000Y-78215000D02*
X172250000Y-78215000D01*
X172250000Y-78215000D02*
X172250000Y-71815000D01*
X172250000Y-71815000D02*
X172850000Y-71815000D01*
X172850000Y-79515000D02*
X172850000Y-70515000D01*
X187650000Y-79515000D02*
X187650000Y-70515000D01*
X187650000Y-79515000D02*
X172850000Y-79515000D01*
X187650000Y-70515000D02*
X172850000Y-70515000D01*
X110918100Y-84792600D02*
X110918100Y-85792600D01*
X131268100Y-84792600D02*
X131268100Y-85867600D01*
X131268100Y-105142600D02*
X131268100Y-104067600D01*
X110918100Y-105142600D02*
X110918100Y-104067600D01*
X110918100Y-84792600D02*
X111993100Y-84792600D01*
X110918100Y-105142600D02*
X111993100Y-105142600D01*
X131268100Y-105142600D02*
X130193100Y-105142600D01*
X131268100Y-84792600D02*
X130193100Y-84792600D01*
X110918100Y-85792600D02*
X109818100Y-85792600D01*
D13*
X169822000Y-85084000D02*
X166522000Y-85084000D01*
X166522000Y-85084000D02*
X166522000Y-90484000D01*
X169822000Y-85084000D02*
X169822000Y-90484000D01*
X122737000Y-77331000D02*
X121537000Y-77331000D01*
X121537000Y-75571000D02*
X122737000Y-75571000D01*
X138231000Y-78347000D02*
X137031000Y-78347000D01*
X137031000Y-76587000D02*
X138231000Y-76587000D01*
X159977000Y-74098000D02*
X159977000Y-68898000D01*
X111657000Y-74098000D02*
X159977000Y-74098000D01*
X109057000Y-68898000D02*
X159977000Y-68898000D01*
X111657000Y-74098000D02*
X111657000Y-71498000D01*
X111657000Y-71498000D02*
X109057000Y-71498000D01*
X109057000Y-71498000D02*
X109057000Y-68898000D01*
X110387000Y-74098000D02*
X109057000Y-74098000D01*
X109057000Y-74098000D02*
X109057000Y-72768000D01*
X182138000Y-107304000D02*
X182138000Y-109304000D01*
X184178000Y-109304000D02*
X184178000Y-107304000D01*
X179852000Y-107304000D02*
X179852000Y-109304000D01*
X181892000Y-109304000D02*
X181892000Y-107304000D01*
X172133000Y-112226000D02*
X173133000Y-112226000D01*
X173133000Y-110526000D02*
X172133000Y-110526000D01*
X177736000Y-107177000D02*
X177736000Y-108177000D01*
X179436000Y-108177000D02*
X179436000Y-107177000D01*
X171943000Y-103383000D02*
X171943000Y-102383000D01*
X170243000Y-102383000D02*
X170243000Y-103383000D01*
X175323000Y-98065000D02*
X175323000Y-99065000D01*
X177023000Y-99065000D02*
X177023000Y-98065000D01*
X174438000Y-100616000D02*
X175138000Y-100616000D01*
X175138000Y-101816000D02*
X174438000Y-101816000D01*
X163175000Y-106280000D02*
X163175000Y-104280000D01*
X160215000Y-104280000D02*
X160215000Y-106280000D01*
X166604000Y-106304000D02*
X166604000Y-104304000D01*
X163644000Y-104304000D02*
X163644000Y-106304000D01*
X170076000Y-100959000D02*
X166776000Y-100959000D01*
X166776000Y-100959000D02*
X166776000Y-106359000D01*
X170076000Y-100959000D02*
X170076000Y-106359000D01*
D12*
X169167000Y-100617000D02*
X160967000Y-100617000D01*
X169167000Y-92417000D02*
X160967000Y-92417000D01*
X169167000Y-100617000D02*
X169167000Y-92417000D01*
X160967000Y-100617000D02*
X160967000Y-92417000D01*
D13*
X172944000Y-99242000D02*
X172944000Y-97242000D01*
X175084000Y-97242000D02*
X175084000Y-99242000D01*
X177516000Y-100385000D02*
X177516000Y-98385000D01*
X179656000Y-98385000D02*
X179656000Y-100385000D01*
X177516000Y-104682000D02*
X177516000Y-102682000D01*
X179656000Y-102682000D02*
X179656000Y-104682000D01*
D12*
X172074000Y-107990000D02*
X172124000Y-107990000D01*
X172074000Y-103840000D02*
X172219000Y-103840000D01*
X177224000Y-103840000D02*
X177079000Y-103840000D01*
X177224000Y-107990000D02*
X177079000Y-107990000D01*
X172074000Y-107990000D02*
X172074000Y-103840000D01*
X177224000Y-107990000D02*
X177224000Y-103840000D01*
X172124000Y-107990000D02*
X172124000Y-109390000D01*
D13*
X181757000Y-91556000D02*
X181757000Y-93556000D01*
X183797000Y-93556000D02*
X183797000Y-91556000D01*
X179471000Y-91556000D02*
X179471000Y-93556000D01*
X181511000Y-93556000D02*
X181511000Y-91556000D01*
X172609000Y-95716000D02*
X173609000Y-95716000D01*
X173609000Y-94016000D02*
X172609000Y-94016000D01*
X177355000Y-91588000D02*
X177355000Y-92588000D01*
X179055000Y-92588000D02*
X179055000Y-91588000D01*
X171689000Y-87222000D02*
X171689000Y-86222000D01*
X169989000Y-86222000D02*
X169989000Y-87222000D01*
X176466000Y-83333000D02*
X176466000Y-84333000D01*
X178166000Y-84333000D02*
X178166000Y-83333000D01*
X174033000Y-84487000D02*
X174733000Y-84487000D01*
X174733000Y-85687000D02*
X174033000Y-85687000D01*
X162921000Y-90048000D02*
X162921000Y-88048000D01*
X159961000Y-88048000D02*
X159961000Y-90048000D01*
X166223000Y-90048000D02*
X166223000Y-88048000D01*
X163263000Y-88048000D02*
X163263000Y-90048000D01*
D12*
X169167000Y-84742000D02*
X160967000Y-84742000D01*
X169167000Y-76542000D02*
X160967000Y-76542000D01*
X169167000Y-84742000D02*
X169167000Y-76542000D01*
X160967000Y-84742000D02*
X160967000Y-76542000D01*
D13*
X173067000Y-81985000D02*
X175067000Y-81985000D01*
X175067000Y-84125000D02*
X173067000Y-84125000D01*
X178659000Y-84637000D02*
X178659000Y-82637000D01*
X180799000Y-82637000D02*
X180799000Y-84637000D01*
X177135000Y-89082000D02*
X177135000Y-87082000D01*
X179275000Y-87082000D02*
X179275000Y-89082000D01*
D12*
X171820000Y-91734000D02*
X171870000Y-91734000D01*
X171820000Y-87584000D02*
X171965000Y-87584000D01*
X176970000Y-87584000D02*
X176825000Y-87584000D01*
X176970000Y-91734000D02*
X176825000Y-91734000D01*
X171820000Y-91734000D02*
X171820000Y-87584000D01*
X176970000Y-91734000D02*
X176970000Y-87584000D01*
X171870000Y-91734000D02*
X171870000Y-93134000D01*
D13*
X124488000Y-120353000D02*
X124488000Y-118353000D01*
X122448000Y-118353000D02*
X122448000Y-120353000D01*
X113684000Y-114443000D02*
X113684000Y-115703000D01*
X113684000Y-121263000D02*
X113684000Y-120003000D01*
X117444000Y-114443000D02*
X113684000Y-114443000D01*
X119694000Y-121263000D02*
X113684000Y-121263000D01*
X113732000Y-80423000D02*
X114432000Y-80423000D01*
X114432000Y-81623000D02*
X113732000Y-81623000D01*
X125965000Y-109309000D02*
X125265000Y-109309000D01*
X125265000Y-108109000D02*
X125965000Y-108109000D01*
X134228000Y-88305000D02*
X134228000Y-89005000D01*
X133028000Y-89005000D02*
X133028000Y-88305000D01*
X109336000Y-87162000D02*
X109336000Y-87862000D01*
X108136000Y-87862000D02*
X108136000Y-87162000D01*
X118937952Y-80423000D02*
X119637952Y-80423000D01*
X119637952Y-81623000D02*
X118937952Y-81623000D01*
X122306000Y-107912000D02*
X121606000Y-107912000D01*
X121606000Y-106712000D02*
X122306000Y-106712000D01*
X132901000Y-99268000D02*
X132901000Y-98568000D01*
X134101000Y-98568000D02*
X134101000Y-99268000D01*
X114470000Y-81820000D02*
X115170000Y-81820000D01*
X115170000Y-83020000D02*
X114470000Y-83020000D01*
X124060000Y-81623000D02*
X123360000Y-81623000D01*
X123360000Y-80423000D02*
X124060000Y-80423000D01*
X118496000Y-109436000D02*
X117796000Y-109436000D01*
X117796000Y-108236000D02*
X118496000Y-108236000D01*
X132901000Y-103078000D02*
X132901000Y-102378000D01*
X134101000Y-102378000D02*
X134101000Y-103078000D01*
X118472000Y-83020000D02*
X117772000Y-83020000D01*
X117772000Y-81820000D02*
X118472000Y-81820000D01*
X126878000Y-81623000D02*
X126178000Y-81623000D01*
X126178000Y-80423000D02*
X126878000Y-80423000D01*
X114916000Y-109436000D02*
X114216000Y-109436000D01*
X114216000Y-108236000D02*
X114916000Y-108236000D01*
X125203000Y-107912000D02*
X124503000Y-107912000D01*
X124503000Y-106712000D02*
X125203000Y-106712000D01*
X123703000Y-83020000D02*
X123003000Y-83020000D01*
X123003000Y-81820000D02*
X123703000Y-81820000D01*
X134101000Y-92369000D02*
X134101000Y-93069000D01*
X132901000Y-93069000D02*
X132901000Y-92369000D01*
X106739000Y-99800000D02*
X106739000Y-99100000D01*
X107939000Y-99100000D02*
X107939000Y-99800000D01*
X117734000Y-108039000D02*
X117034000Y-108039000D01*
X117034000Y-106839000D02*
X117734000Y-106839000D01*
X125519000Y-81820000D02*
X126219000Y-81820000D01*
X126219000Y-83020000D02*
X125519000Y-83020000D01*
X135498000Y-99100000D02*
X135498000Y-99800000D01*
X134298000Y-99800000D02*
X134298000Y-99100000D01*
X108136000Y-95204000D02*
X108136000Y-94504000D01*
X109336000Y-94504000D02*
X109336000Y-95204000D01*
X114178000Y-108039000D02*
X113478000Y-108039000D01*
X113478000Y-106839000D02*
X114178000Y-106839000D01*
X129214000Y-81820000D02*
X129914000Y-81820000D01*
X129914000Y-83020000D02*
X129214000Y-83020000D01*
X108009000Y-103610000D02*
X108009000Y-102910000D01*
X109209000Y-102910000D02*
X109209000Y-103610000D01*
X110049000Y-105315000D02*
X110749000Y-105315000D01*
X110749000Y-106515000D02*
X110049000Y-106515000D01*
X109336000Y-99735000D02*
X109336000Y-100435000D01*
X108136000Y-100435000D02*
X108136000Y-99735000D01*
X107939000Y-86400000D02*
X107939000Y-87100000D01*
X106739000Y-87100000D02*
X106739000Y-86400000D01*
X127702000Y-106712000D02*
X128402000Y-106712000D01*
X128402000Y-107912000D02*
X127702000Y-107912000D01*
X134228000Y-85384000D02*
X134228000Y-86084000D01*
X133028000Y-86084000D02*
X133028000Y-85384000D01*
X133077000Y-105499000D02*
X132377000Y-105499000D01*
X132377000Y-104299000D02*
X133077000Y-104299000D01*
X134298000Y-104094000D02*
X134298000Y-103394000D01*
X135498000Y-103394000D02*
X135498000Y-104094000D01*
X109136000Y-84487000D02*
X109836000Y-84487000D01*
X109836000Y-85687000D02*
X109136000Y-85687000D01*
X106612000Y-104348000D02*
X106612000Y-103648000D01*
X107812000Y-103648000D02*
X107812000Y-104348000D01*
X135783000Y-98438000D02*
X135783000Y-100438000D01*
X137823000Y-100438000D02*
X137823000Y-98438000D01*
X106327000Y-100438000D02*
X106327000Y-98438000D01*
X104287000Y-98438000D02*
X104287000Y-100438000D01*
X119134000Y-109721000D02*
X117134000Y-109721000D01*
X117134000Y-111761000D02*
X119134000Y-111761000D01*
X134386000Y-91707000D02*
X134386000Y-93707000D01*
X136426000Y-93707000D02*
X136426000Y-91707000D01*
X124193000Y-80011000D02*
X126193000Y-80011000D01*
X126193000Y-77971000D02*
X124193000Y-77971000D01*
X126447000Y-109594000D02*
X124447000Y-109594000D01*
X124447000Y-111634000D02*
X126447000Y-111634000D01*
X107851000Y-95813000D02*
X107851000Y-93813000D01*
X105811000Y-93813000D02*
X105811000Y-95813000D01*
X118351000Y-80138000D02*
X120351000Y-80138000D01*
X120351000Y-78098000D02*
X118351000Y-78098000D01*
X107978000Y-109074000D02*
X107978000Y-107074000D01*
X105938000Y-107074000D02*
X105938000Y-109074000D01*
X134513000Y-87082000D02*
X134513000Y-89082000D01*
X136553000Y-89082000D02*
X136553000Y-87082000D01*
X110445000Y-80003000D02*
X108445000Y-80003000D01*
X108445000Y-82043000D02*
X110445000Y-82043000D01*
X133890000Y-78733000D02*
X131890000Y-78733000D01*
X131890000Y-80773000D02*
X133890000Y-80773000D01*
X112205000Y-79884000D02*
X114205000Y-79884000D01*
X114205000Y-77844000D02*
X112205000Y-77844000D01*
X135414000Y-108959000D02*
X133414000Y-108959000D01*
X133414000Y-110999000D02*
X135414000Y-110999000D01*
X110125000Y-111888000D02*
X112125000Y-111888000D01*
X112125000Y-109848000D02*
X110125000Y-109848000D01*
X145669000Y-86777000D02*
X144669000Y-86777000D01*
X144669000Y-88477000D02*
X145669000Y-88477000D01*
X150384000Y-105241000D02*
X151384000Y-105241000D01*
X151384000Y-103541000D02*
X150384000Y-103541000D01*
X141960858Y-99277660D02*
X141960858Y-100277660D01*
X143660858Y-100277660D02*
X143660858Y-99277660D01*
X146844000Y-90910660D02*
X145844000Y-90910660D01*
X145844000Y-92610660D02*
X146844000Y-92610660D01*
X156360858Y-95959660D02*
X156360858Y-94959660D01*
X154660858Y-94959660D02*
X154660858Y-95959660D01*
X140519000Y-96069000D02*
X141321470Y-96069000D01*
X141936530Y-96069000D02*
X142739000Y-96069000D01*
X140519000Y-91054000D02*
X140519000Y-96069000D01*
X142739000Y-91054000D02*
X142739000Y-96069000D01*
X140519000Y-91054000D02*
X141065529Y-91054000D01*
X142192471Y-91054000D02*
X142739000Y-91054000D01*
X140519000Y-90294000D02*
X140519000Y-89534000D01*
X140519000Y-89534000D02*
X141629000Y-89534000D01*
X174921000Y-112148000D02*
X174921000Y-113078000D01*
X174921000Y-115308000D02*
X174921000Y-114378000D01*
X174921000Y-115308000D02*
X177081000Y-115308000D01*
X174921000Y-112148000D02*
X176381000Y-112148000D01*
X178555000Y-112782000D02*
X179755000Y-112782000D01*
X179755000Y-114542000D02*
X178555000Y-114542000D01*
X179760000Y-118606000D02*
X178560000Y-118606000D01*
X178560000Y-116846000D02*
X179760000Y-116846000D01*
X179760000Y-116574000D02*
X178560000Y-116574000D01*
X178560000Y-114814000D02*
X179760000Y-114814000D01*
X178555000Y-118878000D02*
X179755000Y-118878000D01*
X179755000Y-120638000D02*
X178555000Y-120638000D01*
X179760000Y-122670000D02*
X178560000Y-122670000D01*
X178560000Y-120910000D02*
X179760000Y-120910000D01*
X176458000Y-120638000D02*
X175258000Y-120638000D01*
X175258000Y-118878000D02*
X176458000Y-118878000D01*
X144519000Y-88779000D02*
X145719000Y-88779000D01*
X145719000Y-90539000D02*
X144519000Y-90539000D01*
D12*
X157095000Y-117472000D02*
G75*
G03X157095000Y-117472000I-1750000J0D01*
G01*
X158345000Y-114472000D02*
X158345000Y-120472000D01*
X158345000Y-120472000D02*
X152345000Y-120472000D01*
X152345000Y-120472000D02*
X152345000Y-114472000D01*
X152345000Y-114472000D02*
X158345000Y-114472000D01*
X145535858Y-101735660D02*
X145985858Y-101735660D01*
X145535858Y-94485660D02*
X146060858Y-94485660D01*
X152785858Y-94485660D02*
X152260858Y-94485660D01*
X152785858Y-101735660D02*
X152260858Y-101735660D01*
X145535858Y-101735660D02*
X145535858Y-101210660D01*
X152785858Y-101735660D02*
X152785858Y-101210660D01*
X152785858Y-94485660D02*
X152785858Y-95010660D01*
X145535858Y-94485660D02*
X145535858Y-95010660D01*
X145985858Y-101735660D02*
X145985858Y-103110660D01*
X188321000Y-119636000D02*
X187721000Y-119636000D01*
X188321000Y-119636000D02*
X188321000Y-112986000D01*
X188321000Y-112986000D02*
X187721000Y-112986000D01*
X187721000Y-120086000D02*
X182721000Y-120086000D01*
X182721000Y-120086000D02*
X182721000Y-112586000D01*
X182721000Y-112586000D02*
X185671000Y-112586000D01*
X185571000Y-112586000D02*
X187721000Y-112586000D01*
X187721000Y-112586000D02*
X187721000Y-120086000D01*
X187721000Y-120086000D02*
X185571000Y-120086000D01*
D13*
X120289000Y-116964000D02*
X120289000Y-118964000D01*
X122329000Y-118964000D02*
X122329000Y-116964000D01*
X153852000Y-77331000D02*
X152652000Y-77331000D01*
X152652000Y-75571000D02*
X153852000Y-75571000D01*
X133150000Y-123000000D02*
X134850000Y-123000000D01*
X134850000Y-122950000D02*
X134850000Y-118900000D01*
X133150000Y-122950000D02*
X133150000Y-118900000D01*
X136102000Y-123000000D02*
X137802000Y-123000000D01*
X137802000Y-122950000D02*
X137802000Y-118900000D01*
X136102000Y-122950000D02*
X136102000Y-118900000D01*
X139102000Y-123000000D02*
X140802000Y-123000000D01*
X140802000Y-122950000D02*
X140802000Y-118900000D01*
X139102000Y-122950000D02*
X139102000Y-118900000D01*
X149485000Y-123000000D02*
X151185000Y-123000000D01*
X151185000Y-122950000D02*
X151185000Y-118900000D01*
X149485000Y-122950000D02*
X149485000Y-118900000D01*
X132930000Y-116450000D02*
X132930000Y-114450000D01*
X135070000Y-114450000D02*
X135070000Y-116450000D01*
X135882000Y-116500000D02*
X135882000Y-114500000D01*
X138022000Y-114500000D02*
X138022000Y-116500000D01*
X138882000Y-116500000D02*
X138882000Y-114500000D01*
X141022000Y-114500000D02*
X141022000Y-116500000D01*
X149265000Y-116500000D02*
X149265000Y-114500000D01*
X151405000Y-114500000D02*
X151405000Y-116500000D01*
X128968000Y-113051000D02*
X128968000Y-114051000D01*
X130668000Y-114051000D02*
X130668000Y-113051000D01*
X122794000Y-113781000D02*
X122794000Y-112781000D01*
X121094000Y-112781000D02*
X121094000Y-113781000D01*
X148702000Y-106431000D02*
X148702000Y-105431000D01*
X147002000Y-105431000D02*
X147002000Y-106431000D01*
X127861000Y-115227000D02*
X127861000Y-115252000D01*
X127861000Y-115252000D02*
X124261000Y-115252000D01*
X124261000Y-115252000D02*
X124261000Y-115227000D01*
X128586000Y-112377000D02*
X127861000Y-112377000D01*
X127861000Y-112377000D02*
X127861000Y-112352000D01*
X127861000Y-112352000D02*
X124261000Y-112352000D01*
X124261000Y-112352000D02*
X124261000Y-112377000D01*
X128586000Y-113677000D02*
X127861000Y-113677000D01*
X127861000Y-113677000D02*
X127861000Y-113927000D01*
X124261000Y-113927000D02*
X124261000Y-113677000D01*
X142316000Y-104350000D02*
X142316000Y-104325000D01*
X142316000Y-104325000D02*
X145916000Y-104325000D01*
X145916000Y-104325000D02*
X145916000Y-104350000D01*
X141591000Y-107200000D02*
X142316000Y-107200000D01*
X142316000Y-107200000D02*
X142316000Y-107225000D01*
X142316000Y-107225000D02*
X145916000Y-107225000D01*
X145916000Y-107225000D02*
X145916000Y-107200000D01*
X141591000Y-105900000D02*
X142316000Y-105900000D01*
X142316000Y-105900000D02*
X142316000Y-105650000D01*
X145916000Y-105650000D02*
X145916000Y-105900000D01*
X141082000Y-106558000D02*
X141082000Y-105558000D01*
X139382000Y-105558000D02*
X139382000Y-106558000D01*
X141025000Y-111113000D02*
X139825000Y-111113000D01*
X139825000Y-109353000D02*
X141025000Y-109353000D01*
D12*
X146935000Y-117472000D02*
G75*
G03X146935000Y-117472000I-1750000J0D01*
G01*
X142185000Y-120472000D02*
X142185000Y-114472000D01*
X142185000Y-114472000D02*
X148185000Y-114472000D01*
X148185000Y-114472000D02*
X148185000Y-120472000D01*
X148185000Y-120472000D02*
X142185000Y-120472000D01*
D13*
X182944000Y-89234000D02*
X184944000Y-89234000D01*
X184944000Y-86274000D02*
X182944000Y-86274000D01*
X182944000Y-85678000D02*
X184944000Y-85678000D01*
X184944000Y-82718000D02*
X182944000Y-82718000D01*
X182920000Y-101045000D02*
X184920000Y-101045000D01*
X184920000Y-98085000D02*
X182920000Y-98085000D01*
X182944000Y-104474000D02*
X184944000Y-104474000D01*
X184944000Y-101514000D02*
X182944000Y-101514000D01*
X110041000Y-106813000D02*
X111241000Y-106813000D01*
X111241000Y-108573000D02*
X110041000Y-108573000D01*
X133273000Y-82919000D02*
X132073000Y-82919000D01*
X132073000Y-81159000D02*
X133273000Y-81159000D01*
X108964000Y-82556000D02*
X110164000Y-82556000D01*
X110164000Y-84316000D02*
X108964000Y-84316000D01*
X133913000Y-107430000D02*
X132713000Y-107430000D01*
X132713000Y-105670000D02*
X133913000Y-105670000D01*
X158707000Y-82995000D02*
X153507000Y-82995000D01*
X158707000Y-88135000D02*
X158707000Y-82995000D01*
X153507000Y-90735000D02*
X153507000Y-82995000D01*
X158707000Y-88135000D02*
X156107000Y-88135000D01*
X156107000Y-88135000D02*
X156107000Y-90735000D01*
X156107000Y-90735000D02*
X153507000Y-90735000D01*
X158707000Y-89405000D02*
X158707000Y-90735000D01*
X158707000Y-90735000D02*
X157377000Y-90735000D01*
X104272000Y-79344000D02*
X103272000Y-79344000D01*
X104272000Y-75984000D02*
X103272000Y-75984000D01*
M02*
