M48
INCH,TZ
T1C0.016
T2C0.026
T3C0.039
T4C0.047
%
G90
G05
T1
X40444Y-33446
X40709Y-30749
X40761Y-30438
X40786Y-30099
X40809Y-31749
X40809Y-32599
X40809Y-34249
X40909Y-33349
X41009Y-38499
X41009Y-39749
X41509Y-30149
X41509Y-30449
X41509Y-30749
X41559Y-36699
X41559Y-37899
X41909Y-33849
X41909Y-41249
X42009Y-43449
X42014Y-34388
X42459Y-40299
X42509Y-34849
X42509Y-39849
X42559Y-32399
X42608Y-32800
X42609Y-41899
X42809Y-35349
X42809Y-43649
X43009Y-35099
X43110Y-44488
X43110Y-44882
X43110Y-45276
X43110Y-45669
X43110Y-46063
X43110Y-46457
X43110Y-46850
X43110Y-47244
X43110Y-47638
X43110Y-48031
X43110Y-48425
X43459Y-42499
X43504Y-44488
X43504Y-44882
X43504Y-45276
X43504Y-45669
X43504Y-46063
X43504Y-46457
X43504Y-46850
X43504Y-47244
X43504Y-47638
X43504Y-48031
X43504Y-48425
X43609Y-31099
X43709Y-32399
X43898Y-44488
X43898Y-44882
X43898Y-48031
X43898Y-48425
X43959Y-34549
X43959Y-34949
X44009Y-38299
X44009Y-39649
X44059Y-37949
X44291Y-44488
X44291Y-44882
X44291Y-48031
X44291Y-48425
X44309Y-36949
X44409Y-42599
X44609Y-31649
X44659Y-43649
X44685Y-44488
X44685Y-44882
X44685Y-48031
X44685Y-48425
X44809Y-43149
X45079Y-44488
X45079Y-44882
X45079Y-48031
X45079Y-48425
X45209Y-31649
X45359Y-43149
X45459Y-30999
X45472Y-44488
X45472Y-44882
X45472Y-48031
X45472Y-48425
X45559Y-32149
X45609Y-43649
X45809Y-42599
X45866Y-44488
X45866Y-44882
X45866Y-48031
X45866Y-48425
X46159Y-32149
X46359Y-30699
X46858Y-33701
X47409Y-41049
X47409Y-43599
X47509Y-33749
X47609Y-30649
X47709Y-42549
X48009Y-32249
X48159Y-31799
X48209Y-45749
X48309Y-42549
X48359Y-33699
X48409Y-30899
X48459Y-43549
X48659Y-44149
X48759Y-30149
X48759Y-42549
X49159Y-47649
X49309Y-41049
X49671Y-40729
X50063Y-42549
X50107Y-40848
X50149Y-31049
X50159Y-32399
X50309Y-32749
X50309Y-43549
X50359Y-31699
X50439Y-40832
X50510Y-33676
X50650Y-43203
X50650Y-32020
X50709Y-42549
X50709Y-44049
X50858Y-33717
X50909Y-31799
X50909Y-40849
X50938Y-43075
X51009Y-35649
X51109Y-34749
X51109Y-45399
X51142Y-32049
X51161Y-43298
X51254Y-35193
X51309Y-38849
X51311Y-35503
X51358Y-37999
X51359Y-36149
X51359Y-36699
X51359Y-37649
X51359Y-38299
X51359Y-39649
X51409Y-31449
X51410Y-42248
X51959Y-43299
X51959Y-45307
X52109Y-33449
X52609Y-41949
X52659Y-33813
X52709Y-38199
X52759Y-35849
X52859Y-32199
X52859Y-48499
X52909Y-40049
X53109Y-38449
X53209Y-31499
X53279Y-33549
X53459Y-40999
X53549Y-34630
X53567Y-33693
X53709Y-36799
X53809Y-35899
X53857Y-41400
X53859Y-41749
X53866Y-43249
X53909Y-48499
X53952Y-35504
X54059Y-38849
X54120Y-37199
X54159Y-34999
X54209Y-43749
X54281Y-39670
X54559Y-32949
X54559Y-38399
X54559Y-40799
X54809Y-30549
X54859Y-37599
X54938Y-33449
X54959Y-38749
X54959Y-40549
X55109Y-48499
X55209Y-43499
X55261Y-41002
X55359Y-42499
X55609Y-38199
X55859Y-38949
X55859Y-39649
X55975Y-38303
X57009Y-35949
X57085Y-39975
X57109Y-37249
X57279Y-40224
X57459Y-42299
X57559Y-39249
X57659Y-37399
X57709Y-29899
X57859Y-34499
X57859Y-35099
X57925Y-38246
X57983Y-38556
X58009Y-35749
X58009Y-45049
X58059Y-48499
X58109Y-29949
X58441Y-29932
X58459Y-35798
X58619Y-37308
X58655Y-29701
X58759Y-35649
X58809Y-37649
X58831Y-36389
X58931Y-41449
X58934Y-37357
X59059Y-35549
X59080Y-37861
X59159Y-48499
X59809Y-35699
X59859Y-43282
X59959Y-38099
X60009Y-36499
X60109Y-41099
X60209Y-35749
X60309Y-44999
X60359Y-48499
X60409Y-42899
X61009Y-30099
X61259Y-36799
X61659Y-37849
X62884Y-35274
X62884Y-35524
X62884Y-35774
X62884Y-36049
X62884Y-41624
X63059Y-41874
X63109Y-34299
X63109Y-34649
X63134Y-35274
X63134Y-36049
X63134Y-41624
X63209Y-40699
X63209Y-41049
X63234Y-42049
X63359Y-34299
X63359Y-34649
X63384Y-35274
X63384Y-36049
X63384Y-41624
X63409Y-42224
X63459Y-40699
X63459Y-41049
X63609Y-34299
X63609Y-34649
X63609Y-42424
X63634Y-35274
X63634Y-36049
X63634Y-41624
X63709Y-40699
X63709Y-41049
X63809Y-42599
X63859Y-34299
X63859Y-34649
X63884Y-35274
X63884Y-36049
X63884Y-41624
X63959Y-40699
X63959Y-41049
X64059Y-42599
X64109Y-34299
X64109Y-34649
X64134Y-35274
X64134Y-36049
X64134Y-41624
X64209Y-40699
X64209Y-41049
X64309Y-42599
X64359Y-34299
X64359Y-34649
X64384Y-35274
X64384Y-36049
X64384Y-41624
X64459Y-40699
X64459Y-41049
X64559Y-42599
X64609Y-34299
X64609Y-34649
X64634Y-35274
X64634Y-36049
X64634Y-41624
X64709Y-40699
X64709Y-41049
X64809Y-42599
X64859Y-34299
X64859Y-34649
X64884Y-35274
X64884Y-36049
X64884Y-41624
X64959Y-40699
X64959Y-41049
X65059Y-42599
X65109Y-34299
X65109Y-34649
X65134Y-35274
X65134Y-36049
X65134Y-41624
X65209Y-40699
X65209Y-41049
X65309Y-42599
X65359Y-34299
X65359Y-34649
X65384Y-35274
X65384Y-36049
X65384Y-41624
X65459Y-40699
X65459Y-41049
X65559Y-42599
X65634Y-35274
X65634Y-36049
X65634Y-41624
X65784Y-35024
X65809Y-42599
X65859Y-41499
X65884Y-36049
X66034Y-34974
X66034Y-41324
X66059Y-42599
X66134Y-36049
X66284Y-34974
X66284Y-41324
X66309Y-42599
X66384Y-36049
X66534Y-34974
X66534Y-41324
X66559Y-42599
X66634Y-36049
X66809Y-42599
X66859Y-34499
X67009Y-40899
X67259Y-37099
X67284Y-35049
X67309Y-41424
X67366Y-37349
X67384Y-35899
X67534Y-35024
X67559Y-41424
X67559Y-42399
X67609Y-35749
X67709Y-42149
X67784Y-35024
X67809Y-41424
X67859Y-35749
X67859Y-36849
X67959Y-42149
X67959Y-43299
X68509Y-44749
X69091Y-27089
X69091Y-27639
X69259Y-45199
X69341Y-27089
X69341Y-27639
X69359Y-47149
X69591Y-27089
X69591Y-27639
X69709Y-35799
X69734Y-34974
X69759Y-41249
X69834Y-42199
X69841Y-27089
X69841Y-27639
X69884Y-35974
X69984Y-34974
X70009Y-41249
X70059Y-42299
X70091Y-27089
X70091Y-27639
X70109Y-36099
X70234Y-34974
X70259Y-41249
X70309Y-38899
X70309Y-42299
X70341Y-27089
X70341Y-27639
X70359Y-36099
X70484Y-34974
X70509Y-41249
X70559Y-42299
X70591Y-27089
X70591Y-27639
X70609Y-36099
X70734Y-34974
X70759Y-32799
X70759Y-41249
X70809Y-42299
X70841Y-27089
X70841Y-27639
X70859Y-36099
X70959Y-34099
X70959Y-34349
X70959Y-34599
X70959Y-34849
X71009Y-38424
X71009Y-38674
X71009Y-38924
X71009Y-39174
X71009Y-39424
X71009Y-39674
X71009Y-39924
X71009Y-40174
X71009Y-40424
X71009Y-40674
X71009Y-40924
X71009Y-41174
X71059Y-42299
X71091Y-27089
X71091Y-27639
X71109Y-36099
X71159Y-47949
X71209Y-34099
X71259Y-38424
X71309Y-42299
X71341Y-27089
X71341Y-27639
X71359Y-36099
X71459Y-32349
X71459Y-32599
X71459Y-32849
X71459Y-33099
X71459Y-33349
X71459Y-33599
X71459Y-33849
X71459Y-34099
X71459Y-45199
X71509Y-38424
X71559Y-42299
X71591Y-27089
X71591Y-27639
X71609Y-36099
X71709Y-32349
X71709Y-44749
X71759Y-38424
X71809Y-42299
X71841Y-27089
X71841Y-27639
X71859Y-36099
X72009Y-32349
X72009Y-38424
X72009Y-46749
X72091Y-27089
X72091Y-27639
X72109Y-36049
X72259Y-32349
X72259Y-32599
X72259Y-32849
X72259Y-33099
X72259Y-33349
X72259Y-33599
X72259Y-33849
X72259Y-34099
X72259Y-34349
X72259Y-34599
X72259Y-34849
X72259Y-35099
X72259Y-35349
X72259Y-35599
X72259Y-35849
X72259Y-38424
X72259Y-38674
X72259Y-38924
X72259Y-39174
X72259Y-39424
X72259Y-39674
X72259Y-39924
X72259Y-40174
X72259Y-40424
X72259Y-40674
X72259Y-40924
X72259Y-41174
X72259Y-41424
X72259Y-41674
X72259Y-41924
X72259Y-42174
X72341Y-27089
X72341Y-27639
X73059Y-43699
X73059Y-44849
X73059Y-45799
X73059Y-46699
X73059Y-47799
T2
X55759Y-35549
X55759Y-36049
X55759Y-36549
X55759Y-37049
X55759Y-37549
T3
X43459Y-27649
X43459Y-28649
X44459Y-27649
X44459Y-28649
X45459Y-27649
X45459Y-28649
X46459Y-27649
X46459Y-28649
X47459Y-27649
X47459Y-28649
X48459Y-27649
X48459Y-28649
X49459Y-27649
X49459Y-28649
X50459Y-27649
X50459Y-28649
X51459Y-27649
X51459Y-28649
X52459Y-27649
X52459Y-28649
X53459Y-27649
X53459Y-28649
X54459Y-27649
X54459Y-28649
X55459Y-27649
X55459Y-28649
X56459Y-27649
X56459Y-28649
X57459Y-27649
X57459Y-28649
X58459Y-27649
X58459Y-28649
X59459Y-27649
X59459Y-28649
X60459Y-27649
X60459Y-28649
X60959Y-33199
X60959Y-34199
X60959Y-35199
X61459Y-27649
X61459Y-28649
X61959Y-33199
X61959Y-34199
X61959Y-35199
X62459Y-27649
X62459Y-28649
T4
X46959Y-36699
X46959Y-37399
X46959Y-38099
X47659Y-36699
X47659Y-38099
X47674Y-37389
X48359Y-36699
X48359Y-37399
X48359Y-38099
X68359Y-35299
X68459Y-41699
X68959Y-35299
X69059Y-41699
T0
M30
