G04 #@! TF.FileFunction,Copper,L2,Inr,Signal*
%FSLAX46Y46*%
G04 Gerber Fmt 4.6, Leading zero omitted, Abs format (unit mm)*
G04 Created by KiCad (PCBNEW 4.0.7-e2-6376~58~ubuntu17.04.1) date Thu May 31 18:31:02 2018*
%MOMM*%
%LPD*%
G01*
G04 APERTURE LIST*
%ADD10C,0.100000*%
%ADD11C,0.600000*%
%ADD12C,2.400000*%
%ADD13R,1.700000X1.700000*%
%ADD14O,1.700000X1.700000*%
%ADD15R,1.000000X1.000000*%
%ADD16O,1.000000X1.000000*%
%ADD17C,0.600000*%
%ADD18C,0.254000*%
G04 APERTURE END LIST*
D10*
D11*
X182904000Y-82166000D03*
X182142000Y-82166000D03*
X177062000Y-90929000D03*
X172363000Y-90802000D03*
X177379500Y-107185000D03*
X177951000Y-107439000D03*
X178586000Y-107439000D03*
X179221000Y-107439000D03*
X177189000Y-104772000D03*
X177824000Y-104772000D03*
X178459000Y-104772000D03*
X179094000Y-104772000D03*
X179729000Y-104772000D03*
X180364000Y-104581500D03*
X183539000Y-107121500D03*
X183539000Y-106486500D03*
X183539000Y-105216500D03*
X183539000Y-104581500D03*
X183539000Y-105851500D03*
X172236000Y-105216500D03*
X171601000Y-105216500D03*
X171601000Y-107693000D03*
X169696000Y-108201000D03*
X160171000Y-106359500D03*
X160615500Y-106804000D03*
X161060000Y-107248500D03*
X161568000Y-107756500D03*
X168362500Y-104962500D03*
X166711500Y-105724500D03*
X167283000Y-105407000D03*
X166076500Y-105724500D03*
X182904000Y-97596500D03*
X182269000Y-97596500D03*
X181634000Y-97596500D03*
X180999000Y-97596500D03*
X177506500Y-91373500D03*
X183158000Y-91564000D03*
X183539000Y-82166000D03*
X183539000Y-82801000D03*
X181507000Y-82166000D03*
X159726500Y-90230500D03*
X159726500Y-90865500D03*
X159726500Y-91564000D03*
X171728000Y-90802000D03*
X182523000Y-91691000D03*
X160361500Y-91564000D03*
X160996500Y-91564000D03*
X161631500Y-91564000D03*
X162266500Y-91564000D03*
X162901500Y-91564000D03*
X168997500Y-88833500D03*
X168362500Y-88833500D03*
X167727500Y-88833500D03*
X160298000Y-87119000D03*
X162203000Y-87119000D03*
X162838000Y-87119000D03*
X163473000Y-87119000D03*
X164108000Y-87119000D03*
X164743000Y-87119000D03*
X165378000Y-87119000D03*
X166013000Y-87119000D03*
X160552000Y-103375000D03*
X162457000Y-103375000D03*
X163092000Y-103375000D03*
X163727000Y-103375000D03*
X164362000Y-103375000D03*
X164997000Y-103375000D03*
X165632000Y-103375000D03*
X166267000Y-103375000D03*
X166267000Y-104264000D03*
X165441500Y-89595500D03*
X166076500Y-89595500D03*
X166711500Y-89595500D03*
X167092500Y-88960500D03*
X163536500Y-91564000D03*
X164171500Y-91564000D03*
X160298000Y-88008000D03*
X111500000Y-114000000D03*
X112500000Y-114000000D03*
X113500000Y-114000000D03*
X114500000Y-114000000D03*
X115500000Y-114000000D03*
X116500000Y-114000000D03*
X110500000Y-113000000D03*
X109500000Y-113000000D03*
X109500000Y-114000000D03*
X109500000Y-115000000D03*
X109500000Y-116000000D03*
X109500000Y-117000000D03*
X109500000Y-118000000D03*
X109500000Y-119000000D03*
X109500000Y-120000000D03*
X109500000Y-121000000D03*
X109500000Y-122000000D03*
X109500000Y-123000000D03*
X110500000Y-123000000D03*
X111500000Y-123000000D03*
X112500000Y-123000000D03*
X113500000Y-123000000D03*
X114500000Y-123000000D03*
X115500000Y-123000000D03*
X116500000Y-123000000D03*
X116500000Y-122000000D03*
X115500000Y-122000000D03*
X114500000Y-122000000D03*
X113500000Y-122000000D03*
X112500000Y-122000000D03*
X111500000Y-122000000D03*
X116500000Y-113000000D03*
X115500000Y-113000000D03*
X114500000Y-113000000D03*
X113500000Y-113000000D03*
X112500000Y-113000000D03*
X111500000Y-113000000D03*
X110500000Y-114000000D03*
X110500000Y-115000000D03*
X110500000Y-116000000D03*
X110500000Y-117000000D03*
X110500000Y-118000000D03*
X110500000Y-119000000D03*
X110500000Y-120000000D03*
X110500000Y-121000000D03*
X110500000Y-122000000D03*
X165632000Y-104264000D03*
X161822000Y-103375000D03*
X161187000Y-103375000D03*
X160552000Y-104264000D03*
X164997000Y-104264000D03*
X164362000Y-104264000D03*
X163727000Y-104264000D03*
X163092000Y-104264000D03*
X162457000Y-104264000D03*
X161822000Y-104264000D03*
X161187000Y-104264000D03*
X183745000Y-68807000D03*
X176760000Y-68807000D03*
X176125000Y-68807000D03*
X175490000Y-68807000D03*
X180570000Y-68807000D03*
X182475000Y-68807000D03*
X183110000Y-68807000D03*
X181840000Y-68807000D03*
X181205000Y-68807000D03*
X179935000Y-68807000D03*
X179300000Y-68807000D03*
X178665000Y-68807000D03*
X178030000Y-68807000D03*
X177395000Y-68807000D03*
X183745000Y-70204000D03*
X176760000Y-70204000D03*
X176125000Y-70204000D03*
X175490000Y-70204000D03*
X180570000Y-70204000D03*
X182475000Y-70204000D03*
X183110000Y-70204000D03*
X181840000Y-70204000D03*
X181205000Y-70204000D03*
X179935000Y-70204000D03*
X179300000Y-70204000D03*
X178665000Y-70204000D03*
X178030000Y-70204000D03*
X177395000Y-70204000D03*
X166013000Y-88008000D03*
X161568000Y-87119000D03*
X160933000Y-87119000D03*
X165378000Y-88008000D03*
X164743000Y-88008000D03*
X164108000Y-88008000D03*
X163473000Y-88008000D03*
X162838000Y-88008000D03*
X162203000Y-88008000D03*
X161568000Y-88008000D03*
X160933000Y-88008000D03*
X178713000Y-91691000D03*
X177760500Y-88833500D03*
X178395500Y-88833500D03*
X181507000Y-83436000D03*
X181507000Y-84071000D03*
X181507000Y-84706000D03*
X181507000Y-85341000D03*
X183539000Y-83436000D03*
X183539000Y-84071000D03*
X183539000Y-84706000D03*
X183539000Y-85341000D03*
X179348000Y-91691000D03*
X179983000Y-91691000D03*
X180618000Y-91691000D03*
X181253000Y-91691000D03*
X181888000Y-91691000D03*
X183539000Y-91056000D03*
X183539000Y-90421000D03*
X183539000Y-89786000D03*
X183539000Y-89151000D03*
X183539000Y-88516000D03*
X183539000Y-87881000D03*
X183539000Y-87246000D03*
X183539000Y-86611000D03*
X183539000Y-85976000D03*
X181507000Y-85976000D03*
X180872000Y-86611000D03*
X179030500Y-88833500D03*
X177125500Y-88833500D03*
X171537500Y-88960500D03*
X170902500Y-89024000D03*
X172172500Y-88960500D03*
X164806500Y-89595500D03*
X164171500Y-89595500D03*
X163536500Y-89595500D03*
X162901500Y-89595500D03*
X162266500Y-89595500D03*
X161631500Y-89595500D03*
X160996500Y-89595500D03*
X160361500Y-89595500D03*
X159726500Y-89595500D03*
X164806500Y-91564000D03*
X165441500Y-91564000D03*
X166076500Y-91564000D03*
X166711500Y-91564000D03*
X167346500Y-91564000D03*
X167981500Y-91564000D03*
X168616500Y-91564000D03*
X169251500Y-91564000D03*
X171156500Y-91183000D03*
X183539000Y-97596500D03*
X183539000Y-98231500D03*
X183539000Y-98866500D03*
X183539000Y-99501500D03*
X183539000Y-100136500D03*
X183539000Y-100771500D03*
X183539000Y-101406500D03*
X183539000Y-102041500D03*
X183539000Y-102676500D03*
X183539000Y-103311500D03*
X183539000Y-103946500D03*
X182396000Y-107439000D03*
X181761000Y-107439000D03*
X181126000Y-107439000D03*
X180491000Y-107439000D03*
X179856000Y-107439000D03*
X159726500Y-105724500D03*
X160361500Y-105724500D03*
X160996500Y-105724500D03*
X161631500Y-105724500D03*
X162266500Y-105724500D03*
X162901500Y-105724500D03*
X163536500Y-105724500D03*
X164171500Y-105724500D03*
X164806500Y-105724500D03*
X165441500Y-105724500D03*
X170966000Y-105216500D03*
X168997500Y-104962500D03*
X167727500Y-104962500D03*
X172617000Y-107058000D03*
X171982000Y-107058000D03*
X169061000Y-108201000D03*
X168426000Y-108201000D03*
X167791000Y-108201000D03*
X167156000Y-108201000D03*
X166521000Y-108201000D03*
X165886000Y-108201000D03*
X165251000Y-108201000D03*
X164616000Y-108201000D03*
X163981000Y-108201000D03*
X163346000Y-108201000D03*
X162711000Y-108201000D03*
X162076000Y-108201000D03*
X180364000Y-97596500D03*
X180364000Y-98231500D03*
X180364000Y-98866500D03*
X180364000Y-99501500D03*
X180364000Y-100136500D03*
X180364000Y-100771500D03*
X180364000Y-101406500D03*
X180364000Y-102041500D03*
X180364000Y-102676500D03*
X180364000Y-103311500D03*
X180364000Y-103946500D03*
X170839000Y-94231000D03*
X178078000Y-91691000D03*
X181507000Y-82801000D03*
X179665500Y-88833500D03*
X180237000Y-88516000D03*
X180237000Y-87881000D03*
X180237000Y-87246000D03*
X180237000Y-86611000D03*
X181507000Y-86611000D03*
D12*
X173887000Y-105915000D03*
X175411000Y-105915000D03*
X175157000Y-89659000D03*
X173633000Y-89659000D03*
X122833000Y-96771000D03*
X121055000Y-96771000D03*
X119277000Y-96771000D03*
X119277000Y-94993000D03*
X119277000Y-93215000D03*
X121055000Y-93215000D03*
X122833000Y-93215000D03*
X122833000Y-94993000D03*
D13*
X110387000Y-72768000D03*
D14*
X110387000Y-70228000D03*
X112927000Y-72768000D03*
X112927000Y-70228000D03*
X115467000Y-72768000D03*
X115467000Y-70228000D03*
X118007000Y-72768000D03*
X118007000Y-70228000D03*
X120547000Y-72768000D03*
X120547000Y-70228000D03*
X123087000Y-72768000D03*
X123087000Y-70228000D03*
X125627000Y-72768000D03*
X125627000Y-70228000D03*
X128167000Y-72768000D03*
X128167000Y-70228000D03*
X130707000Y-72768000D03*
X130707000Y-70228000D03*
X133247000Y-72768000D03*
X133247000Y-70228000D03*
X135787000Y-72768000D03*
X135787000Y-70228000D03*
X138327000Y-72768000D03*
X138327000Y-70228000D03*
X140867000Y-72768000D03*
X140867000Y-70228000D03*
X143407000Y-72768000D03*
X143407000Y-70228000D03*
X145947000Y-72768000D03*
X145947000Y-70228000D03*
X148487000Y-72768000D03*
X148487000Y-70228000D03*
X151027000Y-72768000D03*
X151027000Y-70228000D03*
X153567000Y-72768000D03*
X153567000Y-70228000D03*
X156107000Y-72768000D03*
X156107000Y-70228000D03*
X158647000Y-72768000D03*
X158647000Y-70228000D03*
D12*
X121093100Y-94967600D03*
D15*
X141629000Y-90294000D03*
D16*
X141629000Y-91564000D03*
X141629000Y-92834000D03*
X141629000Y-94104000D03*
X141629000Y-95374000D03*
D13*
X157377000Y-89405000D03*
D14*
X154837000Y-89405000D03*
X157377000Y-86865000D03*
X154837000Y-86865000D03*
X157377000Y-84325000D03*
X154837000Y-84325000D03*
D11*
X108225449Y-83311551D03*
X133628000Y-106550000D03*
X110387000Y-107947000D03*
X134263000Y-81785000D03*
X137038999Y-90179899D03*
X179729000Y-83309000D03*
X134898000Y-97660000D03*
X113435000Y-110868000D03*
X131977000Y-109979000D03*
X130580000Y-79880000D03*
X115467000Y-78737000D03*
X107974000Y-88516000D03*
X108101000Y-82293000D03*
X108228000Y-106423000D03*
X128802000Y-108074000D03*
X123849000Y-108074000D03*
X116356000Y-108201000D03*
X112800000Y-108201000D03*
X107847000Y-102359000D03*
X107974000Y-101216000D03*
X115721000Y-81658000D03*
X117245000Y-81658000D03*
X121944000Y-81912000D03*
X127405000Y-82293000D03*
X134390000Y-101724000D03*
X102729026Y-84952173D03*
X111656999Y-87753999D03*
X106450000Y-85976000D03*
X130453000Y-100708000D03*
X136818990Y-109852000D03*
X111784000Y-97279000D03*
X111911000Y-96390000D03*
X146201000Y-99692000D03*
X130453000Y-95628000D03*
X119020099Y-85601727D03*
X120674000Y-85722000D03*
X120420000Y-104264000D03*
X136015197Y-87961367D03*
X132358000Y-84960000D03*
X137311000Y-98676000D03*
X141883000Y-98930000D03*
X125246000Y-104264000D03*
X129818000Y-88262000D03*
X180745000Y-121790000D03*
X153313000Y-123187000D03*
X147471000Y-123187000D03*
X139978000Y-123187000D03*
X171109000Y-94866000D03*
X185571000Y-121409000D03*
X185571000Y-110995000D03*
X185571000Y-113916000D03*
X185571000Y-116329000D03*
X185571000Y-118615000D03*
X112546000Y-93850000D03*
X127913000Y-80515000D03*
X136930000Y-123187000D03*
X153186000Y-114297000D03*
X147344000Y-114424000D03*
X150265000Y-123187000D03*
X127160990Y-108074000D03*
X134263000Y-123187000D03*
X140613000Y-107947000D03*
X145947000Y-107439000D03*
X128802000Y-111884000D03*
X123595000Y-112138000D03*
X130453000Y-97279000D03*
X130449929Y-96518151D03*
X124865000Y-121028000D03*
X130453000Y-93215000D03*
X130453000Y-91818000D03*
X108736000Y-110868000D03*
X135152000Y-80007000D03*
X110768000Y-78991000D03*
X181507000Y-114805000D03*
X149684009Y-105280000D03*
X146963000Y-87627000D03*
X156615000Y-96136000D03*
X147344000Y-90802000D03*
X111022000Y-82293000D03*
X117753000Y-77975000D03*
X105561000Y-96263000D03*
X104164000Y-100962000D03*
X106704000Y-110360000D03*
X120420000Y-110741000D03*
X127786000Y-110614000D03*
X136676000Y-91183000D03*
X122960000Y-78483000D03*
X111784000Y-100708000D03*
X122833000Y-85595000D03*
X122706000Y-108074000D03*
X115213000Y-109598000D03*
X106450000Y-104772000D03*
X135787000Y-104137000D03*
X113308000Y-80388000D03*
X103656000Y-86992000D03*
X137691998Y-111122000D03*
X139597000Y-98422000D03*
X139343000Y-95501000D03*
X131977000Y-115079002D03*
X133755000Y-85884002D03*
X138581000Y-83690000D03*
X106715510Y-87344700D03*
X105434000Y-77340000D03*
X105434000Y-78102000D03*
X105434000Y-76578000D03*
X140363412Y-104143823D03*
X140232000Y-110487000D03*
X137873886Y-100762886D03*
X136422000Y-93469000D03*
X146963000Y-89151000D03*
X154964000Y-76451000D03*
X129818000Y-115313000D03*
X123849000Y-76578000D03*
X139216000Y-77594000D03*
X122452000Y-116202000D03*
X127377991Y-78864000D03*
X174014000Y-113662000D03*
X141883000Y-100708000D03*
X152678000Y-104391000D03*
X155599000Y-93469000D03*
X144804000Y-91310000D03*
X178586000Y-98803000D03*
X120928000Y-77848000D03*
X105561000Y-93215000D03*
X104164000Y-97787000D03*
X115848000Y-110868000D03*
X123087000Y-110614000D03*
X122325000Y-80769000D03*
X121182000Y-108074000D03*
X113816000Y-109598000D03*
X114832000Y-80388000D03*
X170204000Y-103883000D03*
X172617000Y-109979000D03*
X169823000Y-87627000D03*
X172363000Y-93596000D03*
X182904000Y-118742000D03*
X182142000Y-113662000D03*
X176173000Y-119758000D03*
X175919000Y-114805000D03*
X103596638Y-76451000D03*
X111657000Y-88770000D03*
X103656000Y-80642000D03*
X109244008Y-89151000D03*
X103533519Y-77312883D03*
X103656000Y-82801000D03*
X103910000Y-84705990D03*
X108736000Y-89786006D03*
X103402000Y-78102000D03*
X148486082Y-90928082D03*
X148891442Y-94762173D03*
X146582000Y-75943000D03*
X149431989Y-92427487D03*
X149249000Y-90548000D03*
X147598000Y-76070000D03*
X149692524Y-94885988D03*
X150011000Y-90294000D03*
X148439956Y-76028057D03*
X151916000Y-90675000D03*
X152424000Y-92707000D03*
X148983963Y-75441477D03*
X128651745Y-81330041D03*
X127786000Y-83182000D03*
X128295559Y-85538041D03*
X129310000Y-80769000D03*
X129901757Y-81404000D03*
X129179423Y-85641104D03*
X129564000Y-90547999D03*
X135327670Y-85215187D03*
X136060051Y-85581051D03*
X130329246Y-90176990D03*
X134008998Y-91056000D03*
X137565000Y-88897000D03*
X138581000Y-97533000D03*
X137465827Y-94485251D03*
X130186097Y-89389889D03*
X139541486Y-84960000D03*
X152932000Y-90802000D03*
X152297000Y-96771000D03*
X146455000Y-94993000D03*
X145058000Y-94612000D03*
X128651401Y-109735254D03*
X126165603Y-103450995D03*
X129382925Y-109411385D03*
X127271686Y-103754801D03*
X129948400Y-109977298D03*
X128114253Y-103713483D03*
X152043000Y-109935736D03*
X153440000Y-108963000D03*
X138581000Y-103629002D03*
X136796727Y-105155835D03*
X150062005Y-96166603D03*
X145487818Y-102167847D03*
X136803000Y-106042004D03*
X139597008Y-102994000D03*
X130582552Y-107309450D03*
X129310000Y-103756000D03*
X149376000Y-95628000D03*
X144997058Y-101536058D03*
X141248000Y-97025000D03*
X130326000Y-98676000D03*
X147277855Y-97931340D03*
X133882000Y-97025000D03*
X147128668Y-97145362D03*
X142175798Y-97288990D03*
D17*
X177272736Y-99692000D02*
X167410000Y-99692000D01*
X167410000Y-99692000D02*
X163727000Y-103375000D01*
X178586000Y-98803000D02*
X178161736Y-98803000D01*
X178161736Y-98803000D02*
X177272736Y-99692000D01*
D18*
G36*
X166373000Y-88357608D02*
X166300308Y-88430173D01*
X166204621Y-88660611D01*
X165891333Y-88660338D01*
X165759100Y-88714976D01*
X165628299Y-88660662D01*
X165256333Y-88660338D01*
X165124100Y-88714976D01*
X164993299Y-88660662D01*
X164621333Y-88660338D01*
X164489100Y-88714976D01*
X164358299Y-88660662D01*
X163986333Y-88660338D01*
X163854100Y-88714976D01*
X163723299Y-88660662D01*
X163351333Y-88660338D01*
X163219100Y-88714976D01*
X163088299Y-88660662D01*
X162716333Y-88660338D01*
X162584100Y-88714976D01*
X162453299Y-88660662D01*
X162081333Y-88660338D01*
X161949100Y-88714976D01*
X161818299Y-88660662D01*
X161446333Y-88660338D01*
X161314100Y-88714976D01*
X161183299Y-88660662D01*
X160811333Y-88660338D01*
X160679100Y-88714976D01*
X160548299Y-88660662D01*
X160176333Y-88660338D01*
X160044100Y-88714976D01*
X159913299Y-88660662D01*
X159541333Y-88660338D01*
X159197557Y-88802383D01*
X158934308Y-89065173D01*
X158874440Y-89209350D01*
X158874440Y-88555000D01*
X158830162Y-88319683D01*
X158691090Y-88103559D01*
X158478890Y-87958569D01*
X158411459Y-87944914D01*
X158456147Y-87915054D01*
X158778054Y-87433285D01*
X158891093Y-86865000D01*
X158778054Y-86296715D01*
X158456147Y-85814946D01*
X158115447Y-85587298D01*
X158258358Y-85520183D01*
X158648645Y-85091924D01*
X158818476Y-84681890D01*
X158697155Y-84452000D01*
X157504000Y-84452000D01*
X157504000Y-84472000D01*
X157250000Y-84472000D01*
X157250000Y-84452000D01*
X154964000Y-84452000D01*
X154964000Y-84472000D01*
X154710000Y-84472000D01*
X154710000Y-84452000D01*
X153516845Y-84452000D01*
X153395524Y-84681890D01*
X153565355Y-85091924D01*
X153955642Y-85520183D01*
X154098553Y-85587298D01*
X153757853Y-85814946D01*
X153435946Y-86296715D01*
X153322907Y-86865000D01*
X153435946Y-87433285D01*
X153757853Y-87915054D01*
X154087026Y-88135000D01*
X153757853Y-88354946D01*
X153435946Y-88836715D01*
X153322907Y-89405000D01*
X153435946Y-89973285D01*
X153459591Y-90008672D01*
X153118799Y-89867162D01*
X152746833Y-89866838D01*
X152522794Y-89959409D01*
X152446327Y-89882808D01*
X152102799Y-89740162D01*
X151730833Y-89739838D01*
X151387057Y-89881883D01*
X151123808Y-90144673D01*
X150981162Y-90488201D01*
X150980838Y-90860167D01*
X151122883Y-91203943D01*
X151385673Y-91467192D01*
X151729201Y-91609838D01*
X152101167Y-91610162D01*
X152325206Y-91517591D01*
X152401673Y-91594192D01*
X152745201Y-91736838D01*
X153117167Y-91737162D01*
X153460943Y-91595117D01*
X153724192Y-91332327D01*
X153866838Y-90988799D01*
X153867162Y-90616833D01*
X153816511Y-90494248D01*
X154239622Y-90776961D01*
X154807907Y-90890000D01*
X154866093Y-90890000D01*
X155434378Y-90776961D01*
X155916147Y-90455054D01*
X155916971Y-90453821D01*
X155923838Y-90490317D01*
X156062910Y-90706441D01*
X156275110Y-90851431D01*
X156527000Y-90902440D01*
X158227000Y-90902440D01*
X158462317Y-90858162D01*
X158678441Y-90719090D01*
X158823431Y-90506890D01*
X158825273Y-90497795D01*
X158845976Y-90547900D01*
X158791662Y-90678701D01*
X158791338Y-91050667D01*
X158859127Y-91214729D01*
X158791662Y-91377201D01*
X158791338Y-91749167D01*
X158933383Y-92092943D01*
X159196173Y-92356192D01*
X159539701Y-92498838D01*
X159911667Y-92499162D01*
X160043900Y-92444524D01*
X160174701Y-92498838D01*
X160546667Y-92499162D01*
X160678900Y-92444524D01*
X160809701Y-92498838D01*
X161181667Y-92499162D01*
X161313900Y-92444524D01*
X161444701Y-92498838D01*
X161816667Y-92499162D01*
X161948900Y-92444524D01*
X162079701Y-92498838D01*
X162451667Y-92499162D01*
X162583900Y-92444524D01*
X162714701Y-92498838D01*
X163086667Y-92499162D01*
X163218900Y-92444524D01*
X163349701Y-92498838D01*
X163721667Y-92499162D01*
X163853900Y-92444524D01*
X163984701Y-92498838D01*
X164356667Y-92499162D01*
X164488900Y-92444524D01*
X164619701Y-92498838D01*
X164991667Y-92499162D01*
X165123900Y-92444524D01*
X165254701Y-92498838D01*
X165626667Y-92499162D01*
X165758900Y-92444524D01*
X165889701Y-92498838D01*
X166261667Y-92499162D01*
X166373000Y-92453160D01*
X166373000Y-99406710D01*
X163321724Y-102457986D01*
X163278799Y-102440162D01*
X162906833Y-102439838D01*
X162774600Y-102494476D01*
X162643799Y-102440162D01*
X162271833Y-102439838D01*
X162139600Y-102494476D01*
X162008799Y-102440162D01*
X161636833Y-102439838D01*
X161504600Y-102494476D01*
X161373799Y-102440162D01*
X161001833Y-102439838D01*
X160869600Y-102494476D01*
X160738799Y-102440162D01*
X160366833Y-102439838D01*
X160023057Y-102581883D01*
X159759808Y-102844673D01*
X159617162Y-103188201D01*
X159616838Y-103560167D01*
X159724080Y-103819714D01*
X159617162Y-104077201D01*
X159616838Y-104449167D01*
X159757471Y-104789526D01*
X159541333Y-104789338D01*
X159197557Y-104931383D01*
X158934308Y-105194173D01*
X158791662Y-105537701D01*
X158791338Y-105909667D01*
X158933383Y-106253443D01*
X159196173Y-106516692D01*
X159235848Y-106533167D01*
X159235838Y-106544667D01*
X159377883Y-106888443D01*
X159640673Y-107151692D01*
X159769615Y-107205234D01*
X159822383Y-107332943D01*
X160085173Y-107596192D01*
X160214115Y-107649734D01*
X160266883Y-107777443D01*
X160529673Y-108040692D01*
X160703594Y-108112911D01*
X160774883Y-108285443D01*
X161037673Y-108548692D01*
X161243266Y-108634062D01*
X161282883Y-108729943D01*
X161545673Y-108993192D01*
X161889201Y-109135838D01*
X162261167Y-109136162D01*
X162393400Y-109081524D01*
X162524201Y-109135838D01*
X162896167Y-109136162D01*
X163028400Y-109081524D01*
X163159201Y-109135838D01*
X163531167Y-109136162D01*
X163663400Y-109081524D01*
X163794201Y-109135838D01*
X164166167Y-109136162D01*
X164298400Y-109081524D01*
X164429201Y-109135838D01*
X164801167Y-109136162D01*
X164933400Y-109081524D01*
X165064201Y-109135838D01*
X165436167Y-109136162D01*
X165568400Y-109081524D01*
X165699201Y-109135838D01*
X166071167Y-109136162D01*
X166203400Y-109081524D01*
X166334201Y-109135838D01*
X166373000Y-109135872D01*
X166373000Y-123290000D01*
X154247911Y-123290000D01*
X154248162Y-123001833D01*
X154106117Y-122658057D01*
X153843327Y-122394808D01*
X153499799Y-122252162D01*
X153127833Y-122251838D01*
X152784057Y-122393883D01*
X152520808Y-122656673D01*
X152378162Y-123000201D01*
X152377910Y-123290000D01*
X151199911Y-123290000D01*
X151200162Y-123001833D01*
X151058117Y-122658057D01*
X150795327Y-122394808D01*
X150451799Y-122252162D01*
X150079833Y-122251838D01*
X149736057Y-122393883D01*
X149472808Y-122656673D01*
X149330162Y-123000201D01*
X149329910Y-123290000D01*
X148405911Y-123290000D01*
X148406162Y-123001833D01*
X148264117Y-122658057D01*
X148001327Y-122394808D01*
X147657799Y-122252162D01*
X147285833Y-122251838D01*
X146942057Y-122393883D01*
X146678808Y-122656673D01*
X146536162Y-123000201D01*
X146535910Y-123290000D01*
X140912911Y-123290000D01*
X140913162Y-123001833D01*
X140771117Y-122658057D01*
X140508327Y-122394808D01*
X140164799Y-122252162D01*
X139792833Y-122251838D01*
X139449057Y-122393883D01*
X139185808Y-122656673D01*
X139043162Y-123000201D01*
X139042910Y-123290000D01*
X137864911Y-123290000D01*
X137865162Y-123001833D01*
X137723117Y-122658057D01*
X137460327Y-122394808D01*
X137116799Y-122252162D01*
X136744833Y-122251838D01*
X136401057Y-122393883D01*
X136137808Y-122656673D01*
X135995162Y-123000201D01*
X135994910Y-123290000D01*
X135197911Y-123290000D01*
X135198162Y-123001833D01*
X135056117Y-122658057D01*
X134793327Y-122394808D01*
X134449799Y-122252162D01*
X134077833Y-122251838D01*
X133734057Y-122393883D01*
X133470808Y-122656673D01*
X133328162Y-123000201D01*
X133327910Y-123290000D01*
X117391985Y-123290000D01*
X117434838Y-123186799D01*
X117435162Y-122814833D01*
X117304931Y-122499649D01*
X117434838Y-122186799D01*
X117435162Y-121814833D01*
X117293117Y-121471057D01*
X117035677Y-121213167D01*
X123929838Y-121213167D01*
X124071883Y-121556943D01*
X124334673Y-121820192D01*
X124678201Y-121962838D01*
X125050167Y-121963162D01*
X125393943Y-121821117D01*
X125657192Y-121558327D01*
X125799838Y-121214799D01*
X125800162Y-120842833D01*
X125658117Y-120499057D01*
X125576204Y-120417000D01*
X161771000Y-120417000D01*
X161939226Y-121262730D01*
X162418294Y-121979706D01*
X163135270Y-122458774D01*
X163981000Y-122627000D01*
X164826730Y-122458774D01*
X165543706Y-121979706D01*
X166022774Y-121262730D01*
X166191000Y-120417000D01*
X166022774Y-119571270D01*
X165543706Y-118854294D01*
X164826730Y-118375226D01*
X163981000Y-118207000D01*
X163135270Y-118375226D01*
X162418294Y-118854294D01*
X161939226Y-119571270D01*
X161771000Y-120417000D01*
X125576204Y-120417000D01*
X125395327Y-120235808D01*
X125051799Y-120093162D01*
X124679833Y-120092838D01*
X124336057Y-120234883D01*
X124072808Y-120497673D01*
X123930162Y-120841201D01*
X123929838Y-121213167D01*
X117035677Y-121213167D01*
X117030327Y-121207808D01*
X116686799Y-121065162D01*
X116314833Y-121064838D01*
X115999649Y-121195069D01*
X115686799Y-121065162D01*
X115314833Y-121064838D01*
X114999649Y-121195069D01*
X114686799Y-121065162D01*
X114314833Y-121064838D01*
X113999649Y-121195069D01*
X113686799Y-121065162D01*
X113314833Y-121064838D01*
X112999649Y-121195069D01*
X112686799Y-121065162D01*
X112314833Y-121064838D01*
X111999649Y-121195069D01*
X111686799Y-121065162D01*
X111434944Y-121064943D01*
X111435162Y-120814833D01*
X111304931Y-120499649D01*
X111434838Y-120186799D01*
X111435162Y-119814833D01*
X111304931Y-119499649D01*
X111434838Y-119186799D01*
X111435162Y-118814833D01*
X111304931Y-118499649D01*
X111434838Y-118186799D01*
X111435162Y-117814833D01*
X111304931Y-117499649D01*
X111434838Y-117186799D01*
X111435162Y-116814833D01*
X111304931Y-116499649D01*
X111351637Y-116387167D01*
X121516838Y-116387167D01*
X121658883Y-116730943D01*
X121921673Y-116994192D01*
X122265201Y-117136838D01*
X122637167Y-117137162D01*
X122980943Y-116995117D01*
X123244192Y-116732327D01*
X123386838Y-116388799D01*
X123387162Y-116016833D01*
X123245117Y-115673057D01*
X123070532Y-115498167D01*
X128882838Y-115498167D01*
X129024883Y-115841943D01*
X129287673Y-116105192D01*
X129631201Y-116247838D01*
X130003167Y-116248162D01*
X130346943Y-116106117D01*
X130610192Y-115843327D01*
X130752838Y-115499799D01*
X130753043Y-115264169D01*
X131041838Y-115264169D01*
X131183883Y-115607945D01*
X131446673Y-115871194D01*
X131790201Y-116013840D01*
X132162167Y-116014164D01*
X132505943Y-115872119D01*
X132769192Y-115609329D01*
X132911838Y-115265801D01*
X132912162Y-114893835D01*
X132794540Y-114609167D01*
X146408838Y-114609167D01*
X146550883Y-114952943D01*
X146813673Y-115216192D01*
X147157201Y-115358838D01*
X147529167Y-115359162D01*
X147872943Y-115217117D01*
X148136192Y-114954327D01*
X148278838Y-114610799D01*
X148278950Y-114482167D01*
X152250838Y-114482167D01*
X152392883Y-114825943D01*
X152655673Y-115089192D01*
X152999201Y-115231838D01*
X153371167Y-115232162D01*
X153714943Y-115090117D01*
X153978192Y-114827327D01*
X154120838Y-114483799D01*
X154121162Y-114111833D01*
X153979117Y-113768057D01*
X153716327Y-113504808D01*
X153372799Y-113362162D01*
X153000833Y-113361838D01*
X152657057Y-113503883D01*
X152393808Y-113766673D01*
X152251162Y-114110201D01*
X152250838Y-114482167D01*
X148278950Y-114482167D01*
X148279162Y-114238833D01*
X148137117Y-113895057D01*
X147874327Y-113631808D01*
X147530799Y-113489162D01*
X147158833Y-113488838D01*
X146815057Y-113630883D01*
X146551808Y-113893673D01*
X146409162Y-114237201D01*
X146408838Y-114609167D01*
X132794540Y-114609167D01*
X132770117Y-114550059D01*
X132507327Y-114286810D01*
X132163799Y-114144164D01*
X131791833Y-114143840D01*
X131448057Y-114285885D01*
X131184808Y-114548675D01*
X131042162Y-114892203D01*
X131041838Y-115264169D01*
X130753043Y-115264169D01*
X130753162Y-115127833D01*
X130611117Y-114784057D01*
X130348327Y-114520808D01*
X130004799Y-114378162D01*
X129632833Y-114377838D01*
X129289057Y-114519883D01*
X129025808Y-114782673D01*
X128883162Y-115126201D01*
X128882838Y-115498167D01*
X123070532Y-115498167D01*
X122982327Y-115409808D01*
X122638799Y-115267162D01*
X122266833Y-115266838D01*
X121923057Y-115408883D01*
X121659808Y-115671673D01*
X121517162Y-116015201D01*
X121516838Y-116387167D01*
X111351637Y-116387167D01*
X111434838Y-116186799D01*
X111435162Y-115814833D01*
X111304931Y-115499649D01*
X111434838Y-115186799D01*
X111435057Y-114934944D01*
X111685167Y-114935162D01*
X112000351Y-114804931D01*
X112313201Y-114934838D01*
X112685167Y-114935162D01*
X113000351Y-114804931D01*
X113313201Y-114934838D01*
X113685167Y-114935162D01*
X114000351Y-114804931D01*
X114313201Y-114934838D01*
X114685167Y-114935162D01*
X115000351Y-114804931D01*
X115313201Y-114934838D01*
X115685167Y-114935162D01*
X116000351Y-114804931D01*
X116313201Y-114934838D01*
X116685167Y-114935162D01*
X117028943Y-114793117D01*
X117292192Y-114530327D01*
X117434838Y-114186799D01*
X117435162Y-113814833D01*
X117304931Y-113499649D01*
X117434838Y-113186799D01*
X117435162Y-112814833D01*
X117293117Y-112471057D01*
X117030327Y-112207808D01*
X116686799Y-112065162D01*
X116314833Y-112064838D01*
X115999649Y-112195069D01*
X115686799Y-112065162D01*
X115314833Y-112064838D01*
X114999649Y-112195069D01*
X114686799Y-112065162D01*
X114314833Y-112064838D01*
X113999649Y-112195069D01*
X113686799Y-112065162D01*
X113314833Y-112064838D01*
X112999649Y-112195069D01*
X112686799Y-112065162D01*
X112314833Y-112064838D01*
X111999649Y-112195069D01*
X111686799Y-112065162D01*
X111314833Y-112064838D01*
X110999649Y-112195069D01*
X110686799Y-112065162D01*
X110314833Y-112064838D01*
X109999649Y-112195069D01*
X109686799Y-112065162D01*
X109314833Y-112064838D01*
X108971057Y-112206883D01*
X108707808Y-112469673D01*
X108565162Y-112813201D01*
X108564838Y-113185167D01*
X108695069Y-113500351D01*
X108565162Y-113813201D01*
X108564838Y-114185167D01*
X108695069Y-114500351D01*
X108565162Y-114813201D01*
X108564838Y-115185167D01*
X108695069Y-115500351D01*
X108565162Y-115813201D01*
X108564838Y-116185167D01*
X108695069Y-116500351D01*
X108565162Y-116813201D01*
X108564838Y-117185167D01*
X108695069Y-117500351D01*
X108565162Y-117813201D01*
X108564838Y-118185167D01*
X108695069Y-118500351D01*
X108565162Y-118813201D01*
X108564838Y-119185167D01*
X108695069Y-119500351D01*
X108565162Y-119813201D01*
X108564838Y-120185167D01*
X108695069Y-120500351D01*
X108565162Y-120813201D01*
X108564838Y-121185167D01*
X108695069Y-121500351D01*
X108565162Y-121813201D01*
X108564838Y-122185167D01*
X108695069Y-122500351D01*
X108565162Y-122813201D01*
X108564838Y-123185167D01*
X108608154Y-123290000D01*
X105069931Y-123290000D01*
X104128977Y-123102833D01*
X103390561Y-122609439D01*
X102897167Y-121871023D01*
X102710000Y-120930069D01*
X102710000Y-120500000D01*
X103290000Y-120500000D01*
X103458226Y-121345730D01*
X103937294Y-122062706D01*
X104654270Y-122541774D01*
X105500000Y-122710000D01*
X106345730Y-122541774D01*
X107062706Y-122062706D01*
X107541774Y-121345730D01*
X107710000Y-120500000D01*
X107541774Y-119654270D01*
X107062706Y-118937294D01*
X106345730Y-118458226D01*
X105500000Y-118290000D01*
X104654270Y-118458226D01*
X103937294Y-118937294D01*
X103458226Y-119654270D01*
X103290000Y-120500000D01*
X102710000Y-120500000D01*
X102710000Y-110545167D01*
X105768838Y-110545167D01*
X105910883Y-110888943D01*
X106173673Y-111152192D01*
X106517201Y-111294838D01*
X106889167Y-111295162D01*
X107232943Y-111153117D01*
X107333067Y-111053167D01*
X107800838Y-111053167D01*
X107942883Y-111396943D01*
X108205673Y-111660192D01*
X108549201Y-111802838D01*
X108921167Y-111803162D01*
X109264943Y-111661117D01*
X109528192Y-111398327D01*
X109670838Y-111054799D01*
X109671162Y-110682833D01*
X109529117Y-110339057D01*
X109266327Y-110075808D01*
X108922799Y-109933162D01*
X108550833Y-109932838D01*
X108207057Y-110074883D01*
X107943808Y-110337673D01*
X107801162Y-110681201D01*
X107800838Y-111053167D01*
X107333067Y-111053167D01*
X107496192Y-110890327D01*
X107638838Y-110546799D01*
X107639162Y-110174833D01*
X107497117Y-109831057D01*
X107449311Y-109783167D01*
X112880838Y-109783167D01*
X113022883Y-110126943D01*
X113285673Y-110390192D01*
X113629201Y-110532838D01*
X114001167Y-110533162D01*
X114344943Y-110391117D01*
X114514565Y-110221791D01*
X114682673Y-110390192D01*
X114982332Y-110514622D01*
X114913162Y-110681201D01*
X114912838Y-111053167D01*
X115054883Y-111396943D01*
X115317673Y-111660192D01*
X115661201Y-111802838D01*
X116033167Y-111803162D01*
X116376943Y-111661117D01*
X116640192Y-111398327D01*
X116782838Y-111054799D01*
X116782950Y-110926167D01*
X119484838Y-110926167D01*
X119626883Y-111269943D01*
X119889673Y-111533192D01*
X120233201Y-111675838D01*
X120605167Y-111676162D01*
X120948943Y-111534117D01*
X121212192Y-111271327D01*
X121354838Y-110927799D01*
X121354950Y-110799167D01*
X122151838Y-110799167D01*
X122293883Y-111142943D01*
X122556673Y-111406192D01*
X122873043Y-111537561D01*
X122802808Y-111607673D01*
X122660162Y-111951201D01*
X122659838Y-112323167D01*
X122801883Y-112666943D01*
X123064673Y-112930192D01*
X123408201Y-113072838D01*
X123780167Y-113073162D01*
X124123943Y-112931117D01*
X124387192Y-112668327D01*
X124529838Y-112324799D01*
X124530162Y-111952833D01*
X124388117Y-111609057D01*
X124125327Y-111345808D01*
X123808957Y-111214439D01*
X123879192Y-111144327D01*
X124021838Y-110800799D01*
X124021839Y-110799167D01*
X126850838Y-110799167D01*
X126992883Y-111142943D01*
X127255673Y-111406192D01*
X127599201Y-111548838D01*
X127928649Y-111549125D01*
X127867162Y-111697201D01*
X127866838Y-112069167D01*
X128008883Y-112412943D01*
X128271673Y-112676192D01*
X128615201Y-112818838D01*
X128987167Y-112819162D01*
X129330943Y-112677117D01*
X129594192Y-112414327D01*
X129736838Y-112070799D01*
X129737162Y-111698833D01*
X129595117Y-111355057D01*
X129332327Y-111091808D01*
X128988799Y-110949162D01*
X128659351Y-110948875D01*
X128720838Y-110800799D01*
X128720952Y-110670315D01*
X128836568Y-110670416D01*
X129178242Y-110529240D01*
X129418073Y-110769490D01*
X129761601Y-110912136D01*
X130133567Y-110912460D01*
X130477343Y-110770415D01*
X130740592Y-110507625D01*
X130883238Y-110164097D01*
X130883348Y-110037167D01*
X135883828Y-110037167D01*
X136025873Y-110380943D01*
X136288663Y-110644192D01*
X136632191Y-110786838D01*
X136818699Y-110787000D01*
X136757160Y-110935201D01*
X136756836Y-111307167D01*
X136898881Y-111650943D01*
X137161671Y-111914192D01*
X137505199Y-112056838D01*
X137877165Y-112057162D01*
X138220941Y-111915117D01*
X138484190Y-111652327D01*
X138626836Y-111308799D01*
X138627160Y-110936833D01*
X138517803Y-110672167D01*
X139296838Y-110672167D01*
X139438883Y-111015943D01*
X139701673Y-111279192D01*
X140045201Y-111421838D01*
X140417167Y-111422162D01*
X140760943Y-111280117D01*
X141024192Y-111017327D01*
X141166838Y-110673799D01*
X141167162Y-110301833D01*
X141092404Y-110120903D01*
X151107838Y-110120903D01*
X151249883Y-110464679D01*
X151512673Y-110727928D01*
X151856201Y-110870574D01*
X152228167Y-110870898D01*
X152571943Y-110728853D01*
X152835192Y-110466063D01*
X152977838Y-110122535D01*
X152978133Y-109783619D01*
X153253201Y-109897838D01*
X153625167Y-109898162D01*
X153968943Y-109756117D01*
X154232192Y-109493327D01*
X154374838Y-109149799D01*
X154375162Y-108777833D01*
X154233117Y-108434057D01*
X153970327Y-108170808D01*
X153626799Y-108028162D01*
X153254833Y-108027838D01*
X152911057Y-108169883D01*
X152647808Y-108432673D01*
X152505162Y-108776201D01*
X152504867Y-109115117D01*
X152229799Y-109000898D01*
X151857833Y-109000574D01*
X151514057Y-109142619D01*
X151250808Y-109405409D01*
X151108162Y-109748937D01*
X151107838Y-110120903D01*
X141092404Y-110120903D01*
X141025117Y-109958057D01*
X140762327Y-109694808D01*
X140418799Y-109552162D01*
X140046833Y-109551838D01*
X139703057Y-109693883D01*
X139439808Y-109956673D01*
X139297162Y-110300201D01*
X139296838Y-110672167D01*
X138517803Y-110672167D01*
X138485115Y-110593057D01*
X138222325Y-110329808D01*
X137878797Y-110187162D01*
X137692289Y-110187000D01*
X137753828Y-110038799D01*
X137754152Y-109666833D01*
X137612107Y-109323057D01*
X137349317Y-109059808D01*
X137005789Y-108917162D01*
X136633823Y-108916838D01*
X136290047Y-109058883D01*
X136026798Y-109321673D01*
X135884152Y-109665201D01*
X135883828Y-110037167D01*
X130883348Y-110037167D01*
X130883562Y-109792131D01*
X130741517Y-109448355D01*
X130478727Y-109185106D01*
X130264312Y-109096073D01*
X130176042Y-108882442D01*
X129913252Y-108619193D01*
X129569724Y-108476547D01*
X129197758Y-108476223D01*
X128853982Y-108618268D01*
X128671661Y-108800271D01*
X128466234Y-108800092D01*
X128122458Y-108942137D01*
X127859209Y-109204927D01*
X127716563Y-109548455D01*
X127716449Y-109678939D01*
X127600833Y-109678838D01*
X127257057Y-109820883D01*
X126993808Y-110083673D01*
X126851162Y-110427201D01*
X126850838Y-110799167D01*
X124021839Y-110799167D01*
X124022162Y-110428833D01*
X123880117Y-110085057D01*
X123617327Y-109821808D01*
X123273799Y-109679162D01*
X122901833Y-109678838D01*
X122558057Y-109820883D01*
X122294808Y-110083673D01*
X122152162Y-110427201D01*
X122151838Y-110799167D01*
X121354950Y-110799167D01*
X121355162Y-110555833D01*
X121213117Y-110212057D01*
X120950327Y-109948808D01*
X120606799Y-109806162D01*
X120234833Y-109805838D01*
X119891057Y-109947883D01*
X119627808Y-110210673D01*
X119485162Y-110554201D01*
X119484838Y-110926167D01*
X116782950Y-110926167D01*
X116783162Y-110682833D01*
X116641117Y-110339057D01*
X116378327Y-110075808D01*
X116078668Y-109951378D01*
X116147838Y-109784799D01*
X116148162Y-109412833D01*
X116006117Y-109069057D01*
X115743327Y-108805808D01*
X115399799Y-108663162D01*
X115027833Y-108662838D01*
X114684057Y-108804883D01*
X114514435Y-108974209D01*
X114346327Y-108805808D01*
X114002799Y-108663162D01*
X113630833Y-108662838D01*
X113287057Y-108804883D01*
X113023808Y-109067673D01*
X112881162Y-109411201D01*
X112880838Y-109783167D01*
X107449311Y-109783167D01*
X107234327Y-109567808D01*
X106890799Y-109425162D01*
X106518833Y-109424838D01*
X106175057Y-109566883D01*
X105911808Y-109829673D01*
X105769162Y-110173201D01*
X105768838Y-110545167D01*
X102710000Y-110545167D01*
X102710000Y-108259167D01*
X120246838Y-108259167D01*
X120388883Y-108602943D01*
X120651673Y-108866192D01*
X120995201Y-109008838D01*
X121367167Y-109009162D01*
X121710943Y-108867117D01*
X121944176Y-108634291D01*
X122175673Y-108866192D01*
X122519201Y-109008838D01*
X122891167Y-109009162D01*
X123234943Y-108867117D01*
X123498192Y-108604327D01*
X123640838Y-108260799D01*
X123640839Y-108259167D01*
X126225828Y-108259167D01*
X126367873Y-108602943D01*
X126630663Y-108866192D01*
X126974191Y-109008838D01*
X127346157Y-109009162D01*
X127689933Y-108867117D01*
X127953182Y-108604327D01*
X128095828Y-108260799D01*
X128096152Y-107888833D01*
X127954107Y-107545057D01*
X127903755Y-107494617D01*
X129647390Y-107494617D01*
X129789435Y-107838393D01*
X130052225Y-108101642D01*
X130395753Y-108244288D01*
X130767719Y-108244612D01*
X131039857Y-108132167D01*
X139677838Y-108132167D01*
X139819883Y-108475943D01*
X140082673Y-108739192D01*
X140426201Y-108881838D01*
X140798167Y-108882162D01*
X141141943Y-108740117D01*
X141405192Y-108477327D01*
X141547838Y-108133799D01*
X141548162Y-107761833D01*
X141491280Y-107624167D01*
X145011838Y-107624167D01*
X145153883Y-107967943D01*
X145416673Y-108231192D01*
X145760201Y-108373838D01*
X146132167Y-108374162D01*
X146475943Y-108232117D01*
X146739192Y-107969327D01*
X146881838Y-107625799D01*
X146882162Y-107253833D01*
X146740117Y-106910057D01*
X146477327Y-106646808D01*
X146133799Y-106504162D01*
X145761833Y-106503838D01*
X145418057Y-106645883D01*
X145154808Y-106908673D01*
X145012162Y-107252201D01*
X145011838Y-107624167D01*
X141491280Y-107624167D01*
X141406117Y-107418057D01*
X141143327Y-107154808D01*
X140799799Y-107012162D01*
X140427833Y-107011838D01*
X140084057Y-107153883D01*
X139820808Y-107416673D01*
X139678162Y-107760201D01*
X139677838Y-108132167D01*
X131039857Y-108132167D01*
X131111495Y-108102567D01*
X131374744Y-107839777D01*
X131517390Y-107496249D01*
X131517714Y-107124283D01*
X131375669Y-106780507D01*
X131112879Y-106517258D01*
X130769351Y-106374612D01*
X130397385Y-106374288D01*
X130053609Y-106516333D01*
X129790360Y-106779123D01*
X129647714Y-107122651D01*
X129647390Y-107494617D01*
X127903755Y-107494617D01*
X127691317Y-107281808D01*
X127347789Y-107139162D01*
X126975823Y-107138838D01*
X126632047Y-107280883D01*
X126368798Y-107543673D01*
X126226152Y-107887201D01*
X126225828Y-108259167D01*
X123640839Y-108259167D01*
X123641162Y-107888833D01*
X123499117Y-107545057D01*
X123236327Y-107281808D01*
X122892799Y-107139162D01*
X122520833Y-107138838D01*
X122177057Y-107280883D01*
X121943824Y-107513709D01*
X121712327Y-107281808D01*
X121368799Y-107139162D01*
X120996833Y-107138838D01*
X120653057Y-107280883D01*
X120389808Y-107543673D01*
X120247162Y-107887201D01*
X120246838Y-108259167D01*
X102710000Y-108259167D01*
X102710000Y-104957167D01*
X105514838Y-104957167D01*
X105656883Y-105300943D01*
X105919673Y-105564192D01*
X106263201Y-105706838D01*
X106635167Y-105707162D01*
X106978943Y-105565117D01*
X107242192Y-105302327D01*
X107384838Y-104958799D01*
X107385162Y-104586833D01*
X107328280Y-104449167D01*
X119484838Y-104449167D01*
X119626883Y-104792943D01*
X119889673Y-105056192D01*
X120233201Y-105198838D01*
X120605167Y-105199162D01*
X120948943Y-105057117D01*
X121212192Y-104794327D01*
X121354838Y-104450799D01*
X121354839Y-104449167D01*
X124310838Y-104449167D01*
X124452883Y-104792943D01*
X124715673Y-105056192D01*
X125059201Y-105198838D01*
X125431167Y-105199162D01*
X125774943Y-105057117D01*
X126038192Y-104794327D01*
X126180838Y-104450799D01*
X126180894Y-104386009D01*
X126350770Y-104386157D01*
X126513629Y-104318865D01*
X126741359Y-104546993D01*
X127084887Y-104689639D01*
X127456853Y-104689963D01*
X127743001Y-104571729D01*
X127927454Y-104648321D01*
X128299420Y-104648645D01*
X128643196Y-104506600D01*
X128690758Y-104459121D01*
X128779673Y-104548192D01*
X129123201Y-104690838D01*
X129495167Y-104691162D01*
X129838943Y-104549117D01*
X130066289Y-104322167D01*
X134851838Y-104322167D01*
X134993883Y-104665943D01*
X135256673Y-104929192D01*
X135600201Y-105071838D01*
X135861799Y-105072066D01*
X135861565Y-105341002D01*
X135971350Y-105606702D01*
X135868162Y-105855205D01*
X135867838Y-106227171D01*
X136009883Y-106570947D01*
X136272673Y-106834196D01*
X136616201Y-106976842D01*
X136988167Y-106977166D01*
X137331943Y-106835121D01*
X137595192Y-106572331D01*
X137737838Y-106228803D01*
X137738162Y-105856837D01*
X137628377Y-105591137D01*
X137680684Y-105465167D01*
X148748847Y-105465167D01*
X148890892Y-105808943D01*
X149153682Y-106072192D01*
X149497210Y-106214838D01*
X149869176Y-106215162D01*
X150212952Y-106073117D01*
X150476201Y-105810327D01*
X150618847Y-105466799D01*
X150619171Y-105094833D01*
X150477126Y-104751057D01*
X150302541Y-104576167D01*
X151742838Y-104576167D01*
X151884883Y-104919943D01*
X152147673Y-105183192D01*
X152491201Y-105325838D01*
X152863167Y-105326162D01*
X153206943Y-105184117D01*
X153470192Y-104921327D01*
X153612838Y-104577799D01*
X153613162Y-104205833D01*
X153471117Y-103862057D01*
X153208327Y-103598808D01*
X152864799Y-103456162D01*
X152492833Y-103455838D01*
X152149057Y-103597883D01*
X151885808Y-103860673D01*
X151743162Y-104204201D01*
X151742838Y-104576167D01*
X150302541Y-104576167D01*
X150214336Y-104487808D01*
X149870808Y-104345162D01*
X149498842Y-104344838D01*
X149155066Y-104486883D01*
X148891817Y-104749673D01*
X148749171Y-105093201D01*
X148748847Y-105465167D01*
X137680684Y-105465167D01*
X137731565Y-105342634D01*
X137731889Y-104970668D01*
X137589844Y-104626892D01*
X137327054Y-104363643D01*
X136983526Y-104220997D01*
X136721928Y-104220769D01*
X136722162Y-103951833D01*
X136665281Y-103814169D01*
X137645838Y-103814169D01*
X137787883Y-104157945D01*
X138050673Y-104421194D01*
X138394201Y-104563840D01*
X138766167Y-104564164D01*
X139109943Y-104422119D01*
X139373192Y-104159329D01*
X139428514Y-104026100D01*
X139428250Y-104328990D01*
X139570295Y-104672766D01*
X139833085Y-104936015D01*
X140176613Y-105078661D01*
X140548579Y-105078985D01*
X140892355Y-104936940D01*
X141155604Y-104674150D01*
X141298250Y-104330622D01*
X141298574Y-103958656D01*
X141156529Y-103614880D01*
X140893739Y-103351631D01*
X140550211Y-103208985D01*
X140520153Y-103208959D01*
X140531846Y-103180799D01*
X140532170Y-102808833D01*
X140390125Y-102465057D01*
X140127335Y-102201808D01*
X139783807Y-102059162D01*
X139411841Y-102058838D01*
X139068065Y-102200883D01*
X138804816Y-102463673D01*
X138709129Y-102694113D01*
X138395833Y-102693840D01*
X138052057Y-102835885D01*
X137788808Y-103098675D01*
X137646162Y-103442203D01*
X137645838Y-103814169D01*
X136665281Y-103814169D01*
X136580117Y-103608057D01*
X136317327Y-103344808D01*
X135973799Y-103202162D01*
X135601833Y-103201838D01*
X135258057Y-103343883D01*
X134994808Y-103606673D01*
X134852162Y-103950201D01*
X134851838Y-104322167D01*
X130066289Y-104322167D01*
X130102192Y-104286327D01*
X130244838Y-103942799D01*
X130245162Y-103570833D01*
X130103117Y-103227057D01*
X129840327Y-102963808D01*
X129496799Y-102821162D01*
X129124833Y-102820838D01*
X128781057Y-102962883D01*
X128733495Y-103010362D01*
X128644580Y-102921291D01*
X128301052Y-102778645D01*
X127929086Y-102778321D01*
X127642938Y-102896555D01*
X127458485Y-102819963D01*
X127086519Y-102819639D01*
X126923660Y-102886931D01*
X126695930Y-102658803D01*
X126352402Y-102516157D01*
X125980436Y-102515833D01*
X125636660Y-102657878D01*
X125373411Y-102920668D01*
X125230765Y-103264196D01*
X125230709Y-103328986D01*
X125060833Y-103328838D01*
X124717057Y-103470883D01*
X124453808Y-103733673D01*
X124311162Y-104077201D01*
X124310838Y-104449167D01*
X121354839Y-104449167D01*
X121355162Y-104078833D01*
X121213117Y-103735057D01*
X120950327Y-103471808D01*
X120606799Y-103329162D01*
X120234833Y-103328838D01*
X119891057Y-103470883D01*
X119627808Y-103733673D01*
X119485162Y-104077201D01*
X119484838Y-104449167D01*
X107328280Y-104449167D01*
X107243117Y-104243057D01*
X106980327Y-103979808D01*
X106636799Y-103837162D01*
X106264833Y-103836838D01*
X105921057Y-103978883D01*
X105657808Y-104241673D01*
X105515162Y-104585201D01*
X105514838Y-104957167D01*
X102710000Y-104957167D01*
X102710000Y-101147167D01*
X103228838Y-101147167D01*
X103370883Y-101490943D01*
X103633673Y-101754192D01*
X103977201Y-101896838D01*
X104349167Y-101897162D01*
X104692943Y-101755117D01*
X104726894Y-101721225D01*
X144061896Y-101721225D01*
X144203941Y-102065001D01*
X144466731Y-102328250D01*
X144558100Y-102366190D01*
X144694701Y-102696790D01*
X144957491Y-102960039D01*
X145301019Y-103102685D01*
X145672985Y-103103009D01*
X146016761Y-102960964D01*
X146280010Y-102698174D01*
X146422656Y-102354646D01*
X146422980Y-101982680D01*
X146280935Y-101638904D01*
X146018145Y-101375655D01*
X145926776Y-101337715D01*
X145790175Y-101007115D01*
X145527385Y-100743866D01*
X145183857Y-100601220D01*
X144811891Y-100600896D01*
X144468115Y-100742941D01*
X144204866Y-101005731D01*
X144062220Y-101349259D01*
X144061896Y-101721225D01*
X104726894Y-101721225D01*
X104956192Y-101492327D01*
X105098838Y-101148799D01*
X105099060Y-100893167D01*
X110848838Y-100893167D01*
X110990883Y-101236943D01*
X111253673Y-101500192D01*
X111597201Y-101642838D01*
X111969167Y-101643162D01*
X112312943Y-101501117D01*
X112576192Y-101238327D01*
X112718838Y-100894799D01*
X112718839Y-100893167D01*
X129517838Y-100893167D01*
X129659883Y-101236943D01*
X129922673Y-101500192D01*
X130266201Y-101642838D01*
X130638167Y-101643162D01*
X130981943Y-101501117D01*
X131245192Y-101238327D01*
X131365724Y-100948053D01*
X136938724Y-100948053D01*
X137080769Y-101291829D01*
X137343559Y-101555078D01*
X137687087Y-101697724D01*
X138059053Y-101698048D01*
X138402829Y-101556003D01*
X138666078Y-101293213D01*
X138808724Y-100949685D01*
X138809048Y-100577719D01*
X138667003Y-100233943D01*
X138404213Y-99970694D01*
X138060685Y-99828048D01*
X137688719Y-99827724D01*
X137344943Y-99969769D01*
X137081694Y-100232559D01*
X136939048Y-100576087D01*
X136938724Y-100948053D01*
X131365724Y-100948053D01*
X131387838Y-100894799D01*
X131388162Y-100522833D01*
X131246117Y-100179057D01*
X130983327Y-99915808D01*
X130639799Y-99773162D01*
X130267833Y-99772838D01*
X129924057Y-99914883D01*
X129660808Y-100177673D01*
X129518162Y-100521201D01*
X129517838Y-100893167D01*
X112718839Y-100893167D01*
X112719162Y-100522833D01*
X112577117Y-100179057D01*
X112314327Y-99915808D01*
X111970799Y-99773162D01*
X111598833Y-99772838D01*
X111255057Y-99914883D01*
X110991808Y-100177673D01*
X110849162Y-100521201D01*
X110848838Y-100893167D01*
X105099060Y-100893167D01*
X105099162Y-100776833D01*
X104957117Y-100433057D01*
X104694327Y-100169808D01*
X104350799Y-100027162D01*
X103978833Y-100026838D01*
X103635057Y-100168883D01*
X103371808Y-100431673D01*
X103229162Y-100775201D01*
X103228838Y-101147167D01*
X102710000Y-101147167D01*
X102710000Y-98861167D01*
X129390838Y-98861167D01*
X129532883Y-99204943D01*
X129795673Y-99468192D01*
X130139201Y-99610838D01*
X130511167Y-99611162D01*
X130854943Y-99469117D01*
X131118192Y-99206327D01*
X131260838Y-98862799D01*
X131260839Y-98861167D01*
X136375838Y-98861167D01*
X136517883Y-99204943D01*
X136780673Y-99468192D01*
X137124201Y-99610838D01*
X137496167Y-99611162D01*
X137839943Y-99469117D01*
X138103192Y-99206327D01*
X138245838Y-98862799D01*
X138246162Y-98490833D01*
X138204033Y-98388873D01*
X138394201Y-98467838D01*
X138661959Y-98468071D01*
X138661838Y-98607167D01*
X138803883Y-98950943D01*
X139066673Y-99214192D01*
X139410201Y-99356838D01*
X139782167Y-99357162D01*
X140125943Y-99215117D01*
X140389192Y-98952327D01*
X140531838Y-98608799D01*
X140532162Y-98236833D01*
X140390117Y-97893057D01*
X140127327Y-97629808D01*
X139783799Y-97487162D01*
X139516041Y-97486929D01*
X139516162Y-97347833D01*
X139459280Y-97210167D01*
X140312838Y-97210167D01*
X140454883Y-97553943D01*
X140717673Y-97817192D01*
X141061201Y-97959838D01*
X141433167Y-97960162D01*
X141497944Y-97933397D01*
X141599739Y-98035370D01*
X141354057Y-98136883D01*
X141090808Y-98399673D01*
X140948162Y-98743201D01*
X140947838Y-99115167D01*
X141089883Y-99458943D01*
X141352673Y-99722192D01*
X141585961Y-99819062D01*
X141354057Y-99914883D01*
X141090808Y-100177673D01*
X140948162Y-100521201D01*
X140947838Y-100893167D01*
X141089883Y-101236943D01*
X141352673Y-101500192D01*
X141696201Y-101642838D01*
X142068167Y-101643162D01*
X142411943Y-101501117D01*
X142675192Y-101238327D01*
X142817838Y-100894799D01*
X142818162Y-100522833D01*
X142676117Y-100179057D01*
X142413327Y-99915808D01*
X142320270Y-99877167D01*
X145265838Y-99877167D01*
X145407883Y-100220943D01*
X145670673Y-100484192D01*
X146014201Y-100626838D01*
X146386167Y-100627162D01*
X146729943Y-100485117D01*
X146993192Y-100222327D01*
X147135838Y-99878799D01*
X147136162Y-99506833D01*
X146994117Y-99163057D01*
X146731327Y-98899808D01*
X146387799Y-98757162D01*
X146015833Y-98756838D01*
X145672057Y-98898883D01*
X145408808Y-99161673D01*
X145266162Y-99505201D01*
X145265838Y-99877167D01*
X142320270Y-99877167D01*
X142180039Y-99818938D01*
X142411943Y-99723117D01*
X142675192Y-99460327D01*
X142817838Y-99116799D01*
X142818162Y-98744833D01*
X142676117Y-98401057D01*
X142459059Y-98183620D01*
X142704741Y-98082107D01*
X142967990Y-97819317D01*
X143110636Y-97475789D01*
X143110762Y-97330529D01*
X146193506Y-97330529D01*
X146335551Y-97674305D01*
X146361421Y-97700220D01*
X146343017Y-97744541D01*
X146342693Y-98116507D01*
X146484738Y-98460283D01*
X146747528Y-98723532D01*
X147091056Y-98866178D01*
X147463022Y-98866502D01*
X147806798Y-98724457D01*
X148070047Y-98461667D01*
X148212693Y-98118139D01*
X148213017Y-97746173D01*
X148070972Y-97402397D01*
X148045102Y-97376482D01*
X148063506Y-97332161D01*
X148063830Y-96960195D01*
X147921785Y-96616419D01*
X147658995Y-96353170D01*
X147315467Y-96210524D01*
X146943501Y-96210200D01*
X146599725Y-96352245D01*
X146336476Y-96615035D01*
X146193830Y-96958563D01*
X146193506Y-97330529D01*
X143110762Y-97330529D01*
X143110960Y-97103823D01*
X142968915Y-96760047D01*
X142706125Y-96496798D01*
X142362597Y-96354152D01*
X142188253Y-96354000D01*
X142453802Y-96176566D01*
X142699839Y-95808346D01*
X142786236Y-95374000D01*
X142699839Y-94939654D01*
X142604633Y-94797167D01*
X144122838Y-94797167D01*
X144264883Y-95140943D01*
X144527673Y-95404192D01*
X144871201Y-95546838D01*
X145243167Y-95547162D01*
X145586943Y-95405117D01*
X145605824Y-95386269D01*
X145661883Y-95521943D01*
X145924673Y-95785192D01*
X146268201Y-95927838D01*
X146640167Y-95928162D01*
X146983943Y-95786117D01*
X147247192Y-95523327D01*
X147389838Y-95179799D01*
X147390040Y-94947340D01*
X147956280Y-94947340D01*
X148098325Y-95291116D01*
X148361115Y-95554365D01*
X148441035Y-95587551D01*
X148440838Y-95813167D01*
X148582883Y-96156943D01*
X148845673Y-96420192D01*
X149189201Y-96562838D01*
X149214063Y-96562860D01*
X149268888Y-96695546D01*
X149531678Y-96958795D01*
X149875206Y-97101441D01*
X150247172Y-97101765D01*
X150590948Y-96959720D01*
X150594507Y-96956167D01*
X151361838Y-96956167D01*
X151503883Y-97299943D01*
X151766673Y-97563192D01*
X152110201Y-97705838D01*
X152482167Y-97706162D01*
X152825943Y-97564117D01*
X153089192Y-97301327D01*
X153231838Y-96957799D01*
X153232162Y-96585833D01*
X153122805Y-96321167D01*
X155679838Y-96321167D01*
X155821883Y-96664943D01*
X156084673Y-96928192D01*
X156428201Y-97070838D01*
X156800167Y-97071162D01*
X157143943Y-96929117D01*
X157407192Y-96666327D01*
X157549838Y-96322799D01*
X157550162Y-95950833D01*
X157408117Y-95607057D01*
X157145327Y-95343808D01*
X156801799Y-95201162D01*
X156429833Y-95200838D01*
X156086057Y-95342883D01*
X155822808Y-95605673D01*
X155680162Y-95949201D01*
X155679838Y-96321167D01*
X153122805Y-96321167D01*
X153090117Y-96242057D01*
X152827327Y-95978808D01*
X152483799Y-95836162D01*
X152111833Y-95835838D01*
X151768057Y-95977883D01*
X151504808Y-96240673D01*
X151362162Y-96584201D01*
X151361838Y-96956167D01*
X150594507Y-96956167D01*
X150854197Y-96696930D01*
X150996843Y-96353402D01*
X150997167Y-95981436D01*
X150855122Y-95637660D01*
X150592332Y-95374411D01*
X150515384Y-95342459D01*
X150627362Y-95072787D01*
X150627686Y-94700821D01*
X150485641Y-94357045D01*
X150222851Y-94093796D01*
X149879323Y-93951150D01*
X149507357Y-93950826D01*
X149433225Y-93981457D01*
X149421769Y-93969981D01*
X149078241Y-93827335D01*
X148706275Y-93827011D01*
X148362499Y-93969056D01*
X148099250Y-94231846D01*
X147956604Y-94575374D01*
X147956280Y-94947340D01*
X147390040Y-94947340D01*
X147390162Y-94807833D01*
X147248117Y-94464057D01*
X146985327Y-94200808D01*
X146641799Y-94058162D01*
X146269833Y-94057838D01*
X145926057Y-94199883D01*
X145907176Y-94218731D01*
X145851117Y-94083057D01*
X145588327Y-93819808D01*
X145244799Y-93677162D01*
X144872833Y-93676838D01*
X144529057Y-93818883D01*
X144265808Y-94081673D01*
X144123162Y-94425201D01*
X144122838Y-94797167D01*
X142604633Y-94797167D01*
X142565766Y-94739000D01*
X142699839Y-94538346D01*
X142786236Y-94104000D01*
X142699839Y-93669654D01*
X142689491Y-93654167D01*
X154663838Y-93654167D01*
X154805883Y-93997943D01*
X155068673Y-94261192D01*
X155412201Y-94403838D01*
X155784167Y-94404162D01*
X156127943Y-94262117D01*
X156391192Y-93999327D01*
X156533838Y-93655799D01*
X156534162Y-93283833D01*
X156392117Y-92940057D01*
X156129327Y-92676808D01*
X155785799Y-92534162D01*
X155413833Y-92533838D01*
X155070057Y-92675883D01*
X154806808Y-92938673D01*
X154664162Y-93282201D01*
X154663838Y-93654167D01*
X142689491Y-93654167D01*
X142565766Y-93469000D01*
X142699839Y-93268346D01*
X142786236Y-92834000D01*
X142699839Y-92399654D01*
X142565766Y-92199000D01*
X142699839Y-91998346D01*
X142786236Y-91564000D01*
X142772545Y-91495167D01*
X143868838Y-91495167D01*
X144010883Y-91838943D01*
X144273673Y-92102192D01*
X144617201Y-92244838D01*
X144989167Y-92245162D01*
X145332943Y-92103117D01*
X145596192Y-91840327D01*
X145738838Y-91496799D01*
X145739162Y-91124833D01*
X145597117Y-90781057D01*
X145334327Y-90517808D01*
X144990799Y-90375162D01*
X144618833Y-90374838D01*
X144275057Y-90516883D01*
X144011808Y-90779673D01*
X143869162Y-91123201D01*
X143868838Y-91495167D01*
X142772545Y-91495167D01*
X142699839Y-91129654D01*
X142684195Y-91106241D01*
X142725431Y-91045890D01*
X142776440Y-90794000D01*
X142776440Y-89794000D01*
X142732162Y-89558683D01*
X142593090Y-89342559D01*
X142380890Y-89197569D01*
X142129000Y-89146560D01*
X141129000Y-89146560D01*
X140893683Y-89190838D01*
X140677559Y-89329910D01*
X140532569Y-89542110D01*
X140481560Y-89794000D01*
X140481560Y-90794000D01*
X140525838Y-91029317D01*
X140574586Y-91105073D01*
X140558161Y-91129654D01*
X140471764Y-91564000D01*
X140558161Y-91998346D01*
X140692234Y-92199000D01*
X140558161Y-92399654D01*
X140471764Y-92834000D01*
X140558161Y-93268346D01*
X140692234Y-93469000D01*
X140558161Y-93669654D01*
X140471764Y-94104000D01*
X140558161Y-94538346D01*
X140692234Y-94739000D01*
X140558161Y-94939654D01*
X140471764Y-95374000D01*
X140558161Y-95808346D01*
X140804198Y-96176566D01*
X140822820Y-96189009D01*
X140719057Y-96231883D01*
X140455808Y-96494673D01*
X140313162Y-96838201D01*
X140312838Y-97210167D01*
X139459280Y-97210167D01*
X139374117Y-97004057D01*
X139111327Y-96740808D01*
X138767799Y-96598162D01*
X138395833Y-96597838D01*
X138052057Y-96739883D01*
X137788808Y-97002673D01*
X137646162Y-97346201D01*
X137645838Y-97718167D01*
X137687967Y-97820127D01*
X137497799Y-97741162D01*
X137125833Y-97740838D01*
X136782057Y-97882883D01*
X136518808Y-98145673D01*
X136376162Y-98489201D01*
X136375838Y-98861167D01*
X131260839Y-98861167D01*
X131261162Y-98490833D01*
X131119117Y-98147057D01*
X131013180Y-98040935D01*
X131245192Y-97809327D01*
X131387838Y-97465799D01*
X131388060Y-97210167D01*
X132946838Y-97210167D01*
X133088883Y-97553943D01*
X133351673Y-97817192D01*
X133695201Y-97959838D01*
X134067167Y-97960162D01*
X134410943Y-97818117D01*
X134674192Y-97555327D01*
X134816838Y-97211799D01*
X134817162Y-96839833D01*
X134675117Y-96496057D01*
X134412327Y-96232808D01*
X134068799Y-96090162D01*
X133696833Y-96089838D01*
X133353057Y-96231883D01*
X133089808Y-96494673D01*
X132947162Y-96838201D01*
X132946838Y-97210167D01*
X131388060Y-97210167D01*
X131388162Y-97093833D01*
X131305929Y-96894813D01*
X131384767Y-96704950D01*
X131385091Y-96332984D01*
X131279142Y-96076567D01*
X131387838Y-95814799D01*
X131387950Y-95686167D01*
X138407838Y-95686167D01*
X138549883Y-96029943D01*
X138812673Y-96293192D01*
X139156201Y-96435838D01*
X139528167Y-96436162D01*
X139871943Y-96294117D01*
X140135192Y-96031327D01*
X140277838Y-95687799D01*
X140278162Y-95315833D01*
X140136117Y-94972057D01*
X139873327Y-94708808D01*
X139529799Y-94566162D01*
X139157833Y-94565838D01*
X138814057Y-94707883D01*
X138550808Y-94970673D01*
X138408162Y-95314201D01*
X138407838Y-95686167D01*
X131387950Y-95686167D01*
X131388162Y-95442833D01*
X131246117Y-95099057D01*
X130983327Y-94835808D01*
X130639799Y-94693162D01*
X130267833Y-94692838D01*
X129924057Y-94834883D01*
X129660808Y-95097673D01*
X129518162Y-95441201D01*
X129517838Y-95813167D01*
X129623787Y-96069584D01*
X129515091Y-96331352D01*
X129514767Y-96703318D01*
X129597000Y-96902338D01*
X129518162Y-97092201D01*
X129517838Y-97464167D01*
X129659883Y-97807943D01*
X129765820Y-97914065D01*
X129533808Y-98145673D01*
X129391162Y-98489201D01*
X129390838Y-98861167D01*
X102710000Y-98861167D01*
X102710000Y-97972167D01*
X103228838Y-97972167D01*
X103370883Y-98315943D01*
X103633673Y-98579192D01*
X103977201Y-98721838D01*
X104349167Y-98722162D01*
X104692943Y-98580117D01*
X104956192Y-98317327D01*
X105098838Y-97973799D01*
X105099162Y-97601833D01*
X105042280Y-97464167D01*
X110848838Y-97464167D01*
X110990883Y-97807943D01*
X111253673Y-98071192D01*
X111597201Y-98213838D01*
X111969167Y-98214162D01*
X112312943Y-98072117D01*
X112576192Y-97809327D01*
X112718838Y-97465799D01*
X112719162Y-97093833D01*
X112663743Y-96959708D01*
X112703192Y-96920327D01*
X112845838Y-96576799D01*
X112846162Y-96204833D01*
X112704117Y-95861057D01*
X112441327Y-95597808D01*
X112097799Y-95455162D01*
X111725833Y-95454838D01*
X111382057Y-95596883D01*
X111118808Y-95859673D01*
X110976162Y-96203201D01*
X110975838Y-96575167D01*
X111031257Y-96709292D01*
X110991808Y-96748673D01*
X110849162Y-97092201D01*
X110848838Y-97464167D01*
X105042280Y-97464167D01*
X104957117Y-97258057D01*
X104694327Y-96994808D01*
X104350799Y-96852162D01*
X103978833Y-96851838D01*
X103635057Y-96993883D01*
X103371808Y-97256673D01*
X103229162Y-97600201D01*
X103228838Y-97972167D01*
X102710000Y-97972167D01*
X102710000Y-96448167D01*
X104625838Y-96448167D01*
X104767883Y-96791943D01*
X105030673Y-97055192D01*
X105374201Y-97197838D01*
X105746167Y-97198162D01*
X106089943Y-97056117D01*
X106353192Y-96793327D01*
X106495838Y-96449799D01*
X106496162Y-96077833D01*
X106354117Y-95734057D01*
X106091327Y-95470808D01*
X105747799Y-95328162D01*
X105375833Y-95327838D01*
X105032057Y-95469883D01*
X104768808Y-95732673D01*
X104626162Y-96076201D01*
X104625838Y-96448167D01*
X102710000Y-96448167D01*
X102710000Y-93400167D01*
X104625838Y-93400167D01*
X104767883Y-93743943D01*
X105030673Y-94007192D01*
X105374201Y-94149838D01*
X105746167Y-94150162D01*
X106024476Y-94035167D01*
X111610838Y-94035167D01*
X111752883Y-94378943D01*
X112015673Y-94642192D01*
X112359201Y-94784838D01*
X112731167Y-94785162D01*
X113074943Y-94643117D01*
X113338192Y-94380327D01*
X113480838Y-94036799D01*
X113481162Y-93664833D01*
X113445450Y-93578403D01*
X117441682Y-93578403D01*
X117659045Y-94104462D01*
X117442319Y-94626395D01*
X117441682Y-95356403D01*
X117659045Y-95882462D01*
X117442319Y-96404395D01*
X117441682Y-97134403D01*
X117720455Y-97809086D01*
X118236199Y-98325730D01*
X118910395Y-98605681D01*
X119640403Y-98606318D01*
X120166462Y-98388955D01*
X120688395Y-98605681D01*
X121418403Y-98606318D01*
X121944462Y-98388955D01*
X122466395Y-98605681D01*
X123196403Y-98606318D01*
X123871086Y-98327545D01*
X124387730Y-97811801D01*
X124667681Y-97137605D01*
X124668318Y-96407597D01*
X124450955Y-95881538D01*
X124667681Y-95359605D01*
X124668318Y-94629597D01*
X124450955Y-94103538D01*
X124667681Y-93581605D01*
X124668318Y-92851597D01*
X124389545Y-92176914D01*
X123873801Y-91660270D01*
X123199605Y-91380319D01*
X122469597Y-91379682D01*
X121943538Y-91597045D01*
X121421605Y-91380319D01*
X120691597Y-91379682D01*
X120165538Y-91597045D01*
X119643605Y-91380319D01*
X118913597Y-91379682D01*
X118238914Y-91658455D01*
X117722270Y-92174199D01*
X117442319Y-92848395D01*
X117441682Y-93578403D01*
X113445450Y-93578403D01*
X113339117Y-93321057D01*
X113076327Y-93057808D01*
X112732799Y-92915162D01*
X112360833Y-92914838D01*
X112017057Y-93056883D01*
X111753808Y-93319673D01*
X111611162Y-93663201D01*
X111610838Y-94035167D01*
X106024476Y-94035167D01*
X106089943Y-94008117D01*
X106353192Y-93745327D01*
X106495838Y-93401799D01*
X106496162Y-93029833D01*
X106354117Y-92686057D01*
X106091327Y-92422808D01*
X105747799Y-92280162D01*
X105375833Y-92279838D01*
X105032057Y-92421883D01*
X104768808Y-92684673D01*
X104626162Y-93028201D01*
X104625838Y-93400167D01*
X102710000Y-93400167D01*
X102710000Y-90733166D01*
X128628838Y-90733166D01*
X128770883Y-91076942D01*
X129033673Y-91340191D01*
X129377201Y-91482837D01*
X129579695Y-91483013D01*
X129518162Y-91631201D01*
X129517838Y-92003167D01*
X129659883Y-92346943D01*
X129829209Y-92516565D01*
X129660808Y-92684673D01*
X129518162Y-93028201D01*
X129517838Y-93400167D01*
X129659883Y-93743943D01*
X129922673Y-94007192D01*
X130266201Y-94149838D01*
X130638167Y-94150162D01*
X130981943Y-94008117D01*
X131245192Y-93745327D01*
X131283045Y-93654167D01*
X135486838Y-93654167D01*
X135628883Y-93997943D01*
X135891673Y-94261192D01*
X136235201Y-94403838D01*
X136530897Y-94404096D01*
X136530665Y-94670418D01*
X136672710Y-95014194D01*
X136935500Y-95277443D01*
X137279028Y-95420089D01*
X137650994Y-95420413D01*
X137994770Y-95278368D01*
X138258019Y-95015578D01*
X138400665Y-94672050D01*
X138400989Y-94300084D01*
X138258944Y-93956308D01*
X137996154Y-93693059D01*
X137652626Y-93550413D01*
X137356930Y-93550155D01*
X137357162Y-93283833D01*
X137215117Y-92940057D01*
X136952327Y-92676808D01*
X136608799Y-92534162D01*
X136236833Y-92533838D01*
X135893057Y-92675883D01*
X135629808Y-92938673D01*
X135487162Y-93282201D01*
X135486838Y-93654167D01*
X131283045Y-93654167D01*
X131387838Y-93401799D01*
X131388162Y-93029833D01*
X131246117Y-92686057D01*
X131076791Y-92516435D01*
X131245192Y-92348327D01*
X131387838Y-92004799D01*
X131388162Y-91632833D01*
X131246117Y-91289057D01*
X131198311Y-91241167D01*
X133073836Y-91241167D01*
X133215881Y-91584943D01*
X133478671Y-91848192D01*
X133822199Y-91990838D01*
X134194165Y-91991162D01*
X134537941Y-91849117D01*
X134801190Y-91586327D01*
X134891778Y-91368167D01*
X135740838Y-91368167D01*
X135882883Y-91711943D01*
X136145673Y-91975192D01*
X136489201Y-92117838D01*
X136861167Y-92118162D01*
X137204943Y-91976117D01*
X137468192Y-91713327D01*
X137610838Y-91369799D01*
X137611162Y-90997833D01*
X137469117Y-90654057D01*
X137206327Y-90390808D01*
X136862799Y-90248162D01*
X136490833Y-90247838D01*
X136147057Y-90389883D01*
X135883808Y-90652673D01*
X135741162Y-90996201D01*
X135740838Y-91368167D01*
X134891778Y-91368167D01*
X134943836Y-91242799D01*
X134944160Y-90870833D01*
X134802115Y-90527057D01*
X134539325Y-90263808D01*
X134195797Y-90121162D01*
X133823831Y-90120838D01*
X133480055Y-90262883D01*
X133216806Y-90525673D01*
X133074160Y-90869201D01*
X133073836Y-91241167D01*
X131198311Y-91241167D01*
X130983327Y-91025808D01*
X130853676Y-90971972D01*
X130858189Y-90970107D01*
X131121438Y-90707317D01*
X131264084Y-90363789D01*
X131264408Y-89991823D01*
X131122363Y-89648047D01*
X131100428Y-89626074D01*
X131120935Y-89576688D01*
X131121259Y-89204722D01*
X130979214Y-88860946D01*
X130716424Y-88597697D01*
X130694747Y-88588696D01*
X130752838Y-88448799D01*
X130753101Y-88146534D01*
X135080035Y-88146534D01*
X135222080Y-88490310D01*
X135484870Y-88753559D01*
X135828398Y-88896205D01*
X136200364Y-88896529D01*
X136544140Y-88754484D01*
X136659658Y-88639168D01*
X136630162Y-88710201D01*
X136629838Y-89082167D01*
X136771883Y-89425943D01*
X137034673Y-89689192D01*
X137378201Y-89831838D01*
X137750167Y-89832162D01*
X138093943Y-89690117D01*
X138357192Y-89427327D01*
X138499838Y-89083799D01*
X138500162Y-88711833D01*
X138358117Y-88368057D01*
X138095327Y-88104808D01*
X137751799Y-87962162D01*
X137379833Y-87961838D01*
X137036057Y-88103883D01*
X136920539Y-88219199D01*
X136950035Y-88148166D01*
X136950327Y-87812167D01*
X146027838Y-87812167D01*
X146169883Y-88155943D01*
X146402709Y-88389176D01*
X146170808Y-88620673D01*
X146028162Y-88964201D01*
X146027838Y-89336167D01*
X146169883Y-89679943D01*
X146432673Y-89943192D01*
X146749199Y-90074626D01*
X146551808Y-90271673D01*
X146409162Y-90615201D01*
X146408838Y-90987167D01*
X146550883Y-91330943D01*
X146813673Y-91594192D01*
X147157201Y-91736838D01*
X147529167Y-91737162D01*
X147843118Y-91607440D01*
X147955755Y-91720274D01*
X148299283Y-91862920D01*
X148671249Y-91863244D01*
X148675554Y-91861465D01*
X148639797Y-91897160D01*
X148497151Y-92240688D01*
X148496827Y-92612654D01*
X148638872Y-92956430D01*
X148901662Y-93219679D01*
X149245190Y-93362325D01*
X149617156Y-93362649D01*
X149960932Y-93220604D01*
X150224181Y-92957814D01*
X150251440Y-92892167D01*
X151488838Y-92892167D01*
X151630883Y-93235943D01*
X151893673Y-93499192D01*
X152237201Y-93641838D01*
X152609167Y-93642162D01*
X152952943Y-93500117D01*
X153216192Y-93237327D01*
X153358838Y-92893799D01*
X153359162Y-92521833D01*
X153217117Y-92178057D01*
X152954327Y-91914808D01*
X152610799Y-91772162D01*
X152238833Y-91771838D01*
X151895057Y-91913883D01*
X151631808Y-92176673D01*
X151489162Y-92520201D01*
X151488838Y-92892167D01*
X150251440Y-92892167D01*
X150366827Y-92614286D01*
X150367151Y-92242320D01*
X150225106Y-91898544D01*
X149962316Y-91635295D01*
X149618788Y-91492649D01*
X149246822Y-91492325D01*
X149242517Y-91494104D01*
X149253635Y-91483005D01*
X149434167Y-91483162D01*
X149777943Y-91341117D01*
X149890360Y-91228896D01*
X150196167Y-91229162D01*
X150539943Y-91087117D01*
X150803192Y-90824327D01*
X150945838Y-90480799D01*
X150946162Y-90108833D01*
X150804117Y-89765057D01*
X150541327Y-89501808D01*
X150197799Y-89359162D01*
X149825833Y-89358838D01*
X149482057Y-89500883D01*
X149369640Y-89613104D01*
X149063833Y-89612838D01*
X148720057Y-89754883D01*
X148481447Y-89993077D01*
X148300915Y-89992920D01*
X147986964Y-90122642D01*
X147874327Y-90009808D01*
X147557801Y-89878374D01*
X147755192Y-89681327D01*
X147897838Y-89337799D01*
X147898162Y-88965833D01*
X147756117Y-88622057D01*
X147523291Y-88388824D01*
X147755192Y-88157327D01*
X147897838Y-87813799D01*
X147898162Y-87441833D01*
X147756117Y-87098057D01*
X147493327Y-86834808D01*
X147149799Y-86692162D01*
X146777833Y-86691838D01*
X146434057Y-86833883D01*
X146170808Y-87096673D01*
X146028162Y-87440201D01*
X146027838Y-87812167D01*
X136950327Y-87812167D01*
X136950359Y-87776200D01*
X136808314Y-87432424D01*
X136545524Y-87169175D01*
X136201996Y-87026529D01*
X135830030Y-87026205D01*
X135486254Y-87168250D01*
X135223005Y-87431040D01*
X135080359Y-87774568D01*
X135080035Y-88146534D01*
X130753101Y-88146534D01*
X130753162Y-88076833D01*
X130611117Y-87733057D01*
X130348327Y-87469808D01*
X130004799Y-87327162D01*
X129632833Y-87326838D01*
X129289057Y-87468883D01*
X129025808Y-87731673D01*
X128883162Y-88075201D01*
X128882838Y-88447167D01*
X129024883Y-88790943D01*
X129287673Y-89054192D01*
X129309350Y-89063193D01*
X129251259Y-89203090D01*
X129250935Y-89575056D01*
X129282921Y-89652467D01*
X129035057Y-89754882D01*
X128771808Y-90017672D01*
X128629162Y-90361200D01*
X128628838Y-90733166D01*
X102710000Y-90733166D01*
X102710000Y-89971173D01*
X107800838Y-89971173D01*
X107942883Y-90314949D01*
X108205673Y-90578198D01*
X108549201Y-90720844D01*
X108921167Y-90721168D01*
X109264943Y-90579123D01*
X109528192Y-90316333D01*
X109664069Y-89989106D01*
X109772951Y-89944117D01*
X110036200Y-89681327D01*
X110178846Y-89337799D01*
X110179170Y-88965833D01*
X110037125Y-88622057D01*
X109774335Y-88358808D01*
X109430807Y-88216162D01*
X109058841Y-88215838D01*
X108715065Y-88357883D01*
X108451816Y-88620673D01*
X108315939Y-88947900D01*
X108207057Y-88992889D01*
X107943808Y-89255679D01*
X107801162Y-89599207D01*
X107800838Y-89971173D01*
X102710000Y-89971173D01*
X102710000Y-87177167D01*
X102720838Y-87177167D01*
X102862883Y-87520943D01*
X103125673Y-87784192D01*
X103469201Y-87926838D01*
X103841167Y-87927162D01*
X104184943Y-87785117D01*
X104448192Y-87522327D01*
X104590838Y-87178799D01*
X104591162Y-86806833D01*
X104449117Y-86463057D01*
X104186327Y-86199808D01*
X104093270Y-86161167D01*
X105514838Y-86161167D01*
X105656883Y-86504943D01*
X105919673Y-86768192D01*
X105954919Y-86782827D01*
X105923318Y-86814373D01*
X105780672Y-87157901D01*
X105780348Y-87529867D01*
X105922393Y-87873643D01*
X106185183Y-88136892D01*
X106528711Y-88279538D01*
X106900677Y-88279862D01*
X107244453Y-88137817D01*
X107443450Y-87939166D01*
X110721837Y-87939166D01*
X110855383Y-88262372D01*
X110722162Y-88583201D01*
X110721838Y-88955167D01*
X110863883Y-89298943D01*
X111126673Y-89562192D01*
X111470201Y-89704838D01*
X111842167Y-89705162D01*
X112185943Y-89563117D01*
X112449192Y-89300327D01*
X112591838Y-88956799D01*
X112592162Y-88584833D01*
X112458616Y-88261627D01*
X112591837Y-87940798D01*
X112592161Y-87568832D01*
X112450116Y-87225056D01*
X112187326Y-86961807D01*
X111843798Y-86819161D01*
X111471832Y-86818837D01*
X111128056Y-86960882D01*
X110864807Y-87223672D01*
X110722161Y-87567200D01*
X110721837Y-87939166D01*
X107443450Y-87939166D01*
X107507702Y-87875027D01*
X107650348Y-87531499D01*
X107650672Y-87159533D01*
X107508627Y-86815757D01*
X107245837Y-86552508D01*
X107210591Y-86537873D01*
X107242192Y-86506327D01*
X107384838Y-86162799D01*
X107385162Y-85790833D01*
X107383535Y-85786894D01*
X118084937Y-85786894D01*
X118226982Y-86130670D01*
X118489772Y-86393919D01*
X118833300Y-86536565D01*
X119205266Y-86536889D01*
X119549042Y-86394844D01*
X119812291Y-86132054D01*
X119822049Y-86108554D01*
X119880883Y-86250943D01*
X120143673Y-86514192D01*
X120487201Y-86656838D01*
X120859167Y-86657162D01*
X121202943Y-86515117D01*
X121466192Y-86252327D01*
X121608838Y-85908799D01*
X121608950Y-85780167D01*
X121897838Y-85780167D01*
X122039883Y-86123943D01*
X122302673Y-86387192D01*
X122646201Y-86529838D01*
X123018167Y-86530162D01*
X123361943Y-86388117D01*
X123625192Y-86125327D01*
X123767838Y-85781799D01*
X123767889Y-85723208D01*
X127360397Y-85723208D01*
X127502442Y-86066984D01*
X127765232Y-86330233D01*
X128108760Y-86472879D01*
X128480726Y-86473203D01*
X128628133Y-86412296D01*
X128649096Y-86433296D01*
X128992624Y-86575942D01*
X129364590Y-86576266D01*
X129708366Y-86434221D01*
X129971615Y-86171431D01*
X130114261Y-85827903D01*
X130114585Y-85455937D01*
X129986178Y-85145167D01*
X131422838Y-85145167D01*
X131564883Y-85488943D01*
X131827673Y-85752192D01*
X132171201Y-85894838D01*
X132543167Y-85895162D01*
X132820089Y-85780740D01*
X132819838Y-86069169D01*
X132961883Y-86412945D01*
X133224673Y-86676194D01*
X133568201Y-86818840D01*
X133940167Y-86819164D01*
X134283943Y-86677119D01*
X134547192Y-86414329D01*
X134689838Y-86070801D01*
X134689987Y-85899835D01*
X134797343Y-86007379D01*
X135140871Y-86150025D01*
X135307040Y-86150170D01*
X135529724Y-86373243D01*
X135873252Y-86515889D01*
X136245218Y-86516213D01*
X136588994Y-86374168D01*
X136852243Y-86111378D01*
X136994889Y-85767850D01*
X136995213Y-85395884D01*
X136853168Y-85052108D01*
X136590378Y-84788859D01*
X136246850Y-84646213D01*
X136080681Y-84646068D01*
X135857997Y-84422995D01*
X135514469Y-84280349D01*
X135142503Y-84280025D01*
X134798727Y-84422070D01*
X134535478Y-84684860D01*
X134392832Y-85028388D01*
X134392683Y-85199354D01*
X134285327Y-85091810D01*
X133941799Y-84949164D01*
X133569833Y-84948840D01*
X133292911Y-85063262D01*
X133293162Y-84774833D01*
X133151117Y-84431057D01*
X132888327Y-84167808D01*
X132544799Y-84025162D01*
X132172833Y-84024838D01*
X131829057Y-84166883D01*
X131565808Y-84429673D01*
X131423162Y-84773201D01*
X131422838Y-85145167D01*
X129986178Y-85145167D01*
X129972540Y-85112161D01*
X129709750Y-84848912D01*
X129366222Y-84706266D01*
X128994256Y-84705942D01*
X128846849Y-84766849D01*
X128825886Y-84745849D01*
X128482358Y-84603203D01*
X128110392Y-84602879D01*
X127766616Y-84744924D01*
X127503367Y-85007714D01*
X127360721Y-85351242D01*
X127360397Y-85723208D01*
X123767889Y-85723208D01*
X123768162Y-85409833D01*
X123626117Y-85066057D01*
X123363327Y-84802808D01*
X123019799Y-84660162D01*
X122647833Y-84659838D01*
X122304057Y-84801883D01*
X122040808Y-85064673D01*
X121898162Y-85408201D01*
X121897838Y-85780167D01*
X121608950Y-85780167D01*
X121609162Y-85536833D01*
X121467117Y-85193057D01*
X121204327Y-84929808D01*
X120860799Y-84787162D01*
X120488833Y-84786838D01*
X120145057Y-84928883D01*
X119881808Y-85191673D01*
X119872050Y-85215173D01*
X119813216Y-85072784D01*
X119550426Y-84809535D01*
X119206898Y-84666889D01*
X118834932Y-84666565D01*
X118491156Y-84808610D01*
X118227907Y-85071400D01*
X118085261Y-85414928D01*
X118084937Y-85786894D01*
X107383535Y-85786894D01*
X107243117Y-85447057D01*
X106980327Y-85183808D01*
X106636799Y-85041162D01*
X106264833Y-85040838D01*
X105921057Y-85182883D01*
X105657808Y-85445673D01*
X105515162Y-85789201D01*
X105514838Y-86161167D01*
X104093270Y-86161167D01*
X103842799Y-86057162D01*
X103470833Y-86056838D01*
X103127057Y-86198883D01*
X102863808Y-86461673D01*
X102721162Y-86805201D01*
X102720838Y-87177167D01*
X102710000Y-87177167D01*
X102710000Y-85887157D01*
X102914193Y-85887335D01*
X103257969Y-85745290D01*
X103468542Y-85535084D01*
X103723201Y-85640828D01*
X104095167Y-85641152D01*
X104438943Y-85499107D01*
X104702192Y-85236317D01*
X104844838Y-84892789D01*
X104845162Y-84520823D01*
X104703117Y-84177047D01*
X104440327Y-83913798D01*
X104096799Y-83771152D01*
X103724833Y-83770828D01*
X103381057Y-83912873D01*
X103170484Y-84123079D01*
X102915825Y-84017335D01*
X102710000Y-84017156D01*
X102710000Y-82986167D01*
X102720838Y-82986167D01*
X102862883Y-83329943D01*
X103125673Y-83593192D01*
X103469201Y-83735838D01*
X103841167Y-83736162D01*
X104184943Y-83594117D01*
X104412289Y-83367167D01*
X126850838Y-83367167D01*
X126992883Y-83710943D01*
X127255673Y-83974192D01*
X127599201Y-84116838D01*
X127971167Y-84117162D01*
X128314943Y-83975117D01*
X128415067Y-83875167D01*
X137645838Y-83875167D01*
X137787883Y-84218943D01*
X138050673Y-84482192D01*
X138394201Y-84624838D01*
X138668155Y-84625077D01*
X138606648Y-84773201D01*
X138606324Y-85145167D01*
X138748369Y-85488943D01*
X139011159Y-85752192D01*
X139354687Y-85894838D01*
X139726653Y-85895162D01*
X140070429Y-85753117D01*
X140333678Y-85490327D01*
X140476324Y-85146799D01*
X140476648Y-84774833D01*
X140334603Y-84431057D01*
X140071813Y-84167808D01*
X139728285Y-84025162D01*
X139454331Y-84024923D01*
X139477922Y-83968110D01*
X153395524Y-83968110D01*
X153516845Y-84198000D01*
X154710000Y-84198000D01*
X154710000Y-83004181D01*
X154964000Y-83004181D01*
X154964000Y-84198000D01*
X157250000Y-84198000D01*
X157250000Y-83004181D01*
X157504000Y-83004181D01*
X157504000Y-84198000D01*
X158697155Y-84198000D01*
X158818476Y-83968110D01*
X158648645Y-83558076D01*
X158258358Y-83129817D01*
X157733892Y-82883514D01*
X157504000Y-83004181D01*
X157250000Y-83004181D01*
X157020108Y-82883514D01*
X156495642Y-83129817D01*
X156107000Y-83556271D01*
X155718358Y-83129817D01*
X155193892Y-82883514D01*
X154964000Y-83004181D01*
X154710000Y-83004181D01*
X154480108Y-82883514D01*
X153955642Y-83129817D01*
X153565355Y-83558076D01*
X153395524Y-83968110D01*
X139477922Y-83968110D01*
X139515838Y-83876799D01*
X139516162Y-83504833D01*
X139374117Y-83161057D01*
X139111327Y-82897808D01*
X138767799Y-82755162D01*
X138395833Y-82754838D01*
X138052057Y-82896883D01*
X137788808Y-83159673D01*
X137646162Y-83503201D01*
X137645838Y-83875167D01*
X128415067Y-83875167D01*
X128578192Y-83712327D01*
X128720838Y-83368799D01*
X128721162Y-82996833D01*
X128579117Y-82653057D01*
X128316327Y-82389808D01*
X127972799Y-82247162D01*
X127600833Y-82246838D01*
X127257057Y-82388883D01*
X126993808Y-82651673D01*
X126851162Y-82995201D01*
X126850838Y-83367167D01*
X104412289Y-83367167D01*
X104448192Y-83331327D01*
X104590838Y-82987799D01*
X104591162Y-82615833D01*
X104534280Y-82478167D01*
X110086838Y-82478167D01*
X110228883Y-82821943D01*
X110491673Y-83085192D01*
X110835201Y-83227838D01*
X111207167Y-83228162D01*
X111550943Y-83086117D01*
X111814192Y-82823327D01*
X111956838Y-82479799D01*
X111957162Y-82107833D01*
X111815117Y-81764057D01*
X111552327Y-81500808D01*
X111208799Y-81358162D01*
X110836833Y-81357838D01*
X110493057Y-81499883D01*
X110229808Y-81762673D01*
X110087162Y-82106201D01*
X110086838Y-82478167D01*
X104534280Y-82478167D01*
X104449117Y-82272057D01*
X104186327Y-82008808D01*
X103842799Y-81866162D01*
X103470833Y-81865838D01*
X103127057Y-82007883D01*
X102863808Y-82270673D01*
X102721162Y-82614201D01*
X102720838Y-82986167D01*
X102710000Y-82986167D01*
X102710000Y-80827167D01*
X102720838Y-80827167D01*
X102862883Y-81170943D01*
X103125673Y-81434192D01*
X103469201Y-81576838D01*
X103841167Y-81577162D01*
X104184943Y-81435117D01*
X104448192Y-81172327D01*
X104590838Y-80828799D01*
X104591060Y-80573167D01*
X112372838Y-80573167D01*
X112514883Y-80916943D01*
X112777673Y-81180192D01*
X113121201Y-81322838D01*
X113493167Y-81323162D01*
X113836943Y-81181117D01*
X114070176Y-80948291D01*
X114301673Y-81180192D01*
X114645201Y-81322838D01*
X115017167Y-81323162D01*
X115360943Y-81181117D01*
X115588289Y-80954167D01*
X121389838Y-80954167D01*
X121531883Y-81297943D01*
X121794673Y-81561192D01*
X122138201Y-81703838D01*
X122510167Y-81704162D01*
X122853943Y-81562117D01*
X123117192Y-81299327D01*
X123259838Y-80955799D01*
X123260162Y-80583833D01*
X123118117Y-80240057D01*
X122855327Y-79976808D01*
X122511799Y-79834162D01*
X122139833Y-79833838D01*
X121796057Y-79975883D01*
X121532808Y-80238673D01*
X121390162Y-80582201D01*
X121389838Y-80954167D01*
X115588289Y-80954167D01*
X115624192Y-80918327D01*
X115766838Y-80574799D01*
X115767162Y-80202833D01*
X115625117Y-79859057D01*
X115362327Y-79595808D01*
X115018799Y-79453162D01*
X114646833Y-79452838D01*
X114303057Y-79594883D01*
X114069824Y-79827709D01*
X113838327Y-79595808D01*
X113494799Y-79453162D01*
X113122833Y-79452838D01*
X112779057Y-79594883D01*
X112515808Y-79857673D01*
X112373162Y-80201201D01*
X112372838Y-80573167D01*
X104591060Y-80573167D01*
X104591162Y-80456833D01*
X104449117Y-80113057D01*
X104186327Y-79849808D01*
X103842799Y-79707162D01*
X103470833Y-79706838D01*
X103127057Y-79848883D01*
X102863808Y-80111673D01*
X102721162Y-80455201D01*
X102720838Y-80827167D01*
X102710000Y-80827167D01*
X102710000Y-79176167D01*
X109832838Y-79176167D01*
X109974883Y-79519943D01*
X110237673Y-79783192D01*
X110581201Y-79925838D01*
X110953167Y-79926162D01*
X111296943Y-79784117D01*
X111560192Y-79521327D01*
X111702838Y-79177799D01*
X111703162Y-78805833D01*
X111561117Y-78462057D01*
X111298327Y-78198808D01*
X111205270Y-78160167D01*
X116817838Y-78160167D01*
X116959883Y-78503943D01*
X117222673Y-78767192D01*
X117566201Y-78909838D01*
X117938167Y-78910162D01*
X118281943Y-78768117D01*
X118545192Y-78505327D01*
X118687838Y-78161799D01*
X118687950Y-78033167D01*
X119992838Y-78033167D01*
X120134883Y-78376943D01*
X120397673Y-78640192D01*
X120741201Y-78782838D01*
X121113167Y-78783162D01*
X121391476Y-78668167D01*
X122024838Y-78668167D01*
X122166883Y-79011943D01*
X122429673Y-79275192D01*
X122773201Y-79417838D01*
X123145167Y-79418162D01*
X123488943Y-79276117D01*
X123716289Y-79049167D01*
X126442829Y-79049167D01*
X126584874Y-79392943D01*
X126847664Y-79656192D01*
X127191192Y-79798838D01*
X127306867Y-79798939D01*
X127120808Y-79984673D01*
X126978162Y-80328201D01*
X126977838Y-80700167D01*
X127119883Y-81043943D01*
X127382673Y-81307192D01*
X127716643Y-81445869D01*
X127716583Y-81515208D01*
X127858628Y-81858984D01*
X128121418Y-82122233D01*
X128464946Y-82264879D01*
X128836912Y-82265203D01*
X129180688Y-82123158D01*
X129239708Y-82064240D01*
X129371430Y-82196192D01*
X129714958Y-82338838D01*
X130086924Y-82339162D01*
X130430700Y-82197117D01*
X130693949Y-81934327D01*
X130836595Y-81590799D01*
X130836919Y-81218833D01*
X130694874Y-80875057D01*
X130432084Y-80611808D01*
X130220402Y-80523910D01*
X130103117Y-80240057D01*
X130055311Y-80192167D01*
X134216838Y-80192167D01*
X134358883Y-80535943D01*
X134621673Y-80799192D01*
X134965201Y-80941838D01*
X135337167Y-80942162D01*
X135680943Y-80800117D01*
X135944192Y-80537327D01*
X136086838Y-80193799D01*
X136087162Y-79821833D01*
X135945117Y-79478057D01*
X135682327Y-79214808D01*
X135338799Y-79072162D01*
X134966833Y-79071838D01*
X134623057Y-79213883D01*
X134359808Y-79476673D01*
X134217162Y-79820201D01*
X134216838Y-80192167D01*
X130055311Y-80192167D01*
X129840327Y-79976808D01*
X129496799Y-79834162D01*
X129124833Y-79833838D01*
X128781057Y-79975883D01*
X128725025Y-80031817D01*
X128706117Y-79986057D01*
X128443327Y-79722808D01*
X128099799Y-79580162D01*
X127984124Y-79580061D01*
X128170183Y-79394327D01*
X128312829Y-79050799D01*
X128313153Y-78678833D01*
X128171108Y-78335057D01*
X127908318Y-78071808D01*
X127564790Y-77929162D01*
X127192824Y-77928838D01*
X126849048Y-78070883D01*
X126585799Y-78333673D01*
X126443153Y-78677201D01*
X126442829Y-79049167D01*
X123716289Y-79049167D01*
X123752192Y-79013327D01*
X123894838Y-78669799D01*
X123895162Y-78297833D01*
X123753117Y-77954057D01*
X123578532Y-77779167D01*
X138280838Y-77779167D01*
X138422883Y-78122943D01*
X138685673Y-78386192D01*
X139029201Y-78528838D01*
X139401167Y-78529162D01*
X139744943Y-78387117D01*
X140008192Y-78124327D01*
X140150838Y-77780799D01*
X140151162Y-77408833D01*
X140009117Y-77065057D01*
X139746327Y-76801808D01*
X139402799Y-76659162D01*
X139030833Y-76658838D01*
X138687057Y-76800883D01*
X138423808Y-77063673D01*
X138281162Y-77407201D01*
X138280838Y-77779167D01*
X123578532Y-77779167D01*
X123490327Y-77690808D01*
X123146799Y-77548162D01*
X122774833Y-77547838D01*
X122431057Y-77689883D01*
X122167808Y-77952673D01*
X122025162Y-78296201D01*
X122024838Y-78668167D01*
X121391476Y-78668167D01*
X121456943Y-78641117D01*
X121720192Y-78378327D01*
X121862838Y-78034799D01*
X121863162Y-77662833D01*
X121721117Y-77319057D01*
X121458327Y-77055808D01*
X121114799Y-76913162D01*
X120742833Y-76912838D01*
X120399057Y-77054883D01*
X120135808Y-77317673D01*
X119993162Y-77661201D01*
X119992838Y-78033167D01*
X118687950Y-78033167D01*
X118688162Y-77789833D01*
X118546117Y-77446057D01*
X118283327Y-77182808D01*
X117939799Y-77040162D01*
X117567833Y-77039838D01*
X117224057Y-77181883D01*
X116960808Y-77444673D01*
X116818162Y-77788201D01*
X116817838Y-78160167D01*
X111205270Y-78160167D01*
X110954799Y-78056162D01*
X110582833Y-78055838D01*
X110239057Y-78197883D01*
X109975808Y-78460673D01*
X109833162Y-78804201D01*
X109832838Y-79176167D01*
X102710000Y-79176167D01*
X102710000Y-78732237D01*
X102871673Y-78894192D01*
X103215201Y-79036838D01*
X103587167Y-79037162D01*
X103930943Y-78895117D01*
X104194192Y-78632327D01*
X104336838Y-78288799D01*
X104337162Y-77916833D01*
X104312281Y-77856616D01*
X104325711Y-77843210D01*
X104468357Y-77499682D01*
X104468681Y-77127716D01*
X104398536Y-76957952D01*
X104498879Y-76716301D01*
X104498838Y-76763167D01*
X104579778Y-76959057D01*
X104499162Y-77153201D01*
X104498838Y-77525167D01*
X104579778Y-77721057D01*
X104499162Y-77915201D01*
X104498838Y-78287167D01*
X104640883Y-78630943D01*
X104903673Y-78894192D01*
X105247201Y-79036838D01*
X105619167Y-79037162D01*
X105962943Y-78895117D01*
X106226192Y-78632327D01*
X106368838Y-78288799D01*
X106369162Y-77916833D01*
X106288222Y-77720943D01*
X106368838Y-77526799D01*
X106369162Y-77154833D01*
X106288222Y-76958943D01*
X106368838Y-76764799D01*
X106368839Y-76763167D01*
X122913838Y-76763167D01*
X123055883Y-77106943D01*
X123318673Y-77370192D01*
X123662201Y-77512838D01*
X124034167Y-77513162D01*
X124377943Y-77371117D01*
X124641192Y-77108327D01*
X124783838Y-76764799D01*
X124784162Y-76392833D01*
X124674805Y-76128167D01*
X145646838Y-76128167D01*
X145788883Y-76471943D01*
X146051673Y-76735192D01*
X146395201Y-76877838D01*
X146767167Y-76878162D01*
X146991206Y-76785591D01*
X147067673Y-76862192D01*
X147411201Y-77004838D01*
X147783167Y-77005162D01*
X148069764Y-76886743D01*
X148253157Y-76962895D01*
X148625123Y-76963219D01*
X148968899Y-76821174D01*
X149154229Y-76636167D01*
X154028838Y-76636167D01*
X154170883Y-76979943D01*
X154433673Y-77243192D01*
X154777201Y-77385838D01*
X155149167Y-77386162D01*
X155492943Y-77244117D01*
X155756192Y-76981327D01*
X155898838Y-76637799D01*
X155899162Y-76265833D01*
X155757117Y-75922057D01*
X155494327Y-75658808D01*
X155150799Y-75516162D01*
X154778833Y-75515838D01*
X154435057Y-75657883D01*
X154171808Y-75920673D01*
X154029162Y-76264201D01*
X154028838Y-76636167D01*
X149154229Y-76636167D01*
X149232148Y-76558384D01*
X149336297Y-76307567D01*
X149512906Y-76234594D01*
X149776155Y-75971804D01*
X149918801Y-75628276D01*
X149919125Y-75256310D01*
X149777080Y-74912534D01*
X149514290Y-74649285D01*
X149170762Y-74506639D01*
X148798796Y-74506315D01*
X148455020Y-74648360D01*
X148191771Y-74911150D01*
X148087622Y-75161967D01*
X147968192Y-75211314D01*
X147784799Y-75135162D01*
X147412833Y-75134838D01*
X147188794Y-75227409D01*
X147112327Y-75150808D01*
X146768799Y-75008162D01*
X146396833Y-75007838D01*
X146053057Y-75149883D01*
X145789808Y-75412673D01*
X145647162Y-75756201D01*
X145646838Y-76128167D01*
X124674805Y-76128167D01*
X124642117Y-76049057D01*
X124379327Y-75785808D01*
X124035799Y-75643162D01*
X123663833Y-75642838D01*
X123320057Y-75784883D01*
X123056808Y-76047673D01*
X122914162Y-76391201D01*
X122913838Y-76763167D01*
X106368839Y-76763167D01*
X106369162Y-76392833D01*
X106227117Y-76049057D01*
X105964327Y-75785808D01*
X105620799Y-75643162D01*
X105248833Y-75642838D01*
X104905057Y-75784883D01*
X104641808Y-76047673D01*
X104531759Y-76312699D01*
X104531800Y-76265833D01*
X104389755Y-75922057D01*
X104126965Y-75658808D01*
X103783437Y-75516162D01*
X103411471Y-75515838D01*
X103067695Y-75657883D01*
X102804446Y-75920673D01*
X102710000Y-76148123D01*
X102710000Y-71500000D01*
X103290000Y-71500000D01*
X103458226Y-72345730D01*
X103937294Y-73062706D01*
X104654270Y-73541774D01*
X105500000Y-73710000D01*
X106345730Y-73541774D01*
X107062706Y-73062706D01*
X107541774Y-72345730D01*
X107626854Y-71918000D01*
X108889560Y-71918000D01*
X108889560Y-73618000D01*
X108933838Y-73853317D01*
X109072910Y-74069441D01*
X109285110Y-74214431D01*
X109537000Y-74265440D01*
X111237000Y-74265440D01*
X111472317Y-74221162D01*
X111688441Y-74082090D01*
X111833431Y-73869890D01*
X111847086Y-73802459D01*
X111876946Y-73847147D01*
X112358715Y-74169054D01*
X112927000Y-74282093D01*
X113495285Y-74169054D01*
X113977054Y-73847147D01*
X114197000Y-73517974D01*
X114416946Y-73847147D01*
X114898715Y-74169054D01*
X115467000Y-74282093D01*
X116035285Y-74169054D01*
X116517054Y-73847147D01*
X116737000Y-73517974D01*
X116956946Y-73847147D01*
X117438715Y-74169054D01*
X118007000Y-74282093D01*
X118575285Y-74169054D01*
X119057054Y-73847147D01*
X119277000Y-73517974D01*
X119496946Y-73847147D01*
X119978715Y-74169054D01*
X120547000Y-74282093D01*
X121115285Y-74169054D01*
X121597054Y-73847147D01*
X121817000Y-73517974D01*
X122036946Y-73847147D01*
X122518715Y-74169054D01*
X123087000Y-74282093D01*
X123655285Y-74169054D01*
X124137054Y-73847147D01*
X124357000Y-73517974D01*
X124576946Y-73847147D01*
X125058715Y-74169054D01*
X125627000Y-74282093D01*
X126195285Y-74169054D01*
X126677054Y-73847147D01*
X126897000Y-73517974D01*
X127116946Y-73847147D01*
X127598715Y-74169054D01*
X128167000Y-74282093D01*
X128735285Y-74169054D01*
X129217054Y-73847147D01*
X129437000Y-73517974D01*
X129656946Y-73847147D01*
X130138715Y-74169054D01*
X130707000Y-74282093D01*
X131275285Y-74169054D01*
X131757054Y-73847147D01*
X131977000Y-73517974D01*
X132196946Y-73847147D01*
X132678715Y-74169054D01*
X133247000Y-74282093D01*
X133815285Y-74169054D01*
X134297054Y-73847147D01*
X134517000Y-73517974D01*
X134736946Y-73847147D01*
X135218715Y-74169054D01*
X135787000Y-74282093D01*
X136355285Y-74169054D01*
X136837054Y-73847147D01*
X137057000Y-73517974D01*
X137276946Y-73847147D01*
X137758715Y-74169054D01*
X138327000Y-74282093D01*
X138895285Y-74169054D01*
X139377054Y-73847147D01*
X139597000Y-73517974D01*
X139816946Y-73847147D01*
X140298715Y-74169054D01*
X140867000Y-74282093D01*
X141435285Y-74169054D01*
X141917054Y-73847147D01*
X142137000Y-73517974D01*
X142356946Y-73847147D01*
X142838715Y-74169054D01*
X143407000Y-74282093D01*
X143975285Y-74169054D01*
X144457054Y-73847147D01*
X144677000Y-73517974D01*
X144896946Y-73847147D01*
X145378715Y-74169054D01*
X145947000Y-74282093D01*
X146515285Y-74169054D01*
X146997054Y-73847147D01*
X147217000Y-73517974D01*
X147436946Y-73847147D01*
X147918715Y-74169054D01*
X148487000Y-74282093D01*
X149055285Y-74169054D01*
X149537054Y-73847147D01*
X149757000Y-73517974D01*
X149976946Y-73847147D01*
X150458715Y-74169054D01*
X151027000Y-74282093D01*
X151595285Y-74169054D01*
X152077054Y-73847147D01*
X152297000Y-73517974D01*
X152516946Y-73847147D01*
X152998715Y-74169054D01*
X153567000Y-74282093D01*
X154135285Y-74169054D01*
X154617054Y-73847147D01*
X154837000Y-73517974D01*
X155056946Y-73847147D01*
X155538715Y-74169054D01*
X156107000Y-74282093D01*
X156675285Y-74169054D01*
X157157054Y-73847147D01*
X157377000Y-73517974D01*
X157596946Y-73847147D01*
X158078715Y-74169054D01*
X158647000Y-74282093D01*
X159215285Y-74169054D01*
X159697054Y-73847147D01*
X160018961Y-73365378D01*
X160132000Y-72797093D01*
X160132000Y-72738907D01*
X160018961Y-72170622D01*
X159697054Y-71688853D01*
X159414416Y-71500000D01*
X161290000Y-71500000D01*
X161458226Y-72345730D01*
X161937294Y-73062706D01*
X162654270Y-73541774D01*
X163500000Y-73710000D01*
X164345730Y-73541774D01*
X165062706Y-73062706D01*
X165541774Y-72345730D01*
X165710000Y-71500000D01*
X165541774Y-70654270D01*
X165062706Y-69937294D01*
X164345730Y-69458226D01*
X163500000Y-69290000D01*
X162654270Y-69458226D01*
X161937294Y-69937294D01*
X161458226Y-70654270D01*
X161290000Y-71500000D01*
X159414416Y-71500000D01*
X159411422Y-71498000D01*
X159697054Y-71307147D01*
X160018961Y-70825378D01*
X160132000Y-70257093D01*
X160132000Y-70198907D01*
X160018961Y-69630622D01*
X159697054Y-69148853D01*
X159215285Y-68826946D01*
X158647000Y-68713907D01*
X158078715Y-68826946D01*
X157596946Y-69148853D01*
X157377000Y-69478026D01*
X157157054Y-69148853D01*
X156675285Y-68826946D01*
X156107000Y-68713907D01*
X155538715Y-68826946D01*
X155056946Y-69148853D01*
X154837000Y-69478026D01*
X154617054Y-69148853D01*
X154135285Y-68826946D01*
X153567000Y-68713907D01*
X152998715Y-68826946D01*
X152516946Y-69148853D01*
X152297000Y-69478026D01*
X152077054Y-69148853D01*
X151595285Y-68826946D01*
X151027000Y-68713907D01*
X150458715Y-68826946D01*
X149976946Y-69148853D01*
X149757000Y-69478026D01*
X149537054Y-69148853D01*
X149055285Y-68826946D01*
X148487000Y-68713907D01*
X147918715Y-68826946D01*
X147436946Y-69148853D01*
X147217000Y-69478026D01*
X146997054Y-69148853D01*
X146515285Y-68826946D01*
X145947000Y-68713907D01*
X145378715Y-68826946D01*
X144896946Y-69148853D01*
X144677000Y-69478026D01*
X144457054Y-69148853D01*
X143975285Y-68826946D01*
X143407000Y-68713907D01*
X142838715Y-68826946D01*
X142356946Y-69148853D01*
X142137000Y-69478026D01*
X141917054Y-69148853D01*
X141435285Y-68826946D01*
X140867000Y-68713907D01*
X140298715Y-68826946D01*
X139816946Y-69148853D01*
X139597000Y-69478026D01*
X139377054Y-69148853D01*
X138895285Y-68826946D01*
X138327000Y-68713907D01*
X137758715Y-68826946D01*
X137276946Y-69148853D01*
X137057000Y-69478026D01*
X136837054Y-69148853D01*
X136355285Y-68826946D01*
X135787000Y-68713907D01*
X135218715Y-68826946D01*
X134736946Y-69148853D01*
X134517000Y-69478026D01*
X134297054Y-69148853D01*
X133815285Y-68826946D01*
X133247000Y-68713907D01*
X132678715Y-68826946D01*
X132196946Y-69148853D01*
X131977000Y-69478026D01*
X131757054Y-69148853D01*
X131275285Y-68826946D01*
X130707000Y-68713907D01*
X130138715Y-68826946D01*
X129656946Y-69148853D01*
X129437000Y-69478026D01*
X129217054Y-69148853D01*
X128735285Y-68826946D01*
X128167000Y-68713907D01*
X127598715Y-68826946D01*
X127116946Y-69148853D01*
X126897000Y-69478026D01*
X126677054Y-69148853D01*
X126195285Y-68826946D01*
X125627000Y-68713907D01*
X125058715Y-68826946D01*
X124576946Y-69148853D01*
X124357000Y-69478026D01*
X124137054Y-69148853D01*
X123655285Y-68826946D01*
X123087000Y-68713907D01*
X122518715Y-68826946D01*
X122036946Y-69148853D01*
X121817000Y-69478026D01*
X121597054Y-69148853D01*
X121115285Y-68826946D01*
X120547000Y-68713907D01*
X119978715Y-68826946D01*
X119496946Y-69148853D01*
X119277000Y-69478026D01*
X119057054Y-69148853D01*
X118575285Y-68826946D01*
X118007000Y-68713907D01*
X117438715Y-68826946D01*
X116956946Y-69148853D01*
X116737000Y-69478026D01*
X116517054Y-69148853D01*
X116035285Y-68826946D01*
X115467000Y-68713907D01*
X114898715Y-68826946D01*
X114416946Y-69148853D01*
X114197000Y-69478026D01*
X113977054Y-69148853D01*
X113495285Y-68826946D01*
X112927000Y-68713907D01*
X112358715Y-68826946D01*
X111876946Y-69148853D01*
X111657000Y-69478026D01*
X111437054Y-69148853D01*
X110955285Y-68826946D01*
X110387000Y-68713907D01*
X109818715Y-68826946D01*
X109336946Y-69148853D01*
X109015039Y-69630622D01*
X108902000Y-70198907D01*
X108902000Y-70257093D01*
X109015039Y-70825378D01*
X109336946Y-71307147D01*
X109338179Y-71307971D01*
X109301683Y-71314838D01*
X109085559Y-71453910D01*
X108940569Y-71666110D01*
X108889560Y-71918000D01*
X107626854Y-71918000D01*
X107710000Y-71500000D01*
X107541774Y-70654270D01*
X107062706Y-69937294D01*
X106345730Y-69458226D01*
X105500000Y-69290000D01*
X104654270Y-69458226D01*
X103937294Y-69937294D01*
X103458226Y-70654270D01*
X103290000Y-71500000D01*
X102710000Y-71500000D01*
X102710000Y-71069931D01*
X102897167Y-70128977D01*
X103390561Y-69390561D01*
X104128977Y-68897167D01*
X105069931Y-68710000D01*
X166373000Y-68710000D01*
X166373000Y-88357608D01*
X166373000Y-88357608D01*
G37*
X166373000Y-88357608D02*
X166300308Y-88430173D01*
X166204621Y-88660611D01*
X165891333Y-88660338D01*
X165759100Y-88714976D01*
X165628299Y-88660662D01*
X165256333Y-88660338D01*
X165124100Y-88714976D01*
X164993299Y-88660662D01*
X164621333Y-88660338D01*
X164489100Y-88714976D01*
X164358299Y-88660662D01*
X163986333Y-88660338D01*
X163854100Y-88714976D01*
X163723299Y-88660662D01*
X163351333Y-88660338D01*
X163219100Y-88714976D01*
X163088299Y-88660662D01*
X162716333Y-88660338D01*
X162584100Y-88714976D01*
X162453299Y-88660662D01*
X162081333Y-88660338D01*
X161949100Y-88714976D01*
X161818299Y-88660662D01*
X161446333Y-88660338D01*
X161314100Y-88714976D01*
X161183299Y-88660662D01*
X160811333Y-88660338D01*
X160679100Y-88714976D01*
X160548299Y-88660662D01*
X160176333Y-88660338D01*
X160044100Y-88714976D01*
X159913299Y-88660662D01*
X159541333Y-88660338D01*
X159197557Y-88802383D01*
X158934308Y-89065173D01*
X158874440Y-89209350D01*
X158874440Y-88555000D01*
X158830162Y-88319683D01*
X158691090Y-88103559D01*
X158478890Y-87958569D01*
X158411459Y-87944914D01*
X158456147Y-87915054D01*
X158778054Y-87433285D01*
X158891093Y-86865000D01*
X158778054Y-86296715D01*
X158456147Y-85814946D01*
X158115447Y-85587298D01*
X158258358Y-85520183D01*
X158648645Y-85091924D01*
X158818476Y-84681890D01*
X158697155Y-84452000D01*
X157504000Y-84452000D01*
X157504000Y-84472000D01*
X157250000Y-84472000D01*
X157250000Y-84452000D01*
X154964000Y-84452000D01*
X154964000Y-84472000D01*
X154710000Y-84472000D01*
X154710000Y-84452000D01*
X153516845Y-84452000D01*
X153395524Y-84681890D01*
X153565355Y-85091924D01*
X153955642Y-85520183D01*
X154098553Y-85587298D01*
X153757853Y-85814946D01*
X153435946Y-86296715D01*
X153322907Y-86865000D01*
X153435946Y-87433285D01*
X153757853Y-87915054D01*
X154087026Y-88135000D01*
X153757853Y-88354946D01*
X153435946Y-88836715D01*
X153322907Y-89405000D01*
X153435946Y-89973285D01*
X153459591Y-90008672D01*
X153118799Y-89867162D01*
X152746833Y-89866838D01*
X152522794Y-89959409D01*
X152446327Y-89882808D01*
X152102799Y-89740162D01*
X151730833Y-89739838D01*
X151387057Y-89881883D01*
X151123808Y-90144673D01*
X150981162Y-90488201D01*
X150980838Y-90860167D01*
X151122883Y-91203943D01*
X151385673Y-91467192D01*
X151729201Y-91609838D01*
X152101167Y-91610162D01*
X152325206Y-91517591D01*
X152401673Y-91594192D01*
X152745201Y-91736838D01*
X153117167Y-91737162D01*
X153460943Y-91595117D01*
X153724192Y-91332327D01*
X153866838Y-90988799D01*
X153867162Y-90616833D01*
X153816511Y-90494248D01*
X154239622Y-90776961D01*
X154807907Y-90890000D01*
X154866093Y-90890000D01*
X155434378Y-90776961D01*
X155916147Y-90455054D01*
X155916971Y-90453821D01*
X155923838Y-90490317D01*
X156062910Y-90706441D01*
X156275110Y-90851431D01*
X156527000Y-90902440D01*
X158227000Y-90902440D01*
X158462317Y-90858162D01*
X158678441Y-90719090D01*
X158823431Y-90506890D01*
X158825273Y-90497795D01*
X158845976Y-90547900D01*
X158791662Y-90678701D01*
X158791338Y-91050667D01*
X158859127Y-91214729D01*
X158791662Y-91377201D01*
X158791338Y-91749167D01*
X158933383Y-92092943D01*
X159196173Y-92356192D01*
X159539701Y-92498838D01*
X159911667Y-92499162D01*
X160043900Y-92444524D01*
X160174701Y-92498838D01*
X160546667Y-92499162D01*
X160678900Y-92444524D01*
X160809701Y-92498838D01*
X161181667Y-92499162D01*
X161313900Y-92444524D01*
X161444701Y-92498838D01*
X161816667Y-92499162D01*
X161948900Y-92444524D01*
X162079701Y-92498838D01*
X162451667Y-92499162D01*
X162583900Y-92444524D01*
X162714701Y-92498838D01*
X163086667Y-92499162D01*
X163218900Y-92444524D01*
X163349701Y-92498838D01*
X163721667Y-92499162D01*
X163853900Y-92444524D01*
X163984701Y-92498838D01*
X164356667Y-92499162D01*
X164488900Y-92444524D01*
X164619701Y-92498838D01*
X164991667Y-92499162D01*
X165123900Y-92444524D01*
X165254701Y-92498838D01*
X165626667Y-92499162D01*
X165758900Y-92444524D01*
X165889701Y-92498838D01*
X166261667Y-92499162D01*
X166373000Y-92453160D01*
X166373000Y-99406710D01*
X163321724Y-102457986D01*
X163278799Y-102440162D01*
X162906833Y-102439838D01*
X162774600Y-102494476D01*
X162643799Y-102440162D01*
X162271833Y-102439838D01*
X162139600Y-102494476D01*
X162008799Y-102440162D01*
X161636833Y-102439838D01*
X161504600Y-102494476D01*
X161373799Y-102440162D01*
X161001833Y-102439838D01*
X160869600Y-102494476D01*
X160738799Y-102440162D01*
X160366833Y-102439838D01*
X160023057Y-102581883D01*
X159759808Y-102844673D01*
X159617162Y-103188201D01*
X159616838Y-103560167D01*
X159724080Y-103819714D01*
X159617162Y-104077201D01*
X159616838Y-104449167D01*
X159757471Y-104789526D01*
X159541333Y-104789338D01*
X159197557Y-104931383D01*
X158934308Y-105194173D01*
X158791662Y-105537701D01*
X158791338Y-105909667D01*
X158933383Y-106253443D01*
X159196173Y-106516692D01*
X159235848Y-106533167D01*
X159235838Y-106544667D01*
X159377883Y-106888443D01*
X159640673Y-107151692D01*
X159769615Y-107205234D01*
X159822383Y-107332943D01*
X160085173Y-107596192D01*
X160214115Y-107649734D01*
X160266883Y-107777443D01*
X160529673Y-108040692D01*
X160703594Y-108112911D01*
X160774883Y-108285443D01*
X161037673Y-108548692D01*
X161243266Y-108634062D01*
X161282883Y-108729943D01*
X161545673Y-108993192D01*
X161889201Y-109135838D01*
X162261167Y-109136162D01*
X162393400Y-109081524D01*
X162524201Y-109135838D01*
X162896167Y-109136162D01*
X163028400Y-109081524D01*
X163159201Y-109135838D01*
X163531167Y-109136162D01*
X163663400Y-109081524D01*
X163794201Y-109135838D01*
X164166167Y-109136162D01*
X164298400Y-109081524D01*
X164429201Y-109135838D01*
X164801167Y-109136162D01*
X164933400Y-109081524D01*
X165064201Y-109135838D01*
X165436167Y-109136162D01*
X165568400Y-109081524D01*
X165699201Y-109135838D01*
X166071167Y-109136162D01*
X166203400Y-109081524D01*
X166334201Y-109135838D01*
X166373000Y-109135872D01*
X166373000Y-123290000D01*
X154247911Y-123290000D01*
X154248162Y-123001833D01*
X154106117Y-122658057D01*
X153843327Y-122394808D01*
X153499799Y-122252162D01*
X153127833Y-122251838D01*
X152784057Y-122393883D01*
X152520808Y-122656673D01*
X152378162Y-123000201D01*
X152377910Y-123290000D01*
X151199911Y-123290000D01*
X151200162Y-123001833D01*
X151058117Y-122658057D01*
X150795327Y-122394808D01*
X150451799Y-122252162D01*
X150079833Y-122251838D01*
X149736057Y-122393883D01*
X149472808Y-122656673D01*
X149330162Y-123000201D01*
X149329910Y-123290000D01*
X148405911Y-123290000D01*
X148406162Y-123001833D01*
X148264117Y-122658057D01*
X148001327Y-122394808D01*
X147657799Y-122252162D01*
X147285833Y-122251838D01*
X146942057Y-122393883D01*
X146678808Y-122656673D01*
X146536162Y-123000201D01*
X146535910Y-123290000D01*
X140912911Y-123290000D01*
X140913162Y-123001833D01*
X140771117Y-122658057D01*
X140508327Y-122394808D01*
X140164799Y-122252162D01*
X139792833Y-122251838D01*
X139449057Y-122393883D01*
X139185808Y-122656673D01*
X139043162Y-123000201D01*
X139042910Y-123290000D01*
X137864911Y-123290000D01*
X137865162Y-123001833D01*
X137723117Y-122658057D01*
X137460327Y-122394808D01*
X137116799Y-122252162D01*
X136744833Y-122251838D01*
X136401057Y-122393883D01*
X136137808Y-122656673D01*
X135995162Y-123000201D01*
X135994910Y-123290000D01*
X135197911Y-123290000D01*
X135198162Y-123001833D01*
X135056117Y-122658057D01*
X134793327Y-122394808D01*
X134449799Y-122252162D01*
X134077833Y-122251838D01*
X133734057Y-122393883D01*
X133470808Y-122656673D01*
X133328162Y-123000201D01*
X133327910Y-123290000D01*
X117391985Y-123290000D01*
X117434838Y-123186799D01*
X117435162Y-122814833D01*
X117304931Y-122499649D01*
X117434838Y-122186799D01*
X117435162Y-121814833D01*
X117293117Y-121471057D01*
X117035677Y-121213167D01*
X123929838Y-121213167D01*
X124071883Y-121556943D01*
X124334673Y-121820192D01*
X124678201Y-121962838D01*
X125050167Y-121963162D01*
X125393943Y-121821117D01*
X125657192Y-121558327D01*
X125799838Y-121214799D01*
X125800162Y-120842833D01*
X125658117Y-120499057D01*
X125576204Y-120417000D01*
X161771000Y-120417000D01*
X161939226Y-121262730D01*
X162418294Y-121979706D01*
X163135270Y-122458774D01*
X163981000Y-122627000D01*
X164826730Y-122458774D01*
X165543706Y-121979706D01*
X166022774Y-121262730D01*
X166191000Y-120417000D01*
X166022774Y-119571270D01*
X165543706Y-118854294D01*
X164826730Y-118375226D01*
X163981000Y-118207000D01*
X163135270Y-118375226D01*
X162418294Y-118854294D01*
X161939226Y-119571270D01*
X161771000Y-120417000D01*
X125576204Y-120417000D01*
X125395327Y-120235808D01*
X125051799Y-120093162D01*
X124679833Y-120092838D01*
X124336057Y-120234883D01*
X124072808Y-120497673D01*
X123930162Y-120841201D01*
X123929838Y-121213167D01*
X117035677Y-121213167D01*
X117030327Y-121207808D01*
X116686799Y-121065162D01*
X116314833Y-121064838D01*
X115999649Y-121195069D01*
X115686799Y-121065162D01*
X115314833Y-121064838D01*
X114999649Y-121195069D01*
X114686799Y-121065162D01*
X114314833Y-121064838D01*
X113999649Y-121195069D01*
X113686799Y-121065162D01*
X113314833Y-121064838D01*
X112999649Y-121195069D01*
X112686799Y-121065162D01*
X112314833Y-121064838D01*
X111999649Y-121195069D01*
X111686799Y-121065162D01*
X111434944Y-121064943D01*
X111435162Y-120814833D01*
X111304931Y-120499649D01*
X111434838Y-120186799D01*
X111435162Y-119814833D01*
X111304931Y-119499649D01*
X111434838Y-119186799D01*
X111435162Y-118814833D01*
X111304931Y-118499649D01*
X111434838Y-118186799D01*
X111435162Y-117814833D01*
X111304931Y-117499649D01*
X111434838Y-117186799D01*
X111435162Y-116814833D01*
X111304931Y-116499649D01*
X111351637Y-116387167D01*
X121516838Y-116387167D01*
X121658883Y-116730943D01*
X121921673Y-116994192D01*
X122265201Y-117136838D01*
X122637167Y-117137162D01*
X122980943Y-116995117D01*
X123244192Y-116732327D01*
X123386838Y-116388799D01*
X123387162Y-116016833D01*
X123245117Y-115673057D01*
X123070532Y-115498167D01*
X128882838Y-115498167D01*
X129024883Y-115841943D01*
X129287673Y-116105192D01*
X129631201Y-116247838D01*
X130003167Y-116248162D01*
X130346943Y-116106117D01*
X130610192Y-115843327D01*
X130752838Y-115499799D01*
X130753043Y-115264169D01*
X131041838Y-115264169D01*
X131183883Y-115607945D01*
X131446673Y-115871194D01*
X131790201Y-116013840D01*
X132162167Y-116014164D01*
X132505943Y-115872119D01*
X132769192Y-115609329D01*
X132911838Y-115265801D01*
X132912162Y-114893835D01*
X132794540Y-114609167D01*
X146408838Y-114609167D01*
X146550883Y-114952943D01*
X146813673Y-115216192D01*
X147157201Y-115358838D01*
X147529167Y-115359162D01*
X147872943Y-115217117D01*
X148136192Y-114954327D01*
X148278838Y-114610799D01*
X148278950Y-114482167D01*
X152250838Y-114482167D01*
X152392883Y-114825943D01*
X152655673Y-115089192D01*
X152999201Y-115231838D01*
X153371167Y-115232162D01*
X153714943Y-115090117D01*
X153978192Y-114827327D01*
X154120838Y-114483799D01*
X154121162Y-114111833D01*
X153979117Y-113768057D01*
X153716327Y-113504808D01*
X153372799Y-113362162D01*
X153000833Y-113361838D01*
X152657057Y-113503883D01*
X152393808Y-113766673D01*
X152251162Y-114110201D01*
X152250838Y-114482167D01*
X148278950Y-114482167D01*
X148279162Y-114238833D01*
X148137117Y-113895057D01*
X147874327Y-113631808D01*
X147530799Y-113489162D01*
X147158833Y-113488838D01*
X146815057Y-113630883D01*
X146551808Y-113893673D01*
X146409162Y-114237201D01*
X146408838Y-114609167D01*
X132794540Y-114609167D01*
X132770117Y-114550059D01*
X132507327Y-114286810D01*
X132163799Y-114144164D01*
X131791833Y-114143840D01*
X131448057Y-114285885D01*
X131184808Y-114548675D01*
X131042162Y-114892203D01*
X131041838Y-115264169D01*
X130753043Y-115264169D01*
X130753162Y-115127833D01*
X130611117Y-114784057D01*
X130348327Y-114520808D01*
X130004799Y-114378162D01*
X129632833Y-114377838D01*
X129289057Y-114519883D01*
X129025808Y-114782673D01*
X128883162Y-115126201D01*
X128882838Y-115498167D01*
X123070532Y-115498167D01*
X122982327Y-115409808D01*
X122638799Y-115267162D01*
X122266833Y-115266838D01*
X121923057Y-115408883D01*
X121659808Y-115671673D01*
X121517162Y-116015201D01*
X121516838Y-116387167D01*
X111351637Y-116387167D01*
X111434838Y-116186799D01*
X111435162Y-115814833D01*
X111304931Y-115499649D01*
X111434838Y-115186799D01*
X111435057Y-114934944D01*
X111685167Y-114935162D01*
X112000351Y-114804931D01*
X112313201Y-114934838D01*
X112685167Y-114935162D01*
X113000351Y-114804931D01*
X113313201Y-114934838D01*
X113685167Y-114935162D01*
X114000351Y-114804931D01*
X114313201Y-114934838D01*
X114685167Y-114935162D01*
X115000351Y-114804931D01*
X115313201Y-114934838D01*
X115685167Y-114935162D01*
X116000351Y-114804931D01*
X116313201Y-114934838D01*
X116685167Y-114935162D01*
X117028943Y-114793117D01*
X117292192Y-114530327D01*
X117434838Y-114186799D01*
X117435162Y-113814833D01*
X117304931Y-113499649D01*
X117434838Y-113186799D01*
X117435162Y-112814833D01*
X117293117Y-112471057D01*
X117030327Y-112207808D01*
X116686799Y-112065162D01*
X116314833Y-112064838D01*
X115999649Y-112195069D01*
X115686799Y-112065162D01*
X115314833Y-112064838D01*
X114999649Y-112195069D01*
X114686799Y-112065162D01*
X114314833Y-112064838D01*
X113999649Y-112195069D01*
X113686799Y-112065162D01*
X113314833Y-112064838D01*
X112999649Y-112195069D01*
X112686799Y-112065162D01*
X112314833Y-112064838D01*
X111999649Y-112195069D01*
X111686799Y-112065162D01*
X111314833Y-112064838D01*
X110999649Y-112195069D01*
X110686799Y-112065162D01*
X110314833Y-112064838D01*
X109999649Y-112195069D01*
X109686799Y-112065162D01*
X109314833Y-112064838D01*
X108971057Y-112206883D01*
X108707808Y-112469673D01*
X108565162Y-112813201D01*
X108564838Y-113185167D01*
X108695069Y-113500351D01*
X108565162Y-113813201D01*
X108564838Y-114185167D01*
X108695069Y-114500351D01*
X108565162Y-114813201D01*
X108564838Y-115185167D01*
X108695069Y-115500351D01*
X108565162Y-115813201D01*
X108564838Y-116185167D01*
X108695069Y-116500351D01*
X108565162Y-116813201D01*
X108564838Y-117185167D01*
X108695069Y-117500351D01*
X108565162Y-117813201D01*
X108564838Y-118185167D01*
X108695069Y-118500351D01*
X108565162Y-118813201D01*
X108564838Y-119185167D01*
X108695069Y-119500351D01*
X108565162Y-119813201D01*
X108564838Y-120185167D01*
X108695069Y-120500351D01*
X108565162Y-120813201D01*
X108564838Y-121185167D01*
X108695069Y-121500351D01*
X108565162Y-121813201D01*
X108564838Y-122185167D01*
X108695069Y-122500351D01*
X108565162Y-122813201D01*
X108564838Y-123185167D01*
X108608154Y-123290000D01*
X105069931Y-123290000D01*
X104128977Y-123102833D01*
X103390561Y-122609439D01*
X102897167Y-121871023D01*
X102710000Y-120930069D01*
X102710000Y-120500000D01*
X103290000Y-120500000D01*
X103458226Y-121345730D01*
X103937294Y-122062706D01*
X104654270Y-122541774D01*
X105500000Y-122710000D01*
X106345730Y-122541774D01*
X107062706Y-122062706D01*
X107541774Y-121345730D01*
X107710000Y-120500000D01*
X107541774Y-119654270D01*
X107062706Y-118937294D01*
X106345730Y-118458226D01*
X105500000Y-118290000D01*
X104654270Y-118458226D01*
X103937294Y-118937294D01*
X103458226Y-119654270D01*
X103290000Y-120500000D01*
X102710000Y-120500000D01*
X102710000Y-110545167D01*
X105768838Y-110545167D01*
X105910883Y-110888943D01*
X106173673Y-111152192D01*
X106517201Y-111294838D01*
X106889167Y-111295162D01*
X107232943Y-111153117D01*
X107333067Y-111053167D01*
X107800838Y-111053167D01*
X107942883Y-111396943D01*
X108205673Y-111660192D01*
X108549201Y-111802838D01*
X108921167Y-111803162D01*
X109264943Y-111661117D01*
X109528192Y-111398327D01*
X109670838Y-111054799D01*
X109671162Y-110682833D01*
X109529117Y-110339057D01*
X109266327Y-110075808D01*
X108922799Y-109933162D01*
X108550833Y-109932838D01*
X108207057Y-110074883D01*
X107943808Y-110337673D01*
X107801162Y-110681201D01*
X107800838Y-111053167D01*
X107333067Y-111053167D01*
X107496192Y-110890327D01*
X107638838Y-110546799D01*
X107639162Y-110174833D01*
X107497117Y-109831057D01*
X107449311Y-109783167D01*
X112880838Y-109783167D01*
X113022883Y-110126943D01*
X113285673Y-110390192D01*
X113629201Y-110532838D01*
X114001167Y-110533162D01*
X114344943Y-110391117D01*
X114514565Y-110221791D01*
X114682673Y-110390192D01*
X114982332Y-110514622D01*
X114913162Y-110681201D01*
X114912838Y-111053167D01*
X115054883Y-111396943D01*
X115317673Y-111660192D01*
X115661201Y-111802838D01*
X116033167Y-111803162D01*
X116376943Y-111661117D01*
X116640192Y-111398327D01*
X116782838Y-111054799D01*
X116782950Y-110926167D01*
X119484838Y-110926167D01*
X119626883Y-111269943D01*
X119889673Y-111533192D01*
X120233201Y-111675838D01*
X120605167Y-111676162D01*
X120948943Y-111534117D01*
X121212192Y-111271327D01*
X121354838Y-110927799D01*
X121354950Y-110799167D01*
X122151838Y-110799167D01*
X122293883Y-111142943D01*
X122556673Y-111406192D01*
X122873043Y-111537561D01*
X122802808Y-111607673D01*
X122660162Y-111951201D01*
X122659838Y-112323167D01*
X122801883Y-112666943D01*
X123064673Y-112930192D01*
X123408201Y-113072838D01*
X123780167Y-113073162D01*
X124123943Y-112931117D01*
X124387192Y-112668327D01*
X124529838Y-112324799D01*
X124530162Y-111952833D01*
X124388117Y-111609057D01*
X124125327Y-111345808D01*
X123808957Y-111214439D01*
X123879192Y-111144327D01*
X124021838Y-110800799D01*
X124021839Y-110799167D01*
X126850838Y-110799167D01*
X126992883Y-111142943D01*
X127255673Y-111406192D01*
X127599201Y-111548838D01*
X127928649Y-111549125D01*
X127867162Y-111697201D01*
X127866838Y-112069167D01*
X128008883Y-112412943D01*
X128271673Y-112676192D01*
X128615201Y-112818838D01*
X128987167Y-112819162D01*
X129330943Y-112677117D01*
X129594192Y-112414327D01*
X129736838Y-112070799D01*
X129737162Y-111698833D01*
X129595117Y-111355057D01*
X129332327Y-111091808D01*
X128988799Y-110949162D01*
X128659351Y-110948875D01*
X128720838Y-110800799D01*
X128720952Y-110670315D01*
X128836568Y-110670416D01*
X129178242Y-110529240D01*
X129418073Y-110769490D01*
X129761601Y-110912136D01*
X130133567Y-110912460D01*
X130477343Y-110770415D01*
X130740592Y-110507625D01*
X130883238Y-110164097D01*
X130883348Y-110037167D01*
X135883828Y-110037167D01*
X136025873Y-110380943D01*
X136288663Y-110644192D01*
X136632191Y-110786838D01*
X136818699Y-110787000D01*
X136757160Y-110935201D01*
X136756836Y-111307167D01*
X136898881Y-111650943D01*
X137161671Y-111914192D01*
X137505199Y-112056838D01*
X137877165Y-112057162D01*
X138220941Y-111915117D01*
X138484190Y-111652327D01*
X138626836Y-111308799D01*
X138627160Y-110936833D01*
X138517803Y-110672167D01*
X139296838Y-110672167D01*
X139438883Y-111015943D01*
X139701673Y-111279192D01*
X140045201Y-111421838D01*
X140417167Y-111422162D01*
X140760943Y-111280117D01*
X141024192Y-111017327D01*
X141166838Y-110673799D01*
X141167162Y-110301833D01*
X141092404Y-110120903D01*
X151107838Y-110120903D01*
X151249883Y-110464679D01*
X151512673Y-110727928D01*
X151856201Y-110870574D01*
X152228167Y-110870898D01*
X152571943Y-110728853D01*
X152835192Y-110466063D01*
X152977838Y-110122535D01*
X152978133Y-109783619D01*
X153253201Y-109897838D01*
X153625167Y-109898162D01*
X153968943Y-109756117D01*
X154232192Y-109493327D01*
X154374838Y-109149799D01*
X154375162Y-108777833D01*
X154233117Y-108434057D01*
X153970327Y-108170808D01*
X153626799Y-108028162D01*
X153254833Y-108027838D01*
X152911057Y-108169883D01*
X152647808Y-108432673D01*
X152505162Y-108776201D01*
X152504867Y-109115117D01*
X152229799Y-109000898D01*
X151857833Y-109000574D01*
X151514057Y-109142619D01*
X151250808Y-109405409D01*
X151108162Y-109748937D01*
X151107838Y-110120903D01*
X141092404Y-110120903D01*
X141025117Y-109958057D01*
X140762327Y-109694808D01*
X140418799Y-109552162D01*
X140046833Y-109551838D01*
X139703057Y-109693883D01*
X139439808Y-109956673D01*
X139297162Y-110300201D01*
X139296838Y-110672167D01*
X138517803Y-110672167D01*
X138485115Y-110593057D01*
X138222325Y-110329808D01*
X137878797Y-110187162D01*
X137692289Y-110187000D01*
X137753828Y-110038799D01*
X137754152Y-109666833D01*
X137612107Y-109323057D01*
X137349317Y-109059808D01*
X137005789Y-108917162D01*
X136633823Y-108916838D01*
X136290047Y-109058883D01*
X136026798Y-109321673D01*
X135884152Y-109665201D01*
X135883828Y-110037167D01*
X130883348Y-110037167D01*
X130883562Y-109792131D01*
X130741517Y-109448355D01*
X130478727Y-109185106D01*
X130264312Y-109096073D01*
X130176042Y-108882442D01*
X129913252Y-108619193D01*
X129569724Y-108476547D01*
X129197758Y-108476223D01*
X128853982Y-108618268D01*
X128671661Y-108800271D01*
X128466234Y-108800092D01*
X128122458Y-108942137D01*
X127859209Y-109204927D01*
X127716563Y-109548455D01*
X127716449Y-109678939D01*
X127600833Y-109678838D01*
X127257057Y-109820883D01*
X126993808Y-110083673D01*
X126851162Y-110427201D01*
X126850838Y-110799167D01*
X124021839Y-110799167D01*
X124022162Y-110428833D01*
X123880117Y-110085057D01*
X123617327Y-109821808D01*
X123273799Y-109679162D01*
X122901833Y-109678838D01*
X122558057Y-109820883D01*
X122294808Y-110083673D01*
X122152162Y-110427201D01*
X122151838Y-110799167D01*
X121354950Y-110799167D01*
X121355162Y-110555833D01*
X121213117Y-110212057D01*
X120950327Y-109948808D01*
X120606799Y-109806162D01*
X120234833Y-109805838D01*
X119891057Y-109947883D01*
X119627808Y-110210673D01*
X119485162Y-110554201D01*
X119484838Y-110926167D01*
X116782950Y-110926167D01*
X116783162Y-110682833D01*
X116641117Y-110339057D01*
X116378327Y-110075808D01*
X116078668Y-109951378D01*
X116147838Y-109784799D01*
X116148162Y-109412833D01*
X116006117Y-109069057D01*
X115743327Y-108805808D01*
X115399799Y-108663162D01*
X115027833Y-108662838D01*
X114684057Y-108804883D01*
X114514435Y-108974209D01*
X114346327Y-108805808D01*
X114002799Y-108663162D01*
X113630833Y-108662838D01*
X113287057Y-108804883D01*
X113023808Y-109067673D01*
X112881162Y-109411201D01*
X112880838Y-109783167D01*
X107449311Y-109783167D01*
X107234327Y-109567808D01*
X106890799Y-109425162D01*
X106518833Y-109424838D01*
X106175057Y-109566883D01*
X105911808Y-109829673D01*
X105769162Y-110173201D01*
X105768838Y-110545167D01*
X102710000Y-110545167D01*
X102710000Y-108259167D01*
X120246838Y-108259167D01*
X120388883Y-108602943D01*
X120651673Y-108866192D01*
X120995201Y-109008838D01*
X121367167Y-109009162D01*
X121710943Y-108867117D01*
X121944176Y-108634291D01*
X122175673Y-108866192D01*
X122519201Y-109008838D01*
X122891167Y-109009162D01*
X123234943Y-108867117D01*
X123498192Y-108604327D01*
X123640838Y-108260799D01*
X123640839Y-108259167D01*
X126225828Y-108259167D01*
X126367873Y-108602943D01*
X126630663Y-108866192D01*
X126974191Y-109008838D01*
X127346157Y-109009162D01*
X127689933Y-108867117D01*
X127953182Y-108604327D01*
X128095828Y-108260799D01*
X128096152Y-107888833D01*
X127954107Y-107545057D01*
X127903755Y-107494617D01*
X129647390Y-107494617D01*
X129789435Y-107838393D01*
X130052225Y-108101642D01*
X130395753Y-108244288D01*
X130767719Y-108244612D01*
X131039857Y-108132167D01*
X139677838Y-108132167D01*
X139819883Y-108475943D01*
X140082673Y-108739192D01*
X140426201Y-108881838D01*
X140798167Y-108882162D01*
X141141943Y-108740117D01*
X141405192Y-108477327D01*
X141547838Y-108133799D01*
X141548162Y-107761833D01*
X141491280Y-107624167D01*
X145011838Y-107624167D01*
X145153883Y-107967943D01*
X145416673Y-108231192D01*
X145760201Y-108373838D01*
X146132167Y-108374162D01*
X146475943Y-108232117D01*
X146739192Y-107969327D01*
X146881838Y-107625799D01*
X146882162Y-107253833D01*
X146740117Y-106910057D01*
X146477327Y-106646808D01*
X146133799Y-106504162D01*
X145761833Y-106503838D01*
X145418057Y-106645883D01*
X145154808Y-106908673D01*
X145012162Y-107252201D01*
X145011838Y-107624167D01*
X141491280Y-107624167D01*
X141406117Y-107418057D01*
X141143327Y-107154808D01*
X140799799Y-107012162D01*
X140427833Y-107011838D01*
X140084057Y-107153883D01*
X139820808Y-107416673D01*
X139678162Y-107760201D01*
X139677838Y-108132167D01*
X131039857Y-108132167D01*
X131111495Y-108102567D01*
X131374744Y-107839777D01*
X131517390Y-107496249D01*
X131517714Y-107124283D01*
X131375669Y-106780507D01*
X131112879Y-106517258D01*
X130769351Y-106374612D01*
X130397385Y-106374288D01*
X130053609Y-106516333D01*
X129790360Y-106779123D01*
X129647714Y-107122651D01*
X129647390Y-107494617D01*
X127903755Y-107494617D01*
X127691317Y-107281808D01*
X127347789Y-107139162D01*
X126975823Y-107138838D01*
X126632047Y-107280883D01*
X126368798Y-107543673D01*
X126226152Y-107887201D01*
X126225828Y-108259167D01*
X123640839Y-108259167D01*
X123641162Y-107888833D01*
X123499117Y-107545057D01*
X123236327Y-107281808D01*
X122892799Y-107139162D01*
X122520833Y-107138838D01*
X122177057Y-107280883D01*
X121943824Y-107513709D01*
X121712327Y-107281808D01*
X121368799Y-107139162D01*
X120996833Y-107138838D01*
X120653057Y-107280883D01*
X120389808Y-107543673D01*
X120247162Y-107887201D01*
X120246838Y-108259167D01*
X102710000Y-108259167D01*
X102710000Y-104957167D01*
X105514838Y-104957167D01*
X105656883Y-105300943D01*
X105919673Y-105564192D01*
X106263201Y-105706838D01*
X106635167Y-105707162D01*
X106978943Y-105565117D01*
X107242192Y-105302327D01*
X107384838Y-104958799D01*
X107385162Y-104586833D01*
X107328280Y-104449167D01*
X119484838Y-104449167D01*
X119626883Y-104792943D01*
X119889673Y-105056192D01*
X120233201Y-105198838D01*
X120605167Y-105199162D01*
X120948943Y-105057117D01*
X121212192Y-104794327D01*
X121354838Y-104450799D01*
X121354839Y-104449167D01*
X124310838Y-104449167D01*
X124452883Y-104792943D01*
X124715673Y-105056192D01*
X125059201Y-105198838D01*
X125431167Y-105199162D01*
X125774943Y-105057117D01*
X126038192Y-104794327D01*
X126180838Y-104450799D01*
X126180894Y-104386009D01*
X126350770Y-104386157D01*
X126513629Y-104318865D01*
X126741359Y-104546993D01*
X127084887Y-104689639D01*
X127456853Y-104689963D01*
X127743001Y-104571729D01*
X127927454Y-104648321D01*
X128299420Y-104648645D01*
X128643196Y-104506600D01*
X128690758Y-104459121D01*
X128779673Y-104548192D01*
X129123201Y-104690838D01*
X129495167Y-104691162D01*
X129838943Y-104549117D01*
X130066289Y-104322167D01*
X134851838Y-104322167D01*
X134993883Y-104665943D01*
X135256673Y-104929192D01*
X135600201Y-105071838D01*
X135861799Y-105072066D01*
X135861565Y-105341002D01*
X135971350Y-105606702D01*
X135868162Y-105855205D01*
X135867838Y-106227171D01*
X136009883Y-106570947D01*
X136272673Y-106834196D01*
X136616201Y-106976842D01*
X136988167Y-106977166D01*
X137331943Y-106835121D01*
X137595192Y-106572331D01*
X137737838Y-106228803D01*
X137738162Y-105856837D01*
X137628377Y-105591137D01*
X137680684Y-105465167D01*
X148748847Y-105465167D01*
X148890892Y-105808943D01*
X149153682Y-106072192D01*
X149497210Y-106214838D01*
X149869176Y-106215162D01*
X150212952Y-106073117D01*
X150476201Y-105810327D01*
X150618847Y-105466799D01*
X150619171Y-105094833D01*
X150477126Y-104751057D01*
X150302541Y-104576167D01*
X151742838Y-104576167D01*
X151884883Y-104919943D01*
X152147673Y-105183192D01*
X152491201Y-105325838D01*
X152863167Y-105326162D01*
X153206943Y-105184117D01*
X153470192Y-104921327D01*
X153612838Y-104577799D01*
X153613162Y-104205833D01*
X153471117Y-103862057D01*
X153208327Y-103598808D01*
X152864799Y-103456162D01*
X152492833Y-103455838D01*
X152149057Y-103597883D01*
X151885808Y-103860673D01*
X151743162Y-104204201D01*
X151742838Y-104576167D01*
X150302541Y-104576167D01*
X150214336Y-104487808D01*
X149870808Y-104345162D01*
X149498842Y-104344838D01*
X149155066Y-104486883D01*
X148891817Y-104749673D01*
X148749171Y-105093201D01*
X148748847Y-105465167D01*
X137680684Y-105465167D01*
X137731565Y-105342634D01*
X137731889Y-104970668D01*
X137589844Y-104626892D01*
X137327054Y-104363643D01*
X136983526Y-104220997D01*
X136721928Y-104220769D01*
X136722162Y-103951833D01*
X136665281Y-103814169D01*
X137645838Y-103814169D01*
X137787883Y-104157945D01*
X138050673Y-104421194D01*
X138394201Y-104563840D01*
X138766167Y-104564164D01*
X139109943Y-104422119D01*
X139373192Y-104159329D01*
X139428514Y-104026100D01*
X139428250Y-104328990D01*
X139570295Y-104672766D01*
X139833085Y-104936015D01*
X140176613Y-105078661D01*
X140548579Y-105078985D01*
X140892355Y-104936940D01*
X141155604Y-104674150D01*
X141298250Y-104330622D01*
X141298574Y-103958656D01*
X141156529Y-103614880D01*
X140893739Y-103351631D01*
X140550211Y-103208985D01*
X140520153Y-103208959D01*
X140531846Y-103180799D01*
X140532170Y-102808833D01*
X140390125Y-102465057D01*
X140127335Y-102201808D01*
X139783807Y-102059162D01*
X139411841Y-102058838D01*
X139068065Y-102200883D01*
X138804816Y-102463673D01*
X138709129Y-102694113D01*
X138395833Y-102693840D01*
X138052057Y-102835885D01*
X137788808Y-103098675D01*
X137646162Y-103442203D01*
X137645838Y-103814169D01*
X136665281Y-103814169D01*
X136580117Y-103608057D01*
X136317327Y-103344808D01*
X135973799Y-103202162D01*
X135601833Y-103201838D01*
X135258057Y-103343883D01*
X134994808Y-103606673D01*
X134852162Y-103950201D01*
X134851838Y-104322167D01*
X130066289Y-104322167D01*
X130102192Y-104286327D01*
X130244838Y-103942799D01*
X130245162Y-103570833D01*
X130103117Y-103227057D01*
X129840327Y-102963808D01*
X129496799Y-102821162D01*
X129124833Y-102820838D01*
X128781057Y-102962883D01*
X128733495Y-103010362D01*
X128644580Y-102921291D01*
X128301052Y-102778645D01*
X127929086Y-102778321D01*
X127642938Y-102896555D01*
X127458485Y-102819963D01*
X127086519Y-102819639D01*
X126923660Y-102886931D01*
X126695930Y-102658803D01*
X126352402Y-102516157D01*
X125980436Y-102515833D01*
X125636660Y-102657878D01*
X125373411Y-102920668D01*
X125230765Y-103264196D01*
X125230709Y-103328986D01*
X125060833Y-103328838D01*
X124717057Y-103470883D01*
X124453808Y-103733673D01*
X124311162Y-104077201D01*
X124310838Y-104449167D01*
X121354839Y-104449167D01*
X121355162Y-104078833D01*
X121213117Y-103735057D01*
X120950327Y-103471808D01*
X120606799Y-103329162D01*
X120234833Y-103328838D01*
X119891057Y-103470883D01*
X119627808Y-103733673D01*
X119485162Y-104077201D01*
X119484838Y-104449167D01*
X107328280Y-104449167D01*
X107243117Y-104243057D01*
X106980327Y-103979808D01*
X106636799Y-103837162D01*
X106264833Y-103836838D01*
X105921057Y-103978883D01*
X105657808Y-104241673D01*
X105515162Y-104585201D01*
X105514838Y-104957167D01*
X102710000Y-104957167D01*
X102710000Y-101147167D01*
X103228838Y-101147167D01*
X103370883Y-101490943D01*
X103633673Y-101754192D01*
X103977201Y-101896838D01*
X104349167Y-101897162D01*
X104692943Y-101755117D01*
X104726894Y-101721225D01*
X144061896Y-101721225D01*
X144203941Y-102065001D01*
X144466731Y-102328250D01*
X144558100Y-102366190D01*
X144694701Y-102696790D01*
X144957491Y-102960039D01*
X145301019Y-103102685D01*
X145672985Y-103103009D01*
X146016761Y-102960964D01*
X146280010Y-102698174D01*
X146422656Y-102354646D01*
X146422980Y-101982680D01*
X146280935Y-101638904D01*
X146018145Y-101375655D01*
X145926776Y-101337715D01*
X145790175Y-101007115D01*
X145527385Y-100743866D01*
X145183857Y-100601220D01*
X144811891Y-100600896D01*
X144468115Y-100742941D01*
X144204866Y-101005731D01*
X144062220Y-101349259D01*
X144061896Y-101721225D01*
X104726894Y-101721225D01*
X104956192Y-101492327D01*
X105098838Y-101148799D01*
X105099060Y-100893167D01*
X110848838Y-100893167D01*
X110990883Y-101236943D01*
X111253673Y-101500192D01*
X111597201Y-101642838D01*
X111969167Y-101643162D01*
X112312943Y-101501117D01*
X112576192Y-101238327D01*
X112718838Y-100894799D01*
X112718839Y-100893167D01*
X129517838Y-100893167D01*
X129659883Y-101236943D01*
X129922673Y-101500192D01*
X130266201Y-101642838D01*
X130638167Y-101643162D01*
X130981943Y-101501117D01*
X131245192Y-101238327D01*
X131365724Y-100948053D01*
X136938724Y-100948053D01*
X137080769Y-101291829D01*
X137343559Y-101555078D01*
X137687087Y-101697724D01*
X138059053Y-101698048D01*
X138402829Y-101556003D01*
X138666078Y-101293213D01*
X138808724Y-100949685D01*
X138809048Y-100577719D01*
X138667003Y-100233943D01*
X138404213Y-99970694D01*
X138060685Y-99828048D01*
X137688719Y-99827724D01*
X137344943Y-99969769D01*
X137081694Y-100232559D01*
X136939048Y-100576087D01*
X136938724Y-100948053D01*
X131365724Y-100948053D01*
X131387838Y-100894799D01*
X131388162Y-100522833D01*
X131246117Y-100179057D01*
X130983327Y-99915808D01*
X130639799Y-99773162D01*
X130267833Y-99772838D01*
X129924057Y-99914883D01*
X129660808Y-100177673D01*
X129518162Y-100521201D01*
X129517838Y-100893167D01*
X112718839Y-100893167D01*
X112719162Y-100522833D01*
X112577117Y-100179057D01*
X112314327Y-99915808D01*
X111970799Y-99773162D01*
X111598833Y-99772838D01*
X111255057Y-99914883D01*
X110991808Y-100177673D01*
X110849162Y-100521201D01*
X110848838Y-100893167D01*
X105099060Y-100893167D01*
X105099162Y-100776833D01*
X104957117Y-100433057D01*
X104694327Y-100169808D01*
X104350799Y-100027162D01*
X103978833Y-100026838D01*
X103635057Y-100168883D01*
X103371808Y-100431673D01*
X103229162Y-100775201D01*
X103228838Y-101147167D01*
X102710000Y-101147167D01*
X102710000Y-98861167D01*
X129390838Y-98861167D01*
X129532883Y-99204943D01*
X129795673Y-99468192D01*
X130139201Y-99610838D01*
X130511167Y-99611162D01*
X130854943Y-99469117D01*
X131118192Y-99206327D01*
X131260838Y-98862799D01*
X131260839Y-98861167D01*
X136375838Y-98861167D01*
X136517883Y-99204943D01*
X136780673Y-99468192D01*
X137124201Y-99610838D01*
X137496167Y-99611162D01*
X137839943Y-99469117D01*
X138103192Y-99206327D01*
X138245838Y-98862799D01*
X138246162Y-98490833D01*
X138204033Y-98388873D01*
X138394201Y-98467838D01*
X138661959Y-98468071D01*
X138661838Y-98607167D01*
X138803883Y-98950943D01*
X139066673Y-99214192D01*
X139410201Y-99356838D01*
X139782167Y-99357162D01*
X140125943Y-99215117D01*
X140389192Y-98952327D01*
X140531838Y-98608799D01*
X140532162Y-98236833D01*
X140390117Y-97893057D01*
X140127327Y-97629808D01*
X139783799Y-97487162D01*
X139516041Y-97486929D01*
X139516162Y-97347833D01*
X139459280Y-97210167D01*
X140312838Y-97210167D01*
X140454883Y-97553943D01*
X140717673Y-97817192D01*
X141061201Y-97959838D01*
X141433167Y-97960162D01*
X141497944Y-97933397D01*
X141599739Y-98035370D01*
X141354057Y-98136883D01*
X141090808Y-98399673D01*
X140948162Y-98743201D01*
X140947838Y-99115167D01*
X141089883Y-99458943D01*
X141352673Y-99722192D01*
X141585961Y-99819062D01*
X141354057Y-99914883D01*
X141090808Y-100177673D01*
X140948162Y-100521201D01*
X140947838Y-100893167D01*
X141089883Y-101236943D01*
X141352673Y-101500192D01*
X141696201Y-101642838D01*
X142068167Y-101643162D01*
X142411943Y-101501117D01*
X142675192Y-101238327D01*
X142817838Y-100894799D01*
X142818162Y-100522833D01*
X142676117Y-100179057D01*
X142413327Y-99915808D01*
X142320270Y-99877167D01*
X145265838Y-99877167D01*
X145407883Y-100220943D01*
X145670673Y-100484192D01*
X146014201Y-100626838D01*
X146386167Y-100627162D01*
X146729943Y-100485117D01*
X146993192Y-100222327D01*
X147135838Y-99878799D01*
X147136162Y-99506833D01*
X146994117Y-99163057D01*
X146731327Y-98899808D01*
X146387799Y-98757162D01*
X146015833Y-98756838D01*
X145672057Y-98898883D01*
X145408808Y-99161673D01*
X145266162Y-99505201D01*
X145265838Y-99877167D01*
X142320270Y-99877167D01*
X142180039Y-99818938D01*
X142411943Y-99723117D01*
X142675192Y-99460327D01*
X142817838Y-99116799D01*
X142818162Y-98744833D01*
X142676117Y-98401057D01*
X142459059Y-98183620D01*
X142704741Y-98082107D01*
X142967990Y-97819317D01*
X143110636Y-97475789D01*
X143110762Y-97330529D01*
X146193506Y-97330529D01*
X146335551Y-97674305D01*
X146361421Y-97700220D01*
X146343017Y-97744541D01*
X146342693Y-98116507D01*
X146484738Y-98460283D01*
X146747528Y-98723532D01*
X147091056Y-98866178D01*
X147463022Y-98866502D01*
X147806798Y-98724457D01*
X148070047Y-98461667D01*
X148212693Y-98118139D01*
X148213017Y-97746173D01*
X148070972Y-97402397D01*
X148045102Y-97376482D01*
X148063506Y-97332161D01*
X148063830Y-96960195D01*
X147921785Y-96616419D01*
X147658995Y-96353170D01*
X147315467Y-96210524D01*
X146943501Y-96210200D01*
X146599725Y-96352245D01*
X146336476Y-96615035D01*
X146193830Y-96958563D01*
X146193506Y-97330529D01*
X143110762Y-97330529D01*
X143110960Y-97103823D01*
X142968915Y-96760047D01*
X142706125Y-96496798D01*
X142362597Y-96354152D01*
X142188253Y-96354000D01*
X142453802Y-96176566D01*
X142699839Y-95808346D01*
X142786236Y-95374000D01*
X142699839Y-94939654D01*
X142604633Y-94797167D01*
X144122838Y-94797167D01*
X144264883Y-95140943D01*
X144527673Y-95404192D01*
X144871201Y-95546838D01*
X145243167Y-95547162D01*
X145586943Y-95405117D01*
X145605824Y-95386269D01*
X145661883Y-95521943D01*
X145924673Y-95785192D01*
X146268201Y-95927838D01*
X146640167Y-95928162D01*
X146983943Y-95786117D01*
X147247192Y-95523327D01*
X147389838Y-95179799D01*
X147390040Y-94947340D01*
X147956280Y-94947340D01*
X148098325Y-95291116D01*
X148361115Y-95554365D01*
X148441035Y-95587551D01*
X148440838Y-95813167D01*
X148582883Y-96156943D01*
X148845673Y-96420192D01*
X149189201Y-96562838D01*
X149214063Y-96562860D01*
X149268888Y-96695546D01*
X149531678Y-96958795D01*
X149875206Y-97101441D01*
X150247172Y-97101765D01*
X150590948Y-96959720D01*
X150594507Y-96956167D01*
X151361838Y-96956167D01*
X151503883Y-97299943D01*
X151766673Y-97563192D01*
X152110201Y-97705838D01*
X152482167Y-97706162D01*
X152825943Y-97564117D01*
X153089192Y-97301327D01*
X153231838Y-96957799D01*
X153232162Y-96585833D01*
X153122805Y-96321167D01*
X155679838Y-96321167D01*
X155821883Y-96664943D01*
X156084673Y-96928192D01*
X156428201Y-97070838D01*
X156800167Y-97071162D01*
X157143943Y-96929117D01*
X157407192Y-96666327D01*
X157549838Y-96322799D01*
X157550162Y-95950833D01*
X157408117Y-95607057D01*
X157145327Y-95343808D01*
X156801799Y-95201162D01*
X156429833Y-95200838D01*
X156086057Y-95342883D01*
X155822808Y-95605673D01*
X155680162Y-95949201D01*
X155679838Y-96321167D01*
X153122805Y-96321167D01*
X153090117Y-96242057D01*
X152827327Y-95978808D01*
X152483799Y-95836162D01*
X152111833Y-95835838D01*
X151768057Y-95977883D01*
X151504808Y-96240673D01*
X151362162Y-96584201D01*
X151361838Y-96956167D01*
X150594507Y-96956167D01*
X150854197Y-96696930D01*
X150996843Y-96353402D01*
X150997167Y-95981436D01*
X150855122Y-95637660D01*
X150592332Y-95374411D01*
X150515384Y-95342459D01*
X150627362Y-95072787D01*
X150627686Y-94700821D01*
X150485641Y-94357045D01*
X150222851Y-94093796D01*
X149879323Y-93951150D01*
X149507357Y-93950826D01*
X149433225Y-93981457D01*
X149421769Y-93969981D01*
X149078241Y-93827335D01*
X148706275Y-93827011D01*
X148362499Y-93969056D01*
X148099250Y-94231846D01*
X147956604Y-94575374D01*
X147956280Y-94947340D01*
X147390040Y-94947340D01*
X147390162Y-94807833D01*
X147248117Y-94464057D01*
X146985327Y-94200808D01*
X146641799Y-94058162D01*
X146269833Y-94057838D01*
X145926057Y-94199883D01*
X145907176Y-94218731D01*
X145851117Y-94083057D01*
X145588327Y-93819808D01*
X145244799Y-93677162D01*
X144872833Y-93676838D01*
X144529057Y-93818883D01*
X144265808Y-94081673D01*
X144123162Y-94425201D01*
X144122838Y-94797167D01*
X142604633Y-94797167D01*
X142565766Y-94739000D01*
X142699839Y-94538346D01*
X142786236Y-94104000D01*
X142699839Y-93669654D01*
X142689491Y-93654167D01*
X154663838Y-93654167D01*
X154805883Y-93997943D01*
X155068673Y-94261192D01*
X155412201Y-94403838D01*
X155784167Y-94404162D01*
X156127943Y-94262117D01*
X156391192Y-93999327D01*
X156533838Y-93655799D01*
X156534162Y-93283833D01*
X156392117Y-92940057D01*
X156129327Y-92676808D01*
X155785799Y-92534162D01*
X155413833Y-92533838D01*
X155070057Y-92675883D01*
X154806808Y-92938673D01*
X154664162Y-93282201D01*
X154663838Y-93654167D01*
X142689491Y-93654167D01*
X142565766Y-93469000D01*
X142699839Y-93268346D01*
X142786236Y-92834000D01*
X142699839Y-92399654D01*
X142565766Y-92199000D01*
X142699839Y-91998346D01*
X142786236Y-91564000D01*
X142772545Y-91495167D01*
X143868838Y-91495167D01*
X144010883Y-91838943D01*
X144273673Y-92102192D01*
X144617201Y-92244838D01*
X144989167Y-92245162D01*
X145332943Y-92103117D01*
X145596192Y-91840327D01*
X145738838Y-91496799D01*
X145739162Y-91124833D01*
X145597117Y-90781057D01*
X145334327Y-90517808D01*
X144990799Y-90375162D01*
X144618833Y-90374838D01*
X144275057Y-90516883D01*
X144011808Y-90779673D01*
X143869162Y-91123201D01*
X143868838Y-91495167D01*
X142772545Y-91495167D01*
X142699839Y-91129654D01*
X142684195Y-91106241D01*
X142725431Y-91045890D01*
X142776440Y-90794000D01*
X142776440Y-89794000D01*
X142732162Y-89558683D01*
X142593090Y-89342559D01*
X142380890Y-89197569D01*
X142129000Y-89146560D01*
X141129000Y-89146560D01*
X140893683Y-89190838D01*
X140677559Y-89329910D01*
X140532569Y-89542110D01*
X140481560Y-89794000D01*
X140481560Y-90794000D01*
X140525838Y-91029317D01*
X140574586Y-91105073D01*
X140558161Y-91129654D01*
X140471764Y-91564000D01*
X140558161Y-91998346D01*
X140692234Y-92199000D01*
X140558161Y-92399654D01*
X140471764Y-92834000D01*
X140558161Y-93268346D01*
X140692234Y-93469000D01*
X140558161Y-93669654D01*
X140471764Y-94104000D01*
X140558161Y-94538346D01*
X140692234Y-94739000D01*
X140558161Y-94939654D01*
X140471764Y-95374000D01*
X140558161Y-95808346D01*
X140804198Y-96176566D01*
X140822820Y-96189009D01*
X140719057Y-96231883D01*
X140455808Y-96494673D01*
X140313162Y-96838201D01*
X140312838Y-97210167D01*
X139459280Y-97210167D01*
X139374117Y-97004057D01*
X139111327Y-96740808D01*
X138767799Y-96598162D01*
X138395833Y-96597838D01*
X138052057Y-96739883D01*
X137788808Y-97002673D01*
X137646162Y-97346201D01*
X137645838Y-97718167D01*
X137687967Y-97820127D01*
X137497799Y-97741162D01*
X137125833Y-97740838D01*
X136782057Y-97882883D01*
X136518808Y-98145673D01*
X136376162Y-98489201D01*
X136375838Y-98861167D01*
X131260839Y-98861167D01*
X131261162Y-98490833D01*
X131119117Y-98147057D01*
X131013180Y-98040935D01*
X131245192Y-97809327D01*
X131387838Y-97465799D01*
X131388060Y-97210167D01*
X132946838Y-97210167D01*
X133088883Y-97553943D01*
X133351673Y-97817192D01*
X133695201Y-97959838D01*
X134067167Y-97960162D01*
X134410943Y-97818117D01*
X134674192Y-97555327D01*
X134816838Y-97211799D01*
X134817162Y-96839833D01*
X134675117Y-96496057D01*
X134412327Y-96232808D01*
X134068799Y-96090162D01*
X133696833Y-96089838D01*
X133353057Y-96231883D01*
X133089808Y-96494673D01*
X132947162Y-96838201D01*
X132946838Y-97210167D01*
X131388060Y-97210167D01*
X131388162Y-97093833D01*
X131305929Y-96894813D01*
X131384767Y-96704950D01*
X131385091Y-96332984D01*
X131279142Y-96076567D01*
X131387838Y-95814799D01*
X131387950Y-95686167D01*
X138407838Y-95686167D01*
X138549883Y-96029943D01*
X138812673Y-96293192D01*
X139156201Y-96435838D01*
X139528167Y-96436162D01*
X139871943Y-96294117D01*
X140135192Y-96031327D01*
X140277838Y-95687799D01*
X140278162Y-95315833D01*
X140136117Y-94972057D01*
X139873327Y-94708808D01*
X139529799Y-94566162D01*
X139157833Y-94565838D01*
X138814057Y-94707883D01*
X138550808Y-94970673D01*
X138408162Y-95314201D01*
X138407838Y-95686167D01*
X131387950Y-95686167D01*
X131388162Y-95442833D01*
X131246117Y-95099057D01*
X130983327Y-94835808D01*
X130639799Y-94693162D01*
X130267833Y-94692838D01*
X129924057Y-94834883D01*
X129660808Y-95097673D01*
X129518162Y-95441201D01*
X129517838Y-95813167D01*
X129623787Y-96069584D01*
X129515091Y-96331352D01*
X129514767Y-96703318D01*
X129597000Y-96902338D01*
X129518162Y-97092201D01*
X129517838Y-97464167D01*
X129659883Y-97807943D01*
X129765820Y-97914065D01*
X129533808Y-98145673D01*
X129391162Y-98489201D01*
X129390838Y-98861167D01*
X102710000Y-98861167D01*
X102710000Y-97972167D01*
X103228838Y-97972167D01*
X103370883Y-98315943D01*
X103633673Y-98579192D01*
X103977201Y-98721838D01*
X104349167Y-98722162D01*
X104692943Y-98580117D01*
X104956192Y-98317327D01*
X105098838Y-97973799D01*
X105099162Y-97601833D01*
X105042280Y-97464167D01*
X110848838Y-97464167D01*
X110990883Y-97807943D01*
X111253673Y-98071192D01*
X111597201Y-98213838D01*
X111969167Y-98214162D01*
X112312943Y-98072117D01*
X112576192Y-97809327D01*
X112718838Y-97465799D01*
X112719162Y-97093833D01*
X112663743Y-96959708D01*
X112703192Y-96920327D01*
X112845838Y-96576799D01*
X112846162Y-96204833D01*
X112704117Y-95861057D01*
X112441327Y-95597808D01*
X112097799Y-95455162D01*
X111725833Y-95454838D01*
X111382057Y-95596883D01*
X111118808Y-95859673D01*
X110976162Y-96203201D01*
X110975838Y-96575167D01*
X111031257Y-96709292D01*
X110991808Y-96748673D01*
X110849162Y-97092201D01*
X110848838Y-97464167D01*
X105042280Y-97464167D01*
X104957117Y-97258057D01*
X104694327Y-96994808D01*
X104350799Y-96852162D01*
X103978833Y-96851838D01*
X103635057Y-96993883D01*
X103371808Y-97256673D01*
X103229162Y-97600201D01*
X103228838Y-97972167D01*
X102710000Y-97972167D01*
X102710000Y-96448167D01*
X104625838Y-96448167D01*
X104767883Y-96791943D01*
X105030673Y-97055192D01*
X105374201Y-97197838D01*
X105746167Y-97198162D01*
X106089943Y-97056117D01*
X106353192Y-96793327D01*
X106495838Y-96449799D01*
X106496162Y-96077833D01*
X106354117Y-95734057D01*
X106091327Y-95470808D01*
X105747799Y-95328162D01*
X105375833Y-95327838D01*
X105032057Y-95469883D01*
X104768808Y-95732673D01*
X104626162Y-96076201D01*
X104625838Y-96448167D01*
X102710000Y-96448167D01*
X102710000Y-93400167D01*
X104625838Y-93400167D01*
X104767883Y-93743943D01*
X105030673Y-94007192D01*
X105374201Y-94149838D01*
X105746167Y-94150162D01*
X106024476Y-94035167D01*
X111610838Y-94035167D01*
X111752883Y-94378943D01*
X112015673Y-94642192D01*
X112359201Y-94784838D01*
X112731167Y-94785162D01*
X113074943Y-94643117D01*
X113338192Y-94380327D01*
X113480838Y-94036799D01*
X113481162Y-93664833D01*
X113445450Y-93578403D01*
X117441682Y-93578403D01*
X117659045Y-94104462D01*
X117442319Y-94626395D01*
X117441682Y-95356403D01*
X117659045Y-95882462D01*
X117442319Y-96404395D01*
X117441682Y-97134403D01*
X117720455Y-97809086D01*
X118236199Y-98325730D01*
X118910395Y-98605681D01*
X119640403Y-98606318D01*
X120166462Y-98388955D01*
X120688395Y-98605681D01*
X121418403Y-98606318D01*
X121944462Y-98388955D01*
X122466395Y-98605681D01*
X123196403Y-98606318D01*
X123871086Y-98327545D01*
X124387730Y-97811801D01*
X124667681Y-97137605D01*
X124668318Y-96407597D01*
X124450955Y-95881538D01*
X124667681Y-95359605D01*
X124668318Y-94629597D01*
X124450955Y-94103538D01*
X124667681Y-93581605D01*
X124668318Y-92851597D01*
X124389545Y-92176914D01*
X123873801Y-91660270D01*
X123199605Y-91380319D01*
X122469597Y-91379682D01*
X121943538Y-91597045D01*
X121421605Y-91380319D01*
X120691597Y-91379682D01*
X120165538Y-91597045D01*
X119643605Y-91380319D01*
X118913597Y-91379682D01*
X118238914Y-91658455D01*
X117722270Y-92174199D01*
X117442319Y-92848395D01*
X117441682Y-93578403D01*
X113445450Y-93578403D01*
X113339117Y-93321057D01*
X113076327Y-93057808D01*
X112732799Y-92915162D01*
X112360833Y-92914838D01*
X112017057Y-93056883D01*
X111753808Y-93319673D01*
X111611162Y-93663201D01*
X111610838Y-94035167D01*
X106024476Y-94035167D01*
X106089943Y-94008117D01*
X106353192Y-93745327D01*
X106495838Y-93401799D01*
X106496162Y-93029833D01*
X106354117Y-92686057D01*
X106091327Y-92422808D01*
X105747799Y-92280162D01*
X105375833Y-92279838D01*
X105032057Y-92421883D01*
X104768808Y-92684673D01*
X104626162Y-93028201D01*
X104625838Y-93400167D01*
X102710000Y-93400167D01*
X102710000Y-90733166D01*
X128628838Y-90733166D01*
X128770883Y-91076942D01*
X129033673Y-91340191D01*
X129377201Y-91482837D01*
X129579695Y-91483013D01*
X129518162Y-91631201D01*
X129517838Y-92003167D01*
X129659883Y-92346943D01*
X129829209Y-92516565D01*
X129660808Y-92684673D01*
X129518162Y-93028201D01*
X129517838Y-93400167D01*
X129659883Y-93743943D01*
X129922673Y-94007192D01*
X130266201Y-94149838D01*
X130638167Y-94150162D01*
X130981943Y-94008117D01*
X131245192Y-93745327D01*
X131283045Y-93654167D01*
X135486838Y-93654167D01*
X135628883Y-93997943D01*
X135891673Y-94261192D01*
X136235201Y-94403838D01*
X136530897Y-94404096D01*
X136530665Y-94670418D01*
X136672710Y-95014194D01*
X136935500Y-95277443D01*
X137279028Y-95420089D01*
X137650994Y-95420413D01*
X137994770Y-95278368D01*
X138258019Y-95015578D01*
X138400665Y-94672050D01*
X138400989Y-94300084D01*
X138258944Y-93956308D01*
X137996154Y-93693059D01*
X137652626Y-93550413D01*
X137356930Y-93550155D01*
X137357162Y-93283833D01*
X137215117Y-92940057D01*
X136952327Y-92676808D01*
X136608799Y-92534162D01*
X136236833Y-92533838D01*
X135893057Y-92675883D01*
X135629808Y-92938673D01*
X135487162Y-93282201D01*
X135486838Y-93654167D01*
X131283045Y-93654167D01*
X131387838Y-93401799D01*
X131388162Y-93029833D01*
X131246117Y-92686057D01*
X131076791Y-92516435D01*
X131245192Y-92348327D01*
X131387838Y-92004799D01*
X131388162Y-91632833D01*
X131246117Y-91289057D01*
X131198311Y-91241167D01*
X133073836Y-91241167D01*
X133215881Y-91584943D01*
X133478671Y-91848192D01*
X133822199Y-91990838D01*
X134194165Y-91991162D01*
X134537941Y-91849117D01*
X134801190Y-91586327D01*
X134891778Y-91368167D01*
X135740838Y-91368167D01*
X135882883Y-91711943D01*
X136145673Y-91975192D01*
X136489201Y-92117838D01*
X136861167Y-92118162D01*
X137204943Y-91976117D01*
X137468192Y-91713327D01*
X137610838Y-91369799D01*
X137611162Y-90997833D01*
X137469117Y-90654057D01*
X137206327Y-90390808D01*
X136862799Y-90248162D01*
X136490833Y-90247838D01*
X136147057Y-90389883D01*
X135883808Y-90652673D01*
X135741162Y-90996201D01*
X135740838Y-91368167D01*
X134891778Y-91368167D01*
X134943836Y-91242799D01*
X134944160Y-90870833D01*
X134802115Y-90527057D01*
X134539325Y-90263808D01*
X134195797Y-90121162D01*
X133823831Y-90120838D01*
X133480055Y-90262883D01*
X133216806Y-90525673D01*
X133074160Y-90869201D01*
X133073836Y-91241167D01*
X131198311Y-91241167D01*
X130983327Y-91025808D01*
X130853676Y-90971972D01*
X130858189Y-90970107D01*
X131121438Y-90707317D01*
X131264084Y-90363789D01*
X131264408Y-89991823D01*
X131122363Y-89648047D01*
X131100428Y-89626074D01*
X131120935Y-89576688D01*
X131121259Y-89204722D01*
X130979214Y-88860946D01*
X130716424Y-88597697D01*
X130694747Y-88588696D01*
X130752838Y-88448799D01*
X130753101Y-88146534D01*
X135080035Y-88146534D01*
X135222080Y-88490310D01*
X135484870Y-88753559D01*
X135828398Y-88896205D01*
X136200364Y-88896529D01*
X136544140Y-88754484D01*
X136659658Y-88639168D01*
X136630162Y-88710201D01*
X136629838Y-89082167D01*
X136771883Y-89425943D01*
X137034673Y-89689192D01*
X137378201Y-89831838D01*
X137750167Y-89832162D01*
X138093943Y-89690117D01*
X138357192Y-89427327D01*
X138499838Y-89083799D01*
X138500162Y-88711833D01*
X138358117Y-88368057D01*
X138095327Y-88104808D01*
X137751799Y-87962162D01*
X137379833Y-87961838D01*
X137036057Y-88103883D01*
X136920539Y-88219199D01*
X136950035Y-88148166D01*
X136950327Y-87812167D01*
X146027838Y-87812167D01*
X146169883Y-88155943D01*
X146402709Y-88389176D01*
X146170808Y-88620673D01*
X146028162Y-88964201D01*
X146027838Y-89336167D01*
X146169883Y-89679943D01*
X146432673Y-89943192D01*
X146749199Y-90074626D01*
X146551808Y-90271673D01*
X146409162Y-90615201D01*
X146408838Y-90987167D01*
X146550883Y-91330943D01*
X146813673Y-91594192D01*
X147157201Y-91736838D01*
X147529167Y-91737162D01*
X147843118Y-91607440D01*
X147955755Y-91720274D01*
X148299283Y-91862920D01*
X148671249Y-91863244D01*
X148675554Y-91861465D01*
X148639797Y-91897160D01*
X148497151Y-92240688D01*
X148496827Y-92612654D01*
X148638872Y-92956430D01*
X148901662Y-93219679D01*
X149245190Y-93362325D01*
X149617156Y-93362649D01*
X149960932Y-93220604D01*
X150224181Y-92957814D01*
X150251440Y-92892167D01*
X151488838Y-92892167D01*
X151630883Y-93235943D01*
X151893673Y-93499192D01*
X152237201Y-93641838D01*
X152609167Y-93642162D01*
X152952943Y-93500117D01*
X153216192Y-93237327D01*
X153358838Y-92893799D01*
X153359162Y-92521833D01*
X153217117Y-92178057D01*
X152954327Y-91914808D01*
X152610799Y-91772162D01*
X152238833Y-91771838D01*
X151895057Y-91913883D01*
X151631808Y-92176673D01*
X151489162Y-92520201D01*
X151488838Y-92892167D01*
X150251440Y-92892167D01*
X150366827Y-92614286D01*
X150367151Y-92242320D01*
X150225106Y-91898544D01*
X149962316Y-91635295D01*
X149618788Y-91492649D01*
X149246822Y-91492325D01*
X149242517Y-91494104D01*
X149253635Y-91483005D01*
X149434167Y-91483162D01*
X149777943Y-91341117D01*
X149890360Y-91228896D01*
X150196167Y-91229162D01*
X150539943Y-91087117D01*
X150803192Y-90824327D01*
X150945838Y-90480799D01*
X150946162Y-90108833D01*
X150804117Y-89765057D01*
X150541327Y-89501808D01*
X150197799Y-89359162D01*
X149825833Y-89358838D01*
X149482057Y-89500883D01*
X149369640Y-89613104D01*
X149063833Y-89612838D01*
X148720057Y-89754883D01*
X148481447Y-89993077D01*
X148300915Y-89992920D01*
X147986964Y-90122642D01*
X147874327Y-90009808D01*
X147557801Y-89878374D01*
X147755192Y-89681327D01*
X147897838Y-89337799D01*
X147898162Y-88965833D01*
X147756117Y-88622057D01*
X147523291Y-88388824D01*
X147755192Y-88157327D01*
X147897838Y-87813799D01*
X147898162Y-87441833D01*
X147756117Y-87098057D01*
X147493327Y-86834808D01*
X147149799Y-86692162D01*
X146777833Y-86691838D01*
X146434057Y-86833883D01*
X146170808Y-87096673D01*
X146028162Y-87440201D01*
X146027838Y-87812167D01*
X136950327Y-87812167D01*
X136950359Y-87776200D01*
X136808314Y-87432424D01*
X136545524Y-87169175D01*
X136201996Y-87026529D01*
X135830030Y-87026205D01*
X135486254Y-87168250D01*
X135223005Y-87431040D01*
X135080359Y-87774568D01*
X135080035Y-88146534D01*
X130753101Y-88146534D01*
X130753162Y-88076833D01*
X130611117Y-87733057D01*
X130348327Y-87469808D01*
X130004799Y-87327162D01*
X129632833Y-87326838D01*
X129289057Y-87468883D01*
X129025808Y-87731673D01*
X128883162Y-88075201D01*
X128882838Y-88447167D01*
X129024883Y-88790943D01*
X129287673Y-89054192D01*
X129309350Y-89063193D01*
X129251259Y-89203090D01*
X129250935Y-89575056D01*
X129282921Y-89652467D01*
X129035057Y-89754882D01*
X128771808Y-90017672D01*
X128629162Y-90361200D01*
X128628838Y-90733166D01*
X102710000Y-90733166D01*
X102710000Y-89971173D01*
X107800838Y-89971173D01*
X107942883Y-90314949D01*
X108205673Y-90578198D01*
X108549201Y-90720844D01*
X108921167Y-90721168D01*
X109264943Y-90579123D01*
X109528192Y-90316333D01*
X109664069Y-89989106D01*
X109772951Y-89944117D01*
X110036200Y-89681327D01*
X110178846Y-89337799D01*
X110179170Y-88965833D01*
X110037125Y-88622057D01*
X109774335Y-88358808D01*
X109430807Y-88216162D01*
X109058841Y-88215838D01*
X108715065Y-88357883D01*
X108451816Y-88620673D01*
X108315939Y-88947900D01*
X108207057Y-88992889D01*
X107943808Y-89255679D01*
X107801162Y-89599207D01*
X107800838Y-89971173D01*
X102710000Y-89971173D01*
X102710000Y-87177167D01*
X102720838Y-87177167D01*
X102862883Y-87520943D01*
X103125673Y-87784192D01*
X103469201Y-87926838D01*
X103841167Y-87927162D01*
X104184943Y-87785117D01*
X104448192Y-87522327D01*
X104590838Y-87178799D01*
X104591162Y-86806833D01*
X104449117Y-86463057D01*
X104186327Y-86199808D01*
X104093270Y-86161167D01*
X105514838Y-86161167D01*
X105656883Y-86504943D01*
X105919673Y-86768192D01*
X105954919Y-86782827D01*
X105923318Y-86814373D01*
X105780672Y-87157901D01*
X105780348Y-87529867D01*
X105922393Y-87873643D01*
X106185183Y-88136892D01*
X106528711Y-88279538D01*
X106900677Y-88279862D01*
X107244453Y-88137817D01*
X107443450Y-87939166D01*
X110721837Y-87939166D01*
X110855383Y-88262372D01*
X110722162Y-88583201D01*
X110721838Y-88955167D01*
X110863883Y-89298943D01*
X111126673Y-89562192D01*
X111470201Y-89704838D01*
X111842167Y-89705162D01*
X112185943Y-89563117D01*
X112449192Y-89300327D01*
X112591838Y-88956799D01*
X112592162Y-88584833D01*
X112458616Y-88261627D01*
X112591837Y-87940798D01*
X112592161Y-87568832D01*
X112450116Y-87225056D01*
X112187326Y-86961807D01*
X111843798Y-86819161D01*
X111471832Y-86818837D01*
X111128056Y-86960882D01*
X110864807Y-87223672D01*
X110722161Y-87567200D01*
X110721837Y-87939166D01*
X107443450Y-87939166D01*
X107507702Y-87875027D01*
X107650348Y-87531499D01*
X107650672Y-87159533D01*
X107508627Y-86815757D01*
X107245837Y-86552508D01*
X107210591Y-86537873D01*
X107242192Y-86506327D01*
X107384838Y-86162799D01*
X107385162Y-85790833D01*
X107383535Y-85786894D01*
X118084937Y-85786894D01*
X118226982Y-86130670D01*
X118489772Y-86393919D01*
X118833300Y-86536565D01*
X119205266Y-86536889D01*
X119549042Y-86394844D01*
X119812291Y-86132054D01*
X119822049Y-86108554D01*
X119880883Y-86250943D01*
X120143673Y-86514192D01*
X120487201Y-86656838D01*
X120859167Y-86657162D01*
X121202943Y-86515117D01*
X121466192Y-86252327D01*
X121608838Y-85908799D01*
X121608950Y-85780167D01*
X121897838Y-85780167D01*
X122039883Y-86123943D01*
X122302673Y-86387192D01*
X122646201Y-86529838D01*
X123018167Y-86530162D01*
X123361943Y-86388117D01*
X123625192Y-86125327D01*
X123767838Y-85781799D01*
X123767889Y-85723208D01*
X127360397Y-85723208D01*
X127502442Y-86066984D01*
X127765232Y-86330233D01*
X128108760Y-86472879D01*
X128480726Y-86473203D01*
X128628133Y-86412296D01*
X128649096Y-86433296D01*
X128992624Y-86575942D01*
X129364590Y-86576266D01*
X129708366Y-86434221D01*
X129971615Y-86171431D01*
X130114261Y-85827903D01*
X130114585Y-85455937D01*
X129986178Y-85145167D01*
X131422838Y-85145167D01*
X131564883Y-85488943D01*
X131827673Y-85752192D01*
X132171201Y-85894838D01*
X132543167Y-85895162D01*
X132820089Y-85780740D01*
X132819838Y-86069169D01*
X132961883Y-86412945D01*
X133224673Y-86676194D01*
X133568201Y-86818840D01*
X133940167Y-86819164D01*
X134283943Y-86677119D01*
X134547192Y-86414329D01*
X134689838Y-86070801D01*
X134689987Y-85899835D01*
X134797343Y-86007379D01*
X135140871Y-86150025D01*
X135307040Y-86150170D01*
X135529724Y-86373243D01*
X135873252Y-86515889D01*
X136245218Y-86516213D01*
X136588994Y-86374168D01*
X136852243Y-86111378D01*
X136994889Y-85767850D01*
X136995213Y-85395884D01*
X136853168Y-85052108D01*
X136590378Y-84788859D01*
X136246850Y-84646213D01*
X136080681Y-84646068D01*
X135857997Y-84422995D01*
X135514469Y-84280349D01*
X135142503Y-84280025D01*
X134798727Y-84422070D01*
X134535478Y-84684860D01*
X134392832Y-85028388D01*
X134392683Y-85199354D01*
X134285327Y-85091810D01*
X133941799Y-84949164D01*
X133569833Y-84948840D01*
X133292911Y-85063262D01*
X133293162Y-84774833D01*
X133151117Y-84431057D01*
X132888327Y-84167808D01*
X132544799Y-84025162D01*
X132172833Y-84024838D01*
X131829057Y-84166883D01*
X131565808Y-84429673D01*
X131423162Y-84773201D01*
X131422838Y-85145167D01*
X129986178Y-85145167D01*
X129972540Y-85112161D01*
X129709750Y-84848912D01*
X129366222Y-84706266D01*
X128994256Y-84705942D01*
X128846849Y-84766849D01*
X128825886Y-84745849D01*
X128482358Y-84603203D01*
X128110392Y-84602879D01*
X127766616Y-84744924D01*
X127503367Y-85007714D01*
X127360721Y-85351242D01*
X127360397Y-85723208D01*
X123767889Y-85723208D01*
X123768162Y-85409833D01*
X123626117Y-85066057D01*
X123363327Y-84802808D01*
X123019799Y-84660162D01*
X122647833Y-84659838D01*
X122304057Y-84801883D01*
X122040808Y-85064673D01*
X121898162Y-85408201D01*
X121897838Y-85780167D01*
X121608950Y-85780167D01*
X121609162Y-85536833D01*
X121467117Y-85193057D01*
X121204327Y-84929808D01*
X120860799Y-84787162D01*
X120488833Y-84786838D01*
X120145057Y-84928883D01*
X119881808Y-85191673D01*
X119872050Y-85215173D01*
X119813216Y-85072784D01*
X119550426Y-84809535D01*
X119206898Y-84666889D01*
X118834932Y-84666565D01*
X118491156Y-84808610D01*
X118227907Y-85071400D01*
X118085261Y-85414928D01*
X118084937Y-85786894D01*
X107383535Y-85786894D01*
X107243117Y-85447057D01*
X106980327Y-85183808D01*
X106636799Y-85041162D01*
X106264833Y-85040838D01*
X105921057Y-85182883D01*
X105657808Y-85445673D01*
X105515162Y-85789201D01*
X105514838Y-86161167D01*
X104093270Y-86161167D01*
X103842799Y-86057162D01*
X103470833Y-86056838D01*
X103127057Y-86198883D01*
X102863808Y-86461673D01*
X102721162Y-86805201D01*
X102720838Y-87177167D01*
X102710000Y-87177167D01*
X102710000Y-85887157D01*
X102914193Y-85887335D01*
X103257969Y-85745290D01*
X103468542Y-85535084D01*
X103723201Y-85640828D01*
X104095167Y-85641152D01*
X104438943Y-85499107D01*
X104702192Y-85236317D01*
X104844838Y-84892789D01*
X104845162Y-84520823D01*
X104703117Y-84177047D01*
X104440327Y-83913798D01*
X104096799Y-83771152D01*
X103724833Y-83770828D01*
X103381057Y-83912873D01*
X103170484Y-84123079D01*
X102915825Y-84017335D01*
X102710000Y-84017156D01*
X102710000Y-82986167D01*
X102720838Y-82986167D01*
X102862883Y-83329943D01*
X103125673Y-83593192D01*
X103469201Y-83735838D01*
X103841167Y-83736162D01*
X104184943Y-83594117D01*
X104412289Y-83367167D01*
X126850838Y-83367167D01*
X126992883Y-83710943D01*
X127255673Y-83974192D01*
X127599201Y-84116838D01*
X127971167Y-84117162D01*
X128314943Y-83975117D01*
X128415067Y-83875167D01*
X137645838Y-83875167D01*
X137787883Y-84218943D01*
X138050673Y-84482192D01*
X138394201Y-84624838D01*
X138668155Y-84625077D01*
X138606648Y-84773201D01*
X138606324Y-85145167D01*
X138748369Y-85488943D01*
X139011159Y-85752192D01*
X139354687Y-85894838D01*
X139726653Y-85895162D01*
X140070429Y-85753117D01*
X140333678Y-85490327D01*
X140476324Y-85146799D01*
X140476648Y-84774833D01*
X140334603Y-84431057D01*
X140071813Y-84167808D01*
X139728285Y-84025162D01*
X139454331Y-84024923D01*
X139477922Y-83968110D01*
X153395524Y-83968110D01*
X153516845Y-84198000D01*
X154710000Y-84198000D01*
X154710000Y-83004181D01*
X154964000Y-83004181D01*
X154964000Y-84198000D01*
X157250000Y-84198000D01*
X157250000Y-83004181D01*
X157504000Y-83004181D01*
X157504000Y-84198000D01*
X158697155Y-84198000D01*
X158818476Y-83968110D01*
X158648645Y-83558076D01*
X158258358Y-83129817D01*
X157733892Y-82883514D01*
X157504000Y-83004181D01*
X157250000Y-83004181D01*
X157020108Y-82883514D01*
X156495642Y-83129817D01*
X156107000Y-83556271D01*
X155718358Y-83129817D01*
X155193892Y-82883514D01*
X154964000Y-83004181D01*
X154710000Y-83004181D01*
X154480108Y-82883514D01*
X153955642Y-83129817D01*
X153565355Y-83558076D01*
X153395524Y-83968110D01*
X139477922Y-83968110D01*
X139515838Y-83876799D01*
X139516162Y-83504833D01*
X139374117Y-83161057D01*
X139111327Y-82897808D01*
X138767799Y-82755162D01*
X138395833Y-82754838D01*
X138052057Y-82896883D01*
X137788808Y-83159673D01*
X137646162Y-83503201D01*
X137645838Y-83875167D01*
X128415067Y-83875167D01*
X128578192Y-83712327D01*
X128720838Y-83368799D01*
X128721162Y-82996833D01*
X128579117Y-82653057D01*
X128316327Y-82389808D01*
X127972799Y-82247162D01*
X127600833Y-82246838D01*
X127257057Y-82388883D01*
X126993808Y-82651673D01*
X126851162Y-82995201D01*
X126850838Y-83367167D01*
X104412289Y-83367167D01*
X104448192Y-83331327D01*
X104590838Y-82987799D01*
X104591162Y-82615833D01*
X104534280Y-82478167D01*
X110086838Y-82478167D01*
X110228883Y-82821943D01*
X110491673Y-83085192D01*
X110835201Y-83227838D01*
X111207167Y-83228162D01*
X111550943Y-83086117D01*
X111814192Y-82823327D01*
X111956838Y-82479799D01*
X111957162Y-82107833D01*
X111815117Y-81764057D01*
X111552327Y-81500808D01*
X111208799Y-81358162D01*
X110836833Y-81357838D01*
X110493057Y-81499883D01*
X110229808Y-81762673D01*
X110087162Y-82106201D01*
X110086838Y-82478167D01*
X104534280Y-82478167D01*
X104449117Y-82272057D01*
X104186327Y-82008808D01*
X103842799Y-81866162D01*
X103470833Y-81865838D01*
X103127057Y-82007883D01*
X102863808Y-82270673D01*
X102721162Y-82614201D01*
X102720838Y-82986167D01*
X102710000Y-82986167D01*
X102710000Y-80827167D01*
X102720838Y-80827167D01*
X102862883Y-81170943D01*
X103125673Y-81434192D01*
X103469201Y-81576838D01*
X103841167Y-81577162D01*
X104184943Y-81435117D01*
X104448192Y-81172327D01*
X104590838Y-80828799D01*
X104591060Y-80573167D01*
X112372838Y-80573167D01*
X112514883Y-80916943D01*
X112777673Y-81180192D01*
X113121201Y-81322838D01*
X113493167Y-81323162D01*
X113836943Y-81181117D01*
X114070176Y-80948291D01*
X114301673Y-81180192D01*
X114645201Y-81322838D01*
X115017167Y-81323162D01*
X115360943Y-81181117D01*
X115588289Y-80954167D01*
X121389838Y-80954167D01*
X121531883Y-81297943D01*
X121794673Y-81561192D01*
X122138201Y-81703838D01*
X122510167Y-81704162D01*
X122853943Y-81562117D01*
X123117192Y-81299327D01*
X123259838Y-80955799D01*
X123260162Y-80583833D01*
X123118117Y-80240057D01*
X122855327Y-79976808D01*
X122511799Y-79834162D01*
X122139833Y-79833838D01*
X121796057Y-79975883D01*
X121532808Y-80238673D01*
X121390162Y-80582201D01*
X121389838Y-80954167D01*
X115588289Y-80954167D01*
X115624192Y-80918327D01*
X115766838Y-80574799D01*
X115767162Y-80202833D01*
X115625117Y-79859057D01*
X115362327Y-79595808D01*
X115018799Y-79453162D01*
X114646833Y-79452838D01*
X114303057Y-79594883D01*
X114069824Y-79827709D01*
X113838327Y-79595808D01*
X113494799Y-79453162D01*
X113122833Y-79452838D01*
X112779057Y-79594883D01*
X112515808Y-79857673D01*
X112373162Y-80201201D01*
X112372838Y-80573167D01*
X104591060Y-80573167D01*
X104591162Y-80456833D01*
X104449117Y-80113057D01*
X104186327Y-79849808D01*
X103842799Y-79707162D01*
X103470833Y-79706838D01*
X103127057Y-79848883D01*
X102863808Y-80111673D01*
X102721162Y-80455201D01*
X102720838Y-80827167D01*
X102710000Y-80827167D01*
X102710000Y-79176167D01*
X109832838Y-79176167D01*
X109974883Y-79519943D01*
X110237673Y-79783192D01*
X110581201Y-79925838D01*
X110953167Y-79926162D01*
X111296943Y-79784117D01*
X111560192Y-79521327D01*
X111702838Y-79177799D01*
X111703162Y-78805833D01*
X111561117Y-78462057D01*
X111298327Y-78198808D01*
X111205270Y-78160167D01*
X116817838Y-78160167D01*
X116959883Y-78503943D01*
X117222673Y-78767192D01*
X117566201Y-78909838D01*
X117938167Y-78910162D01*
X118281943Y-78768117D01*
X118545192Y-78505327D01*
X118687838Y-78161799D01*
X118687950Y-78033167D01*
X119992838Y-78033167D01*
X120134883Y-78376943D01*
X120397673Y-78640192D01*
X120741201Y-78782838D01*
X121113167Y-78783162D01*
X121391476Y-78668167D01*
X122024838Y-78668167D01*
X122166883Y-79011943D01*
X122429673Y-79275192D01*
X122773201Y-79417838D01*
X123145167Y-79418162D01*
X123488943Y-79276117D01*
X123716289Y-79049167D01*
X126442829Y-79049167D01*
X126584874Y-79392943D01*
X126847664Y-79656192D01*
X127191192Y-79798838D01*
X127306867Y-79798939D01*
X127120808Y-79984673D01*
X126978162Y-80328201D01*
X126977838Y-80700167D01*
X127119883Y-81043943D01*
X127382673Y-81307192D01*
X127716643Y-81445869D01*
X127716583Y-81515208D01*
X127858628Y-81858984D01*
X128121418Y-82122233D01*
X128464946Y-82264879D01*
X128836912Y-82265203D01*
X129180688Y-82123158D01*
X129239708Y-82064240D01*
X129371430Y-82196192D01*
X129714958Y-82338838D01*
X130086924Y-82339162D01*
X130430700Y-82197117D01*
X130693949Y-81934327D01*
X130836595Y-81590799D01*
X130836919Y-81218833D01*
X130694874Y-80875057D01*
X130432084Y-80611808D01*
X130220402Y-80523910D01*
X130103117Y-80240057D01*
X130055311Y-80192167D01*
X134216838Y-80192167D01*
X134358883Y-80535943D01*
X134621673Y-80799192D01*
X134965201Y-80941838D01*
X135337167Y-80942162D01*
X135680943Y-80800117D01*
X135944192Y-80537327D01*
X136086838Y-80193799D01*
X136087162Y-79821833D01*
X135945117Y-79478057D01*
X135682327Y-79214808D01*
X135338799Y-79072162D01*
X134966833Y-79071838D01*
X134623057Y-79213883D01*
X134359808Y-79476673D01*
X134217162Y-79820201D01*
X134216838Y-80192167D01*
X130055311Y-80192167D01*
X129840327Y-79976808D01*
X129496799Y-79834162D01*
X129124833Y-79833838D01*
X128781057Y-79975883D01*
X128725025Y-80031817D01*
X128706117Y-79986057D01*
X128443327Y-79722808D01*
X128099799Y-79580162D01*
X127984124Y-79580061D01*
X128170183Y-79394327D01*
X128312829Y-79050799D01*
X128313153Y-78678833D01*
X128171108Y-78335057D01*
X127908318Y-78071808D01*
X127564790Y-77929162D01*
X127192824Y-77928838D01*
X126849048Y-78070883D01*
X126585799Y-78333673D01*
X126443153Y-78677201D01*
X126442829Y-79049167D01*
X123716289Y-79049167D01*
X123752192Y-79013327D01*
X123894838Y-78669799D01*
X123895162Y-78297833D01*
X123753117Y-77954057D01*
X123578532Y-77779167D01*
X138280838Y-77779167D01*
X138422883Y-78122943D01*
X138685673Y-78386192D01*
X139029201Y-78528838D01*
X139401167Y-78529162D01*
X139744943Y-78387117D01*
X140008192Y-78124327D01*
X140150838Y-77780799D01*
X140151162Y-77408833D01*
X140009117Y-77065057D01*
X139746327Y-76801808D01*
X139402799Y-76659162D01*
X139030833Y-76658838D01*
X138687057Y-76800883D01*
X138423808Y-77063673D01*
X138281162Y-77407201D01*
X138280838Y-77779167D01*
X123578532Y-77779167D01*
X123490327Y-77690808D01*
X123146799Y-77548162D01*
X122774833Y-77547838D01*
X122431057Y-77689883D01*
X122167808Y-77952673D01*
X122025162Y-78296201D01*
X122024838Y-78668167D01*
X121391476Y-78668167D01*
X121456943Y-78641117D01*
X121720192Y-78378327D01*
X121862838Y-78034799D01*
X121863162Y-77662833D01*
X121721117Y-77319057D01*
X121458327Y-77055808D01*
X121114799Y-76913162D01*
X120742833Y-76912838D01*
X120399057Y-77054883D01*
X120135808Y-77317673D01*
X119993162Y-77661201D01*
X119992838Y-78033167D01*
X118687950Y-78033167D01*
X118688162Y-77789833D01*
X118546117Y-77446057D01*
X118283327Y-77182808D01*
X117939799Y-77040162D01*
X117567833Y-77039838D01*
X117224057Y-77181883D01*
X116960808Y-77444673D01*
X116818162Y-77788201D01*
X116817838Y-78160167D01*
X111205270Y-78160167D01*
X110954799Y-78056162D01*
X110582833Y-78055838D01*
X110239057Y-78197883D01*
X109975808Y-78460673D01*
X109833162Y-78804201D01*
X109832838Y-79176167D01*
X102710000Y-79176167D01*
X102710000Y-78732237D01*
X102871673Y-78894192D01*
X103215201Y-79036838D01*
X103587167Y-79037162D01*
X103930943Y-78895117D01*
X104194192Y-78632327D01*
X104336838Y-78288799D01*
X104337162Y-77916833D01*
X104312281Y-77856616D01*
X104325711Y-77843210D01*
X104468357Y-77499682D01*
X104468681Y-77127716D01*
X104398536Y-76957952D01*
X104498879Y-76716301D01*
X104498838Y-76763167D01*
X104579778Y-76959057D01*
X104499162Y-77153201D01*
X104498838Y-77525167D01*
X104579778Y-77721057D01*
X104499162Y-77915201D01*
X104498838Y-78287167D01*
X104640883Y-78630943D01*
X104903673Y-78894192D01*
X105247201Y-79036838D01*
X105619167Y-79037162D01*
X105962943Y-78895117D01*
X106226192Y-78632327D01*
X106368838Y-78288799D01*
X106369162Y-77916833D01*
X106288222Y-77720943D01*
X106368838Y-77526799D01*
X106369162Y-77154833D01*
X106288222Y-76958943D01*
X106368838Y-76764799D01*
X106368839Y-76763167D01*
X122913838Y-76763167D01*
X123055883Y-77106943D01*
X123318673Y-77370192D01*
X123662201Y-77512838D01*
X124034167Y-77513162D01*
X124377943Y-77371117D01*
X124641192Y-77108327D01*
X124783838Y-76764799D01*
X124784162Y-76392833D01*
X124674805Y-76128167D01*
X145646838Y-76128167D01*
X145788883Y-76471943D01*
X146051673Y-76735192D01*
X146395201Y-76877838D01*
X146767167Y-76878162D01*
X146991206Y-76785591D01*
X147067673Y-76862192D01*
X147411201Y-77004838D01*
X147783167Y-77005162D01*
X148069764Y-76886743D01*
X148253157Y-76962895D01*
X148625123Y-76963219D01*
X148968899Y-76821174D01*
X149154229Y-76636167D01*
X154028838Y-76636167D01*
X154170883Y-76979943D01*
X154433673Y-77243192D01*
X154777201Y-77385838D01*
X155149167Y-77386162D01*
X155492943Y-77244117D01*
X155756192Y-76981327D01*
X155898838Y-76637799D01*
X155899162Y-76265833D01*
X155757117Y-75922057D01*
X155494327Y-75658808D01*
X155150799Y-75516162D01*
X154778833Y-75515838D01*
X154435057Y-75657883D01*
X154171808Y-75920673D01*
X154029162Y-76264201D01*
X154028838Y-76636167D01*
X149154229Y-76636167D01*
X149232148Y-76558384D01*
X149336297Y-76307567D01*
X149512906Y-76234594D01*
X149776155Y-75971804D01*
X149918801Y-75628276D01*
X149919125Y-75256310D01*
X149777080Y-74912534D01*
X149514290Y-74649285D01*
X149170762Y-74506639D01*
X148798796Y-74506315D01*
X148455020Y-74648360D01*
X148191771Y-74911150D01*
X148087622Y-75161967D01*
X147968192Y-75211314D01*
X147784799Y-75135162D01*
X147412833Y-75134838D01*
X147188794Y-75227409D01*
X147112327Y-75150808D01*
X146768799Y-75008162D01*
X146396833Y-75007838D01*
X146053057Y-75149883D01*
X145789808Y-75412673D01*
X145647162Y-75756201D01*
X145646838Y-76128167D01*
X124674805Y-76128167D01*
X124642117Y-76049057D01*
X124379327Y-75785808D01*
X124035799Y-75643162D01*
X123663833Y-75642838D01*
X123320057Y-75784883D01*
X123056808Y-76047673D01*
X122914162Y-76391201D01*
X122913838Y-76763167D01*
X106368839Y-76763167D01*
X106369162Y-76392833D01*
X106227117Y-76049057D01*
X105964327Y-75785808D01*
X105620799Y-75643162D01*
X105248833Y-75642838D01*
X104905057Y-75784883D01*
X104641808Y-76047673D01*
X104531759Y-76312699D01*
X104531800Y-76265833D01*
X104389755Y-75922057D01*
X104126965Y-75658808D01*
X103783437Y-75516162D01*
X103411471Y-75515838D01*
X103067695Y-75657883D01*
X102804446Y-75920673D01*
X102710000Y-76148123D01*
X102710000Y-71500000D01*
X103290000Y-71500000D01*
X103458226Y-72345730D01*
X103937294Y-73062706D01*
X104654270Y-73541774D01*
X105500000Y-73710000D01*
X106345730Y-73541774D01*
X107062706Y-73062706D01*
X107541774Y-72345730D01*
X107626854Y-71918000D01*
X108889560Y-71918000D01*
X108889560Y-73618000D01*
X108933838Y-73853317D01*
X109072910Y-74069441D01*
X109285110Y-74214431D01*
X109537000Y-74265440D01*
X111237000Y-74265440D01*
X111472317Y-74221162D01*
X111688441Y-74082090D01*
X111833431Y-73869890D01*
X111847086Y-73802459D01*
X111876946Y-73847147D01*
X112358715Y-74169054D01*
X112927000Y-74282093D01*
X113495285Y-74169054D01*
X113977054Y-73847147D01*
X114197000Y-73517974D01*
X114416946Y-73847147D01*
X114898715Y-74169054D01*
X115467000Y-74282093D01*
X116035285Y-74169054D01*
X116517054Y-73847147D01*
X116737000Y-73517974D01*
X116956946Y-73847147D01*
X117438715Y-74169054D01*
X118007000Y-74282093D01*
X118575285Y-74169054D01*
X119057054Y-73847147D01*
X119277000Y-73517974D01*
X119496946Y-73847147D01*
X119978715Y-74169054D01*
X120547000Y-74282093D01*
X121115285Y-74169054D01*
X121597054Y-73847147D01*
X121817000Y-73517974D01*
X122036946Y-73847147D01*
X122518715Y-74169054D01*
X123087000Y-74282093D01*
X123655285Y-74169054D01*
X124137054Y-73847147D01*
X124357000Y-73517974D01*
X124576946Y-73847147D01*
X125058715Y-74169054D01*
X125627000Y-74282093D01*
X126195285Y-74169054D01*
X126677054Y-73847147D01*
X126897000Y-73517974D01*
X127116946Y-73847147D01*
X127598715Y-74169054D01*
X128167000Y-74282093D01*
X128735285Y-74169054D01*
X129217054Y-73847147D01*
X129437000Y-73517974D01*
X129656946Y-73847147D01*
X130138715Y-74169054D01*
X130707000Y-74282093D01*
X131275285Y-74169054D01*
X131757054Y-73847147D01*
X131977000Y-73517974D01*
X132196946Y-73847147D01*
X132678715Y-74169054D01*
X133247000Y-74282093D01*
X133815285Y-74169054D01*
X134297054Y-73847147D01*
X134517000Y-73517974D01*
X134736946Y-73847147D01*
X135218715Y-74169054D01*
X135787000Y-74282093D01*
X136355285Y-74169054D01*
X136837054Y-73847147D01*
X137057000Y-73517974D01*
X137276946Y-73847147D01*
X137758715Y-74169054D01*
X138327000Y-74282093D01*
X138895285Y-74169054D01*
X139377054Y-73847147D01*
X139597000Y-73517974D01*
X139816946Y-73847147D01*
X140298715Y-74169054D01*
X140867000Y-74282093D01*
X141435285Y-74169054D01*
X141917054Y-73847147D01*
X142137000Y-73517974D01*
X142356946Y-73847147D01*
X142838715Y-74169054D01*
X143407000Y-74282093D01*
X143975285Y-74169054D01*
X144457054Y-73847147D01*
X144677000Y-73517974D01*
X144896946Y-73847147D01*
X145378715Y-74169054D01*
X145947000Y-74282093D01*
X146515285Y-74169054D01*
X146997054Y-73847147D01*
X147217000Y-73517974D01*
X147436946Y-73847147D01*
X147918715Y-74169054D01*
X148487000Y-74282093D01*
X149055285Y-74169054D01*
X149537054Y-73847147D01*
X149757000Y-73517974D01*
X149976946Y-73847147D01*
X150458715Y-74169054D01*
X151027000Y-74282093D01*
X151595285Y-74169054D01*
X152077054Y-73847147D01*
X152297000Y-73517974D01*
X152516946Y-73847147D01*
X152998715Y-74169054D01*
X153567000Y-74282093D01*
X154135285Y-74169054D01*
X154617054Y-73847147D01*
X154837000Y-73517974D01*
X155056946Y-73847147D01*
X155538715Y-74169054D01*
X156107000Y-74282093D01*
X156675285Y-74169054D01*
X157157054Y-73847147D01*
X157377000Y-73517974D01*
X157596946Y-73847147D01*
X158078715Y-74169054D01*
X158647000Y-74282093D01*
X159215285Y-74169054D01*
X159697054Y-73847147D01*
X160018961Y-73365378D01*
X160132000Y-72797093D01*
X160132000Y-72738907D01*
X160018961Y-72170622D01*
X159697054Y-71688853D01*
X159414416Y-71500000D01*
X161290000Y-71500000D01*
X161458226Y-72345730D01*
X161937294Y-73062706D01*
X162654270Y-73541774D01*
X163500000Y-73710000D01*
X164345730Y-73541774D01*
X165062706Y-73062706D01*
X165541774Y-72345730D01*
X165710000Y-71500000D01*
X165541774Y-70654270D01*
X165062706Y-69937294D01*
X164345730Y-69458226D01*
X163500000Y-69290000D01*
X162654270Y-69458226D01*
X161937294Y-69937294D01*
X161458226Y-70654270D01*
X161290000Y-71500000D01*
X159414416Y-71500000D01*
X159411422Y-71498000D01*
X159697054Y-71307147D01*
X160018961Y-70825378D01*
X160132000Y-70257093D01*
X160132000Y-70198907D01*
X160018961Y-69630622D01*
X159697054Y-69148853D01*
X159215285Y-68826946D01*
X158647000Y-68713907D01*
X158078715Y-68826946D01*
X157596946Y-69148853D01*
X157377000Y-69478026D01*
X157157054Y-69148853D01*
X156675285Y-68826946D01*
X156107000Y-68713907D01*
X155538715Y-68826946D01*
X155056946Y-69148853D01*
X154837000Y-69478026D01*
X154617054Y-69148853D01*
X154135285Y-68826946D01*
X153567000Y-68713907D01*
X152998715Y-68826946D01*
X152516946Y-69148853D01*
X152297000Y-69478026D01*
X152077054Y-69148853D01*
X151595285Y-68826946D01*
X151027000Y-68713907D01*
X150458715Y-68826946D01*
X149976946Y-69148853D01*
X149757000Y-69478026D01*
X149537054Y-69148853D01*
X149055285Y-68826946D01*
X148487000Y-68713907D01*
X147918715Y-68826946D01*
X147436946Y-69148853D01*
X147217000Y-69478026D01*
X146997054Y-69148853D01*
X146515285Y-68826946D01*
X145947000Y-68713907D01*
X145378715Y-68826946D01*
X144896946Y-69148853D01*
X144677000Y-69478026D01*
X144457054Y-69148853D01*
X143975285Y-68826946D01*
X143407000Y-68713907D01*
X142838715Y-68826946D01*
X142356946Y-69148853D01*
X142137000Y-69478026D01*
X141917054Y-69148853D01*
X141435285Y-68826946D01*
X140867000Y-68713907D01*
X140298715Y-68826946D01*
X139816946Y-69148853D01*
X139597000Y-69478026D01*
X139377054Y-69148853D01*
X138895285Y-68826946D01*
X138327000Y-68713907D01*
X137758715Y-68826946D01*
X137276946Y-69148853D01*
X137057000Y-69478026D01*
X136837054Y-69148853D01*
X136355285Y-68826946D01*
X135787000Y-68713907D01*
X135218715Y-68826946D01*
X134736946Y-69148853D01*
X134517000Y-69478026D01*
X134297054Y-69148853D01*
X133815285Y-68826946D01*
X133247000Y-68713907D01*
X132678715Y-68826946D01*
X132196946Y-69148853D01*
X131977000Y-69478026D01*
X131757054Y-69148853D01*
X131275285Y-68826946D01*
X130707000Y-68713907D01*
X130138715Y-68826946D01*
X129656946Y-69148853D01*
X129437000Y-69478026D01*
X129217054Y-69148853D01*
X128735285Y-68826946D01*
X128167000Y-68713907D01*
X127598715Y-68826946D01*
X127116946Y-69148853D01*
X126897000Y-69478026D01*
X126677054Y-69148853D01*
X126195285Y-68826946D01*
X125627000Y-68713907D01*
X125058715Y-68826946D01*
X124576946Y-69148853D01*
X124357000Y-69478026D01*
X124137054Y-69148853D01*
X123655285Y-68826946D01*
X123087000Y-68713907D01*
X122518715Y-68826946D01*
X122036946Y-69148853D01*
X121817000Y-69478026D01*
X121597054Y-69148853D01*
X121115285Y-68826946D01*
X120547000Y-68713907D01*
X119978715Y-68826946D01*
X119496946Y-69148853D01*
X119277000Y-69478026D01*
X119057054Y-69148853D01*
X118575285Y-68826946D01*
X118007000Y-68713907D01*
X117438715Y-68826946D01*
X116956946Y-69148853D01*
X116737000Y-69478026D01*
X116517054Y-69148853D01*
X116035285Y-68826946D01*
X115467000Y-68713907D01*
X114898715Y-68826946D01*
X114416946Y-69148853D01*
X114197000Y-69478026D01*
X113977054Y-69148853D01*
X113495285Y-68826946D01*
X112927000Y-68713907D01*
X112358715Y-68826946D01*
X111876946Y-69148853D01*
X111657000Y-69478026D01*
X111437054Y-69148853D01*
X110955285Y-68826946D01*
X110387000Y-68713907D01*
X109818715Y-68826946D01*
X109336946Y-69148853D01*
X109015039Y-69630622D01*
X108902000Y-70198907D01*
X108902000Y-70257093D01*
X109015039Y-70825378D01*
X109336946Y-71307147D01*
X109338179Y-71307971D01*
X109301683Y-71314838D01*
X109085559Y-71453910D01*
X108940569Y-71666110D01*
X108889560Y-71918000D01*
X107626854Y-71918000D01*
X107710000Y-71500000D01*
X107541774Y-70654270D01*
X107062706Y-69937294D01*
X106345730Y-69458226D01*
X105500000Y-69290000D01*
X104654270Y-69458226D01*
X103937294Y-69937294D01*
X103458226Y-70654270D01*
X103290000Y-71500000D01*
X102710000Y-71500000D01*
X102710000Y-71069931D01*
X102897167Y-70128977D01*
X103390561Y-69390561D01*
X104128977Y-68897167D01*
X105069931Y-68710000D01*
X166373000Y-68710000D01*
X166373000Y-88357608D01*
M02*
